<?xml version="1.0" standalone="no"?>
<!DOCTYPE svg PUBLIC "-//W3C//DTD SVG 1.1//EN" "http://www.w3.org/Graphics/SVG/1.1/DTD/svg11.dtd" >
<svg xmlns="http://www.w3.org/2000/svg" xmlns:xlink="http://www.w3.org/1999/xlink" version="1.1">
<metadata>
Created by FontForge 20161003 at Tue Nov 15 17:43:32 2016
 By www-data
Copyright (c) Michael Hagemann www.fontmesa.com, 2007. All rights reserved.
</metadata>
<defs>
<font id="CountryWesternBlack" horiz-adv-x="509" >
  <font-face 
    font-family="CountryWesternBlack"
    font-weight="400"
    font-stretch="normal"
    units-per-em="1000"
    panose-1="2 0 0 0 0 0 0 0 0 0"
    ascent="730"
    descent="-270"
    x-height="452"
    cap-height="708"
    bbox="-50 -350 1732 883"
    underline-thickness="50"
    underline-position="-150"
    unicode-range="U+000D-2122"
  />
<missing-glyph horiz-adv-x="400" 
d="M100 50h200v600h-200v-600zM50 700h300v-700h-300v700z" />
    <glyph glyph-name=".notdef" horiz-adv-x="400" 
d="M100 50h200v600h-200v-600zM50 700h300v-700h-300v700z" />
    <glyph glyph-name=".null" horiz-adv-x="570" 
 />
    <glyph glyph-name=".null" horiz-adv-x="570" 
 />
    <glyph glyph-name="nonmarkingreturn" unicode="&#xd;" horiz-adv-x="570" 
 />
    <glyph glyph-name="space" unicode=" " horiz-adv-x="456" 
 />
    <glyph glyph-name="exclam" unicode="!" horiz-adv-x="278" 
d="M134 724q45 0 72.5 -37.5t27.5 -97.5q0 -43 -9 -86t-20.5 -89t-21.5 -96t-11 -105h-78q-3 55 -13 105t-20.5 96t-19 89t-8.5 86q0 60 26.5 97.5t74.5 37.5zM57 54q0 34 22 57t56 23t56 -23t22 -57q0 -33 -22 -55t-56 -22t-56 22.5t-22 54.5z" />
    <glyph glyph-name="quotedbl" unicode="&#x22;" horiz-adv-x="394" 
d="M113 567q-35 0 -52 23.5t-17 56.5q0 34 20.5 57t50.5 23q31 0 52.5 -22.5t21.5 -67.5q0 -20 -5 -48t-17.5 -57t-32.5 -57t-50 -49l-20 20q28 27 48.5 63.5t24.5 65.5q-5 -3 -11 -5.5t-13 -2.5zM283 567q-34 0 -51 23.5t-17 56.5q0 34 20.5 57t49.5 23q32 0 53.5 -22.5
t21.5 -67.5q0 -20 -5 -48t-17.5 -57t-32.5 -57t-50 -49l-21 20q28 27 49 63.5t24 65.5q-5 -3 -11 -5.5t-13 -2.5z" />
    <glyph glyph-name="numbersign" unicode="#" horiz-adv-x="480" 
d="M162 287h107l29 123h-107zM256 223h-110l-47 -210h-65l47 210h-70l14 64h70l28 123h-70l13 64h70l50 219h66l-50 -219h108l51 219h66l-51 -219h71l-12 -64h-72l-29 -123h72l-14 -64h-74l-44 -210h-65z" />
    <glyph glyph-name="dollar" unicode="$" horiz-adv-x="508" 
d="M486 204q0 -49 -14.5 -84.5t-41.5 -58.5t-65 -35.5t-84 -14.5v-49h-58v49q-29 5 -62.5 17.5t-62 35t-47 55t-18.5 77.5q0 16 4 32t12.5 28.5t22 20t32.5 7.5q31 0 50.5 -23t19.5 -57q0 -27 -13.5 -42t-32.5 -15q-14 0 -25.5 5.5t-20.5 27.5q3 -33 18 -55t35.5 -35
t43.5 -19.5t44 -9.5v226q-36 17 -70 35.5t-60.5 44.5t-42 62t-15.5 88q0 48 15.5 80.5t41.5 53t60 30.5t71 12v50h58v-50q24 -1 54.5 -9t58.5 -25t47 -44t19 -66q0 -33 -15.5 -58.5t-53.5 -25.5q-35 0 -55 20.5t-20 50.5q0 29 11 42t31 13q15 0 22.5 -9t11.5 -20q4 3 4 15
q0 14 -11.5 26.5t-28.5 21.5t-37 14.5t-38 6.5v-198q37 -15 74 -34t66 -47t47 -67.5t18 -95.5zM369 151q0 44 -26.5 71.5t-61.5 44.5v-207q37 3 62.5 23.5t25.5 67.5zM223 647q-41 -3 -66.5 -22.5t-25.5 -59.5q0 -32 23.5 -54t68.5 -42v178z" />
    <glyph glyph-name="percent" unicode="%" horiz-adv-x="751" 
d="M548 709h67l-418 -709h-64zM549 319q-22 0 -40 -34t-18 -115q0 -25 3 -51.5t9.5 -48.5t17.5 -36t28 -14q15 0 26.5 11.5t19 31.5t11.5 47.5t4 59.5q0 73 -16.5 111t-44.5 38zM380 170q0 44 12.5 80t35 61.5t53.5 39.5t68 14q36 0 67 -13.5t53.5 -39t35.5 -61.5t13 -81
q0 -48 -13 -84.5t-35.5 -61t-53.5 -37t-67 -12.5q-37 0 -68 13.5t-53.5 39t-35 61.5t-12.5 81zM187 676q-11 0 -21.5 -8t-18.5 -26t-13 -46.5t-5 -69.5q0 -25 3 -51.5t9.5 -48t17.5 -35.5t28 -14q15 0 26.5 11.5t19 31.5t11.5 47t4 59q0 73 -16.5 111.5t-44.5 38.5zM19 526
q0 44 12.5 80t34.5 61.5t53 39.5t68 14q36 0 67 -13.5t53.5 -39t35.5 -61.5t13 -81q0 -48 -13 -84.5t-35.5 -60.5t-53.5 -36.5t-67 -12.5q-37 0 -68 13.5t-53 39t-34.5 61.5t-12.5 80z" />
    <glyph glyph-name="ampersand" unicode="&#x26;" horiz-adv-x="684" 
d="M318 715q77 0 117 -40t40 -103q0 -56 -29 -93t-83 -61q12 -25 28.5 -56t34.5 -63.5t36.5 -63.5t34.5 -55q20 23 28.5 45t8.5 39q0 19 -11 34t-38 15v42h155v-42q-20 0 -33.5 -12t-16.5 -33q-6 -39 -22.5 -69t-42.5 -57q13 -24 27 -33.5t29 -9.5q14 0 25.5 6.5t16.5 26.5
h44q0 -38 -10.5 -65.5t-28.5 -45.5t-42.5 -26.5t-52.5 -8.5q-45 0 -74.5 16t-51.5 42q-29 -20 -74.5 -35t-98.5 -15q-47 0 -86 13.5t-67 38.5t-43.5 61t-15.5 82q0 53 17 91.5t43 67t58 47.5t62 33q-6 13 -14 30.5t-15.5 37t-12.5 39t-5 37.5q0 69 44.5 106t118.5 37z
M338 647q-20 0 -35 -11t-15 -38q0 -9 4 -23.5t10 -30.5t13 -31t13 -26q32 15 50 40.5t18 58.5q0 25 -14.5 43t-43.5 18zM243 341q-24 -17 -46 -54t-22 -88q0 -61 29.5 -97t83.5 -36q23 0 48 6.5t44 17.5q-17 22 -35 53t-36 65.5t-35 69t-31 63.5z" />
    <glyph glyph-name="quotesingle" unicode="'" horiz-adv-x="249" 
d="M122 570q-35 0 -56.5 22t-21.5 55q0 34 22 57t57 23q33 0 57.5 -22t24.5 -67q0 -20 -6.5 -47.5t-21.5 -56.5t-38 -56.5t-56 -47.5l-19 17q16 13 30.5 29t25.5 33.5t18 34t9 31.5q-6 -2 -11.5 -3.5t-13.5 -1.5z" />
    <glyph glyph-name="parenleft" unicode="(" horiz-adv-x="299" 
d="M247 711q-21 -33 -35 -76t-23 -90.5t-12.5 -96.5t-3.5 -93q0 -41 4 -86.5t13 -91.5t25 -89t40 -80l-27 -44q-49 30 -83.5 74t-57 95.5t-33 108t-10.5 113.5t9.5 115t30.5 111t53.5 97.5t79.5 73.5z" />
    <glyph glyph-name="parenright" unicode=")" horiz-adv-x="299" 
d="M70 752q47 -29 80 -71.5t54 -94t30.5 -109.5t9.5 -118q0 -57 -10.5 -114t-32.5 -109.5t-56.5 -96t-82.5 -73.5l-29 42q24 37 39.5 81t25.5 90t14 92.5t4 87.5q0 44 -4 92t-13 94.5t-23 89.5t-34 76z" />
    <glyph glyph-name="asterisk" unicode="*" horiz-adv-x="329" 
d="M159 544q-3 -12 -5 -29.5t-8 -34t-18.5 -28t-34.5 -11.5q-17 0 -30 9t-13 26t8.5 31t21 25t26.5 20t25 15q-19 -2 -33.5 -4t-33.5 -2t-35 9.5t-16 35.5q0 17 10 28t27 11q26 0 49.5 -15.5t39.5 -31.5q-6 17 -12.5 43.5t-6.5 44.5q0 23 12.5 34.5t29.5 11.5
q15 0 27.5 -11.5t12.5 -34.5q0 -18 -8.5 -43t-16.5 -45q19 15 41.5 31t46.5 16q20 0 31 -10.5t11 -30.5q0 -25 -14 -33.5t-33 -8.5q-20 0 -38 1t-36 4q14 -6 28.5 -14.5t26.5 -20t19.5 -25.5t7.5 -31t-11 -26t-25 -9q-23 0 -36.5 11.5t-20.5 28t-10 34t-6 29.5z" />
    <glyph glyph-name="plus" unicode="+" horiz-adv-x="402" 
d="M157 164v137h-126v98h126v137h98v-137h125v-98h-125v-137h-98z" />
    <glyph glyph-name="comma" unicode="," horiz-adv-x="249" 
d="M122 -23q-35 0 -56.5 22t-21.5 55q0 34 22 57t57 23q33 0 57.5 -22t24.5 -67q0 -20 -6.5 -47.5t-21.5 -56.5t-38 -56.5t-56 -47.5l-19 17q16 13 30.5 29t25.5 33.5t18 34.5t9 32q-12 -6 -25 -6z" />
    <glyph glyph-name="hyphen" unicode="-" horiz-adv-x="420" 
d="M33 399h280v-98h-280v98z" />
    <glyph glyph-name="period" unicode="." horiz-adv-x="242" 
d="M42 54q0 34 22 57t57 23q33 0 55 -23t22 -57q0 -33 -22 -55t-55 -22q-35 0 -57 22.5t-22 54.5z" />
    <glyph glyph-name="slash" unicode="/" horiz-adv-x="401" 
d="M313 708h66l-293 -708h-64z" />
    <glyph glyph-name="zero" unicode="0" 
d="M255 719q58 0 101.5 -27.5t72.5 -76t43.5 -115t14.5 -143.5q0 -80 -14.5 -147t-43.5 -115t-72.5 -75t-101.5 -27t-101.5 27t-73 75t-44 115t-14.5 147q0 77 14.5 143.5t44 115t73 76t101.5 27.5zM255 629q-24 0 -39.5 -25t-24.5 -64t-12 -87.5t-3 -95.5q0 -50 3.5 -99
t12.5 -89t24 -64.5t39 -24.5q23 0 38 24.5t24 64.5t12.5 89t3.5 99q0 47 -3 95.5t-11.5 87.5t-24 64t-39.5 25z" />
    <glyph glyph-name="one" unicode="1" horiz-adv-x="355" 
d="M119 516q-16 -14 -43 -24.5t-56 -10.5v71q28 4 52.5 19t44 37t32 48t17.5 52h97v-565q0 -38 16.5 -50.5t42.5 -12.5v-80h-262v80q24 0 41.5 13t17.5 50v373z" />
    <glyph glyph-name="two" unicode="2" horiz-adv-x="520" 
d="M249 719q48 0 91 -12.5t76 -37t52 -62t19 -87.5q0 -81 -29.5 -129.5t-73.5 -77t-95.5 -44.5t-95.5 -32t-73.5 -39.5t-29.5 -66.5q0 -9 1 -19.5t3 -20.5q15 51 50.5 75t89.5 24q25 0 46 -6t39 -13.5t34 -13.5t32 -6q26 0 42.5 16.5t16.5 56.5h43v-58q0 -41 -6.5 -74.5
t-21 -57.5t-39 -37t-60.5 -13q-39 0 -66.5 11.5t-49.5 25.5t-41.5 25.5t-42.5 11.5q-49 0 -51 -58h-57q-3 9 -6 22.5t-6 28.5t-4.5 29.5t-1.5 26.5q0 70 21.5 114t53 73.5t69 51.5t69 46.5t53 58.5t21.5 89q0 63 -28.5 92.5t-79.5 29.5q-27 0 -48 -9t-36.5 -24t-24.5 -34.5
t-11 -39.5q11 17 25 27.5t34 10.5q29 0 48.5 -22.5t19.5 -58.5q0 -29 -8.5 -47t-22 -29t-29.5 -15t-30 -4q-19 0 -36.5 7.5t-31 21t-21.5 33.5t-8 46q0 46 17.5 82t47.5 61t69 38t82 13z" />
    <glyph glyph-name="three" unicode="3" horiz-adv-x="536" 
d="M361 369q29 -7 54.5 -22t45 -38.5t31 -54t11.5 -68.5q0 -53 -18 -90t-50.5 -60t-77 -33.5t-97.5 -10.5q-45 0 -86.5 10.5t-73 33t-50.5 59t-19 88.5t24.5 84.5t67.5 32.5q35 0 59 -24.5t24 -78.5q0 -32 -12 -56t-41 -24q-15 0 -30 12.5t-23 34.5q-1 -7 -1 -13v-11
q0 -30 13 -49.5t31.5 -31t38.5 -15.5t34 -4q25 0 47.5 8t39.5 26t27 48t10 75q0 42 -9 69t-24 42t-34 21t-39 6v77q53 0 75 33t22 91q0 63 -31 93t-85 30q-18 0 -36.5 -4.5t-34 -13.5t-25.5 -24t-10 -36q0 -8 2.5 -16.5t7.5 -10.5q3 18 14.5 31.5t28.5 13.5q26 0 39 -23
t13 -47q0 -38 -20 -62t-57 -24q-39 0 -62.5 28.5t-23.5 76.5q0 46 16.5 78t44 52t65 29.5t79.5 9.5q45 0 86 -11t72.5 -34t50 -58.5t18.5 -84.5q0 -39 -9 -66.5t-25.5 -46t-39 -30t-48.5 -17.5z" />
    <glyph glyph-name="four" unicode="4" horiz-adv-x="530" 
d="M259 195h-245v91l271 422h118v-447h105v-66h-105v-52q0 -38 16.5 -50.5t42.5 -12.5v-80h-262v80q24 0 41.5 13t17.5 50v52zM82 261h177v277z" />
    <glyph glyph-name="five" unicode="5" horiz-adv-x="512" 
d="M137 712q27 -25 57.5 -39.5t77.5 -14.5q39 0 76.5 15.5t58.5 38.5h27q0 -112 -42.5 -158.5t-120.5 -46.5q-40 0 -76 11t-69 43q0 -7 0.5 -14.5t0.5 -14.5q0 -76 -22 -143q26 20 58.5 31t80.5 11q53 0 97.5 -15t76 -43t49 -69t17.5 -92q0 -62 -19.5 -104t-52.5 -68
t-78 -37.5t-96 -11.5q-47 0 -87 13t-69 36.5t-45.5 57.5t-16.5 76q0 41 21 71.5t65 30.5q40 0 62 -25.5t22 -67.5q0 -39 -18 -58.5t-45 -19.5q-20 0 -32 11t-25 34q0 -29 12 -50.5t31 -36t42 -21.5t45 -7q23 0 44.5 8.5t38.5 28t27.5 52.5t10.5 82q0 48 -7 80t-21 51.5
t-34.5 27.5t-46.5 8q-31 0 -67 -15.5t-66 -45.5l-42 15q21 57 32 118t11 125q0 30 -2.5 68t-9.5 74h69z" />
    <glyph glyph-name="six" unicode="6" horiz-adv-x="505" 
d="M269 715q34 0 67.5 -9.5t59.5 -30.5t42.5 -54.5t16.5 -80.5q0 -40 -23.5 -63.5t-59.5 -23.5q-32 0 -55.5 20t-23.5 61q0 28 13 46t34 18q17 0 27 -9.5t18 -21.5q2 2 3.5 6.5t1.5 12.5q0 12 -6.5 24.5t-18.5 22.5t-29 16.5t-37 6.5q-28 0 -48.5 -14t-34.5 -45.5t-22 -82
t-11 -123.5q18 20 48 31t67 11q45 0 79.5 -16.5t58 -45.5t35.5 -69t12 -87q0 -51 -13 -92.5t-40 -71.5t-68 -46.5t-97 -16.5q-72 0 -119 32.5t-74.5 84.5t-38.5 116.5t-11 128.5q0 67 12.5 132.5t41.5 117t76.5 83.5t116.5 32zM263 370q-42 0 -61 -42.5t-19 -127.5
q0 -51 7.5 -83t19 -50.5t25.5 -25.5t28 -7q13 0 26.5 5.5t24 23.5t17 51.5t6.5 89.5q0 91 -19 128.5t-55 37.5z" />
    <glyph glyph-name="seven" unicode="7" horiz-adv-x="474" 
d="M366 599q-10 -28 -25.5 -45.5t-32.5 -28t-34.5 -14.5t-30.5 -4q-18 0 -32.5 4.5t-27 10.5t-25 10.5t-27.5 4.5q-60 0 -69 -79h-62q7 24 12 59t5 66q0 29 -4.5 58t-11.5 55h42q9 -9 16 -21.5t11 -27.5q17 35 47 49.5t63 14.5q28 0 49 -8t37 -17t28.5 -17t24.5 -8
q18 0 29.5 11.5t15.5 26.5h84q7 -14 11 -35.5t4 -39.5q0 -52 -14 -95t-35.5 -80t-46.5 -68.5t-46.5 -61.5t-35.5 -60.5t-14 -63.5q0 -28 12 -48t32 -34q0 -23 -6.5 -45.5t-21 -39.5t-37 -27.5t-55.5 -10.5q-32 0 -54 11t-35.5 29t-19.5 40t-6 43q0 58 21 104.5t53 86t69 74
t69 69t53 71.5t21 81z" />
    <glyph glyph-name="eight" unicode="8" horiz-adv-x="556" 
d="M353 411q34 30 49.5 60.5t15.5 65.5q0 31 -12 54.5t-32 39.5t-46.5 23.5t-56.5 7.5q-53 0 -89 -21.5t-36 -66.5q0 -29 16.5 -51.5t44.5 -41.5t65.5 -36t80.5 -34zM173 317q-18 -11 -31 -26.5t-21.5 -32.5t-12.5 -35t-4 -34q0 -40 14 -67.5t36.5 -44.5t52 -24.5t61.5 -7.5
q64 0 99 25.5t35 66.5q0 33 -21.5 57.5t-55 44.5t-74 38.5t-78.5 39.5zM127 344q-42 28 -68.5 71t-26.5 100q0 48 17 85t48 62t75.5 38t98.5 13q41 0 80 -11t69.5 -33.5t49 -56.5t18.5 -81q0 -36 -18.5 -76t-63.5 -73q21 -12 43.5 -28.5t41.5 -38.5t31 -51.5t12 -66.5
q0 -102 -69.5 -155.5t-197.5 -53.5q-54 0 -99 13t-77.5 38t-50.5 62.5t-18 85.5q0 45 25.5 86.5t79.5 70.5z" />
    <glyph glyph-name="nine" unicode="9" horiz-adv-x="499" 
d="M227 -8q-34 0 -66.5 7.5t-58.5 26.5t-42 50.5t-16 78.5q0 40 22.5 68.5t60.5 28.5q32 0 55 -20t23 -61q0 -28 -12.5 -46t-33.5 -18q-17 0 -27 9.5t-18 21.5q-2 -2 -3.5 -6.5t-1.5 -12.5q0 -26 23 -48t68 -22q31 0 52 13.5t34.5 44.5t20 81t9.5 123q-17 -18 -47.5 -28.5
t-67.5 -10.5q-45 0 -79.5 16.5t-58 45.5t-35.5 69t-12 87q0 51 13 93t40 71.5t68 46t97 16.5q72 0 119 -32.5t74.5 -84.5t38.5 -116.5t11 -128.5q0 -67 -10 -132t-38 -116.5t-76.5 -83t-125.5 -31.5zM242 671q-42 0 -61 -42.5t-19 -127.5q0 -51 7.5 -83t19 -50.5t25.5 -25.5
t28 -7q13 0 26.5 5.5t24 23.5t17 51.5t6.5 89.5q0 91 -19 128.5t-55 37.5z" />
    <glyph glyph-name="colon" unicode=":" horiz-adv-x="244" 
d="M44 54q0 34 22 57t57 23q33 0 55 -23t22 -57q0 -33 -22 -55t-55 -22q-35 0 -57 22.5t-22 54.5zM44 389q0 33 22 56t57 23q33 0 55 -23t22 -56q0 -34 -22 -56t-55 -22q-35 0 -57 22.5t-22 55.5z" />
    <glyph glyph-name="semicolon" unicode=";" horiz-adv-x="249" 
d="M44 389q0 33 22 56t57 23q33 0 55 -23t22 -56q0 -34 -22 -56t-55 -22q-35 0 -57 22.5t-22 55.5zM122 -23q-35 0 -56.5 22t-21.5 55q0 34 22 57t57 23q33 0 57.5 -22t24.5 -67q0 -20 -6.5 -47.5t-21.5 -56.5t-38 -56.5t-56 -47.5l-19 17q16 13 30.5 29t25.5 33.5t18 34.5
t9 32q-12 -6 -25 -6z" />
    <glyph glyph-name="less" unicode="&#x3c;" horiz-adv-x="1757" 
d="M1227 714q16 -9 30 -19t31 -27q-2 6 -8 13.5t-14.5 14.5t-18.5 12t-20 6zM1276 707q17 -11 33 -27.5t32 -36.5q-3 10 -9.5 21t-15.5 20t-19.5 15.5t-20.5 7.5zM1318 698q17 -11 37.5 -34.5t36.5 -48.5q-3 15 -11.5 29t-19 26t-22 19.5t-21.5 8.5zM1711 390q0 -17 -4 -37
t-14 -46q8 4 14 16.5t12 30.5q-2 -14 -6.5 -36.5t-13.5 -51.5q6 7 12.5 17.5t12.5 27.5q0 -14 -3.5 -33t-13.5 -39q5 5 10.5 12t10.5 21q0 -17 -4.5 -30.5t-10.5 -24.5l17 21q2 -5 2 -9.5v-9.5q0 -19 -9 -38q7 -20 7 -37q0 -26 -9.5 -45.5t-13.5 -45.5q-46 -7 -93 -11
t-92 -4q-32 0 -59.5 -3t-53.5 -13q-34 -13 -59.5 -22.5t-60.5 -9.5q-27 0 -46.5 11.5t-31.5 42.5q-85 -14 -171.5 -29.5t-176.5 -15.5q-22 0 -55.5 5.5t-64.5 6.5q-42 2 -66.5 20.5t-24.5 53.5q0 5 0.5 8.5t1.5 8.5q-12 -5 -25 -7t-28 -2q-33 0 -57 18t-24 53q0 16 15 36
q-22 -5 -41 -5q-48 0 -71 21.5t-23 55.5q0 13 3 27q-13 -14 -27.5 -19.5t-33.5 -7.5q-9 -11 -21.5 -18.5t-27 -13t-29 -9t-26.5 -4.5q-29 -19 -60.5 -33t-69.5 -14q-30 0 -44 15.5t-14 33.5q0 29 15.5 53t39 43t51.5 31t52 17q26 32 66 53.5t77 29.5q16 14 34.5 24
t37.5 17.5t38.5 15t37.5 17.5q34 50 82 80.5t102 47.5t109.5 23t105.5 6q17 0 36 -1.5t36 -3.5t31 -5.5t20 -6.5q11 11 28.5 17t34.5 6q7 0 14.5 -1t14.5 -1q14 15 42 23.5t60 8.5q45 0 78 -6t56 -21.5t39.5 -41t28.5 -64.5q0 17 -9.5 47.5t-29.5 60.5q26 -22 43 -56t29 -72
q-1 15 -6 44t-25 71q19 -17 30.5 -50t28.5 -76q-6 31 -13.5 62t-18.5 62q35 -58 55 -140q-3 33 -9 65.5t-17 65.5q14 -34 25 -70.5t21 -74.5q-2 34 -7 69t-16 70q17 -37 28.5 -76.5t21.5 -80.5q-3 37 -8.5 74t-13.5 74q17 -39 28 -85t20 -95q-1 42 -5.5 84t-17.5 84
q17 -41 28 -90.5t22 -102.5q0 40 -5 85.5t-16 87.5q17 -45 27 -96.5t18 -105.5q1 11 2 22.5t1 22.5q0 64 -14 132q14 -45 22.5 -97t16.5 -107q3 28 3 56q0 50 -9 100q15 -42 20.5 -88t8.5 -94q9 14 8.5 38.5t4.5 54.5q3 -11 5 -24.5t2 -30.5t-2.5 -36t-8.5 -42q17 11 26 58z
M1701 203q3 -27 3 -49q0 -18 -6 -42t-19 -50q17 17 24 40t7 43q0 31 -9 58zM1687 213q2 -14 2 -25.5v-22.5q0 -31 -6 -55t-20 -51q14 14 23 40t9 46q0 16 -1 30.5t-7 37.5zM1647 60q9 8 15.5 21t11 27t7 28t2.5 24q0 26 -8 58q2 -13 2 -22.5v-17.5t-0.5 -18.5t-3.5 -21.5
q0 22 -3 44.5t-11 41.5q5 -30 6 -47.5t1 -36.5q0 -46 -19 -80zM1641 229q6 -29 8 -47t2 -37q0 -24 -7 -44.5t-16 -40.5q14 16 22 38.5t8 44.5t-4.5 44.5t-12.5 41.5zM1626 234q6 -29 7.5 -47t1.5 -37q0 -24 -5.5 -44.5t-18.5 -46.5q18 20 24.5 43.5t6.5 45.5q0 46 -16 86z
M1612 239q6 -29 7.5 -47t1.5 -37q0 -24 -5.5 -46.5t-18.5 -49.5q18 20 24.5 46t6.5 48q0 46 -16 86zM1597 249q4 -32 6 -54t2 -41q0 -24 -5.5 -46t-18.5 -49q18 20 24.5 45.5t6.5 47.5t-3 48t-12 49zM1580 256q4 -32 6 -54t2 -41q0 -24 -4.5 -45t-18.5 -57q18 26 24 52t6 48
t-2.5 46.5t-12.5 50.5zM1561 266q4 -32 6 -56t2 -43q0 -24 -5 -48t-17 -60q16 26 22.5 52t6.5 54q0 22 -2.5 48.5t-12.5 52.5zM1543 280q4 -32 6 -58t2 -45q0 -24 -5 -51t-18 -69q14 27 22 58.5t8 59.5q0 22 -2.5 50.5t-12.5 54.5zM1525 284q4 -32 5.5 -58t1.5 -45
q0 -24 -5.5 -53t-18.5 -71q14 27 22.5 60.5t8.5 61.5q0 22 -3 51.5t-11 53.5zM1504 303q5 -33 6.5 -67.5t1.5 -53.5q0 -24 -4.5 -54.5t-17.5 -72.5q14 27 21.5 61.5t7.5 62.5q0 22 -3 57.5t-12 66.5zM1485 303q4 -33 5.5 -67.5t1.5 -53.5q0 -24 -4.5 -54.5t-17.5 -72.5
q14 27 21.5 61.5t7.5 62.5q0 22 -2 54t-12 70zM1467 313q3 -17 4.5 -35t2.5 -35.5t1 -32.5v-24q0 -24 -4.5 -56.5t-17.5 -74.5q14 27 21.5 63.5t7.5 64.5q0 22 -2.5 57t-12.5 73zM1444 323q3 -16 5 -28t3.5 -23.5t2 -24t0.5 -29.5q0 -41 -4.5 -80t-16.5 -84q7 15 12.5 32.5
t9 35.5t5 35t1.5 30q0 37 -4 73.5t-14 62.5zM1422 339q6 -33 9.5 -59.5t3.5 -61.5q0 -41 -5.5 -83.5t-17.5 -87.5q8 16 14 36t9.5 40.5t5.5 39t2 31.5q0 35 -5 73t-16 72zM1402 344q6 -33 9.5 -62t3.5 -64q0 -41 -7 -86.5t-19 -90.5q16 32 24.5 74t8.5 79q0 32 -5 72t-15 78
zM1382 352q6 -33 9.5 -66t3.5 -68q0 -41 -7 -87t-21 -96q8 16 14.5 36.5t11.5 42t7.5 43.5t2.5 40q0 40 -5.5 78.5t-15.5 76.5zM936 150l-11 -1l9 -4l-12 -1l9 -4l-12 -3l9 -3l-15 -4l10 -2l-15 -6l11 -1l-17 -6h13l-23 -7h16l-22 -8h17l-26 -9l20 1l-29 -10h19l-24 -9l18 1
l-22 -10l19 2l-24 -12l18 5l-20 -18l14 8q-2 -5 -4.5 -10.5t-3.5 -8.5q10 7 17.5 22.5t15.5 28.5q-4 -17 -8 -28.5t-11 -25.5q5 5 11 14.5t12 21.5t10.5 24t7.5 22q0 -8 -3 -19t-7 -23t-8.5 -23.5t-7.5 -18.5q6 7 12 19.5t11.5 27t10.5 29.5t8 26q0 -9 -2.5 -22t-6.5 -27
t-8.5 -27.5t-8.5 -23.5q16 20 25.5 52t14.5 59q0 -11 -2.5 -26t-6.5 -30.5t-8 -30t-8 -24.5q6 8 11.5 23t10.5 32.5t9 35.5t7 32q-1 -11 -3.5 -27t-6 -33t-7.5 -33t-8 -28q9 20 19 55t16 61q0 -11 -2.5 -25.5t-6 -30.5t-7.5 -31.5t-8 -27.5q11 20 20 49t14 59
q-1 -23 -7 -51.5t-14 -55.5q10 20 19 48t14 60q0 -26 -6 -53.5t-14 -53.5q11 23 18.5 49t12.5 58q0 -53 -17 -106q23 47 30 113q0 -31 -3.5 -58.5t-9.5 -52.5q10 23 16 51.5t10 63.5q0 -28 -2 -55t-8 -58q10 24 13 54t8 64q0 -5 0.5 -10.5t0.5 -11.5q0 -22 -2 -45t-6 -47
q7 25 11 53.5t6 61.5q3 -15 3 -32q0 -40 -8 -83q8 21 12.5 49.5t6.5 62.5q2 -11 3 -18.5t1 -15.5q0 -14 -3 -36.5t-6 -39.5q8 26 13 50t8 60q2 -10 2 -19v-18q0 -17 -2 -34t-6 -37q8 25 13.5 49t7.5 59q3 -14 3 -29q0 -17 -2.5 -36.5t-6.5 -39.5q9 25 13.5 50.5t6.5 60.5
q3 -15 3 -32q0 -12 -2.5 -33.5t-6.5 -42.5q8 26 13 55t7 64q1 -8 2 -16.5t1 -16.5q0 -20 -2.5 -40.5t-6.5 -42.5q10 30 14 61t6 63q1 -8 2 -16.5t1 -17.5q0 -20 -2.5 -42.5t-6.5 -46.5q10 29 14 61.5t6 68.5q1 -8 2 -16.5t1 -16.5q0 -23 -3 -47t-7 -47q10 34 15 68t7 68
q2 -5 2.5 -13.5t0.5 -12.5q0 -30 -4 -54l-9 -54q11 33 17 68.5t9 72.5q2 -5 2.5 -15t0.5 -15q0 -17 -3.5 -47.5t-10.5 -59.5q12 34 17 69.5t7 71.5q2 -10 3 -20t1 -18q0 -25 -4.5 -50t-9.5 -50q28 69 28 145q1 -8 2.5 -16.5t1.5 -16.5q0 -27 -4.5 -54t-12.5 -54
q17 35 25 76.5t9 78.5q2 -7 3.5 -19.5t1.5 -19.5q0 -29 -7 -56.5t-16 -55.5q24 49 31.5 89.5t11.5 78.5q1 -8 1.5 -17.5t0.5 -17.5q0 -38 -10 -72t-21 -60q26 43 38 87t12 87q0 47 -13 89t-37 77q18 -34 31 -77t13 -91q0 -13 -1.5 -26t-3.5 -27q0 69 -11.5 123.5t-33.5 85.5
q12 -37 21.5 -74.5t15.5 -75.5q-8 38 -20 72t-26 64q12 -31 20.5 -64.5t14.5 -70.5q-15 66 -43 124q11 -30 19.5 -62.5t11.5 -68.5q-15 65 -39 122q8 -28 16 -59t10 -60q-8 29 -17.5 58.5t-18.5 52.5q16 -54 21 -108q-5 28 -12.5 52.5t-18.5 46.5q7 -25 12 -51t7 -52
q-12 54 -27 99q13 -52 15 -106q-3 28 -8.5 53t-13.5 48q5 -26 8.5 -52t4.5 -52q-6 55 -21 99q12 -47 12 -101q-2 28 -8 52.5t-14 44.5q6 -24 8.5 -47.5t2.5 -47.5q-2 25 -8 48t-14 43q5 -16 8.5 -32t3.5 -32q0 -12 -3 -24q-2 25 -7 46t-13 38q5 -17 8 -32.5t3 -29.5v-10
t-2 -10q-2 23 -5.5 42.5t-13.5 36.5l6 -28t3 -28v-10t-2 -10q-2 20 -6 38.5t-11 34.5q3 -14 5 -26.5t2 -23.5v-10.5t-2 -10.5q-2 20 -4.5 37.5t-11.5 32.5q8 -30 8 -53v-9.5t-2 -9.5q-2 17 -5.5 34.5t-11.5 35.5q3 -14 6 -27.5t3 -25.5v-9t-2 -8q-2 18 -6 34.5t-10 33.5
q5 -28 5 -47q0 -5 -0.5 -10.5t-1.5 -10.5q-2 24 -6 40.5t-9 26.5q2 -12 3.5 -24.5t1.5 -23.5v-10.5t-1 -10.5q-6 39 -15 68q2 -14 3 -24t1 -19t-0.5 -16t-1.5 -13q-1 21 -4 39t-10 35q6 -36 6 -56v-13t-2 -11q-1 23 -4 43t-10 37q6 -32 6 -54q0 -17 -3 -32q-1 25 -5 47
t-12 41q8 -38 8 -64q0 -16 -3 -31q-2 26 -5 49.5t-9 45.5q6 -39 6 -73v-14.5t-1 -12.5q-2 29 -7 55t-12 50q4 -25 7 -46.5t3 -40.5v-13t-2 -13q-2 31 -6.5 59t-12.5 54q9 -66 9 -120q-6 69 -24 129q6 -38 9.5 -71.5t3.5 -63.5q-4 38 -9.5 72.5t-13.5 67.5q4 -29 8.5 -56
t4.5 -53q0 -18 -3 -36q-2 37 -7.5 74.5t-14.5 75.5q4 -30 7 -59t3 -56q0 -19 -3 -35q-3 42 -6.5 80.5t-11.5 75.5q0 -34 4 -61t4 -55q-5 15 -8 32t-5 33.5t-4 31.5t-6 26q3 -26 3 -42q0 -7 -0.5 -12.5t-0.5 -10.5q-5 32 -12.5 52t-19.5 39l3 -11l-10 1l13 -7l-14 3l12 -6
l-14 -8l19 7l-21 -17l23 12l-19 -20l22 14l-21 -20l24 17l-20 -21l21 14l-21 -20l24 15l-23 -20l24 12l-21 -17l23 10l-22 -17l23 9l-21 -15l22 10l-19 -15l20 9l-19 -14l19 8l-18 -15l19 7l-20 -13l26 7l-24 -13l28 6l-28 -15l28 7l-26 -14l29 7l-26 -15l29 8l-29 -15l28 9
l-23 -13l24 6l-23 -11l27 4l-25 -9l26 2l-23 -6h27l-24 -5l25 -2l-23 -3l25 -5l-22 -2l22 -5l-19 -2l20 -6l-16 -3l19 -5l-15 -4l14 -4l-14 -3l13 -5l-14 -2l12 -4l-13 -3zM872 183l-32 -22l-2 2l29 20h5zM588 566q-8 -5 -19.5 -14t-26.5 -26q6 11 19 23.5t38 28.5zM615 595
q-26 -15 -47 -34t-41 -44q14 26 40.5 48t55.5 39zM543 188q-6 -8 -6 -24q2 2 5 3t5 2q-5 -8 -5 -15q0 -4 1 -6q2 8 6 13t9 10q-4 -10 -5.5 -20.5t-1.5 -20.5q2 11 6 22t9 20q-4 -17 -4 -38q0 -10 1 -15q2 17 5 30t7 26q-1 -11 -2 -21t-1 -20q0 -6 0.5 -11.5t1.5 -10.5
q2 20 3.5 34.5t4.5 25.5q-1 -5 -1 -9v-8q0 -13 2 -24.5t5 -22.5q0 8 -0.5 14.5t-0.5 13.5q0 10 0.5 20t1.5 20q2 -18 4 -36.5t6 -32.5q-3 27 -3 52q0 5 0.5 11t1.5 11q2 -23 5.5 -40.5t8.5 -34.5q-3 20 -4 39t-1 39q2 -22 7 -41t12 -35q-5 20 -7.5 40t-3.5 40
q4 -23 10.5 -41.5t14.5 -33.5q-5 17 -9.5 36.5t-9.5 41.5q6 -20 13.5 -39t17.5 -36q-15 43 -25 84q16 -43 34 -76q-9 23 -15.5 42.5t-9.5 37.5q8 -22 17 -41t21 -35q-11 21 -18.5 41.5t-13.5 41.5q9 -23 19 -41.5t21 -35.5q-21 43 -30 84q9 -25 20.5 -44t22.5 -36
q-11 20 -19.5 41.5t-15.5 43.5q11 -23 23 -43.5t23 -38.5q-11 23 -20.5 44.5t-16.5 42.5q11 -22 22.5 -42t23.5 -38q-11 21 -19.5 41t-15.5 40q11 -21 21.5 -39.5t22.5 -33.5q-11 20 -19.5 39t-14.5 39q11 -21 22.5 -39t23.5 -33q-12 20 -21 39t-17 37q11 -21 23.5 -39
t25.5 -33q-24 39 -40 77q12 -20 24.5 -38.5t24.5 -35.5q-12 20 -21 38.5t-17 36.5q23 -40 44 -68q-11 18 -19.5 35.5t-14.5 35.5q19 -39 42 -69q-10 17 -18 35t-14 37q10 -18 20 -34.5t20 -30.5q-19 34 -27 65q8 -17 17 -33.5t20 -27.5q-18 31 -26 62q18 -38 36 -54
q-8 14 -13.5 27t-10.5 25q7 -14 15 -25t16 -19l-4 11l16 -5l-12 8l22 -3l-15 6l23 -1l-12 5l19 -1l-10 6l19 -2l-10 5l18 1l-11 4l16 2l-9 3l14 4q11 14 11 37q0 24 -15 34.5t-29 10.5q-19 0 -37.5 -9.5t-37.5 -22t-39.5 -24.5t-42.5 -18l-8 -10l-3 9l-5 -11l-1 10l-7 -16
l-1 14l-7 -17l-1 14l-7 -19l-1 17l-7 -23l-2 19l-7 -24l-3 20l-6 -24l-2 21l-6 -22l-2 18l-6 -28l-2 25l-6 -28l-2 25l-6 -31l-1 25l-7 -28l-2 23l-6 -28l-3 22l-7 -27l-2 21l-8 -26zM1156 561q-12 13 -30.5 27.5t-42 26.5t-49 20t-50.5 8q-11 0 -22 -1.5t-28 -6.5
q10 8 28.5 13t41.5 6q-5 2 -11 2.5t-10 0.5q-14 0 -32.5 -5t-32.5 -12q8 8 24 14t30 9q-20 0 -37 -4.5t-35 -14.5q5 5 16.5 12.5t22.5 10.5q-9 -1 -24 -4.5t-33 -19.5q1 5 8.5 13t16.5 13q-10 -2 -20.5 -9t-18.5 -17q0 3 3.5 10t9.5 15q-5 -2 -12.5 -8.5t-12.5 -17.5
q0 4 1.5 12t3.5 13q-5 -3 -11.5 -13t-9.5 -18q0 8 1.5 17t3.5 15q-6 -8 -11 -17t-7 -20q-1 4 -1.5 7t-0.5 7q0 5 1.5 10t3.5 11q-12 -15 -15 -43q-2 8 -2 17q0 5 0.5 12.5t1.5 14.5q-4 -9 -6.5 -20.5t-4.5 -31.5q-1 4 -1.5 11t-0.5 11q0 14 3 29q-10 -23 -10 -58
q0 -5 0.5 -10t0.5 -10q-6 16 -6 35q0 11 1.5 20t3.5 22q-5 -10 -7 -21.5t-2 -24.5q0 -11 1.5 -24t3.5 -24q-7 20 -9 34.5t-2 22.5q0 11 1.5 22.5t3.5 16.5q-6 -10 -9.5 -27.5t-3.5 -30.5q0 -12 2 -25.5t4 -23.5q-12 30 -12 58q0 13 2 24t5 21q-15 -15 -15 -55q-2 4 -3 11.5
t-1 12.5q0 10 5 27q-4 -5 -8 -14.5t-4 -29.5q0 -8 0.5 -17t4.5 -26q-8 17 -10 28t-2 20q0 8 2 18.5t5 18.5q-3 -4 -7.5 -12.5t-4.5 -25.5q-2 2 -2.5 9t-0.5 9q0 3 0.5 8.5t1.5 7.5q-4 -5 -7 -15t-5 -30q-2 5 -2 9.5v9.5q0 7 0.5 12.5t1.5 10.5q-4 -6 -5.5 -14.5t-3.5 -18.5
q-3 14 -1 29q-2 -5 -4 -13t-3 -18q-1 6 -1.5 12t0.5 14q-3 -5 -4.5 -13t-2.5 -17q-2 12 0 27q-4 -5 -6 -12.5t-4 -15.5q-1 5 -0.5 11.5t1.5 12.5q-5 -7 -11 -23q-1 7 2 21q-3 -3 -6 -9t-5 -13q-2 8 0 17q-7 -4 -10 -18q-2 10 -1 14q-2 -2 -4.5 -6t-4.5 -9q-2 6 0 13
q-6 -5 -13 -15q-1 5 0 11q-35 -17 -65 -40t-53 -52q-5 -8 -9.5 -14.5t-11.5 -13.5q-8 -9 -21 -19t-25 -22.5t-21 -28t-9 -33.5q0 -21 14 -37.5t44 -16.5q11 0 21.5 2.5t19.5 6.5l-15 3l24 3l-12 6l23 2l-15 5l26 3l-18 5l24 3l-13 5l25 5l-15 4l23 6l-16 2l26 7l-18 2l30 6
l-25 6l31 4l-32 7q10 1 19.5 1h18.5q-11 6 -22.5 8t-24.5 3q9 3 20 3q16 0 32 -4q-12 11 -27 16.5t-31 9.5q40 -2 67 -17q-10 8 -24 15t-32 14q17 -2 33.5 -6.5t32.5 -14.5q-19 19 -50 33q31 -3 62 -23q-19 24 -55 36q17 -3 33.5 -9t34.5 -17q-11 13 -25 21.5t-31 15.5
q18 -4 35.5 -10.5t35.5 -18.5q-13 16 -27.5 25t-29.5 15q18 -5 34.5 -13t33.5 -22q-11 17 -24.5 27.5t-27.5 17.5q17 -4 32.5 -14t32.5 -26q-8 16 -20.5 27.5t-26.5 21.5q17 -8 29 -18t28 -30q-6 16 -17.5 30t-22.5 28q29 -19 51 -53q-7 17 -16.5 32t-20.5 32
q6 -4 12.5 -12.5t13 -18t12.5 -19t11 -15.5q-8 23 -17.5 41.5t-14.5 35.5q9 -16 21.5 -36t27.5 -41q-11 34 -23.5 56.5t-12.5 48.5q10 -30 25.5 -55.5t24.5 -48.5q-1 10 -6 22t-11 26.5t-11.5 31t-5.5 36.5q10 -39 25.5 -66t23.5 -53q0 20 -10 48t-13 55q10 -30 22 -54.5
t18 -52.5q-1 32 -7 50.5t-8 42.5q8 -23 17.5 -48t14.5 -51q-1 20 -5.5 44t-9.5 41q11 -15 19 -40.5t11 -51.5q0 15 -2.5 34.5t-7.5 41.5q7 -17 12 -39.5t10 -45.5q0 20 -2.5 40.5t-4.5 43.5q8 -20 12 -42.5t9 -50.5q0 25 -2 50.5t-4 45.5q6 -19 11 -47t5 -57q3 24 3 47
q0 24 -3 48q8 -23 8.5 -50t2.5 -56q3 19 3 41q0 15 -1 31t-2 33q8 -31 9 -59.5t1 -57.5q5 25 4 54t1 55q3 -8 4 -21.5t2 -30t1 -34v-32.5q4 17 3.5 47t0.5 62q4 -20 5 -40.5t1 -40.5v-39q5 29 7 57.5t3 57.5q2 -12 3 -32.5t1 -44.5v-25.5t-2 -24.5q6 29 7.5 60.5t3.5 63.5
q2 -21 4 -43.5t2 -48.5q0 -10 -0.5 -21t-1.5 -22q6 18 8.5 37.5t2.5 39.5q0 13 -0.5 25t-1.5 24q6 -18 7.5 -49.5t1.5 -94.5q4 14 5 30.5t1 35.5q0 17 -1 35t-2 37q6 -31 11.5 -71.5t6.5 -77.5q5 20 5 37q0 27 -5 55t-5 54q6 -36 15.5 -78t11.5 -78q4 12 4 28q0 29 -7.5 61
t-8.5 62q9 -34 20.5 -76.5t12.5 -82.5q2 6 3 13.5t1 14.5q0 15 -3 30.5t-7 31.5t-7.5 32t-4.5 31q8 -38 23 -79t19 -80q1 5 1.5 11.5t0.5 11.5q0 16 -4 32.5t-9 33l-10 33t-8 32.5q13 -38 26 -76.5t20 -77.5q1 5 1.5 12t0.5 12q0 29 -11 55t-19 52q14 -23 27 -53t23 -79
q1 4 1 11v11q0 20 -9.5 48t-30.5 65q22 -23 39 -59.5t28 -69.5q0 16 -6.5 37t-17 43.5t-24 44.5t-28.5 40q28 -22 53.5 -65.5t48.5 -90.5q-6 18 -15.5 42.5t-23.5 50t-32 49t-40 39.5q22 -12 39.5 -28.5t32.5 -38t28.5 -47t28.5 -54.5q-6 18 -17.5 44.5t-28 54.5t-39.5 53.5
t-51 40.5q23 -7 43.5 -24.5t39 -41.5t35.5 -54t33 -62q-6 18 -19 45.5t-32 56.5t-43.5 55t-52.5 41q43 -14 84 -64t76 -116q-7 23 -21 49.5t-34.5 53t-47 50.5t-57.5 43q52 -23 95.5 -70t78.5 -104q-30 62 -75.5 111.5t-104.5 77.5q49 -17 99.5 -57.5t87.5 -102.5
q-28 59 -78.5 101.5t-113.5 70.5q28 -8 57 -22.5t55.5 -33t47 -40t32.5 -42.5q-28 59 -81 95t-130 59q22 -2 46.5 -9t47 -17.5t42 -23t33.5 -24.5zM496 350q-6 -3 -12 -3.5t-11 -0.5q-17 0 -31.5 10.5t-14.5 27.5q5 -15 19.5 -24.5t49.5 -9.5zM773 158l-3 7l-4 -16l-2 15
l-3 -19l-2 16l-6 -19l-3 15l-4 -20l-3 16l-4 -23l-3 19l-4 -23l-3 20l-4 -23l-2 18l-6 -22l-2 17l-6 -21l-1 17l-6 -24l-3 19l-4 -24l-2 20l-5 -24l-1 20l-5 -26l-3 19l-4 -24l-2 18q-2 -5 -3.5 -10t-1.5 -16q0 -20 13 -33q-5 8 -5 15q0 3 1 5q3 -9 7.5 -17t11.5 -13
q-5 11 -7.5 20t-4.5 18q12 -27 26 -41q-16 27 -21 52q12 -30 34 -52q-10 16 -16.5 29.5t-10.5 29.5q14 -33 37 -57q-11 17 -17.5 31.5t-11.5 31.5q8 -19 17 -31.5t21 -25.5q-11 17 -18 32t-12 32q8 -18 17 -33t21 -27q-12 18 -19 32.5t-11 31.5q8 -20 17 -33t23 -27
q-10 14 -17 28t-12 31q9 -18 17.5 -30.5t19.5 -23.5q-19 30 -30 61q9 -17 18 -32.5t20 -26.5q-8 14 -17 31t-14 34q10 -18 20.5 -35t19.5 -28q-11 18 -18.5 33t-13.5 33q10 -17 19 -32.5t23 -29.5q-11 17 -19 32.5t-15 34.5q11 -20 20.5 -35t23.5 -28q-12 19 -21 35t-14 35
q10 -20 21 -36.5t25 -29.5q-12 18 -21.5 34.5t-17.5 36.5q11 -20 22.5 -36t25.5 -30q-26 36 -36 69q11 -19 21.5 -35.5t22.5 -30.5q-9 17 -16.5 31t-14.5 33q10 -18 19.5 -33.5t20.5 -25.5q-9 14 -15 26.5t-9 25.5q16 -33 32 -48l-2 9l15 -3l-7 7h18l-11 5l21 2l-10 5l17 1
l-9 4l15 2l-9 4l16 2l-7 4l12 4l-9 1l13 5h-10l13 8q2 5 3 9.5t1 9.5q0 17 -10.5 32t-27.5 15q-22 0 -43 -10.5t-38 -23.5q-5 -3 -10 -6.5t-12 -7.5zM560 416q-11 -20 -34.5 -39t-49.5 -19q-17 0 -31 9.5t-14 26.5q0 7 3 16q0 -20 10 -33t33 -13q13 0 26.5 6.5t24.5 15.5
t19.5 19.5t12.5 18.5v-8zM494 395l49 31l-57 -30l-7 1l55 36l-63 -33l-4 3l60 33l-62 -27l-1 5l56 28l-49 -18l2 5l40 20l-25 -6l5 4l16 5l-3 5q-23 -8 -36 -23t-13 -23q0 -25 26 -25q11 0 25 5.5t25 17.5zM816 362q8 11 8 24q0 50 -55 50q-16 0 -41 -8t-52 -21t-53 -28
t-45 -28l-7 -9l-7 6l-3 -13l-5 5l-3 -9l-5 5l-3 -10l-4 7l-5 -14l-3 10l-5 -14l-4 12l-5 -16l-3 14l-5 -17l-2 15l-6 -21l-4 20l-5 -25l-3 23l-5 -26l-2 27l-7 -29l-2 29l-8 -32l-2 34l-8 -33l-2 34l-8 -33l-3 34l-7 -33l-2 29l-6 -30l-4 18q-6 -14 -6 -27q0 -21 8 -30
q0 19 3 30q1 -13 3 -24t4 -19q0 11 1 21.5t3 18.5q1 -16 2 -28.5t3 -22.5q0 17 2 29t4 22q1 -14 1.5 -27t3.5 -29q0 19 1.5 32t3.5 24q2 -37 6 -58q0 35 3 59q1 -19 3 -34.5t4 -28.5q0 21 1 36.5t3 28.5q1 -19 2.5 -36.5t4.5 -28.5q-1 8 -1.5 17.5t-0.5 17.5q0 16 3 30
q1 -16 3 -34t7 -32q-1 9 -1.5 18.5t-0.5 17.5q0 10 0.5 16.5t2.5 14.5q2 -20 4 -37t10 -31q-4 18 -5.5 37t-1.5 39q2 -18 6 -37t13 -36q-10 39 -10 80q3 -20 8 -40.5t16 -36.5q-7 20 -11 41t-4 41q3 -18 9 -39t18 -37q-8 19 -12 38.5t-8 39.5q5 -21 12.5 -39.5t18.5 -32.5
q-8 18 -14 36t-8 36q9 -37 33 -68q-8 17 -14 34t-8 34q5 -17 12.5 -34t20.5 -30q-10 17 -16.5 33t-8.5 32q6 -17 14.5 -31.5t19.5 -27.5q-18 34 -24 62q8 -17 14.5 -30.5t18.5 -27.5q-19 36 -27 65q9 -18 18 -34t20 -28q-11 20 -18.5 36.5t-12.5 31.5q18 -39 38 -65
q-11 20 -19 38.5t-13 34.5q9 -20 19.5 -38t22.5 -30q-11 17 -19.5 35t-14.5 37q10 -19 20 -35t24 -32q-12 21 -21.5 40.5t-15.5 34.5q11 -20 21.5 -38t23.5 -31q-12 21 -21.5 39.5t-15.5 35.5q11 -20 21.5 -37.5t24.5 -32.5q-11 20 -19.5 38.5t-15.5 36.5q11 -20 21.5 -38.5
t24.5 -32.5q-12 20 -21 39t-17 39q22 -41 47 -75q-24 40 -38 83q11 -21 22 -41t25 -40q-12 22 -23 45.5t-15 38.5q11 -21 22 -41.5t25 -37.5q-11 20 -19.5 39.5t-14.5 40.5q11 -20 20.5 -40.5t23.5 -35.5q-10 20 -18 39t-13 37q9 -20 19 -40t21 -33q-11 20 -19.5 40.5
t-9.5 33.5q7 -17 16.5 -36t21.5 -32q-9 17 -15.5 33t-7.5 29q8 -15 15 -30t17 -26l-3 10l14 -7l-8 9l18 -4l-12 7l22 -2l-13 5l23 -1l-12 5h21l-12 5l22 -1l-12 6h19l-10 5l16 1l-9 3l15 3l-10 3zM767 393l-18 -7l-5 2l29 10zM741 346l-1 5l51 20l-52 -14l-2 4l61 19
l-59 -12l-1 3l63 15q0 11 -6.5 18t-16.5 7q-15 0 -33 -7t-29 -15q8 -11 13.5 -24t8.5 -26q8 2 20 7t22 13zM807 242v6l45 20l-47 -14l-1 5l50 19l-23 -3l-2 4l25 10q-3 17 -20 17q-6 0 -13 -3t-14 -7t-12.5 -9t-7.5 -8q5 -9 10 -20.5t8 -22.5q10 3 19.5 7.5t14.5 12.5z
M894 174l-46 -31v5l45 30zM890 183l-43 -27l-2 2l40 28zM853 123v4l40 31l-41 -24v6l46 28q0 8 -4.5 15t-11.5 7q-13 0 -27.5 -10t-22.5 -18q6 -8 11 -20.5t9 -24.5q9 6 20 12.5t17 17.5zM279 393l-2 15l-4 -21l-4 19l-5 -27l-2 22l-6 -29v23l-9 -32l1 26l-9 -33l-1 24
l-8 -31l-1 13l-6 -21l-1 13l-8 -15l2 13q-21 -5 -44 -15t-42.5 -23.5t-32.5 -30t-13 -34.5q4 1 9 13q0 -6 -1 -11t-3 -10q4 1 9 12q0 -7 -0.5 -11t-1.5 -7q2 3 4 7t4 9q0 -15 -1 -19q6 8 9 17q0 -5 0.5 -10t0.5 -10q3 7 5 20q3 -9 3 -21q2 5 3.5 10.5t3.5 11.5q1 -4 1 -21
q4 12 6 28q2 -3 2 -8v-19q5 19 6 32q2 -6 2.5 -14t0.5 -16q4 16 6 37q2 -6 2 -13.5v-23.5q4 10 6 20t2 24q2 -7 2 -13v-11v-9t-1 -8q3 8 4.5 18t3.5 23q2 -9 2 -18.5v-18.5q2 8 4 16.5t3 18.5q2 -7 2 -15v-16q5 11 5 30q5 -7 5 -17q0 -5 -1 -8q5 10 5 31q3 -9 3 -27
q5 9 6 16.5t1 16.5q2 -5 3.5 -12.5t2.5 -15.5q3 12 3 23q0 6 -2 16q5 -8 8 -33q4 15 4 31q0 4 -0.5 7.5t-0.5 7.5q3 -8 4.5 -18t3.5 -23q1 8 1 18.5v30.5q3 -10 5 -20.5t2 -25.5q3 8 4 16t1 21q3 -6 4.5 -14t1.5 -22q4 13 4 26q0 7 -1 10q4 -11 6 -33q2 7 2 14v22
q5 -10 8 -35q3 16 3 29q0 8 -2 18q4 -10 6.5 -20t2.5 -20q1 5 1 10.5v10.5v9.5t-1 9.5q3 -8 5.5 -16.5t4.5 -17.5q1 8 1 17.5v27.5q3 -8 5 -17.5t2 -23.5q4 16 4 35q0 11 -1 16q5 -10 6.5 -21.5t2.5 -25.5q1 8 1.5 16t0.5 16q0 7 -0.5 13t-1.5 12q4 -8 5.5 -21t3.5 -29
q1 6 1 11.5v11.5q0 25 -4 48q5 -14 8.5 -30t5.5 -36q1 5 1.5 9.5t0.5 9.5q0 11 -1.5 20.5t-2.5 17.5q3 -9 5.5 -21.5t4.5 -29.5q2 11 2 23.5v25.5q2 -9 4 -20.5t4 -26.5q1 5 1 9.5v10.5v11.5t-1 13.5q2 -8 4 -17.5t3 -23.5q2 10 2 21v22q4 -8 5.5 -19t1.5 -23q4 15 4 33v9
t-1 9q1 -2 4 -14t3 -28q1 7 1.5 13t0.5 12q0 8 -0.5 15.5t-1.5 15.5q3 -10 5.5 -22.5t4.5 -28.5q1 7 1.5 14.5t0.5 15.5t-0.5 16.5t-1.5 18.5q6 -23 9 -58v64l6 -60q1 8 1 16v16v17t-1 19l9 -63q0 21 0.5 35t2.5 24q2 13 10 28.5t8 35.5l-12 -34l1 25l-7 -32l-3 29l-5 -39
l-3 36l-4 -34l-2 31l-4 -38l-4 35l-2 -39l-4 40l-3 -45l-3 41l-5 -50l-2 47l-8 -55l3 52l-10 -53l3 48l-11 -45l3 42l-12 -39l5 34l-13 -30l5 29l-14 -29l2 23l-10 -21l-1 16l-7 -17l-1 16l-7 -16l-1 11l-6 -14l-2 11zM351 284q14 2 27 9t20 15v5q-9 -8 -22.5 -15.5
t-28.5 -9.5zM185 209q-22 -7 -40 -9.5t-35 -2.5q-16 0 -27.5 7t-16.5 21q0 -14 11 -24t31 -10q18 0 37 3.5t40 14.5zM330 284q-11 -12 -38 -23.5t-65 -11.5q-18 -13 -43.5 -25.5t-64.5 -12.5q-16 0 -27.5 6.5t-16.5 20.5q0 -14 11 -23.5t31 -9.5q37 0 64.5 12t48.5 26
q38 0 64 11t37 26zM341 297q23 7 36 15t24 19v5q-10 -10 -25 -19.5t-38 -15.5zM327 297q-17 -18 -42.5 -26.5t-54.5 -12.5q3 0 5.5 -0.5t5.5 -0.5q26 0 52 10.5t35 24.5zM508 471q11 -14 22.5 -23.5t27.5 -15.5q-2 -9 -9.5 -19.5t-18 -19.5t-23.5 -15t-25 -6q-15 0 -26 10
t-11 27q0 7 5.5 16.5t14 18t20 16t23.5 11.5zM882 200q12 0 19 -10t7 -22q0 -13 -6 -22.5t-15 -17t-19.5 -14t-19.5 -12.5q-8 21 -16 38t-15 25q5 3 13 9t17 12t18.5 10t16.5 4zM834 316q16 0 23.5 -9.5t7.5 -25.5q0 -13 -6.5 -22.5t-16 -16t-21.5 -11.5t-23 -8
q0 2 -2.5 9.5t-6.5 17t-8 18.5t-7 14q8 11 27 22.5t33 11.5zM778 421q14 0 23.5 -10.5t9.5 -25.5q0 -12 -11.5 -22.5t-25.5 -18t-27 -12t-17 -5.5q-2 17 -9.5 33t-19.5 33q18 9 38 18.5t39 9.5zM1336 32q14 17 22.5 43t13.5 54.5t7 56t2 48.5q0 43 -8 92t-24.5 97.5
t-41 93.5t-56.5 79.5t-72 55.5t-88 22q-9 0 -20.5 -3t-16.5 -11q49 -22 92 -64t75 -98.5t50.5 -123t18.5 -136.5q0 -57 -17 -107t-39 -88q18 20 33 50t32 76q-4 -26 -16.5 -61t-29.5 -72q17 21 33 57t27 74q-3 -31 -15.5 -67t-29.5 -71q20 26 32 58t26 70q-5 -35 -20 -70.5
t-29 -63.5q17 20 32 54t26 73q-3 -31 -14.5 -66.5t-26.5 -60.5q16 19 27 46t19 60q-5 -28 -10.5 -54t-16.5 -48q14 15 21.5 36t11.5 47q1 -5 1.5 -11t0.5 -13q0 -14 -2.5 -27.5t-9.5 -26.5zM824 274l-21 -7l-5 2l25 9zM845 299l-49 -21l-2 4l42 20zM786 406l-60 -21l-3 3
l52 19zM797 389l-24 -6l2 3l22 6v-3zM522 500q-5 -8 -11 -13t-12 -9l-13.5 -9t-15.5 -13q5 11 18.5 20.5t33.5 23.5zM760 428q-14 -7 -38.5 -14t-40.5 -17q6 6 16 11t21 9t22 6.5t20 4.5zM830 323q-14 -7 -32 -14t-38 -23q12 16 32.5 25t37.5 12zM877 207q-16 -7 -31 -14
t-38 -17q24 16 38 22t31 9z" />
    <glyph glyph-name="equal" unicode="=" horiz-adv-x="334" 
d="M31 456h281v-75h-281v75zM31 318h281v-75h-281v75z" />
    <glyph glyph-name="greater" unicode="&#x3e;" horiz-adv-x="1757" 
d="M880 207q17 -3 31 -9t38 -22q-23 10 -38 17t-31 14zM927 323q17 -3 37.5 -12t32.5 -25q-20 16 -38 23t-32 14zM997 428q9 -2 20 -4.5t22 -6.5t21 -9t16 -11q-16 10 -40.5 17t-38.5 14zM1235 500q20 -14 33.5 -23.5t18.5 -20.5q-8 8 -15.5 13l-13.5 9t-12 9t-11 13z
M960 392l22 -6l2 -3l-24 6v3zM982 407l52 -19l-3 -3l-60 21zM921 302l42 -20l-2 -4l-49 21zM934 278l25 -9l-5 -2l-21 7zM421 32q-7 13 -9.5 26.5t-2.5 27.5q0 7 0.5 13t1.5 11q4 -26 11.5 -47t21.5 -36q-11 22 -16.5 48t-10.5 54q8 -33 19 -60t27 -46q-15 25 -26.5 60.5
t-14.5 66.5q11 -39 26 -73t32 -54q-14 28 -29 63.5t-20 70.5q14 -38 26 -70t32 -58q-17 35 -29.5 71t-15.5 67q11 -38 27 -74t33 -57q-17 37 -29.5 72t-16.5 61q17 -46 32 -76t33 -50q-22 38 -39 88t-17 107q0 70 18.5 136.5t50.5 123t75 98.5t92 64q-5 8 -16.5 11t-20.5 3
q-48 -1 -88 -22t-72 -55.5t-56.5 -79.5t-41 -93.5t-24.5 -97.5t-8 -92q0 -21 2 -48.5t7 -56t13.5 -54.5t22.5 -43zM979 421q19 0 39 -9.5t38 -18.5q-12 -17 -19.5 -33t-9.5 -33q-4 1 -17 5.5t-27.5 12t-25.5 18t-11 22.5q0 15 9.5 25.5t23.5 10.5zM923 316q14 0 33 -11.5
t27 -22.5q-3 -5 -7 -14t-8 -18.5t-6.5 -17t-2.5 -9.5q-11 3 -23 8t-21.5 11.5t-16 16t-6.5 22.5q0 16 7.5 25.5t23.5 9.5zM875 200q7 0 16.5 -4t18.5 -10t17 -12t13 -9q-7 -8 -15 -25t-16 -38q-9 6 -19.5 12.5t-19.5 14t-15 17t-6 22.5q0 12 7 22t19 10zM1249 471
q12 -4 23.5 -11.5t20 -16t14 -18t5.5 -16.5q0 -17 -11 -27t-26 -10q-12 0 -25 6t-23.5 15t-18 19.5t-9.5 19.5q16 6 27.5 15.5t22.5 23.5zM1429 292q9 -14 35 -24.5t52 -10.5q3 0 5.5 0.5t5.5 0.5q-29 4 -54.5 12.5t-42.5 26.5zM1419 301q-23 6 -38 15.5t-25 19.5v-5
q11 -11 24 -19t36 -15zM1426 280q11 -15 37 -26t64 -11q21 -14 48.5 -26t64.5 -12q20 0 31 9.5t11 23.5q-5 -14 -16.5 -20.5t-27.5 -6.5q-39 0 -64.5 12.5t-43.5 25.5q-38 0 -65 11.5t-38 23.5zM1572 209q21 -11 40 -14.5t37 -3.5q20 0 31 10t11 24q-5 -14 -16.5 -21
t-27.5 -7q-17 0 -35 2.5t-40 9.5zM1410 288q-15 2 -28.5 9.5t-22.5 15.5v-5q7 -8 20 -15t27 -9zM1472 411l-2 -11l-6 14l-1 -11l-7 16l-1 -16l-7 17l-1 -16l-10 21l2 -23l-14 29l5 -29l-13 30l5 -34l-12 39l3 -42l-11 45l3 -48l-10 53l3 -52l-8 55l-2 -47l-5 50l-3 -41
l-3 45l-4 -40l-2 39l-4 -35l-4 38l-2 -31l-4 34l-3 -36l-5 39l-3 -29l-7 32l1 -25l-12 34q0 -20 8 -35.5t10 -28.5q2 -10 2.5 -24t0.5 -35l9 63q-1 -10 -1 -19v-17v-16t1 -16l6 60v-64q3 35 9 58q-1 -10 -1.5 -18.5t-0.5 -16.5t0.5 -15.5t1.5 -14.5q2 16 4.5 28.5t5.5 22.5
q-1 -8 -1.5 -15.5t-0.5 -15.5q0 -6 0.5 -12t1.5 -13q0 16 3 28t4 14q-1 -5 -1 -9v-9q0 -18 4 -33q0 12 1.5 23t5.5 19v-22t2 -21q1 14 3 23.5t4 17.5q-1 -7 -1 -13.5v-11.5v-10.5t1 -9.5q2 15 4 26.5t4 20.5v-25.5t2 -23.5q2 17 4.5 29.5t5.5 21.5q-1 -8 -2.5 -17.5
t-1.5 -20.5q0 -5 0.5 -9.5t1.5 -9.5q2 20 5.5 36t8.5 30q-4 -23 -4 -48v-11.5t1 -11.5q2 16 3.5 29t5.5 21q-1 -6 -1.5 -12t-0.5 -13q0 -8 0.5 -16t1.5 -16q1 14 2.5 25.5t6.5 21.5q-1 -5 -1 -16q0 -19 4 -35q0 14 2 23.5t5 17.5v-27.5t1 -17.5q2 9 4.5 17.5t5.5 16.5
q-1 -5 -1 -9.5v-9.5v-10.5t1 -10.5q0 10 2.5 20t6.5 20q-2 -10 -2 -18q0 -13 3 -29q3 25 8 35v-22t2 -14q1 22 6 33q-1 -3 -1 -10q0 -13 4 -26q0 14 1.5 22t4.5 14q0 -13 1 -21t4 -16q0 15 2 25.5t5 20.5v-30.5t1 -18.5q2 13 3.5 23t4.5 18q0 -4 -0.5 -7.5t-0.5 -7.5
q0 -16 4 -31q3 25 8 33q-2 -10 -2 -16q0 -11 3 -23q1 8 2.5 15.5t3.5 12.5q0 -9 1 -16.5t6 -16.5q0 18 3 27q0 -21 5 -31q-1 3 -1 8q0 10 5 17q0 -19 5 -30v16t2 15q1 -10 3 -18.5t4 -16.5v18.5t2 18.5q2 -13 3.5 -23t4.5 -18q-1 4 -1 8v9v11t2 13q0 -14 2 -24t6 -20v23.5
t2 13.5q2 -21 6 -37q0 8 0.5 16t2.5 14q1 -13 6 -32v19t2 8q2 -16 6 -28q0 17 1 21q2 -6 3.5 -11.5t3.5 -10.5q0 12 3 21q2 -13 5 -20q0 5 0.5 10t0.5 10q3 -9 9 -17q-1 4 -1 19q2 -5 4 -9t4 -7q-1 3 -1.5 7t-0.5 11q5 -11 9 -12q-2 5 -3 10t-1 11q5 -12 9 -13
q0 18 -13 34.5t-32.5 30t-42.5 23.5t-44 15l2 -13l-8 15l-1 -13l-6 21l-1 -13l-8 31l-1 -24l-9 33l1 -26l-9 32v-23l-6 29l-2 -22l-5 27l-4 -19l-4 21l-2 -15zM868 147q6 -11 17 -17.5t20 -12.5q4 12 9 24.5t11 20.5q-8 8 -22.5 18t-27.5 10q-7 0 -11.5 -7t-4.5 -15l46 -28
v-6l-41 24l40 -31v-4zM872 186l40 -28l-2 -2l-43 27zM864 178l45 -30v-5l-46 31zM918 256q5 -8 14.5 -12.5t19.5 -7.5q3 11 8 22.5t10 20.5q-2 3 -7.5 8t-12.5 9t-14 7t-13 3q-17 0 -20 -17l25 -10l-2 -4l-23 3l50 -19l-1 -5l-47 14l45 -20v-6zM977 359q10 -8 22 -13t20 -7
q3 13 8.5 26t13.5 24q-11 8 -29 15t-33 7q-10 0 -16.5 -7t-6.5 -18l63 -15l-1 -3l-59 12l61 -19l-2 -4l-52 14l51 -20l-1 -5zM984 398l29 -10l-5 -2l-18 7zM954 358l-10 -3l15 -3l-9 -3l16 -1l-10 -5h19l-12 -6l22 1l-12 -5h21l-12 -5l23 1l-13 -5l22 2l-12 -7l18 4l-8 -9
l14 7l-3 -10q10 11 17 26t15 30q-1 -13 -7.5 -29t-15.5 -33q12 13 21.5 32t16.5 36q-1 -13 -9.5 -33.5t-19.5 -40.5q11 13 21 33t19 40q-5 -18 -13 -37t-18 -39q14 15 23.5 35.5t20.5 40.5q-6 -21 -14.5 -40.5t-19.5 -39.5q14 17 25 37.5t22 41.5q-4 -15 -15 -38.5
t-23 -45.5q14 20 25 40t22 41q-14 -43 -38 -83q25 34 47 75q-8 -20 -17 -39t-21 -39q14 14 24.5 32.5t21.5 38.5q-7 -18 -15.5 -36.5t-19.5 -38.5q14 15 24.5 32.5t21.5 37.5q-6 -17 -15.5 -35.5t-21.5 -39.5q13 13 23.5 31t21.5 38q-6 -15 -15.5 -34.5t-21.5 -40.5
q14 16 24 32t20 35q-6 -19 -14.5 -37t-19.5 -35q12 12 22.5 30t19.5 38q-5 -16 -13 -34.5t-19 -38.5q20 26 38 65q-5 -15 -12.5 -31.5t-18.5 -36.5q11 12 20 28t18 34q-8 -29 -27 -65q12 14 18.5 27.5t14.5 30.5q-6 -28 -24 -62q11 13 19.5 27.5t14.5 31.5q-2 -16 -8.5 -32
t-16.5 -33q13 13 20.5 30t12.5 34q-2 -17 -8 -34t-14 -34q24 31 33 68q-2 -18 -8 -36t-14 -36q11 14 18.5 32.5t12.5 39.5q-4 -20 -8 -39.5t-12 -38.5q12 16 18 37t9 39q0 -20 -4 -41t-11 -41q11 16 16 36.5t8 40.5q0 -41 -10 -80q9 17 13 36t6 37q0 -20 -1.5 -39t-5.5 -37
q8 14 10 31t4 37q2 -8 2.5 -14.5t0.5 -16.5q0 -8 -0.5 -17.5t-1.5 -18.5q5 14 7 32t3 34q3 -14 3 -30q0 -8 -0.5 -17.5t-1.5 -17.5q3 11 4.5 28.5t2.5 36.5q2 -13 3 -28.5t1 -36.5q2 13 4 28.5t3 34.5q3 -24 3 -59q4 21 6 58q2 -11 3.5 -24t1.5 -32q3 16 3.5 29t1.5 27
q2 -10 4 -22t2 -29q2 10 3 22.5t2 28.5q2 -8 3 -18.5t1 -21.5q2 8 4 19t3 24q3 -11 3 -30q8 9 8 30q0 13 -6 27l-4 -18l-6 30l-2 -29l-7 33l-3 -34l-8 33l-2 -34l-8 33l-2 -34l-8 32l-2 -29l-7 29l-2 -27l-5 26l-3 -23l-5 25l-4 -20l-6 21l-2 -15l-5 17l-3 -14l-5 16l-4 -12
l-5 14l-3 -10l-5 14l-4 -7l-3 10l-5 -5l-3 9l-5 -5l-3 13l-7 -6l-7 9q-19 13 -45 28t-53 28t-52 21t-41 8q-55 0 -55 -50q0 -13 8 -24zM1224 409q11 -12 25 -17.5t25 -5.5q26 0 26 25q0 8 -13 23t-36 23l-3 -5l16 -5l5 -4l-25 6l40 -20l2 -5l-49 18l56 -28l-1 -5l-62 27
l60 -33l-4 -3l-63 33l55 -36l-7 -1l-57 30l49 -31zM1197 424q4 -8 12 -18.5t19.5 -19.5t24.5 -15.5t27 -6.5q23 0 33 13t10 33q3 -9 3 -16q0 -17 -14 -26.5t-31 -9.5q-26 0 -49.5 19t-34.5 39v8zM978 166q-7 4 -12 7.5t-10 6.5q-17 13 -38 23.5t-43 10.5q-17 0 -27.5 -15
t-10.5 -32q0 -5 1 -9.5t3 -9.5l13 -8h-10l13 -5l-9 -1l12 -4l-7 -4l16 -2l-9 -4l15 -2l-9 -4l17 -1l-10 -5l21 -2l-11 -5h18l-7 -7l15 3l-2 -9q16 15 32 48q-3 -13 -9 -25.5t-15 -26.5q11 10 20.5 25.5t19.5 33.5q-7 -19 -14.5 -33t-16.5 -31q12 14 22.5 30.5t21.5 35.5
q-11 -33 -36 -69q14 14 25.5 30t22.5 36q-8 -20 -17.5 -36.5t-21.5 -34.5q14 13 25 29.5t21 36.5q-5 -19 -14 -35t-21 -35q14 13 23.5 28t20.5 35q-7 -19 -15 -34.5t-19 -32.5q14 14 23 29.5t19 32.5q-6 -18 -13.5 -33t-18.5 -33q9 11 19.5 28t20.5 35q-5 -17 -14 -34
t-17 -31q11 11 20 26.5t18 32.5q-11 -31 -30 -61q11 11 19.5 23.5t17.5 30.5q-5 -17 -12 -31t-17 -28q14 14 23 27t17 33q-4 -17 -11 -31.5t-19 -32.5q12 12 21 27t17 33q-5 -17 -12 -32t-18 -32q12 13 21 25.5t17 31.5q-5 -17 -11.5 -31.5t-17.5 -31.5q23 24 37 57
q-4 -16 -10.5 -29.5t-16.5 -29.5q22 22 34 52q-5 -25 -21 -52q14 14 26 41q-2 -9 -4.5 -18t-7.5 -20q7 5 11.5 13t7.5 17q1 -2 1 -5q0 -7 -5 -15q13 13 13 33q0 11 -1.5 16t-3.5 10l-2 -18l-4 24l-3 -19l-5 26l-1 -20l-5 24l-2 -20l-4 24l-3 -19l-6 24l-1 -17l-6 21l-2 -17
l-6 22l-2 -18l-4 23l-3 -20l-4 23l-3 -19l-4 23l-3 -16l-4 20l-3 -15l-6 19l-2 -16l-3 19l-2 -15l-4 16l-3 -7zM1261 350q35 0 49.5 9.5t19.5 24.5q0 -17 -14.5 -27.5t-31.5 -10.5q-5 0 -11 0.5t-12 3.5zM601 561q13 12 33 24.5t42.5 23t46.5 17.5t47 9q-77 -23 -130 -59
t-81 -95q12 21 32.5 42.5t47 40t55.5 33t57 22.5q-63 -28 -113.5 -70.5t-78.5 -101.5q37 62 87.5 102.5t99.5 57.5q-59 -28 -104.5 -77.5t-75.5 -111.5q35 57 78.5 104t95.5 70q-31 -19 -57.5 -43t-47 -50.5t-34.5 -53t-21 -49.5q35 66 76 116t84 64q-29 -15 -53 -41
t-43 -55t-32 -56.5t-19 -45.5q16 32 33 62t35.5 54t39 41.5t43.5 24.5q-29 -15 -51.5 -40.5t-39 -53.5t-28 -54.5t-17.5 -44.5q15 29 28.5 54.5t28.5 47t32 38t40 28.5q-22 -16 -40 -39.5t-32 -49t-23.5 -50t-15.5 -42.5q23 47 48.5 90.5t53.5 65.5q-15 -18 -28.5 -40
t-24 -44.5t-17 -43.5t-6.5 -37q11 33 28 69.5t39 59.5q-21 -37 -30.5 -65t-9.5 -48v-11t1 -11q10 49 23 79t27 53q-8 -26 -19 -52t-11 -55q0 -5 0.5 -12t1.5 -12q7 39 20 77.5t26 76.5q-3 -16 -8 -32.5l-10 -33t-9 -33t-4 -32.5q0 -5 0.5 -11.5t1.5 -11.5q4 39 19 80t23 79
q-1 -15 -4.5 -31t-7.5 -32t-7 -31.5t-3 -30.5q0 -7 1 -14.5t3 -13.5q1 40 12.5 82.5t20.5 76.5q-1 -30 -8.5 -62t-7.5 -61q0 -16 4 -28q2 36 11.5 78t15.5 78q0 -26 -5 -54t-5 -55q0 -17 5 -37q1 37 6.5 77.5t11.5 71.5q-1 -19 -2 -37t-1 -35q0 -19 1 -35.5t5 -30.5
q0 63 1.5 94.5t7.5 49.5q-1 -12 -1.5 -24t-0.5 -25q0 -20 2.5 -39.5t8.5 -37.5q-1 11 -1.5 22t-0.5 21q0 26 2 48.5t4 43.5q2 -32 3.5 -63.5t7.5 -60.5q-2 12 -2 24.5v25.5q0 24 1 44.5t3 32.5q1 -29 3 -57.5t7 -57.5v39q0 20 1 40.5t5 40.5q1 -32 0.5 -62t3.5 -47v32.5
t1 34t2 30t4 21.5q2 -26 1 -55t4 -54q0 29 1 57.5t9 59.5q-1 -17 -2 -33t-1 -31q0 -22 3 -41q2 29 2.5 56t8.5 50q-3 -24 -3 -48q0 -23 3 -47q0 29 5 57t11 47q-2 -20 -4 -45.5t-2 -50.5q5 28 9 50.5t12 42.5q-2 -23 -4.5 -43.5t-2.5 -40.5q5 23 10 45.5t12 39.5
q-5 -22 -7.5 -41.5t-2.5 -34.5q3 26 11 51.5t19 40.5q-5 -17 -9.5 -41t-5.5 -44q5 26 14.5 51t17.5 48q-2 -24 -8 -42.5t-7 -50.5q6 28 18 52.5t22 54.5q-3 -27 -13 -55t-10 -48q8 26 23.5 53t25.5 66q0 -20 -5.5 -36.5t-11.5 -31t-11 -26.5t-6 -22q9 23 24.5 48.5
t25.5 55.5q0 -26 -12.5 -48.5t-23.5 -56.5q15 21 27.5 41t21.5 36q-5 -17 -14.5 -35.5t-17.5 -41.5q5 6 11 15.5t12.5 19t13 18t12.5 12.5q-11 -17 -20.5 -32t-16.5 -32q22 34 51 53q-11 -14 -22.5 -28t-17.5 -30q16 20 28 30t29 18q-14 -10 -26.5 -21.5t-20.5 -27.5
q17 16 32.5 26t32.5 14q-14 -7 -27.5 -17.5t-24.5 -27.5q17 14 33.5 22t34.5 13q-15 -6 -29.5 -15t-27.5 -25q18 12 35.5 18.5t35.5 10.5q-17 -7 -31 -15.5t-25 -21.5q18 11 34.5 17t33.5 9q-36 -12 -55 -36q31 20 62 23q-31 -14 -50 -33q16 10 32.5 14.5t33.5 6.5
q-18 -7 -32 -14t-24 -15q27 15 67 17q-16 -4 -31 -9.5t-27 -16.5q16 4 32 4q11 0 20 -3q-13 -1 -24.5 -3t-22.5 -8h18.5t19.5 -1l-32 -7l31 -4l-25 -6l30 -6l-18 -2l26 -7l-16 -2l23 -6l-15 -4l25 -5l-13 -5l24 -3l-18 -5l26 -3l-15 -5l23 -2l-12 -6l24 -3l-15 -3
q9 -4 19.5 -6.5t21.5 -2.5q30 0 44 16.5t14 37.5q0 18 -9 33.5t-21 28t-25 22.5t-21 19q-7 7 -11.5 13.5t-9.5 14.5q-23 29 -53 52t-65 40q1 -6 0 -11q-7 10 -13 15q2 -7 0 -13q-2 5 -4.5 9t-4.5 6q1 -4 -1 -14q-3 14 -10 18q2 -9 0 -17q-3 14 -11 22q3 -14 2 -21
q-6 16 -11 23q1 -6 1.5 -12.5t-0.5 -11.5q-2 8 -4 15.5t-6 12.5q1 -15 0 -27q-1 9 -2.5 17t-4.5 13q1 -8 0.5 -14t-1.5 -12q-1 10 -3 18t-4 13q2 -15 -1 -29q-2 10 -3.5 18.5t-5.5 14.5q1 -5 1.5 -10.5t0.5 -12.5v-9.5t-2 -9.5q-2 20 -5 30t-7 15q1 -2 1.5 -7.5t0.5 -8.5
q0 -2 -0.5 -9t-2.5 -9q0 17 -4.5 25.5t-7.5 12.5q3 -8 5 -18.5t2 -18.5q0 -9 -2 -20t-10 -28q4 17 4.5 26t0.5 17q0 20 -4 29.5t-8 14.5q5 -17 5 -27q0 -5 -1 -12.5t-3 -11.5q0 40 -15 55q3 -10 5 -21t2 -24q0 -28 -12 -58q2 10 4 23.5t2 25.5q0 13 -3.5 30.5t-9.5 27.5
q2 -5 3.5 -16.5t1.5 -22.5q0 -8 -2 -22.5t-9 -34.5q2 11 3.5 24t1.5 24q0 13 -2 24.5t-7 21.5q2 -13 3.5 -22t1.5 -20q0 -19 -6 -35q0 5 0.5 10t0.5 10q0 35 -10 58q3 -15 3 -29q0 -4 -0.5 -11t-1.5 -11q-2 20 -4.5 31.5t-6.5 20.5q1 -7 1.5 -14.5t0.5 -12.5q0 -9 -2 -17
q-3 28 -15 43q2 -6 3.5 -11t1.5 -10q0 -4 -0.5 -7t-1.5 -7q-2 11 -7 20t-11 17q2 -6 3.5 -15t1.5 -17q-3 8 -9.5 18t-11.5 13q2 -5 3.5 -13t1.5 -12q-5 11 -12.5 17.5t-12.5 8.5q6 -8 9.5 -15t3.5 -10q-8 10 -18.5 17t-20.5 9q9 -5 16.5 -13t8.5 -13q-18 16 -33 19.5
t-24 4.5q11 -3 22.5 -10.5t16.5 -12.5q-18 10 -35 14.5t-37 4.5q14 -3 30 -9t24 -14q-14 7 -32.5 12t-32.5 5q-4 0 -10 -0.5t-11 -2.5q23 -1 41.5 -6t28.5 -13q-17 5 -28 6.5t-22 1.5q-25 0 -50.5 -8t-49 -20t-42 -26.5t-30.5 -27.5zM1212 177l-8 26l-2 -21l-7 27l-3 -22
l-6 28l-2 -23l-7 28l-1 -25l-6 31l-2 -25l-6 28l-2 -25l-6 28l-2 -18l-6 22l-2 -21l-6 24l-3 -20l-7 24l-2 -19l-7 23l-1 -17l-7 19l-1 -14l-7 17l-1 -14l-7 16l-1 -10l-5 11l-3 -9l-8 10q-22 6 -42.5 18t-39.5 24.5t-37.5 22t-37.5 9.5q-14 0 -29 -10.5t-15 -34.5
q0 -23 11 -37l14 -4l-9 -3l16 -2l-11 -4l18 -1l-10 -5l19 2l-10 -6l19 1l-12 -5l23 1l-15 -6l22 3l-12 -8l16 5l-4 -11q8 8 16 19t15 25q-5 -12 -10.5 -25t-13.5 -27q18 16 36 54q-8 -31 -26 -62q11 11 20 27.5t17 33.5q-8 -31 -27 -65q10 14 20 30.5t20 34.5
q-6 -19 -14 -37t-18 -35q22 30 42 69q-6 -18 -14.5 -35.5t-19.5 -35.5q21 28 44 68q-8 -18 -17 -36.5t-21 -38.5q12 17 24.5 35.5t24.5 38.5q-16 -38 -40 -77q13 15 25.5 33t23.5 39q-8 -18 -17 -37t-21 -39q12 15 23.5 33t22.5 39q-6 -20 -14.5 -39t-19.5 -39
q12 15 22.5 33.5t21.5 39.5q-7 -20 -15.5 -40t-19.5 -41q12 18 23.5 38t22.5 42q-7 -21 -16.5 -42.5t-20.5 -44.5q11 18 23 38.5t23 43.5q-7 -22 -15.5 -43.5t-19.5 -41.5q11 17 22.5 36t20.5 44q-9 -41 -30 -84q11 17 21 35.5t19 41.5q-6 -21 -13.5 -41.5t-18.5 -41.5
q12 16 21 35t17 41q-3 -18 -9.5 -37.5t-15.5 -42.5q18 33 34 76q-11 -41 -25 -84q10 17 17.5 36t13.5 39q-5 -22 -9.5 -41.5t-9.5 -36.5q8 15 14.5 33.5t10.5 41.5q-1 -20 -3.5 -40t-7.5 -40q7 16 12 35t7 41q0 -20 -1 -39t-4 -39q5 17 8.5 34.5t5.5 40.5q1 -5 1.5 -11
t0.5 -11q0 -25 -3 -52q4 14 6 32.5t4 36.5q1 -10 1.5 -20t0.5 -20q0 -7 -0.5 -13.5t-0.5 -14.5q3 11 5 22.5t2 24.5v8t-1 9q3 -11 4.5 -25.5t3.5 -34.5q1 5 1.5 10.5t0.5 11.5q0 10 -1 20t-2 21q4 -13 7 -26t5 -30q1 5 1 15q0 21 -4 38q5 -9 9 -20t6 -22q0 10 -1.5 20.5
t-5.5 20.5q5 -5 9 -10t6 -13q1 2 1 6q0 7 -5 15q2 -1 5 -2t5 -3q0 16 -6 24zM1134 604q29 -17 55.5 -39t40.5 -48q-20 25 -41 44t-47 34zM1158 578q25 -16 38 -28.5t19 -23.5q-15 17 -26.5 26t-19.5 14zM890 183l29 -20l-2 -2l-32 22h5zM831 155l-13 3l12 4l-14 2l13 5
l-14 3l14 4l-15 4l19 5l-16 3l20 6l-19 2l22 5l-22 2l25 5l-23 3l25 2l-24 5h27l-23 6l26 -2l-25 9l27 -4l-23 11l24 -6l-23 13l28 -9l-29 15l29 -8l-26 15l29 -7l-26 14l28 -7l-28 15l28 -6l-24 13l26 -7l-20 13l19 -7l-18 15l19 -8l-19 14l20 -9l-19 15l22 -10l-21 15
l23 -9l-22 17l23 -10l-21 17l24 -12l-23 20l24 -15l-21 20l21 -14l-20 21l24 -17l-21 20l22 -14l-19 20l23 -12l-21 17l19 -7l-14 8l12 6l-14 -3l13 7l-10 -1l3 11q-12 -19 -19.5 -39t-12.5 -52q0 5 -0.5 10.5t-0.5 12.5q0 16 3 42q-4 -11 -6 -26t-4 -31.5t-5 -33.5t-8 -32
q0 28 4 55t4 61q-8 -37 -11.5 -75.5t-6.5 -80.5q-3 16 -3 35q0 27 3 56t7 59q-9 -38 -14.5 -75.5t-7.5 -74.5q-3 18 -3 36q0 26 4.5 53t8.5 56q-8 -33 -13.5 -67.5t-9.5 -72.5q0 30 3.5 63.5t9.5 71.5q-18 -60 -24 -129q0 54 9 120q-8 -26 -12.5 -54t-6.5 -59q-2 7 -2 13v13
q0 19 3 40.5t7 46.5q-7 -24 -12 -50t-7 -55q-1 6 -1 12.5v14.5q0 34 6 73q-6 -22 -9 -45.5t-5 -49.5q-3 15 -3 31q0 26 8 64q-8 -19 -12 -41t-5 -47q-3 15 -3 32q0 22 6 54q-7 -17 -10 -37t-4 -43q-2 5 -2 11v13q0 20 6 56q-7 -17 -10 -35t-4 -39q-1 6 -1.5 13t-0.5 16t1 19
t3 24q-9 -29 -15 -68q-1 5 -1 10.5v10.5q0 11 1.5 23.5t3.5 24.5q-5 -10 -9 -26.5t-6 -40.5q-1 5 -1.5 10.5t-0.5 10.5q0 19 5 47q-6 -17 -10 -33.5t-6 -34.5q-2 4 -2 8v9q0 12 3 25.5t6 27.5q-8 -18 -11.5 -35.5t-5.5 -34.5q-2 5 -2 9.5v9.5q0 23 8 53q-9 -15 -11.5 -32.5
t-4.5 -37.5q-2 5 -2 10.5v10.5q0 11 2 23.5t5 26.5q-7 -16 -11 -34.5t-6 -38.5q-2 5 -2 10v10q0 14 3 28l6 28q-10 -17 -13.5 -36.5t-5.5 -42.5q-2 5 -2 10v10q0 14 3 29.5t8 32.5q-8 -17 -13 -38t-7 -46q-3 12 -3 24q0 16 3.5 32t8.5 32q-8 -20 -14 -43t-8 -48
q0 24 2.5 47.5t8.5 47.5q-8 -20 -14 -44.5t-8 -52.5q0 54 12 101q-15 -44 -21 -99q1 26 4.5 52t8.5 52q-8 -23 -13.5 -48t-8.5 -53q2 54 15 106q-15 -45 -27 -99q2 26 7 52t12 51q-11 -22 -18.5 -46.5t-12.5 -52.5q4 54 21 108q-9 -23 -18.5 -52.5t-17.5 -58.5q2 29 10 60
t16 59q-24 -57 -39 -122q3 36 11.5 68.5t19.5 62.5q-28 -58 -43 -124q6 37 14.5 70.5t20.5 64.5q-14 -30 -26 -64t-20 -72q6 38 15.5 75.5t21.5 74.5q-22 -31 -33.5 -85.5t-11.5 -123.5q-2 14 -3.5 27t-1.5 26q0 48 13 91t31 77q-24 -35 -37 -77t-13 -89q0 -43 12 -87
t38 -87q-11 26 -21 60t-10 72q0 8 0.5 17.5t1.5 17.5q4 -38 11.5 -78.5t31.5 -89.5q-9 28 -16 55.5t-7 56.5q0 7 1.5 19.5t3.5 19.5q1 -37 9 -78.5t25 -76.5q-8 27 -12.5 54t-4.5 54q0 8 1.5 16.5t2.5 16.5q0 -76 28 -145q-5 25 -9.5 50t-4.5 50q0 8 1 18t3 20
q2 -36 7 -71.5t17 -69.5q-7 29 -10.5 59.5t-3.5 47.5q0 5 0.5 15t2.5 15q3 -37 9 -72.5t17 -68.5l-9 54t-4 54q0 4 0.5 12.5t2.5 13.5q2 -34 7 -68t15 -68q-4 23 -7 47t-3 47q0 8 1 16.5t2 16.5q2 -36 6 -68.5t14 -61.5q-4 24 -6.5 46.5t-2.5 42.5q0 9 1 17.5t2 16.5
q2 -32 6 -63t14 -61q-4 22 -6.5 42.5t-2.5 40.5q0 8 1 16.5t2 16.5q2 -35 7 -64t13 -55q-4 21 -6.5 42.5t-2.5 33.5q0 17 3 32q2 -35 6.5 -60.5t13.5 -50.5q-4 20 -6.5 39.5t-2.5 36.5q0 15 3 29q2 -35 7.5 -59t13.5 -49q-4 20 -6 37t-2 34v18t2 19q3 -36 8 -60t13 -50
q-3 17 -6 39.5t-3 36.5q0 8 1 15.5t3 18.5q2 -34 6.5 -62.5t12.5 -49.5q-8 43 -8 83q0 17 3 32q2 -33 6 -61.5t11 -53.5q-4 24 -6 47t-2 45q0 6 0.5 11.5t0.5 10.5q5 -34 8 -64t13 -54q-6 31 -8 58t-2 55q4 -35 10 -63.5t16 -51.5q-6 25 -9.5 52.5t-3.5 58.5q7 -66 30 -113
q-17 53 -17 106q5 -32 12.5 -58t18.5 -49q-8 26 -14 53.5t-6 53.5q5 -32 14 -60t19 -48q-8 27 -14 55.5t-7 51.5q5 -30 14 -59t20 -49q-4 12 -8 27.5t-7.5 31.5t-6 30.5t-2.5 25.5q6 -26 16 -61t19 -55q-4 12 -8 28t-7.5 33t-6 33t-3.5 27q3 -14 7 -32t9 -35.5t10.5 -32.5
t11.5 -23q-4 10 -8.5 24.5t-8 30t-6 30.5t-2.5 26q5 -27 14.5 -59t25.5 -52q-4 10 -8.5 23.5t-8.5 27.5t-6.5 27t-2.5 22q3 -11 8 -26t10.5 -29.5t11.5 -27t12 -19.5q-3 7 -7.5 18.5t-8.5 23.5t-7 23t-3 19q3 -10 7.5 -22t10.5 -24t12 -21.5t11 -14.5q-7 14 -11 25.5
t-8 28.5q8 -13 15.5 -28.5t17.5 -22.5q-1 3 -3.5 8.5t-4.5 10.5l14 -8l-20 18l18 -5l-24 12l19 -2l-22 10l18 -1l-24 9h19l-29 10l20 -1l-26 9h17l-22 8h16l-23 7h13l-17 6l11 1l-15 6l10 2l-15 4l9 3l-12 3l9 4l-12 1l9 4l-11 1zM375 352q-10 -38 -15.5 -76.5t-5.5 -78.5
q0 -18 2.5 -40t7.5 -43.5t11.5 -42t14.5 -36.5q-14 50 -21 96t-7 87q0 35 3.5 68t9.5 66zM355 344q-10 -38 -15 -78t-5 -72q0 -37 8.5 -79t24.5 -74q-12 45 -19 90.5t-7 86.5q0 35 3.5 64t9.5 62zM335 339q-11 -34 -16 -72t-5 -73q0 -13 2 -31.5t5.5 -39t9.5 -40.5t14 -36
q-12 45 -17.5 87.5t-5.5 83.5q0 35 3.5 61.5t9.5 59.5zM313 323q-10 -26 -14 -62.5t-4 -73.5q0 -13 1.5 -30t5 -35t8.5 -35.5t13 -32.5q-12 45 -16.5 84t-4.5 80q0 17 0.5 29.5t2 24t3.5 23.5t5 28zM290 313q-10 -38 -12.5 -73t-2.5 -57q0 -28 7.5 -64.5t21.5 -63.5
q-13 42 -17.5 74.5t-4.5 56.5v24t1 32.5t2.5 35.5t4.5 35zM272 303q-10 -38 -12 -70t-2 -54q0 -28 7.5 -62.5t21.5 -61.5q-13 42 -17.5 72.5t-4.5 54.5q0 19 1.5 53.5t5.5 67.5zM253 303q-9 -31 -12 -66.5t-3 -57.5q0 -28 7.5 -62.5t21.5 -61.5q-13 42 -17.5 72.5t-4.5 54.5
q0 19 1.5 53.5t6.5 67.5zM232 284q-8 -24 -11 -53.5t-3 -51.5q0 -28 8.5 -61.5t22.5 -60.5q-13 42 -18.5 71t-5.5 53q0 19 1.5 45t5.5 58zM214 280q-10 -26 -12.5 -54.5t-2.5 -50.5q0 -28 8 -59.5t22 -58.5q-13 42 -18 69t-5 51q0 19 2 45t6 58zM196 266
q-10 -26 -12.5 -52.5t-2.5 -48.5q0 -28 6.5 -54t22.5 -52q-12 36 -17 60t-5 48q0 19 2 43t6 56zM177 256q-10 -26 -12.5 -50.5t-2.5 -46.5t6 -48t24 -52q-14 36 -18.5 57t-4.5 45q0 19 2 41t6 54zM160 249q-9 -23 -12 -49t-3 -48t6.5 -47.5t24.5 -45.5q-13 27 -18.5 49
t-5.5 46q0 19 2 41t6 54zM145 239q-16 -40 -16 -86q0 -22 6.5 -48t24.5 -46q-13 27 -18.5 49.5t-5.5 46.5q0 19 1.5 37t7.5 47zM131 234q-16 -40 -16 -86q0 -22 6.5 -45.5t24.5 -43.5q-13 26 -18.5 46.5t-5.5 44.5q0 19 1.5 37t7.5 47zM116 229q-8 -19 -12.5 -41.5
t-4.5 -44.5t8 -44.5t22 -38.5q-9 20 -16 40.5t-7 44.5q0 19 2 37t8 47zM110 60q-19 34 -19 80q0 19 1 36.5t6 47.5q-8 -19 -11 -41.5t-3 -44.5q-3 11 -3.5 21.5t-0.5 18.5v17.5t2 22.5q-8 -32 -8 -58q0 -10 2.5 -24t7 -28t11 -27t15.5 -21zM70 213q-6 -23 -7 -37.5t-1 -30.5
q0 -20 9 -46t23 -40q-14 27 -20 51t-6 55v22.5t2 25.5zM56 203q-9 -27 -9 -58q0 -20 7 -43t24 -40q-13 26 -19 50t-6 42q0 22 3 49zM46 390q9 -47 26 -58q-6 23 -8.5 42t-2.5 36t2 30.5t5 24.5q5 -30 4.5 -54.5t8.5 -38.5q3 48 8.5 94t20.5 88q-9 -50 -9 -100q0 -28 3 -56
q8 55 16.5 107t22.5 97q-14 -68 -14 -132q0 -11 1 -22.5t2 -22.5q8 54 18 105.5t27 96.5q-11 -42 -16 -87.5t-5 -85.5q11 53 22 102.5t28 90.5q-13 -42 -17.5 -84t-5.5 -84q9 49 20 95t28 85q-8 -37 -13.5 -74t-8.5 -74q10 41 21.5 80.5t28.5 76.5q-11 -35 -16 -70t-7 -69
q10 38 21 74.5t25 70.5q-11 -33 -17 -65.5t-9 -65.5q20 82 55 140q-11 -31 -18.5 -62t-13.5 -62q17 43 28.5 76t30.5 50q-20 -42 -25 -71t-6 -44q12 38 29 72t43 56q-20 -30 -29.5 -60.5t-9.5 -47.5q12 39 28.5 64.5t39.5 41t56 21.5t78 6q32 0 60 -8.5t42 -23.5q7 0 14.5 1
t14.5 1q17 0 34.5 -6t28.5 -17q6 3 20 6.5t31 5.5t36 3.5t36 1.5q50 0 105.5 -6t109.5 -23t101.5 -47.5t82.5 -80.5q18 -10 37.5 -17.5t38.5 -15t37 -17.5t35 -24q37 -8 77 -29.5t66 -53.5q24 -5 52 -17t51.5 -31t39 -43t15.5 -53q0 -18 -14 -33.5t-44 -15.5q-38 0 -69.5 14
t-60.5 33q-12 1 -26.5 4.5t-29 9t-27 13t-21.5 18.5q-19 2 -33.5 7.5t-27.5 19.5q3 -14 3 -27q0 -34 -23 -55.5t-71 -21.5q-19 0 -41 5q15 -20 15 -36q0 -35 -24 -53t-57 -18q-15 0 -28 2t-25 7q1 -5 1.5 -8.5t0.5 -8.5q0 -35 -24.5 -53.5t-66.5 -20.5q-31 -1 -64.5 -6.5
t-55.5 -5.5q-90 0 -176.5 15.5t-171.5 29.5q-12 -31 -31.5 -42.5t-46.5 -11.5q-35 0 -60.5 9.5t-59.5 22.5q-26 10 -53.5 13t-59.5 3q-45 0 -92 4t-93 11q-4 26 -13.5 45.5t-9.5 45.5q0 17 7 37q-9 19 -9 38v9.5t2 9.5l17 -21q-6 11 -10.5 24.5t-4.5 30.5q5 -14 10.5 -21
t10.5 -12q-10 20 -13.5 39t-3.5 33q6 -17 12.5 -27.5t12.5 -17.5q-9 29 -13.5 51.5t-6.5 36.5q6 -18 12 -30.5t14 -16.5q-10 26 -14 46t-4 37zM439 698q-10 -1 -21.5 -8.5t-22 -19.5t-19 -26t-11.5 -29q16 25 36.5 48.5t37.5 34.5zM481 707q-10 -1 -20.5 -7.5t-19.5 -15.5
t-15.5 -20t-9.5 -21q16 20 32 36.5t33 27.5zM530 714q-10 -1 -20 -6t-18.5 -12t-14.5 -14.5t-8 -13.5q17 17 31 27t30 19z" />
    <glyph glyph-name="question" unicode="?" horiz-adv-x="518" 
d="M250 727q48 0 90.5 -12t74.5 -36.5t51 -60.5t19 -84q0 -49 -15 -81.5t-37 -56t-48.5 -42.5t-48.5 -41.5t-37 -52.5t-15 -76h-84q-8 38 -8 63q0 29 8.5 50.5t21 39.5t27 35.5t27 40t21 52t8.5 71.5q0 26 -6 50t-18.5 42t-31.5 29t-44 11q-48 0 -75 -26t-27 -61
q8 19 22 30.5t32 11.5q31 0 49.5 -24.5t18.5 -60.5q0 -35 -24 -62t-67 -27q-39 0 -65.5 28.5t-26.5 76.5q0 46 16 79t44 54t66 30.5t82 9.5zM163 54q0 34 22 57t56 23t56 -23t22 -57q0 -33 -22 -55t-56 -22t-56 22.5t-22 54.5z" />
    <glyph glyph-name="at" unicode="@" horiz-adv-x="786" 
d="M618 224q16 0 28 10.5t20.5 27.5t13 39.5t4.5 45.5q0 66 -21.5 120.5t-60 94.5t-92.5 62t-119 22q-62 0 -115 -23t-91.5 -63t-60.5 -94.5t-22 -118.5q0 -63 21.5 -118t59.5 -95t91.5 -63t116.5 -23q40 0 77.5 8.5t70.5 24.5l30 -60q-33 -18 -81 -29.5t-97 -11.5
q-78 0 -145.5 28t-117 77t-78 116.5t-28.5 145.5q0 79 29 146t79 116.5t117 77.5t144 28q79 0 147 -27t118.5 -75.5t79 -116t28.5 -149.5q0 -26 -4.5 -61.5t-22.5 -68t-55.5 -55t-103.5 -22.5q-45 0 -78.5 17.5t-51.5 52.5q-21 -27 -54 -44t-77 -17q-54 0 -81.5 29t-27.5 70
q0 30 13.5 50.5t34.5 35.5t47.5 26.5t52.5 24t49 28t38 38.5q-2 42 -20 58.5t-41 16.5t-30 -12.5t-7 -25.5q0 -6 2 -18t2 -17q0 -29 -18.5 -48t-47.5 -19t-47 21t-18 50q0 26 12.5 48t35 38.5t52.5 25.5t65 9q48 0 83 -12.5t57 -34t32.5 -51.5t10.5 -65v-139q0 -24 9.5 -38
t30.5 -14h12zM448 410q-7 -19 -26.5 -34t-40.5 -31.5t-37 -37t-16 -51.5q0 -24 13 -38t33 -14q38 0 56 42t18 114v50z" />
    <glyph glyph-name="A" unicode="A" horiz-adv-x="584" 
d="M224 708h140l127 -565q8 -38 26.5 -50.5t44.5 -12.5v-80h-264v80q20 0 36 9t16 32q0 10 -3 22l-15 63h-116l-15 -63q-3 -12 -3 -25q0 -23 16.5 -30.5t34.5 -7.5v-80h-227v80q26 0 46 12.5t28 50.5zM274 465l-38 -169h77z" />
    <glyph glyph-name="B" unicode="B" horiz-adv-x="572" 
d="M236 627v-225h53q29 0 48 9.5t30 24.5t15 33t4 36q0 63 -23 92.5t-67 29.5h-60zM444 346q18 -10 35.5 -25.5t30.5 -35.5t21 -44t8 -50q0 -92 -58 -141.5t-170 -49.5h-278v80q24 0 41.5 13t17.5 50v421q0 37 -17.5 50.5t-41.5 13.5v80h295q93 0 146 -54t53 -148
q0 -59 -20 -98t-63 -62zM296 85q44 0 70.5 29.5t26.5 92.5q0 20 -5.5 38.5t-17.5 33t-32 23t-49 8.5h-53v-225h60z" />
    <glyph glyph-name="C" unicode="C" horiz-adv-x="462" 
d="M238 719q19 0 33.5 -6.5t26 -14t20 -13.5t16.5 -6q25 0 29 28h51v-273h-85q0 18 -2.5 50.5t-10 64.5t-22 56t-39.5 24q-27 0 -42.5 -27t-24 -68t-10.5 -89t-2 -91t3 -91.5t11.5 -89t23.5 -67t39 -26.5t39 23.5t23.5 55.5t12 65t4.5 53h97q0 -41 -6.5 -90.5t-25 -92.5
t-53 -72t-91.5 -29q-65 0 -109 33t-71 84t-39 113.5t-12 121.5q0 33 3 73.5t11 82t23 81t39 70t58 49t82 18.5z" />
    <glyph glyph-name="D" unicode="D" horiz-adv-x="557" 
d="M33 0v80q24 0 41.5 13t17.5 50v421q0 37 -17.5 50.5t-41.5 13.5v80h222q72 0 124.5 -27t87 -76t51.5 -116.5t17 -149.5q0 -75 -14 -137.5t-45 -107.5t-81.5 -69.5t-122.5 -24.5h-239zM237 624v-544h22q44 0 68.5 24.5t36.5 62.5t14.5 83.5t2.5 88.5q0 54 -5.5 105.5
t-19 91t-37.5 64t-60 24.5h-22z" />
    <glyph glyph-name="E" unicode="E" horiz-adv-x="493" 
d="M460 0h-427v80q24 0 41.5 13t17.5 50v421q0 37 -17.5 50.5t-41.5 13.5v80h416v-281h-77v11q0 42 -6 76t-19.5 58.5t-35.5 38t-53 13.5h-22v-209h91v-114h-91v-217h26q42 0 66.5 18t37 45t15.5 60t3 63v10h76v-280z" />
    <glyph glyph-name="F" unicode="F" horiz-adv-x="482" 
d="M236 301v-158q0 -38 16.5 -50.5t42.5 -12.5v-80h-262v80q24 0 41.5 13t17.5 50v421q0 37 -17.5 50.5t-41.5 13.5v80h416v-281h-77v11q0 34 -5.5 67.5t-19 60t-35 42.5t-53.5 16h-23v-209h91v-114h-91z" />
    <glyph glyph-name="G" unicode="G" horiz-adv-x="543" 
d="M253 -8q-65 0 -109 33t-71 84.5t-39 114t-12 121.5q0 33 3 73.5t12 82t24.5 81t41 70t62 49t86.5 18.5q24 0 42 -6.5t32 -14t25 -13.5t21 -6q24 0 28 28h52v-244h-86q-2 28 -7.5 57.5t-17 53.5t-29.5 39.5t-45 15.5q-29 0 -46.5 -27t-27.5 -68t-13 -89t-3 -91t4 -91.5
t14 -89t27.5 -67t44.5 -26.5q32 0 49 21t17 69q0 37 -14 61.5t-52 24.5v79h261v-79q-32 0 -47.5 -14t-15.5 -46v-196h-44q0 14 -6 27t-23 13q-9 0 -20 -7.5t-27 -16.5t-38 -16.5t-53 -7.5z" />
    <glyph glyph-name="H" unicode="H" horiz-adv-x="628" 
d="M241 415h144v149q0 37 -17 50.5t-41 13.5v80h262v-80q-26 0 -42.5 -13t-16.5 -51v-421q0 -38 16.5 -50.5t42.5 -12.5v-80h-262v80q24 0 41.5 13t17.5 50v158h-145v-158q0 -38 17 -50.5t43 -12.5v-80h-263v80q24 0 42 13t18 50v421q0 37 -18 50.5t-42 13.5v80h263v-80
q-26 0 -43 -13t-17 -51v-149z" />
    <glyph glyph-name="I" unicode="I" horiz-adv-x="350" 
d="M103 564q0 37 -17.5 50.5t-41.5 13.5v80h262v-80q-26 0 -42.5 -13t-16.5 -51v-421q0 -38 16.5 -50.5t42.5 -12.5v-80h-262v80q24 0 41.5 13t17.5 50v421z" />
    <glyph glyph-name="J" unicode="J" horiz-adv-x="479" 
d="M387 176q0 -54 -13.5 -90t-37.5 -58.5t-57.5 -32t-74.5 -9.5t-75 12.5t-59.5 36.5t-39.5 58t-14 77q0 48 23.5 76.5t61.5 28.5q16 0 30.5 -6t25.5 -17t18 -25.5t7 -32.5q0 -27 -10.5 -44t-33.5 -31q19 -38 52 -38q11 0 21 3t17 11t11 22.5t4 38.5v408q0 37 -17.5 50.5
t-41.5 13.5v80h262v-80q-26 0 -42.5 -13t-16.5 -51v-388z" />
    <glyph glyph-name="K" unicode="K" horiz-adv-x="616" 
d="M353 557q11 17 11 31q0 20 -12 30.5t-26 10.5v79h243v-79q-22 0 -37 -8.5t-32 -36.5l-130 -222l149 -233q12 -18 28.5 -32t35.5 -17v-80h-262v80q19 0 33.5 5t14.5 23q0 5 -1 11.5t-5 12.5l-126 196v-192q0 -31 16 -43.5t42 -12.5v-80h-262v80q24 0 42 13.5t18 50.5v421
q0 37 -18 50.5t-42 13.5v79h262v-79q-26 0 -42 -13t-16 -51v-209z" />
    <glyph glyph-name="L" unicode="L" horiz-adv-x="487" 
d="M33 708h262v-80q-26 0 -42.5 -13t-16.5 -51v-481h29q36 0 59 15.5t36.5 42t18.5 60t5 69.5v10h76v-280h-427v80q24 0 41.5 13t17.5 50v421q0 37 -17.5 50.5t-41.5 13.5v80z" />
    <glyph glyph-name="M" unicode="M" horiz-adv-x="781" 
d="M397 368l75 340h271v-80q-26 0 -42.5 -13t-16.5 -51v-421q0 -38 16.5 -50.5t42.5 -12.5v-80h-262v80q24 0 41.5 13t17.5 50v422l-124 -565h-87l-124 565v-422q0 -19 8 -31t19.5 -19t24 -10t21.5 -3v-80h-240v80q35 0 54 13t19 50v421q0 37 -22 50.5t-51 13.5v80h285z" />
    <glyph glyph-name="N" unicode="N" horiz-adv-x="596" 
d="M372 0l-173 460v-317q0 -19 8 -31t19.5 -19t24 -10t21.5 -3v-80h-239v80q34 0 53.5 13t19.5 50v421q0 37 -22.5 50.5t-50.5 13.5v80h245l141 -383v239q0 37 -16.5 50.5t-44.5 13.5v80h216v-80q-28 0 -44.5 -13t-16.5 -50v-565h-141z" />
    <glyph glyph-name="O" unicode="O" 
d="M255 719q58 0 101.5 -27.5t72.5 -76t43.5 -115t14.5 -143.5q0 -80 -14.5 -147t-43.5 -115t-72.5 -75t-101.5 -27t-101.5 27t-73 75t-44 115t-14.5 147q0 77 14.5 143.5t44 115t73 76t101.5 27.5zM255 629q-24 0 -39.5 -25t-24.5 -64t-12 -87.5t-3 -95.5q0 -50 3.5 -99
t12.5 -89t24 -64.5t39 -24.5q23 0 38 24.5t24 64.5t12.5 89t3.5 99q0 47 -3 95.5t-11.5 87.5t-24 64t-39.5 25z" />
    <glyph glyph-name="P" unicode="P" horiz-adv-x="554" 
d="M236 319v-176q0 -38 16.5 -50.5t42.5 -12.5v-80h-262v80q24 0 41.5 13t17.5 50v421q0 37 -17.5 50.5t-41.5 13.5v80h295q93 0 146 -52.5t53 -143.5q0 -92 -51 -142.5t-162 -50.5h-78zM236 627v-225h53q29 0 48 9.5t30 24.5t15 33t4 36q0 63 -23 92.5t-67 29.5h-60z" />
    <glyph glyph-name="Q" unicode="Q" horiz-adv-x="602" 
d="M387 43q-26 -24 -59 -37t-73 -13q-58 0 -101.5 27t-73 75t-44 115t-14.5 147q0 77 14.5 143.5t44 115t73 76t101.5 27.5t101.5 -27.5t72.5 -76t43.5 -115t14.5 -143.5q0 -133 -37 -223q6 -13 16 -24.5t25 -11.5q21 0 30.5 21t9.5 47h38q4 -13 7.5 -35.5t3.5 -38.5
q0 -50 -22 -79t-70 -29q-32 0 -57.5 17.5t-43.5 41.5zM255 629q-24 0 -39.5 -25t-24.5 -64t-12 -87.5t-3 -95.5q0 -50 3.5 -99t12.5 -89t24 -64.5t39 -24.5q23 0 38 24.5t24 64.5t12.5 89t3.5 99q0 47 -3 95.5t-11.5 87.5t-24 64t-39.5 25z" />
    <glyph glyph-name="R" unicode="R" horiz-adv-x="620" 
d="M313 708q37 0 75.5 -9.5t70 -31.5t51.5 -59.5t20 -92.5q0 -35 -10.5 -61.5t-28.5 -46.5t-42.5 -35t-51.5 -25q39 -8 61.5 -28.5t35 -47.5t20 -57.5t17.5 -58t26 -49t47 -30.5q-3 -35 -26.5 -60t-67.5 -25q-35 0 -57 13t-36 35t-21.5 50.5t-12.5 60.5q-6 34 -12.5 63.5
t-18.5 52t-31 35.5t-49 13q-19 0 -36 -4v-167q0 -38 16.5 -50.5t42.5 -12.5v-80h-262v80q24 0 41.5 13t17.5 50v421q0 37 -17.5 50.5t-41.5 13.5v80h280zM236 626v-232q28 0 54.5 6.5t46 20.5t31.5 37t12 57q0 22 -5 42t-17.5 35.5t-33 24.5t-51.5 9h-37z" />
    <glyph glyph-name="S" unicode="S" horiz-adv-x="482" 
d="M289 677q17 0 24 10t9 21h85v-264h-86q0 26 -6.5 57t-20.5 57.5t-35 44t-50 17.5q-23 0 -33 -12.5t-10 -32.5q0 -34 21 -64.5t52.5 -61.5t68 -64.5t68 -71.5t52.5 -83.5t21 -100.5q0 -61 -32 -99t-101 -38q-30 0 -53 7t-42.5 15t-37.5 15t-38 7q-17 0 -25.5 -10
t-10.5 -26h-68v270h62q4 -28 12.5 -62t26 -64t45 -50.5t70.5 -20.5q23 0 42.5 12.5t19.5 43.5q0 32 -21 60t-52 56t-67.5 58.5t-67.5 68.5t-52 86.5t-21 112.5q0 69 34 107t101 38q18 0 35.5 -6t32.5 -13.5l27 -13.5t21 -6z" />
    <glyph glyph-name="T" unicode="T" horiz-adv-x="533" 
d="M500 708v-281h-76v11q0 34 -3 67.5t-11.5 60t-23.5 42.5t-39 16h-9v-481q0 -38 16.5 -50.5t42.5 -12.5v-80h-262v80q24 0 42 13t18 50v481h-10q-24 0 -38.5 -16t-23 -42.5t-11.5 -60t-3 -67.5v-11h-76v281h467z" />
    <glyph glyph-name="U" unicode="U" horiz-adv-x="566" 
d="M491 190q0 -41 -10.5 -78.5t-34.5 -65.5t-62.5 -44.5t-94.5 -16.5t-94.5 16.5t-62.5 44.5t-34.5 65t-10.5 78v375q0 37 -17.5 50.5t-41.5 13.5v80h262v-80q-26 0 -42.5 -13t-16.5 -51v-378q0 -61 22.5 -83.5t57.5 -22.5q16 0 30.5 5t25 17.5t17 33t6.5 50.5v377
q0 20 -4.5 32.5t-11.5 19.5t-15.5 9.5t-17.5 2.5v81h198v-81q-17 0 -32.5 -13t-15.5 -51v-373z" />
    <glyph glyph-name="V" unicode="V" horiz-adv-x="587" 
d="M313 243l73 321q3 12 3 25q0 22 -16.5 30.5t-34.5 8.5v80h227v-80q-26 0 -46 -13t-28 -51l-128 -564h-140l-127 564q-8 38 -28 51t-46 13v80h262v-80q-20 0 -34 -9t-14 -31q0 -5 1 -11.5t3 -12.5z" />
    <glyph glyph-name="W" unicode="W" horiz-adv-x="806" 
d="M292 337l77 371h110l78 -378l53 234q2 6 3 13t1 12q0 21 -15.5 30t-33.5 9v80h219v-80q-26 0 -43 -13t-26 -51l-127 -564h-103l-74 344l-82 -344h-106l-127 564q-8 38 -28 51t-46 13v80h267v-80q-23 0 -38 -9t-15 -31q0 -5 1 -11.5t3 -12.5z" />
    <glyph glyph-name="X" unicode="X" horiz-adv-x="580" 
d="M209 143q-8 -14 -8 -25q0 -16 13 -26.5t35 -11.5v-80h-216v80q26 0 42.5 15.5t35.5 47.5l118 204l-101 217q-17 36 -40 50t-47 14v80h262v-80q-39 -2 -39 -33q0 -16 8 -31l38 -79l45 79q8 15 8 31q0 31 -39 33v80h210v-80q-23 0 -42 -14.5t-39 -49.5l-100 -173l115 -248
q17 -34 35.5 -48t43.5 -15v-80h-262v80q18 0 32 8.5t14 27.5q0 13 -7 27l-51 110z" />
    <glyph glyph-name="Y" unicode="Y" horiz-adv-x="620" 
d="M375 143q0 -38 17 -50.5t43 -12.5v-80h-262v80q23 0 41 13t18 50v149l-139 273q-16 30 -32 45t-39 18v80h295v-80q-24 0 -41.5 -8.5t-17.5 -28.5q0 -13 7 -27l71 -142l69 142q8 16 8 27q0 17 -14.5 27t-37.5 10v80h237v-80q-29 0 -45 -11.5t-32 -41.5l-146 -283v-149z
" />
    <glyph glyph-name="Z" unicode="Z" horiz-adv-x="494" 
d="M42 708h424l-252 -631h26q45 0 71.5 17t41 44t19.5 61.5t6 70.5h83v-270h-433l252 623h-55q-29 0 -46.5 -22t-26.5 -52.5t-12.5 -63t-3.5 -53.5h-94v276z" />
    <glyph glyph-name="bracketleft" unicode="[" horiz-adv-x="643" 
d="M331 352q199 -1 199 -220q0 -42 4.5 -57.5t16.5 -15.5q10 0 16 17.5t6 55.5h59q0 -78 -27.5 -110t-89.5 -32q-37 0 -62 10.5t-40 29.5t-21.5 45t-6.5 57q0 54 -6.5 87t-20.5 51t-35.5 24t-50.5 6q-14 0 -36 -5v-160q0 -31 16.5 -43t42.5 -12v-80h-262v80q24 0 41.5 13
t17.5 50v421q0 37 -17.5 50.5t-41.5 13.5v80h262v-80q-26 0 -42.5 -13t-16.5 -51v-186l131 178q6 8 8 16t2 15q0 20 -16.5 30.5t-34.5 10.5v80h250v-80q-21 0 -37.5 -11.5t-31.5 -33.5z" />
    <glyph glyph-name="backslash" unicode="\" horiz-adv-x="401" 
d="M379 0h-64l-293 708h66z" />
    <glyph glyph-name="bracketright" unicode="]" horiz-adv-x="643" 
d="M530 132q0 -42 4.5 -57.5t16.5 -15.5q9 0 15.5 17.5t6.5 55.5h59q0 -78 -28 -110t-89 -32q-37 0 -62 10.5t-40 29.5t-21.5 45t-6.5 57q0 54 -6.5 89t-20.5 55.5t-35.5 29t-50.5 8.5q-19 0 -36 -4v-167q0 -38 16.5 -50.5t42.5 -12.5v-80h-262v80q24 0 41.5 13t17.5 50v421
q0 37 -17.5 50.5t-41.5 13.5v80h280q37 0 75.5 -9.5t70 -31.5t51.5 -59.5t20 -92.5q0 -35 -11 -61t-29.5 -46t-42.5 -34.5t-50 -26.5q37 -8 62.5 -23.5t41.5 -41t22.5 -62.5t6.5 -88zM236 626v-232q28 0 54.5 6.5t46 20.5t31.5 37t12 57q0 22 -5 42t-17.5 35.5t-33 24.5
t-51.5 9h-37z" />
    <glyph glyph-name="asciicircum" unicode="^" horiz-adv-x="357" 
d="M281 520l-99 104l-98 -104l-55 49l153 160l153 -160z" />
    <glyph glyph-name="underscore" unicode="_" horiz-adv-x="673" 
d="M-22 -286h717v-64h-717v64z" />
    <glyph glyph-name="grave" unicode="`" horiz-adv-x="415" 
d="M225 750l-134 67l77 39l104 -80z" />
    <glyph glyph-name="a" unicode="a" horiz-adv-x="489" 
d="M278 326q-3 47 -22.5 67t-42.5 20q-26 0 -36 -15.5t-10 -31.5q0 -7 2.5 -18.5t2.5 -19.5q0 -33 -19 -53.5t-50 -20.5t-49 22.5t-18 55.5q0 30 13.5 54.5t37.5 42.5t56.5 27.5t70.5 9.5q51 0 87.5 -13.5t59 -37.5t33 -57.5t10.5 -73.5v-155q0 -31 12.5 -46t33.5 -15h14
v-68h-180v51q-25 -31 -60.5 -48.5t-83.5 -17.5q-58 0 -86 31t-28 77q0 35 14.5 58.5t37 41t51 30.5t56.5 27.5t52.5 32t40.5 43.5zM284 279q-8 -22 -29 -39t-44 -35.5t-40.5 -42t-17.5 -58.5q0 -27 13 -42t36 -15q42 0 62 47t20 126v59z" />
    <glyph glyph-name="b" unicode="b" 
d="M282 413q-13 0 -25.5 -10t-22.5 -32.5t-16 -57.5t-6 -85q0 -30 4 -62t12 -58.5t21.5 -43.5t33.5 -17q17 0 30 13.5t22 38t13.5 57.5t4.5 72q0 89 -21 137t-50 48zM212 419q12 23 36 35t53 12q35 0 68.5 -15.5t60 -45.5t43 -74.5t16.5 -102.5q0 -59 -14 -103.5
t-39.5 -74.5t-60 -45t-74.5 -15q-39 0 -72 17t-54 56l-42 -63h-41v576q0 26 -10 45t-39 19h-13v68h182v-289z" />
    <glyph glyph-name="c" unicode="c" horiz-adv-x="450" 
d="M415 337q0 -34 -17.5 -53.5t-49.5 -19.5q-31 0 -49.5 19t-18.5 52q0 8 2.5 20t2.5 19q0 16 -9.5 27.5t-32.5 11.5q-17 0 -32.5 -10t-26.5 -32.5t-17.5 -57.5t-6.5 -85q0 -36 6 -69t18.5 -58t31.5 -39.5t46 -14.5q43 0 67.5 33.5t32.5 92.5h57q-5 -88 -53 -135.5
t-131 -47.5q-47 0 -86.5 17t-68 48t-44.5 75t-16 98t16 98t44.5 75t69 48t88.5 17q33 0 65 -9t56.5 -25.5t40 -40.5t15.5 -54z" />
    <glyph glyph-name="d" unicode="d" horiz-adv-x="498" 
d="M228 413q-13 0 -26 -10t-23 -32.5t-16.5 -57.5t-6.5 -85q0 -30 4 -62t12.5 -58.5t22.5 -43.5t34 -17q17 0 30 13.5t21.5 38t13 57.5t4.5 72q0 89 -20.5 137t-49.5 48zM298 51q-10 -26 -35 -43.5t-61 -17.5q-38 0 -71 15t-57.5 45t-39 74.5t-14.5 103.5q0 58 14.5 102.5
t40 74.5t59.5 45.5t72 15.5q28 0 54 -12t38 -35v157q0 26 -10.5 45t-39.5 19h-12v68h181v-579q0 -31 12.5 -46t34.5 -15h13v-68h-179v51z" />
    <glyph glyph-name="e" unicode="e" horiz-adv-x="465" 
d="M161 206q3 -30 8.5 -58.5t17.5 -51t31.5 -36t50.5 -13.5q39 0 66.5 31t38.5 84h59q-11 -83 -63.5 -127.5t-136.5 -44.5q-47 0 -86 17t-67.5 48t-44 75t-15.5 98t16 98t44.5 75t68 48t86.5 17q93 0 146 -64t53 -196h-273zM304 279q-1 69 -21 101.5t-48 32.5
q-32 0 -51.5 -33t-21.5 -101h142z" />
    <glyph glyph-name="f" unicode="f" horiz-adv-x="376" 
d="M229 648q-13 0 -17 -16t-4 -54v-126h59v-68h-14q-20 0 -32.5 -15.5t-12.5 -45.5v-194q0 -31 12.5 -46t32.5 -15h14v-68h-241v68h13q26 0 37 15.5t11 45.5v194q0 29 -11 45t-37 16h-12v68h60v104q0 84 39.5 123t108.5 39q28 0 52 -8.5t41.5 -22.5t27.5 -33.5t10 -41.5
q0 -30 -16.5 -50.5t-45.5 -20.5t-47 17.5t-18 46.5q0 7 2 13t2 13q0 17 -14 17z" />
    <glyph glyph-name="g" unicode="g" horiz-adv-x="543" 
d="M388 398q8 -7 15.5 -20.5t13.5 -30.5t9.5 -35.5t3.5 -34.5q0 -50 -15.5 -88.5t-42.5 -64.5t-63.5 -39.5t-77.5 -13.5q-65 0 -103 26q-8 -8 -10.5 -15.5t-2.5 -15.5q0 -15 10 -24t27 -14t40 -7t49 -2q38 0 79.5 -4t75.5 -18.5t56 -42t22 -73.5q0 -42 -20 -69.5t-53 -44
t-75.5 -23.5t-87.5 -7q-35 0 -75.5 5t-75.5 18t-58.5 36t-23.5 60q0 38 18 58.5t44 34.5q-17 15 -24 35.5t-7 40.5q0 29 13 56t34 44q-34 31 -45 69t-11 83q0 33 11 66.5t35 61t63 44.5t95 17q26 0 60.5 -7.5t61.5 -26.5q8 27 34 45t55 18q41 0 61 -22.5t20 -52.5
q0 -26 -13.5 -39.5t-33.5 -13.5q-16 0 -25.5 7.5t-15.5 16.5t-11.5 16.5t-14.5 7.5q-8 0 -13 -5t-8 -12zM231 127q30 0 53 36t23 113q0 25 -4.5 49.5t-13.5 44t-23.5 32t-34.5 12.5q-21 0 -37 -12.5t-26 -32t-15 -44t-5 -49.5q0 -77 24 -113t59 -36zM93 -137q0 -20 13 -33
t33.5 -21t46.5 -11.5t52 -3.5q75 0 106 18t31 38q0 18 -13 28t-34 15t-47 6.5t-52.5 2.5t-50.5 3t-40 9q-18 -5 -31.5 -17.5t-13.5 -33.5z" />
    <glyph glyph-name="h" unicode="h" horiz-adv-x="556" 
d="M475 129q0 -29 12.5 -45t34.5 -16h13v-68h-241v68h12q50 0 50 61v162q0 45 -18.5 73.5t-56.5 28.5q-35 0 -52 -28.5t-17 -73.5v-162q0 -31 12.5 -46t33.5 -15h14v-68h-242v68h13q27 0 38 15.5t11 45.5v447q0 26 -10 45t-39 19h-13v68h182v-293q22 26 50 35t56 9
q26 0 54 -9t51 -29.5t37.5 -52.5t14.5 -77v-162z" />
    <glyph glyph-name="i" unicode="i" horiz-adv-x="303" 
d="M212 129q0 -31 12.5 -46t33.5 -15h14v-68h-242v68h13q27 0 38 15.5t11 45.5v192q0 26 -10 44.5t-39 18.5h-13v68h182v-323zM63 592q0 32 21.5 54t53.5 22t53 -22t21 -54t-21 -52.5t-53 -20.5t-53.5 21t-21.5 52z" />
    <glyph glyph-name="j" unicode="j" horiz-adv-x="254" 
d="M60 592q0 32 21 54t54 22q31 0 52 -22t21 -54t-20 -52.5t-53 -20.5t-54 21t-21 52zM63 -220q26 0 26 92v449q0 26 -10 44.5t-39 18.5h-13v68h182v-568q0 -83 -37.5 -117.5t-106.5 -34.5q-54 0 -84.5 25t-30.5 62q0 29 14.5 44.5t35.5 15.5q23 0 36.5 -15.5t13.5 -44.5
q0 -5 -1 -9.5t-1 -12.5q0 -17 15 -17z" />
    <glyph glyph-name="k" unicode="k" horiz-adv-x="518" 
d="M212 129q0 -61 44 -61v-68h-226v68h13q27 0 38 15.5t11 45.5v447q0 26 -10 45t-39 19h-13v68h182v-465l63 80q21 26 21 42q0 19 -28 19v68h184v-68q-17 0 -36 -11t-40 -38l-53 -67l94 -139q15 -22 37.5 -41t43.5 -20v-68h-223v68q11 1 17.5 5t6.5 11q0 10 -6 20.5
t-14 23.5l-33 43z" />
    <glyph glyph-name="l" unicode="l" horiz-adv-x="298" 
d="M212 129q0 -31 12.5 -46t33.5 -15h14v-68h-242v68h13q27 0 38 15.5t11 45.5v447q0 26 -10 45t-39 19h-13v68h182v-579z" />
    <glyph glyph-name="m" unicode="m" horiz-adv-x="802" 
d="M439 389q12 21 28.5 34.5t33.5 21.5t34 11t31 3q26 0 53 -9t49 -29.5t36 -52.5t14 -77v-162q0 -29 12.5 -45t33.5 -16h14v-68h-236v68h12q27 0 35.5 15.5t8.5 45.5v162q0 45 -13 73.5t-45 28.5q-36 0 -55 -29.5t-19 -74.5v-160q0 -29 9 -45t31 -16h14v-68h-232v68h14
q27 0 35 15.5t8 45.5v161q0 45 -14 74t-46 29t-52.5 -28.5t-20.5 -73.5v-162q0 -61 40 -61h15v-68h-237v68h13q27 0 38 15.5t11 45.5v192q0 26 -10 44.5t-39 18.5h-13v68h182v-37q22 26 48 35t52 9q36 0 70 -17t57 -53z" />
    <glyph glyph-name="n" unicode="n" horiz-adv-x="562" 
d="M92 321q0 26 -10 44.5t-39 18.5h-13v68h182v-37q22 26 50 35t56 9q26 0 54 -9t51 -29.5t37.5 -52.5t14.5 -77v-162q0 -29 12.5 -45t34.5 -16h13v-68h-241v68h12q50 0 50 61v162q0 45 -18.5 73.5t-56.5 28.5q-35 0 -52 -28.5t-17 -73.5v-162q0 -31 12.5 -46t33.5 -15h14
v-68h-242v68h13q27 0 38 15.5t11 45.5v192z" />
    <glyph glyph-name="o" unicode="o" horiz-adv-x="469" 
d="M235 413q-14 0 -27.5 -10t-24 -32.5t-17 -57.5t-6.5 -85q0 -30 3.5 -62t12.5 -58.5t23.5 -43.5t35.5 -17q19 0 33 13.5t23.5 38t14.5 57.5t5 72q0 89 -21 137t-55 48zM20 228q0 54 16 98t44.5 75t68 48t86.5 17q46 0 85 -16.5t67.5 -47.5t44.5 -75t16 -99
q0 -59 -16 -103.5t-44.5 -74.5t-67.5 -45t-85 -15q-47 0 -86.5 17t-68 48t-44.5 75t-16 98z" />
    <glyph glyph-name="p" unicode="p" 
d="M282 406q-13 0 -25.5 -10t-22.5 -32.5t-16 -57.5t-6 -84q0 -31 4 -63t12 -58.5t21.5 -43.5t33.5 -17q17 0 30 13.5t22 37.5t13.5 57.5t4.5 73.5q0 89 -21 136.5t-50 47.5zM92 323q0 61 -46 61h-16v68h182v-45q10 20 34.5 38t60.5 18q38 0 71 -15t58 -45t39 -74.5
t14 -103.5t-14.5 -103.5t-40 -74.5t-59 -45.5t-71.5 -15.5q-28 0 -53 12t-39 35v-168q0 -30 12.5 -47t33.5 -17h14v-67h-242v67h13q27 0 38 16.5t11 45.5v460z" />
    <glyph glyph-name="q" unicode="q" horiz-adv-x="499" 
d="M228 406q-13 0 -26 -10t-23 -32.5t-16.5 -57.5t-6.5 -84q0 -31 4 -63t12.5 -58.5t22.5 -43.5t34 -17q17 0 30 13.5t21.5 37.5t13 57.5t4.5 73.5q0 89 -20.5 136.5t-49.5 47.5zM417 -137q0 -29 11.5 -45.5t37.5 -16.5h12v-67h-242v67h15q22 0 34.5 17t12.5 47v168
q-14 -23 -40.5 -35t-55.5 -12q-35 0 -68 15.5t-58.5 45.5t-40.5 74.5t-15 103.5t14.5 103.5t40 74.5t59.5 45t73 15q35 0 63 -13.5t52 -44.5l22 47h73v-589z" />
    <glyph glyph-name="r" unicode="r" horiz-adv-x="473" 
d="M316 464q61 0 99 -38.5t38 -99.5q0 -35 -19.5 -56.5t-54.5 -21.5q-31 0 -51.5 19.5t-20.5 54.5q0 8 2.5 19t2.5 20q0 15 -6 23.5t-21 8.5q-19 0 -33 -11t-23 -28.5t-13 -40t-4 -45.5v-139q0 -31 12.5 -46t33.5 -15h14v-68h-242v68h13q27 0 38 15.5t11 45.5v192
q0 26 -10 44.5t-39 18.5h-13v68h182v-35q14 19 40.5 33t63.5 14z" />
    <glyph glyph-name="s" unicode="s" horiz-adv-x="425" 
d="M265 437q9 0 14.5 4.5t6.5 10.5h82v-162h-83q0 18 -6 36.5t-18 34.5t-29.5 26t-39.5 10q-19 0 -27 -8t-8 -20q0 -18 18 -32.5t45 -29t58.5 -31.5t58.5 -39.5t45 -53.5t18 -74q0 -51 -28.5 -85t-90.5 -34q-27 0 -47.5 5.5t-38 12t-33.5 12t-34 5.5q-17 0 -24.5 -8
t-9.5 -17h-62v174h55q4 -17 14.5 -38.5t26 -41t36.5 -32.5t48 -13q22 0 37 7t15 27q0 21 -17.5 37t-43.5 31t-56 31.5t-56 38.5t-43.5 52t-17.5 72q0 25 7.5 47t22.5 38.5t37.5 26t52.5 9.5q18 0 33 -4.5t29 -10t27 -10t26 -4.5z" />
    <glyph glyph-name="t" unicode="t" horiz-adv-x="339" 
d="M80 323q0 29 -12 45t-39 16h-11v63q32 3 54 19.5t35.5 39t19 47t5.5 45.5h67v-146h88v-68h-42q-46 0 -46 -61v-193q0 -42 8.5 -62.5t31.5 -20.5q21 0 29.5 20.5t8.5 62.5h49q0 -66 -28.5 -103t-94.5 -37q-36 0 -59.5 10.5t-37.5 29t-20 44.5t-6 56v193z" />
    <glyph glyph-name="u" unicode="u" horiz-adv-x="531" 
d="M453 130q0 -25 10 -43.5t39 -18.5h13v-68h-181v36q-20 -22 -49.5 -34.5t-68.5 -12.5q-30 0 -56.5 9.5t-47 30.5t-32 53.5t-11.5 78.5v162q0 29 -12.5 45t-33.5 16h-14v68h180v-291q0 -45 18.5 -73.5t56.5 -28.5q35 0 52 28.5t17 73.5v162q0 30 -13 45.5t-34 15.5h-13v68
h180v-322z" />
    <glyph glyph-name="v" unicode="v" horiz-adv-x="478" 
d="M315 332q2 5 3.5 11.5t1.5 12.5q0 11 -10 19.5t-29 8.5v68h188v-68q-22 0 -38.5 -7.5t-26.5 -39.5l-103 -337h-116l-104 338q-8 26 -28 36t-43 10v68h233v-68q-20 0 -29.5 -8t-9.5 -17q0 -10 5 -27l53 -172z" />
    <glyph glyph-name="w" unicode="w" horiz-adv-x="713" 
d="M360 194l-59 -194h-116l-104 338q-8 26 -28 36t-43 10v68h233v-68q-20 0 -29.5 -8t-9.5 -17q0 -10 5 -27l53 -172l53 172q5 12 5 24q0 11 -10 19.5t-29 8.5v68h197v-68q-19 0 -29 -7t-10 -18q0 -5 1 -12t3 -15l55 -172l53 172q2 5 3 11.5t1 12.5q0 11 -10 19.5t-29 8.5
v68h187v-68q-21 0 -38.5 -9t-26.5 -38l-102 -337h-116z" />
    <glyph glyph-name="x" unicode="x" horiz-adv-x="488" 
d="M187 219l-74 103q-26 37 -46.5 49.5t-40.5 12.5v68h241v-68q-27 0 -27 -20q0 -8 5 -17.5t11 -17.5l17 -23l21 24q6 6 13 16.5t7 19.5q0 18 -25 18v68h173v-68q-20 0 -42.5 -17t-44.5 -39l-69 -72l87 -127q16 -23 37 -41.5t41 -19.5v-68h-240v68q37 0 37 22q0 17 -16 39
l-29 39l-40 -39q-7 -8 -16.5 -20t-9.5 -21q0 -7 4.5 -13.5t18.5 -6.5h13v-68h-178v68q23 5 43.5 22t44.5 42z" />
    <glyph glyph-name="y" unicode="y" horiz-adv-x="487" 
d="M207 -41l-119 379q-8 26 -27.5 36t-42.5 10v68h233v-68q-19 0 -29 -8t-10 -17q0 -4 1 -11.5t3 -15.5l54 -172l53 172q5 12 5 24q0 11 -10 19.5t-29 8.5v68h187v-68q-20 0 -37 -7.5t-27 -39.5l-137 -453q-11 -35 -23.5 -63t-29.5 -47.5t-41 -30.5t-57 -11q-54 0 -84 25.5
t-30 62.5q0 29 14 44t36 15q23 0 37 -15.5t14 -44.5q0 -5 -1 -9.5t-1 -12.5q0 -17 14 -17q7 0 15.5 9t16.5 24t15.5 34.5t13.5 40.5z" />
    <glyph glyph-name="z" unicode="z" horiz-adv-x="389" 
d="M21 452h334l-182 -407h25q29 0 48.5 13t31.5 32t17 41t5 40h63v-171h-343l179 397h-22q-27 0 -45 -14t-28.5 -33.5t-15 -40.5t-4.5 -34h-63v177z" />
    <glyph glyph-name="braceleft" unicode="{" horiz-adv-x="345" 
d="M273 -36q-47 24 -77.5 60t-50.5 76.5t-32.5 81.5t-22.5 76.5t-20 61t-26 35.5q16 9 26 35.5t20 62t22 77.5t31 83t48 77.5t72 61.5l30 -41q-22 -23 -34.5 -53t-19 -63.5t-9.5 -68t-7.5 -66.5t-12.5 -59.5t-24 -45.5q16 -18 24.5 -45t14 -58t9.5 -64.5t11.5 -65.5
t20 -61.5t35.5 -52.5z" />
    <glyph glyph-name="bar" unicode="|" horiz-adv-x="308" 
d="M82 708h144v-804h-144v804z" />
    <glyph glyph-name="braceright" unicode="}" horiz-adv-x="343" 
d="M33 8q33 34 46 82t20 97.5t15.5 94.5t32.5 72q-16 18 -24 45.5t-12.5 59.5t-7.5 67t-10 68.5t-19 63.5t-35 53l30 41q43 -25 72 -61.5t48 -77.5t31 -83t22 -78t20 -62t26 -36q-16 -9 -26 -35t-20 -61t-22.5 -76t-32.5 -81.5t-51 -76.5t-77 -60z" />
    <glyph glyph-name="asciitilde" unicode="~" horiz-adv-x="337" 
d="M106 724q22 0 37.5 -8.5t28.5 -18.5t26 -18.5t30 -8.5q16 0 24.5 11t8.5 28h54q0 -32 -3.5 -58t-12.5 -44t-25 -27.5t-42 -9.5q-24 0 -41.5 9t-31.5 19.5t-26.5 19.5t-26.5 9q-15 0 -23 -13.5t-8 -30.5h-55q0 63 18.5 102t67.5 39z" />
    <glyph glyph-name="exclamdown" unicode="&#xa1;" horiz-adv-x="266" 
d="M132 -193q-48 0 -74.5 37.5t-26.5 97.5q0 43 8.5 86t19 89t20.5 95.5t13 105.5h78q2 -56 12 -105.5t21.5 -95.5t20.5 -89t9 -86q0 -60 -28 -97.5t-73 -37.5zM55 476q0 33 22 56t57 23q33 0 55 -22.5t22 -56.5q0 -33 -22 -56.5t-55 -23.5q-35 0 -57 23.5t-22 56.5z" />
    <glyph glyph-name="cent" unicode="&#xa2;" horiz-adv-x="404" 
d="M185 624h61v-85q26 -3 49.5 -12t41.5 -22.5t28.5 -31.5t10.5 -39q0 -27 -17 -44t-44 -17q-26 0 -43 16t-17 43q0 6 2.5 16t2.5 16q0 15 -14 24v-290q35 2 55 29.5t26 74.5h50q-4 -65 -37.5 -102.5t-93.5 -45.5v-89h-61v90q-70 10 -112 60.5t-42 130.5q0 78 41.5 130
t112.5 63v85zM152 346q0 -37 8 -69t25 -53v251q-16 -15 -24.5 -46t-8.5 -83z" />
    <glyph glyph-name="sterling" unicode="&#xa3;" horiz-adv-x="543" 
d="M20 335h88q-8 15 -19.5 31.5t-22 38t-18.5 49.5t-8 67q0 50 17.5 87t49 62t74.5 37t93 12q47 0 87.5 -13.5t70.5 -39t47 -61.5t17 -82q0 -51 -27 -81.5t-70 -30.5q-15 0 -31.5 5t-31 16t-24 30t-9.5 47q0 36 22.5 58.5t50.5 22.5q21 0 35 -10.5t25 -26.5q-2 20 -11 39.5
t-24.5 35t-36.5 25t-48 9.5q-51 0 -79.5 -29.5t-28.5 -92.5q0 -38 8 -66.5t17.5 -51.5t18.5 -43.5t11 -43.5h92v-53h-95q-10 -37 -34.5 -63.5t-60.5 -50.5q29 15 53 18t42 3q22 0 39 -6.5t31.5 -14.5t29.5 -14.5t33 -6.5q26 0 46.5 16.5t20.5 60.5h51v-58q0 -82 -33.5 -132
t-105.5 -50q-39 0 -67.5 11.5t-52 25.5t-44.5 25.5t-44 11.5q-48 0 -50 -58h-57q-6 19 -11.5 42.5t-5.5 47.5q0 36 11.5 63t26 48.5t27.5 40.5t15 40h-100v53z" />
    <glyph glyph-name="currency" unicode="&#xa4;" horiz-adv-x="508" 
d="M22 314h47q-1 8 -1 28.5v34.5h-46v53h50q4 49 16 100t36.5 93t63 69t96.5 27q19 0 33.5 -6.5t26 -14t20.5 -13.5t17 -6q11 0 18.5 7t9.5 21h51v-273h-85q0 18 -2.5 50.5t-10 64.5t-22 56t-39.5 24q-21 0 -35.5 -17.5t-23.5 -45.5t-13.5 -63.5t-5.5 -72.5h79v-53h-80v-63
h80v-52h-78q3 -35 8 -68t14 -58.5t22.5 -40.5t31.5 -15q24 0 39 23.5t23.5 55.5t11.5 65t4 53h97q0 -41 -6.5 -90.5t-25 -92.5t-53 -72t-90.5 -29q-54 0 -93.5 23t-67 60.5t-43.5 86t-22 99.5h-52v52z" />
    <glyph glyph-name="yen" unicode="&#xa5;" horiz-adv-x="619" 
d="M163 188h68v51h-68v53h68l-139 273q-15 30 -31.5 45t-38.5 18v80h295v-80q-24 0 -42 -8.5t-18 -28.5q0 -10 7 -27l71 -142l70 142q3 8 5.5 14.5t2.5 12.5q0 17 -15 27t-38 10v80h237v-80q-28 0 -44.5 -11.5t-31.5 -41.5l-146 -283h68v-53h-68v-51h68v-53h-68
q2 -33 18 -44t41 -11v-80h-262v80q23 0 40 11.5t19 43.5h-68v53z" />
    <glyph glyph-name="dieresis" unicode="&#xa8;" horiz-adv-x="454" 
d="M141 833q0 23 15 36t36 13t35.5 -13t14.5 -36q0 -24 -14 -37t-36 -13q-23 0 -37 13.5t-14 36.5zM282 833q0 23 14.5 36.5t36.5 13.5q20 0 35 -13.5t15 -36.5t-14.5 -36.5t-35.5 -13.5q-23 0 -37 13.5t-14 36.5z" />
    <glyph glyph-name="copyright" unicode="&#xa9;" horiz-adv-x="725" 
d="M668 313q0 -72 -25 -132.5t-69.5 -105t-105 -69t-131.5 -24.5t-132 25t-105 69.5t-69 105t-25 131.5q0 70 25.5 130.5t70 105t105 70t130.5 25.5q71 0 131.5 -24.5t105 -68.5t69.5 -105t25 -133zM606 313q0 58 -20.5 107.5t-56.5 85.5t-85 56.5t-107 20.5
q-57 0 -106 -20.5t-85.5 -56.5t-57 -85.5t-20.5 -107.5t20 -107.5t56 -85.5t85.5 -56.5t107.5 -20.5t107.5 20.5t85.5 56.5t56 85.5t20 107.5zM473 387q0 -23 -13 -37t-37 -14q-23 0 -37 13.5t-14 36.5q0 5 2 14t2 14q0 11 -7.5 19t-24.5 8q-26 0 -43.5 -30t-17.5 -99
q0 -25 4.5 -47.5t13.5 -39t23.5 -26.5t34.5 -10q32 0 48 21.5t21 62.5h50q-4 -61 -40 -94t-99 -33q-36 0 -65.5 11.5t-50.5 33.5t-33 52.5t-12 68.5q0 37 12 68.5t33.5 53.5t51.5 34.5t66 12.5q25 0 48.5 -7t42 -19t30 -29.5t11.5 -38.5z" />
    <glyph glyph-name="registered" unicode="&#xae;" horiz-adv-x="489" 
d="M443 489q0 -47 -15.5 -86.5t-43.5 -67.5t-66.5 -43.5t-84.5 -15.5q-47 0 -86 16t-67.5 44t-44.5 67t-16 86q0 46 16.5 84.5t45 66.5t67.5 44t85 16t84.5 -15.5t66.5 -43t43.5 -66.5t15.5 -86zM405 489q0 37 -13 69t-35.5 54.5t-54.5 35.5t-69 13q-38 0 -69.5 -13
t-54.5 -35.5t-36 -54.5t-13 -69q0 -38 12.5 -70t35.5 -55t55 -35.5t70 -12.5t69.5 13t54.5 36.5t35.5 55t12.5 68.5zM252 611q16 0 31 -4t27 -12t19 -20.5t7 -30.5q0 -23 -14.5 -36.5t-38.5 -20.5q26 -4 34 -17t11.5 -28t8.5 -28.5t26 -18.5q-2 -11 -13 -20.5t-31 -9.5
q-28 0 -39 17t-14 41q-4 22 -10.5 37.5t-32.5 15.5h-8t-9 -1v-55q0 -13 8 -17t19 -4v-32h-116v32q11 0 19 4.5t8 16.5v138q0 12 -8 16.5t-19 4.5v32h135zM231 577q-9 0 -17 -4t-8 -15v-55q26 0 45 8.5t19 30.5q0 14 -9.5 24.5t-29.5 10.5z" />
    <glyph glyph-name="macron" unicode="&#xaf;" horiz-adv-x="564" 
d="M120 832h257v-52h-257v52z" />
    <glyph glyph-name="degree" unicode="&#xb0;" horiz-adv-x="263" 
d="M178 660q0 -35 -22 -56t-57 -21q-34 0 -57 20t-23 56q0 32 21.5 54.5t58.5 22.5t58 -22t21 -54zM135 660q0 13 -9.5 23.5t-26.5 10.5t-26 -11t-9 -24q0 -17 11 -25t25 -8q15 0 25 9t10 25z" />
    <glyph glyph-name="plusminus" unicode="&#xb1;" horiz-adv-x="379" 
d="M156 231v137h-125v75h125v137h76v-137h125v-75h-125v-137h-76zM31 197h326v-75h-326v75z" />
    <glyph glyph-name="acute" unicode="&#xb4;" horiz-adv-x="586" 
d="M200 776l117 87l74 -46l-150 -67z" />
    <glyph glyph-name="mu" unicode="&#xb5;" horiz-adv-x="531" 
d="M70 324q0 29 -13 45t-33 16h-14v67h180v-291q0 -45 18 -73.5t57 -28.5q35 0 52 28.5t17 73.5v163q0 30 -12.5 45.5t-34.5 15.5h-13v67h179v-322q0 -25 10 -43.5t39 -18.5h13v-68h-181v33q-23 -26 -62 -35t-80 -9q3 -22 11.5 -47t8.5 -48q0 -48 -17 -75t-55 -27
q-37 0 -56.5 27t-19.5 75q0 27 7.5 59t7.5 64q0 12 -4.5 38.5t-4.5 47.5v221z" />
    <glyph glyph-name="cedilla" unicode="&#xb8;" horiz-adv-x="449" 
d="M185 -122q22 -37 54 -37q15 0 26 6.5t11 23.5q0 24 -19 33t-38 9q-5 0 -9.5 -0.5t-7.5 -0.5l35 96h63l-19 -49q12 -3 24.5 -9t23 -16.5t17 -25t6.5 -35.5q0 -48 -27.5 -69t-70.5 -21q-24 0 -51 12.5t-48 51.5z" />
    <glyph glyph-name="onequarter" unicode="&#xbc;" horiz-adv-x="328" 
d="M133 614q-6 -5 -17 -9.5t-23 -4.5v47q23 3 39 22t20 40h40v-230q0 -15 6.5 -20t17.5 -5v-33h-107v33q10 0 17 5.5t7 19.5v135zM95 106h61v95zM29 391h266v-53h-266v53zM156 79h-99v37l110 172h49v-182h42v-27h-42v-21q0 -16 6.5 -20.5t17.5 -4.5v-33h-108v33q10 0 17 5
t7 20v21z" />
    <glyph glyph-name="onehalf" unicode="&#xbd;" horiz-adv-x="328" 
d="M131 614q-6 -5 -17 -9.5t-23 -4.5v47q23 3 39 22t20 40h40v-230q0 -15 6.5 -20t17.5 -5v-33h-107v33q10 0 17 5.5t7 19.5v135zM29 391h266v-53h-266v53zM156 297q40 0 69 -21t29 -62q0 -33 -12 -53t-30 -32t-39.5 -18.5t-39.5 -13t-30 -16t-12 -27.5q0 -4 0.5 -8t0.5 -9
q6 21 22 31.5t35 10.5q20 0 33 -8.5t27 -8.5q8 0 14.5 6.5t6.5 23.5h24v-23q0 -35 -11.5 -55t-40.5 -20q-16 0 -27 4.5t-20 10.5t-17.5 10.5t-17.5 4.5q-21 0 -21 -24h-24q-2 8 -4 21t-2 23q0 29 8.5 47.5t21.5 31t28.5 21.5t28.5 19t21.5 23.5t8.5 35.5q0 23 -11 33.5
t-30 10.5q-18 0 -32.5 -11t-16.5 -25q9 13 20 13q14 0 21.5 -9t7.5 -24q0 -23 -12 -32t-27 -9t-27 12.5t-12 34.5q0 38 27 59.5t62 21.5z" />
    <glyph glyph-name="threequarters" unicode="&#xbe;" horiz-adv-x="328" 
d="M148 79h-99v37l110 172h49v-182h42v-27h-42v-21q0 -16 6.5 -20.5t17.5 -4.5v-33h-108v33q10 0 17 5t7 20v21zM192 569q23 -6 39.5 -25t16.5 -50q0 -44 -28 -62t-72 -18q-18 0 -35 4.5t-30 14t-21 24.5t-8 36t10 34t28 13q14 0 24 -10t10 -32q0 -13 -5.5 -23t-16.5 -10
q-6 0 -12.5 5.5t-8.5 14.5q-1 -4 -1 -10q0 -13 5.5 -21t13 -12.5t15.5 -6.5t13 -2q22 0 37 14t15 51q0 35 -13.5 46t-30.5 11v32q22 0 31 13t9 37q0 26 -12.5 36.5t-35.5 10.5q-14 0 -28.5 -7t-14.5 -21q0 -4 1 -7.5t4 -4.5q1 8 5.5 14t11.5 6q11 0 16 -9.5t5 -20.5
q0 -34 -32 -34q-16 0 -25.5 11.5t-9.5 30.5q0 38 25 53.5t59 15.5q19 0 35.5 -4.5t29.5 -13.5t20.5 -23.5t7.5 -35.5q0 -32 -12.5 -46t-34.5 -19zM87 106h61v95zM29 391h266v-53h-266v53z" />
    <glyph glyph-name="questiondown" unicode="&#xbf;" horiz-adv-x="507" 
d="M266 -196q-48 0 -90.5 12t-74.5 36t-51 60t-19 84q0 49 15 82t37.5 56.5t48.5 42.5t48.5 41.5t37.5 52t15 75.5h83q5 -18 6.5 -33t1.5 -29q0 -30 -8.5 -51t-21 -39t-27 -35.5t-27 -40t-21 -52t-8.5 -71.5q0 -26 6 -50t18.5 -42t31.5 -29t44 -11q48 0 75 26t27 61
q-7 -19 -21.5 -31t-32.5 -12q-31 0 -49.5 25t-18.5 61q0 35 24 62t67 27q39 0 65.5 -28.5t26.5 -76.5q0 -46 -16 -79t-44 -54t-66 -30.5t-82 -9.5zM197 476q0 33 22 56t57 23q33 0 55.5 -22.5t22.5 -56.5q0 -33 -22.5 -56.5t-55.5 -23.5q-35 0 -57 23.5t-22 56.5z" />
    <glyph glyph-name="afii10023" unicode="&#x401;" horiz-adv-x="493" 
d="M123 799q0 22 15 35.5t35 13.5q22 0 36 -13.5t14 -35.5q0 -24 -13.5 -37.5t-36.5 -13.5t-36.5 14t-13.5 37zM263 799q0 22 15 36t36 14t36 -14t15 -36q0 -23 -14.5 -37t-36.5 -14t-36.5 14t-14.5 37zM460 0h-427v80q24 0 41.5 13t17.5 50v421q0 37 -17.5 50.5t-41.5 13.5
v80h416v-281h-76v11q0 42 -6 76t-19.5 58.5t-35.5 38t-53 13.5h-23v-209h91v-114h-91v-217h26q42 0 66.5 18t37 45t15.5 60t3 63v10h76v-280z" />
    <glyph glyph-name="afii10051" unicode="&#x402;" horiz-adv-x="670" 
d="M338 143q0 -38 17 -50.5t43 -12.5v-80h-262v80q23 0 41 13t18 50v481h-9q-24 0 -39 -12t-23.5 -31t-11.5 -41.5t-3 -44.5v-11h-76v224h467v-224h-76v11q0 22 -3 44.5t-11.5 41.5t-23.5 31t-38 12h-10v-200q24 24 55 32t61 8q28 0 60.5 -8.5t59.5 -34.5t45 -74t18 -126
q0 -66 -13 -111t-34 -72t-48 -39t-55 -12q-29 0 -49 13t-20 42q0 25 13 38t29 13q9 0 20 -4t19 -15q5 26 6.5 66.5t1.5 79.5q0 49 -7 83t-19.5 55t-29.5 30.5t-37 9.5q-39 0 -57.5 -29t-18.5 -74v-152z" />
    <glyph glyph-name="afii10052" unicode="&#x403;" horiz-adv-x="482" 
d="M236 143q0 -38 16.5 -50.5t42.5 -12.5v-80h-262v80q24 0 41.5 13t17.5 50v421q0 37 -17.5 50.5t-41.5 13.5v80h416v-281h-76v11q0 34 -5.5 67.5t-16.5 60t-28 42.5t-40 16h-47v-481zM185 766l116 87l74 -46l-149 -67z" />
    <glyph glyph-name="afii10053" unicode="&#x404;" horiz-adv-x="462" 
d="M314 415v-114h-138q1 -39 5.5 -78.5t13.5 -71t23.5 -51.5t34.5 -20q24 0 39 23.5t23.5 55.5t12 65t4.5 53h97q0 -41 -6.5 -90.5t-25 -92.5t-53 -72t-91.5 -29q-65 0 -109 33t-71 84t-39 113.5t-12 121.5q0 33 3 73.5t11 82t22.5 81t38.5 70t58.5 49t81.5 18.5
q19 0 34 -6.5t26.5 -14t20 -13.5t16.5 -6q23 0 29 28h51v-273h-85q0 18 -2.5 50.5t-10 64.5t-22 56t-39.5 24q-23 0 -37.5 -19t-23.5 -49.5t-13 -69t-5 -76.5h138z" />
    <glyph glyph-name="afii10054" unicode="&#x405;" horiz-adv-x="481" 
d="M288 677q17 0 24 10t9 21h85v-264h-86q0 26 -6.5 57t-20.5 57.5t-35 44t-49 17.5q-23 0 -33.5 -12.5t-10.5 -32.5q0 -34 21 -64.5t52.5 -61.5t68 -64.5t68 -71.5t52.5 -83.5t21 -100.5q0 -61 -31.5 -99t-100.5 -38q-30 0 -53 7t-43 15t-38 15t-37 7q-18 0 -26.5 -10
t-10.5 -26h-68v270h63q4 -28 12 -62t25.5 -64t45 -50.5t70.5 -20.5q23 0 42.5 12.5t19.5 43.5q0 32 -20.5 60t-52 56t-67.5 58.5t-67.5 68.5t-52 86.5t-20.5 112.5q0 69 33.5 107t100.5 38q18 0 35.5 -6t32.5 -13.5t27.5 -13.5t20.5 -6z" />
    <glyph glyph-name="afii10055" unicode="&#x406;" horiz-adv-x="350" 
d="M103 564q0 37 -17.5 50.5t-41.5 13.5v80h262v-80q-26 0 -42.5 -13t-16.5 -51v-421q0 -38 16.5 -50.5t42.5 -12.5v-80h-262v80q24 0 41.5 13t17.5 50v421z" />
    <glyph glyph-name="afii10056" unicode="&#x407;" horiz-adv-x="350" 
d="M103 564q0 37 -17.5 50.5t-41.5 13.5v80h262v-80q-26 0 -42.5 -13t-16.5 -51v-421q0 -38 16.5 -50.5t42.5 -12.5v-80h-262v80q24 0 41.5 13t17.5 50v421zM54 799q0 22 14.5 35.5t35.5 13.5t35.5 -13.5t14.5 -35.5q0 -24 -14 -37.5t-36 -13.5q-23 0 -36.5 14t-13.5 37z
M194 799q0 22 15 36t36 14q20 0 35 -14t15 -36q0 -23 -14 -37t-36 -14q-23 0 -37 14t-14 37z" />
    <glyph glyph-name="afii10057" unicode="&#x408;" horiz-adv-x="462" 
d="M187 -14q-44 0 -76 9.5t-53 25.5t-31.5 36.5t-10.5 42.5q0 32 18.5 47.5t39.5 15.5q29 0 44.5 -15.5t26 -34t21.5 -34t31 -15.5q16 0 22.5 26.5t6.5 65.5v408q0 37 -17.5 50.5t-41.5 13.5v80h262v-80q-26 0 -42.5 -13t-16.5 -51v-393q0 -54 -12 -89.5t-35.5 -57
t-57.5 -30t-78 -8.5z" />
    <glyph glyph-name="afii10058" unicode="&#x409;" horiz-adv-x="895" 
d="M620 85q44 0 70.5 29.5t26.5 92.5q0 20 -5.5 38.5t-17.5 33t-32 23t-49 8.5h-54v-225h61zM191 564q0 37 -17.5 50.5t-41.5 13.5v80h487v-80q-26 0 -43 -13t-17 -51v-162h111q52 0 88.5 -18.5t59.5 -47.5t33.5 -65.5t10.5 -72.5q0 -101 -58 -149.5t-170 -48.5h-278v80
q24 0 42 13t18 50v485h-167v-471q0 -51 -9.5 -83.5t-27 -51t-40.5 -25.5t-50 -7q-48 0 -77 21t-29 54q0 23 13 35.5t30 12.5q24 0 36.5 -10t21 -22.5t17 -22.5t24.5 -10q33 0 33 94v422z" />
    <glyph glyph-name="afii10059" unicode="&#x40a;" horiz-adv-x="860" 
d="M580 85q48 0 75 29.5t27 89.5q0 22 -6 41t-19 33.5t-34 23t-50 8.5h-49v-225h56zM380 310h-144v-167q0 -38 16.5 -50.5t42.5 -12.5v-80h-262v80q24 0 41.5 13t17.5 50v421q0 37 -17.5 50.5t-41.5 13.5v80h262v-80q-26 0 -42.5 -13t-16.5 -51v-162h144v162
q0 37 -17.5 50.5t-41.5 13.5v80h262v-80q-26 0 -42.5 -13t-16.5 -51v-162h93q58 0 98 -16t65 -43t36 -63t11 -75q0 -106 -58 -155.5t-170 -49.5h-278v80q24 0 41.5 13t17.5 50v167z" />
    <glyph glyph-name="afii10060" unicode="&#x40b;" horiz-adv-x="723" 
d="M338 143q0 -38 17 -50.5t43 -12.5v-80h-262v80q23 0 41 13t18 50v481h-9q-24 0 -39 -12t-23.5 -31t-11.5 -41.5t-3 -44.5v-11h-76v224h467v-224h-76v11q0 22 -3 44.5t-11.5 41.5t-23.5 31t-38 12h-10v-200q24 24 55 32t61 8q28 0 58.5 -9.5t55.5 -29.5t41 -52t16 -78
v-154q0 -28 13.5 -44.5t36.5 -16.5h15v-80h-263v80h14q29 0 41.5 16t12.5 45v154q0 45 -20 74t-61 29q-39 0 -57.5 -29t-18.5 -74v-152z" />
    <glyph glyph-name="afii10061" unicode="&#x40c;" horiz-adv-x="617" 
d="M428 0l-125 271q-14 29 -27.5 40t-39.5 11v-187q0 -31 16.5 -43t42.5 -12v-80h-262v80q24 0 41.5 13t17.5 50v421q0 37 -17.5 50.5t-41.5 13.5v80h262v-80q-26 0 -42.5 -13t-16.5 -51v-173q37 8 60.5 35t40.5 62.5t31 74.5t32.5 71.5t45.5 54t70 21.5q35 0 51.5 -18.5
t16.5 -41.5q0 -21 -11.5 -37t-37.5 -16q-11 0 -19 3.5t-15.5 8t-15 8.5t-15.5 4q-19 0 -28.5 -15.5t-15.5 -40.5t-11.5 -55t-16.5 -59.5t-31.5 -54t-55.5 -37.5q17 0 34.5 -3t35 -11.5t33 -24.5t28.5 -42l74 -152q10 -20 27.5 -33t40.5 -13v-80h-156zM237 766l116 87l74 -46
l-149 -67z" />
    <glyph glyph-name="afii10062" unicode="&#x40e;" horiz-adv-x="575" 
d="M90 564q-14 36 -31 50t-43 14v80h262v-80q-20 0 -34 -9t-14 -31q0 -12 3 -24l73 -193l73 193q3 6 3.5 13t0.5 12q0 22 -17 30.5t-35 8.5v80h227v-80q-26 0 -43 -14t-31 -50l-140 -377q-17 -45 -33.5 -81.5t-38 -62t-50.5 -39.5t-71 -14q-31 0 -52.5 15.5t-21.5 48.5
q0 26 14.5 41t33.5 15q10 0 18.5 -3t16 -7t15.5 -7t18 -3q22 0 39.5 15t17.5 38q0 4 -1.5 12t-3.5 11zM288 746q-24 0 -48.5 4.5t-44 15t-31.5 26t-12 38.5q0 11 6.5 20.5t20.5 9.5q18 0 27 -10t18.5 -21.5t23 -21.5t40.5 -10q26 0 39.5 10t23 21.5t18.5 21.5t26 10
q14 0 21 -9t7 -21q0 -23 -12 -38.5t-31.5 -26t-43.5 -15t-48 -4.5z" />
    <glyph glyph-name="afii10145" unicode="&#x40f;" horiz-adv-x="669" 
d="M38 80q24 0 41.5 13t17.5 50v421q0 37 -17.5 50.5t-41.5 13.5v80h262v-80q-26 0 -42.5 -13t-16.5 -51v-421q0 -38 16.5 -50.5t42.5 -12.5h69q23 0 41 13t18 50v421q0 37 -18 50.5t-41 13.5v80h262v-80q-26 0 -43 -13t-17 -51v-421q0 -38 17 -50.5t43 -12.5v-80h-120
q-49 0 -80 -16t-49 -42t-25.5 -58.5t-9.5 -66.5h-24q-2 34 -10 66.5t-26 58.5t-49 42t-80 16h-120v80z" />
    <glyph glyph-name="afii10017" unicode="&#x410;" horiz-adv-x="584" 
d="M224 708h140l126 -565q5 -22 12 -34.5t16 -19t20 -8t24 -1.5v-80h-264v80q20 0 36 9t16 32q0 10 -3 22l-15 63h-116l-15 -63q-2 -6 -3 -13t-1 -12q0 -23 17 -30.5t35 -7.5v-80h-227v80q26 0 46 12.5t28 50.5zM274 465l-38 -169h77z" />
    <glyph glyph-name="afii10018" unicode="&#x411;" horiz-adv-x="572" 
d="M506 506h-80v10q0 56 -23 83t-65 27h-102v-224h110q52 0 88.5 -18.5t59.5 -47.5t34 -65.5t11 -72.5q0 -101 -58 -149.5t-170 -48.5h-278v80q24 0 41.5 13t17.5 50v421q0 37 -17.5 50.5t-41.5 13.5v80h473v-202zM296 85q44 0 70.5 29.5t26.5 92.5q0 20 -5.5 38.5t-17.5 33
t-32 23t-49 8.5h-53v-225h60z" />
    <glyph glyph-name="afii10019" unicode="&#x412;" horiz-adv-x="572" 
d="M236 627v-225h53q29 0 48 9.5t30 24.5t15 33t4 36q0 63 -23 92.5t-67 29.5h-60zM444 346q18 -10 35.5 -25.5t30.5 -35.5t21 -44t8 -50q0 -92 -58 -141.5t-170 -49.5h-278v80q24 0 41.5 13t17.5 50v421q0 37 -17.5 50.5t-41.5 13.5v80h295q93 0 146 -54t53 -148
q0 -59 -20 -98t-63 -62zM296 85q44 0 70.5 29.5t26.5 92.5q0 20 -5.5 38.5t-17.5 33t-32 23t-49 8.5h-53v-225h60z" />
    <glyph glyph-name="afii10020" unicode="&#x413;" horiz-adv-x="482" 
d="M236 143q0 -38 16.5 -50.5t42.5 -12.5v-80h-262v80q24 0 41.5 13t17.5 50v421q0 37 -17.5 50.5t-41.5 13.5v80h416v-281h-76v11q0 34 -5.5 67.5t-16.5 60t-28 42.5t-40 16h-47v-481z" />
    <glyph glyph-name="afii10021" unicode="&#x414;" horiz-adv-x="658" 
d="M210 564q0 37 -18 50.5t-41 13.5v80h469v-80q-26 0 -42.5 -13t-16.5 -51v-409q0 -18 1 -33.5t7 -27t18 -19t33 -9.5v-237h-73q-3 37 -7.5 68.5t-19.5 54.5t-43.5 35.5t-77.5 12.5h-156q-45 0 -73 -12.5t-44 -35t-22 -54t-9 -69.5h-73v237q38 33 72.5 86t60 119.5
t40.5 141.5t15 151zM275 627q0 -104 -12 -186.5t-32.5 -148t-48 -117t-59.5 -91.5h235q24 0 41.5 13.5t17.5 50.5v479h-142z" />
    <glyph glyph-name="afii10022" unicode="&#x415;" horiz-adv-x="493" 
d="M460 0h-427v80q24 0 41.5 13t17.5 50v421q0 37 -17.5 50.5t-41.5 13.5v80h416v-281h-76v11q0 42 -6 76t-19.5 58.5t-35.5 38t-53 13.5h-23v-209h91v-114h-91v-217h26q42 0 66.5 18t37 45t15.5 60t3 63v10h76v-280z" />
    <glyph glyph-name="afii10024" unicode="&#x416;" horiz-adv-x="883" 
d="M175 0h-153v80q23 0 40.5 13t26.5 33l75 152q13 26 28.5 42t33 24.5t35 11.5t34.5 3q-35 13 -55.5 37.5t-32 54t-17 59.5t-11.5 55t-15 40.5t-28 15.5q-9 0 -16 -4t-14.5 -8.5t-16 -8t-18.5 -3.5q-26 0 -37.5 16t-11.5 37q0 23 16 41.5t51 18.5q43 0 70 -21.5t46 -54
t33 -71.5t31 -74.5t40.5 -62.5t60.5 -35v173q0 37 -17.5 50.5t-41.5 13.5v80h262v-80q-26 0 -42.5 -13t-16.5 -51v-173q37 8 60.5 35t40.5 62.5t31 74.5t32.5 71.5t45.5 54t70 21.5q35 0 51 -18.5t16 -41.5q0 -21 -11.5 -37t-37.5 -16q-10 0 -18.5 3.5t-16 8t-14.5 8.5
t-16 4q-19 0 -28 -15.5t-15 -40.5t-11.5 -55t-16.5 -59.5t-31.5 -54t-55.5 -37.5q16 0 34 -3t35 -11.5t33 -24.5t29 -42l74 -152q10 -20 27 -33t40 -13v-80h-153l-127 271q-14 29 -27.5 40t-39.5 11v-187q0 -31 16.5 -43t42.5 -12v-80h-262v80q24 0 41.5 13t17.5 50v179
q-26 0 -39.5 -11t-27.5 -40z" />
    <glyph glyph-name="afii10025" unicode="&#x417;" horiz-adv-x="507" 
d="M244 -8q-72 0 -114 25t-63.5 65t-27.5 88t-6 95h91q0 -191 101 -191q16 0 31.5 6t27.5 20t19.5 37.5t7.5 59.5q0 42 -9 69t-24 42t-34 21t-39 6v77q53 0 75 33t22 91q0 31 -8.5 49.5t-20.5 28.5t-24.5 12.5t-21.5 2.5q-39 0 -59.5 -18t-30 -44t-11.5 -55.5t-2 -53.5h-91
v250h51q6 -30 29 -30q10 0 20.5 7t26 15.5t38.5 15.5t58 7q39 0 74.5 -12t63 -36t44 -60.5t16.5 -85.5q0 -39 -9 -66.5t-25.5 -46t-39 -30t-48.5 -17.5q29 -7 54.5 -22t45 -38.5t31 -54t11.5 -68.5q0 -53 -19 -90t-51 -60t-73.5 -33.5t-86.5 -10.5z" />
    <glyph glyph-name="afii10026" unicode="&#x418;" horiz-adv-x="669" 
d="M428 564q0 37 -18 50.5t-41 13.5v80h262v-80q-26 0 -43 -13t-17 -51v-421q0 -38 17 -50.5t43 -12.5v-80h-262v80q23 0 41 13t18 50v296l-187 -297q0 -38 16.5 -50t42.5 -12v-80h-262v80q24 0 41.5 13t17.5 50v421q0 37 -17.5 50.5t-41.5 13.5v80h262v-80q-26 0 -42.5 -13
t-16.5 -51v-305l187 297v8z" />
    <glyph glyph-name="afii10027" unicode="&#x419;" horiz-adv-x="669" 
d="M428 564q0 37 -18 50.5t-41 13.5v80h262v-80q-26 0 -43 -13t-17 -51v-421q0 -38 17 -50.5t43 -12.5v-80h-262v80q23 0 41 13t18 50v296l-187 -297q0 -38 16.5 -50t42.5 -12v-80h-262v80q24 0 41.5 13t17.5 50v421q0 37 -17.5 50.5t-41.5 13.5v80h262v-80q-26 0 -42.5 -13
t-16.5 -51v-305l187 297v8zM334 740q-24 0 -48.5 4.5t-43.5 15t-31 26t-12 38.5q0 11 6.5 20.5t20.5 9.5q18 0 27 -10t18.5 -21.5t23 -21.5t39.5 -10q27 0 40.5 10t22.5 21.5t18 21.5t26 10q15 0 22 -9t7 -21q0 -23 -12.5 -38.5t-32 -26t-43.5 -15t-48 -4.5z" />
    <glyph glyph-name="afii10028" unicode="&#x41a;" horiz-adv-x="617" 
d="M432 0l-129 271q-14 29 -27.5 40t-39.5 11v-187q0 -31 16.5 -43t42.5 -12v-80h-262v80q24 0 41.5 13t17.5 50v421q0 37 -17.5 50.5t-41.5 13.5v80h262v-80q-26 0 -42.5 -13t-16.5 -51v-173q37 8 60.5 35t40.5 62.5t31 74.5t32.5 71.5t45.5 54t70 21.5q35 0 51.5 -18.5
t16.5 -41.5q0 -21 -11.5 -37t-37.5 -16q-11 0 -19 3.5t-15.5 8t-15 8.5t-15.5 4q-19 0 -28.5 -15.5t-15.5 -40.5t-11.5 -55t-16.5 -59.5t-31.5 -54t-55.5 -37.5q17 0 34.5 -3t35 -11.5t33 -24.5t28.5 -42l74 -152q10 -20 27.5 -33t40.5 -13v-80h-152z" />
    <glyph glyph-name="afii10029" unicode="&#x41b;" horiz-adv-x="655" 
d="M249 628v-471q0 -51 -9.5 -83.5t-27 -51t-40.5 -25.5t-50 -7q-48 0 -77 21t-29 54q0 23 13 35.5t30 12.5q24 0 36.5 -10t21 -22.5t17 -22.5t24.5 -10q33 0 33 94v422q0 37 -17.5 50.5t-41.5 13.5v80h490v-80q-26 0 -43 -13t-17 -51v-421q0 -38 17 -50.5t43 -12.5v-80
h-263v80q24 0 42 13t18 50v485h-170z" />
    <glyph glyph-name="afii10030" unicode="&#x41c;" horiz-adv-x="781" 
d="M397 368l75 340h271v-80q-26 0 -42.5 -13t-16.5 -51v-421q0 -38 16.5 -50.5t42.5 -12.5v-80h-262v80q24 0 41.5 13t17.5 50v422l-124 -565h-87l-124 565v-422q0 -19 8 -31t19.5 -19t24 -10t21.5 -3v-80h-240v80q35 0 54 13t19 50v421q0 37 -22 50.5t-51 13.5v80h285z" />
    <glyph glyph-name="afii10031" unicode="&#x41d;" horiz-adv-x="628" 
d="M241 415h145v149q0 37 -17.5 50.5t-41.5 13.5v80h262v-80q-26 0 -42.5 -13t-16.5 -51v-421q0 -38 16.5 -50.5t42.5 -12.5v-80h-262v80q24 0 41.5 13t17.5 50v158h-145v-158q0 -38 17 -50.5t43 -12.5v-80h-263v80q24 0 42 13t18 50v421q0 37 -18 50.5t-42 13.5v80h263v-80
q-26 0 -43 -13t-17 -51v-149z" />
    <glyph glyph-name="afii10032" unicode="&#x41e;" 
d="M254 719q58 0 102 -27.5t73 -76t43.5 -115t14.5 -143.5q0 -80 -14.5 -147t-43.5 -115t-73 -75t-102 -27t-101.5 27t-72.5 75t-43.5 115t-14.5 147q0 77 14.5 143.5t43.5 115t72.5 76t101.5 27.5zM254 629q-24 0 -39.5 -25t-24 -64t-11.5 -87.5t-3 -95.5q0 -50 3.5 -99
t12.5 -89t24 -64.5t38 -24.5q24 0 39 24.5t24 64.5t12.5 89t3.5 99q0 47 -3 95.5t-12 87.5t-24.5 64t-39.5 25z" />
    <glyph glyph-name="afii10033" unicode="&#x41f;" horiz-adv-x="668" 
d="M630 708v-80q-26 0 -42.5 -13t-16.5 -51v-421q0 -38 16.5 -50.5t42.5 -12.5v-80h-262v80q24 0 41.5 13t17.5 50v481h-186v-481q0 -38 16.5 -50.5t42.5 -12.5v-80h-262v80q24 0 41.5 13t17.5 50v421q0 37 -17.5 50.5t-41.5 13.5v80h592z" />
    <glyph glyph-name="afii10034" unicode="&#x420;" horiz-adv-x="554" 
d="M236 319v-176q0 -38 16.5 -50.5t42.5 -12.5v-80h-262v80q24 0 41.5 13t17.5 50v421q0 37 -17.5 50.5t-41.5 13.5v80h295q93 0 146 -52.5t53 -143.5q0 -92 -51 -142.5t-162 -50.5h-78zM236 627v-225h53q29 0 48 9.5t30 24.5t15 33t4 36q0 63 -23 92.5t-67 29.5h-60z" />
    <glyph glyph-name="afii10035" unicode="&#x421;" horiz-adv-x="462" 
d="M237 719q19 0 34 -6.5t26.5 -14t20 -13.5t16.5 -6q23 0 29 28h51v-273h-85q0 18 -2.5 50.5t-10 64.5t-22 56t-39.5 24q-27 0 -42.5 -27t-24 -68t-10.5 -89t-2 -91t3 -91.5t11 -89t23.5 -67t39.5 -26.5t39 23.5t23.5 55.5t12 65t4.5 53h97q0 -41 -6.5 -90.5t-25 -92.5
t-53 -72t-91.5 -29q-65 0 -109 33t-71 84t-39 113.5t-12 121.5q0 33 3 73.5t11 82t22.5 81t38.5 70t58.5 49t81.5 18.5z" />
    <glyph glyph-name="afii10036" unicode="&#x422;" horiz-adv-x="533" 
d="M500 708v-281h-76v11q0 34 -3 67.5t-11.5 60t-23.5 42.5t-38 16h-10v-481q0 -38 17 -50.5t43 -12.5v-80h-262v80q23 0 41 13t18 50v481h-9q-24 0 -39 -16t-23.5 -42.5t-11.5 -60t-3 -67.5v-11h-76v281h467z" />
    <glyph glyph-name="afii10037" unicode="&#x423;" horiz-adv-x="575" 
d="M90 564q-14 36 -31 50t-43 14v80h262v-80q-20 0 -34 -9t-14 -31q0 -12 3 -24l73 -193l73 193q3 6 3.5 13t0.5 12q0 22 -17 30.5t-35 8.5v80h227v-80q-26 0 -43 -14t-31 -50l-140 -377q-17 -45 -33.5 -81.5t-38 -62t-50.5 -39.5t-71 -14q-31 0 -52.5 15.5t-21.5 48.5
q0 26 14.5 41t33.5 15q10 0 18.5 -3t16 -7t15.5 -7t18 -3q22 0 39.5 15t17.5 38q0 4 -1.5 12t-3.5 11z" />
    <glyph glyph-name="afii10038" unicode="&#x424;" horiz-adv-x="710" 
d="M283 540q-14 -3 -31 -11.5t-32 -29t-25 -56t-10 -92.5q0 -49 7.5 -83t20.5 -57t31 -35.5t39 -18.5v383zM427 155q17 6 35 17t32.5 32.5t23.5 56.5t9 90q0 58 -9.5 94t-24 56t-32 28.5t-34.5 12.5v-387zM431 111q7 -17 21.5 -24t33.5 -7v-80h-262v80q17 0 30.5 5.5
t21.5 22.5q-48 5 -94 20.5t-81.5 44.5t-57 72.5t-21.5 105.5q0 64 22.5 109t59 74t82 44t91.5 19q-7 18 -21 24.5t-32 6.5v80h262v-80q-19 0 -33 -6.5t-21 -23.5q50 -5 96.5 -20t82 -44.5t56.5 -74.5t21 -108q0 -62 -22 -105.5t-58.5 -71.5t-82.5 -43t-94 -20z" />
    <glyph glyph-name="afii10039" unicode="&#x425;" horiz-adv-x="580" 
d="M210 143q-8 -12 -8 -25q0 -16 12.5 -26.5t34.5 -11.5v-80h-216v80q26 0 42.5 15.5t36.5 47.5l117 204l-100 217q-17 36 -40.5 50t-47.5 14v80h262v-80q-39 -2 -39 -33q0 -13 8 -31l38 -79l46 79q8 18 8 31q0 31 -39 33v80h210v-80q-23 0 -42 -14.5t-39 -49.5l-101 -173
l115 -248q17 -34 35.5 -48t43.5 -15v-80h-262v80q18 0 32.5 8.5t14.5 27.5q0 6 -2 12.5t-5 14.5l-52 110z" />
    <glyph glyph-name="afii10040" unicode="&#x426;" horiz-adv-x="672" 
d="M571 155q0 -17 1.5 -32.5t8 -27t19 -19.5t33.5 -10v-237h-73q-6 38 -14.5 69.5t-27 54t-49.5 35t-80 12.5h-351v80q24 0 41.5 13t17.5 50v421q0 37 -17.5 50.5t-41.5 13.5v80h262v-80q-26 0 -42.5 -13t-16.5 -51v-421q0 -38 16.5 -50.5t42.5 -12.5h68q24 0 41.5 13
t17.5 50v421q0 37 -17.5 50.5t-41.5 13.5v80h262v-80q-26 0 -42.5 -13t-16.5 -51v-409z" />
    <glyph glyph-name="afii10041" unicode="&#x427;" horiz-adv-x="617" 
d="M76 564q0 37 -18 50.5t-42 13.5v80h262v-80q-26 0 -42.5 -13t-16.5 -51v-120q0 -45 19.5 -71.5t61.5 -26.5q38 0 59.5 26.5t21.5 71.5v120q0 37 -17.5 50.5t-41.5 13.5v80h262v-80q-26 0 -42.5 -13t-16.5 -49v-423q0 -38 16.5 -50.5t42.5 -12.5v-80h-262v80q24 0 41.5 13
t17.5 50v170q-10 -10 -26 -18.5t-34 -14.5t-37.5 -9.5t-37.5 -3.5q-29 0 -59 7.5t-54.5 27t-40.5 51.5t-16 82v129z" />
    <glyph glyph-name="afii10042" unicode="&#x428;" horiz-adv-x="954" 
d="M654 80q23 0 41 13t18 50v421q0 37 -18 50.5t-41 13.5v80h262v-80q-26 0 -43 -13t-17 -51v-421q0 -38 17 -50.5t43 -12.5v-80h-878v80q24 0 41.5 13t17.5 50v421q0 37 -17.5 50.5t-41.5 13.5v80h262v-80q-26 0 -42.5 -13t-16.5 -51v-421q0 -38 16.5 -50.5t42.5 -12.5h46
q24 0 41.5 13t17.5 50v421q0 37 -17.5 50.5t-41.5 13.5v80h262v-80q-26 0 -42.5 -13t-16.5 -51v-421q0 -38 16.5 -50.5t42.5 -12.5h46z" />
    <glyph glyph-name="afii10043" unicode="&#x429;" horiz-adv-x="957" 
d="M38 0v80q24 0 41.5 13t17.5 50v421q0 37 -17.5 50.5t-41.5 13.5v80h262v-80q-26 0 -42.5 -13t-16.5 -51v-421q0 -38 16.5 -50.5t42.5 -12.5h46q24 0 41.5 13t17.5 50v421q0 37 -17.5 50.5t-41.5 13.5v80h262v-80q-26 0 -42.5 -13t-16.5 -51v-421q0 -38 16.5 -50.5
t42.5 -12.5h46q23 0 41 13t18 50v421q0 37 -18 50.5t-41 13.5v80h262v-80q-26 0 -43 -13t-17 -51v-409q0 -17 1.5 -32.5t8 -27t19 -19.5t33.5 -10v-237h-73q-6 38 -14.5 69.5t-27 54t-49.5 35t-80 12.5h-636z" />
    <glyph glyph-name="afii10044" unicode="&#x42a;" horiz-adv-x="726" 
d="M450 85q44 0 70.5 29.5t26.5 92.5q0 20 -5.5 38.5t-17.5 33t-32 23t-49 8.5h-54v-225h61zM246 624h-47q-23 0 -40 -16t-28 -42.5t-16.5 -60t-5.5 -67.5v-11h-76v281h416v-80q-24 0 -42 -13.5t-18 -50.5v-162h111q52 0 88.5 -18.5t59.5 -47.5t34 -65.5t11 -72.5
q0 -101 -58 -149.5t-170 -48.5h-279v80q24 0 42 13t18 50v481z" />
    <glyph glyph-name="afii10045" unicode="&#x42b;" horiz-adv-x="892" 
d="M92 564q0 37 -17.5 50.5t-41.5 13.5v80h262v-80q-26 0 -42.5 -13t-16.5 -51v-162h110q52 0 88.5 -18.5t59.5 -47.5t34 -65.5t11 -72.5q0 -101 -58 -149.5t-170 -48.5h-278v80q24 0 41.5 13t17.5 50v421zM296 85q44 0 70.5 29.5t26.5 92.5q0 20 -5.5 38.5t-17.5 33t-32 23
t-49 8.5h-53v-225h60zM656 564q0 37 -17.5 50.5t-41.5 13.5v80h262v-80q-26 0 -42.5 -13t-16.5 -51v-421q0 -38 16.5 -50.5t42.5 -12.5v-80h-262v80q24 0 41.5 13t17.5 50v421z" />
    <glyph glyph-name="afii10046" unicode="&#x42c;" horiz-adv-x="572" 
d="M296 85q44 0 70.5 29.5t26.5 92.5q0 20 -5.5 38.5t-17.5 33t-32 23t-49 8.5h-53v-225h60zM92 564q0 37 -17.5 50.5t-41.5 13.5v80h262v-80q-26 0 -42.5 -13t-16.5 -51v-162h110q52 0 88.5 -18.5t59.5 -47.5t34 -65.5t11 -72.5q0 -101 -58 -149.5t-170 -48.5h-278v80
q24 0 41.5 13t17.5 50v421z" />
    <glyph glyph-name="afii10047" unicode="&#x42d;" horiz-adv-x="445" 
d="M269 415q-1 38 -5 76.5t-12.5 69t-23.5 49.5t-37 19q-25 0 -39.5 -24t-22 -56t-10 -64.5t-2.5 -50.5h-86v273h51q6 -28 29 -28q7 0 16.5 6t21 13.5t26 14t33.5 6.5q47 0 81.5 -18.5t58.5 -49t38.5 -70t22.5 -81t11 -82t3 -73.5q0 -59 -12 -121.5t-39 -113.5t-71 -84
t-109 -33q-57 0 -89.5 29t-49 72t-21 92.5t-4.5 90.5h85q1 -20 4.5 -53t12 -65t23.5 -55.5t39 -23.5q20 0 34.5 20t23.5 51.5t13.5 71t5.5 78.5h-138v114h138z" />
    <glyph glyph-name="afii10048" unicode="&#x42e;" horiz-adv-x="884" 
d="M247 301v-158q0 -38 16.5 -50.5t42.5 -12.5v-80h-262v80q24 0 41.5 13t17.5 50v421q0 37 -17.5 50.5t-41.5 13.5v80h262v-80q-26 0 -42.5 -13t-16.5 -51v-149h141q5 67 22 122.5t45.5 96t69 63t93.5 22.5q58 0 101.5 -27.5t73 -76t44 -115t14.5 -143.5q0 -80 -14.5 -147
t-44 -115t-73 -75t-101.5 -27q-53 0 -93.5 22.5t-69 63t-45.5 97t-22 125.5h-141zM618 629q-24 0 -39.5 -25t-24 -64t-11.5 -87.5t-3 -95.5q0 -50 3.5 -99t12.5 -89t24 -64.5t38 -24.5q24 0 39 24.5t24 64.5t12.5 89t3.5 99q0 47 -3 95.5t-12 87.5t-24.5 64t-39.5 25z" />
    <glyph glyph-name="afii10049" unicode="&#x42f;" horiz-adv-x="618" 
d="M585 708v-80q-24 0 -41.5 -13.5t-17.5 -50.5v-421q0 -37 17.5 -50t41.5 -13v-80h-262v80q26 0 42.5 12.5t16.5 50.5v167q-19 4 -36 4q-30 0 -49 -13t-31 -35.5t-18.5 -52t-12.5 -63.5q-5 -32 -12.5 -60.5t-21.5 -50.5t-36.5 -35t-57.5 -13q-44 0 -67.5 25t-25.5 60
q31 9 47 30.5t26 49t17.5 58t20 57.5t34.5 47.5t61 28.5q-26 13 -49.5 28t-42 34.5t-29.5 45t-11 60.5q0 55 20 92.5t51.5 59.5t70 31.5t75.5 9.5h280zM325 626q-22 0 -38.5 -9t-27.5 -24.5t-16.5 -35.5t-5.5 -42q0 -34 12 -57t32 -37t46 -20.5t55 -6.5v232h-57z" />
    <glyph glyph-name="afii10065" unicode="&#x430;" horiz-adv-x="489" 
d="M278 326q-3 47 -22.5 67t-42.5 20q-26 0 -36 -15.5t-10 -31.5q0 -7 3 -18.5t3 -19.5q0 -33 -19.5 -53.5t-49.5 -20.5q-32 0 -49.5 22.5t-17.5 55.5q0 30 13.5 54.5t37 42.5t56 27.5t70.5 9.5q52 0 88 -13.5t58.5 -37.5t33 -57.5t10.5 -73.5v-155q0 -31 12.5 -46t34.5 -15
h14v-68h-180v51q-26 -31 -61.5 -48.5t-83.5 -17.5q-58 0 -86 31t-28 77q0 35 14.5 58.5t37.5 41t51.5 30.5t56.5 27.5t52.5 32t39.5 43.5zM285 279q-8 -22 -29.5 -39t-44.5 -35.5t-40.5 -42t-17.5 -58.5q0 -27 13.5 -42t36.5 -15q41 0 61.5 47t20.5 126v59z" />
    <glyph glyph-name="afii10066" unicode="&#x431;" horiz-adv-x="458" 
d="M80 385q15 24 34.5 39.5t39.5 25t41 13t39 3.5q93 0 148 -60.5t55 -177.5q0 -59 -16.5 -103.5t-43.5 -74.5t-62 -45t-72 -15q-58 0 -100 22t-69.5 61t-40.5 92.5t-13 116.5q0 60 10.5 125t36.5 119.5t69.5 90.5t108.5 39q40 1 77.5 8.5t61.5 39.5q0 -31 -6 -59.5
t-20.5 -50t-39 -34.5t-62.5 -13q-28 0 -58 -7t-55.5 -25.5t-43 -50t-19.5 -79.5zM231 413q-13 0 -26 -10t-23 -32.5t-16 -57.5t-6 -85q0 -30 3.5 -62t12 -58.5t22 -43.5t33.5 -17q17 0 30 13.5t22 38t14 57.5t5 72q0 89 -21 137t-50 48z" />
    <glyph glyph-name="afii10067" unicode="&#x432;" horiz-adv-x="460" 
d="M203 68q34 0 56.5 4.5t35.5 12.5t18 19t5 25q0 22 -9.5 34t-25.5 18t-37 7t-43 1v-121zM262 452q87 0 128.5 -36.5t41.5 -91.5q0 -32 -13.5 -58t-41.5 -40q29 -15 45.5 -40.5t16.5 -56.5q0 -32 -8.5 -56.5t-28.5 -40.5t-53.5 -24t-82.5 -8h-240v68h7q27 0 38 15.5
t11 45.5v192q0 26 -7 44.5t-36 18.5h-13v68h236zM203 265q34 0 55 5t31.5 12.5t14 17.5t3.5 21q0 33 -25 45.5t-79 12.5v-114z" />
    <glyph glyph-name="afii10068" unicode="&#x433;" horiz-adv-x="430" 
d="M26 452h383v-161h-70q-3 36 -22.5 64.5t-61.5 28.5h-47v-255q0 -31 12 -46t33 -15h14v-68h-241v68h12q27 0 38 15.5t11 45.5v192q0 26 -10 44.5t-39 18.5h-12v68z" />
    <glyph glyph-name="afii10069" unicode="&#x434;" 
d="M154 321q0 26 -10.5 44.5t-39.5 18.5h-13v68h393v-68h-14q-28 0 -37 -18.5t-9 -44.5v-192q0 -38 14 -57.5t46 -22.5v-177h-55q-2 28 -7.5 51.5t-19 40.5t-37 26.5t-61.5 9.5h-113q-39 0 -63 -9.5t-37.5 -26.5t-19 -40.5t-7.5 -51.5h-54v177q30 13 56.5 35.5t46 55.5
t30.5 77.5t11 103.5zM204 332q0 -196 -86 -264h136q27 0 38.5 15.5t11.5 45.5v255h-100v-52z" />
    <glyph glyph-name="afii10070" unicode="&#x435;" horiz-adv-x="465" 
d="M161 206q3 -30 8.5 -58.5t17.5 -51t31.5 -36t50.5 -13.5q39 0 67 31t38 84h59q-11 -83 -63.5 -127.5t-135.5 -44.5q-47 0 -86.5 17t-68 48t-44 75t-15.5 98t16 98t44.5 75t68 48t86.5 17q93 0 146 -64t53 -196h-273zM304 279q-1 69 -21 101.5t-48 32.5q-32 0 -51.5 -33
t-21.5 -101h142z" />
    <glyph glyph-name="afii10072" unicode="&#x436;" horiz-adv-x="721" 
d="M301 321q0 26 -11 44.5t-40 18.5h-12v68h242v-68h-12q-29 0 -38.5 -18.5t-9.5 -44.5v-77l65 79q19 23 33 48t29 46t34 34.5t49 13.5q23 0 40.5 -16t17.5 -45q0 -21 -13 -41.5t-44 -20.5q-14 0 -28 -7.5t-27.5 -18.5t-25 -24t-19.5 -24l95 -139q15 -22 37 -41t43 -20v-68
h-128l-158 215v-86q0 -61 47 -61h13v-68h-242v68h12q27 0 39 16t12 45v86l-158 -215h-128v68q20 1 42 20t37 41l95 139q-8 11 -19.5 24t-25 24t-28 18.5t-28.5 7.5q-16 0 -26.5 5.5t-17 14.5t-9.5 20t-3 22q0 29 17.5 45t40.5 16q30 0 49 -13.5t34 -34.5t29 -46t33 -48
l66 -79v77z" />
    <glyph glyph-name="afii10073" unicode="&#x437;" horiz-adv-x="417" 
d="M219 467q73 0 119 -32t46 -98q0 -39 -16 -61.5t-45 -33.5q35 -14 54.5 -45t19.5 -69t-16 -64t-42.5 -42.5t-61 -24t-70.5 -7.5q-43 0 -76.5 13t-57 34.5t-37 48.5t-16.5 55l56 13q6 -43 35 -68.5t67 -25.5q33 0 59.5 17t26.5 56q0 14 -5 28t-16 25t-27.5 17.5t-40.5 6.5
v62q43 0 59.5 20.5t16.5 46.5q0 37 -15.5 55.5t-43.5 18.5q-24 0 -42.5 -10.5t-32 -28t-22.5 -41t-13 -50.5h-52v169h37q5 -17 20 -17q8 0 19.5 5t27 11t36.5 11t49 5z" />
    <glyph glyph-name="afii10074" unicode="&#x438;" horiz-adv-x="562" 
d="M267 0h-241v68h13q27 0 37.5 15.5t10.5 45.5v192q0 26 -9.5 44.5t-38.5 18.5h-13v68h241v-68h-12q-29 0 -38 -18.5t-9 -44.5v-169l119 229q-4 2 -9 2.5t-11 0.5h-12v68h241v-68h-11q-30 0 -39.5 -18.5t-9.5 -44.5v-192q0 -31 13 -46t34 -15h13v-68h-241v68h12q50 0 50 61
v176l-122 -234q9 -3 19 -3h13v-68z" />
    <glyph glyph-name="afii10075" unicode="&#x439;" horiz-adv-x="562" 
d="M267 0h-241v68h13q27 0 37.5 15.5t10.5 45.5v192q0 26 -9.5 44.5t-38.5 18.5h-13v68h241v-68h-12q-29 0 -38 -18.5t-9 -44.5v-169l119 229q-4 2 -9 2.5t-11 0.5h-12v68h241v-68h-11q-30 0 -39.5 -18.5t-9.5 -44.5v-192q0 -31 13 -46t34 -15h13v-68h-241v68h12q50 0 50 61
v176l-122 -234q9 -3 19 -3h13v-68zM281 485q-23 0 -45 4.5t-40 14.5t-29 25.5t-11 37.5q0 11 6.5 20.5t18.5 9.5q16 0 25 -9.5t17.5 -21.5t21 -21.5t36.5 -9.5t37 9.5t21.5 21.5t16.5 21.5t23 9.5q14 0 20.5 -9.5t6.5 -20.5q0 -22 -11 -37.5t-29 -25.5t-40.5 -14.5
t-44.5 -4.5z" />
    <glyph glyph-name="afii10076" unicode="&#x43a;" horiz-adv-x="514" 
d="M208 129q0 -31 12.5 -46t33.5 -15h13v-68h-241v68h13q27 0 37.5 15.5t10.5 45.5v192q0 26 -9.5 44.5t-38.5 18.5h-13v68h241v-68h-12q-29 0 -38 -18.5t-9 -44.5v-77l65 79q19 23 33 48t29 46t34 34.5t48 13.5q23 0 40.5 -16t17.5 -45q0 -21 -12 -41.5t-44 -20.5
q-14 0 -28.5 -7.5t-27.5 -18.5t-24.5 -24t-19.5 -24l95 -139q15 -22 37.5 -41t42.5 -20v-68h-129l-157 215v-86z" />
    <glyph glyph-name="afii10077" unicode="&#x43b;" horiz-adv-x="507" 
d="M124 321q0 26 -10 44.5t-39 18.5h-12v68h419v-68h-13q-29 0 -38 -18.5t-9 -44.5v-192q0 -61 47 -61h13v-68h-237v68h7q27 0 39 15.5t12 45.5v255h-128v-280q0 -63 -22 -88.5t-67 -25.5q-34 0 -55 18.5t-21 46.5q0 22 9.5 33.5t24.5 11.5t24 -10t9 -33q0 -7 4 -16t15 -9
q14 0 21 15t7 57v217z" />
    <glyph glyph-name="afii10078" unicode="&#x43c;" horiz-adv-x="569" 
d="M364 360l-92 -360h-42l-94 361v-232q0 -31 12 -46t33 -15h14v-68h-169v68h13q27 0 37.5 15.5t10.5 45.5v192q0 26 -9.5 44.5t-38.5 18.5h-13v68h201l55 -223l57 223h204v-68h-11q-30 0 -39 -18.5t-9 -44.5v-192q0 -31 12.5 -46t33.5 -15h13v-68h-240v68h12
q26 0 37.5 15.5t11.5 45.5v231z" />
    <glyph glyph-name="afii10079" unicode="&#x43d;" horiz-adv-x="562" 
d="M357 265v56q0 26 -10.5 44.5t-39.5 18.5h-12v68h241v-68h-11q-30 0 -39.5 -18.5t-9.5 -44.5v-192q0 -31 13 -46t34 -15h13v-68h-241v68h12q50 0 50 61v60h-149v-60q0 -31 12.5 -46t33.5 -15h13v-68h-241v68h13q27 0 37.5 15.5t10.5 45.5v192q0 26 -9.5 44.5t-38.5 18.5
h-13v68h241v-68h-12q-29 0 -38 -18.5t-9 -44.5v-56h149z" />
    <glyph glyph-name="afii10080" unicode="&#x43e;" horiz-adv-x="469" 
d="M235 413q-14 0 -27.5 -10t-24 -32.5t-17 -57.5t-6.5 -85q0 -30 3.5 -62t12.5 -58.5t23.5 -43.5t35.5 -17q19 0 33 13.5t23.5 38t14.5 57.5t5 72q0 89 -21 137t-55 48zM20 228q0 54 16 98t44.5 75t68 48t86.5 17q46 0 85 -16.5t67.5 -47.5t44.5 -75t16 -99
q0 -59 -16 -103.5t-44.5 -74.5t-67.5 -45t-85 -15q-47 0 -86.5 17t-68 48t-44.5 75t-16 98z" />
    <glyph glyph-name="afii10081" unicode="&#x43f;" horiz-adv-x="562" 
d="M536 452v-68h-11q-30 0 -39.5 -18.5t-9.5 -44.5v-192q0 -31 13 -46t34 -15h13v-68h-235v68h6q50 0 50 61v255h-149v-255q0 -31 12.5 -46t33.5 -15h9v-68h-237v68h13q27 0 37.5 15.5t10.5 45.5v192q0 26 -9.5 44.5t-38.5 18.5h-13v68h510z" />
    <glyph glyph-name="afii10082" unicode="&#x440;" 
d="M283 406q-13 0 -26 -10t-23 -32.5t-16 -57.5t-6 -84q0 -31 4 -63t12.5 -58.5t22 -43.5t33.5 -17q17 0 30 13.5t21.5 37.5t13 57.5t4.5 73.5q0 89 -20.5 136.5t-49.5 47.5zM92 323q0 61 -46 61h-16v68h182v-45q10 20 35 38t60 18q38 0 71.5 -15t58 -45t38.5 -74.5
t14 -103.5t-14.5 -103.5t-40 -74.5t-59 -45.5t-70.5 -15.5q-29 0 -54 12t-39 35v-168q0 -30 13 -47t34 -17h13v-67h-242v67h14q27 0 37.5 16.5t10.5 45.5v460z" />
    <glyph glyph-name="afii10083" unicode="&#x441;" horiz-adv-x="450" 
d="M415 337q0 -34 -17.5 -53.5t-49.5 -19.5q-30 0 -49 19t-19 52q0 8 2.5 20t2.5 19q0 16 -9.5 27.5t-32.5 11.5q-17 0 -32.5 -10t-26.5 -32.5t-17.5 -57.5t-6.5 -85q0 -36 6 -69t18.5 -58t31.5 -39.5t46 -14.5q43 0 67.5 33.5t32.5 92.5h57q-4 -88 -52 -135.5t-132 -47.5
q-47 0 -86.5 17t-68 48t-44.5 75t-16 98t16 98t44.5 75t69 48t88.5 17q33 0 65 -9t56.5 -25.5t40 -40.5t15.5 -54z" />
    <glyph glyph-name="afii10084" unicode="&#x442;" horiz-adv-x="511" 
d="M487 452v-161h-72q-2 36 -21 64.5t-61 28.5h-17v-255q0 -31 12.5 -46t33.5 -15h14v-68h-241v68h11q27 0 38.5 15.5t11.5 45.5v255h-17q-42 0 -60.5 -28.5t-21.5 -64.5h-71v161h461z" />
    <glyph glyph-name="afii10085" unicode="&#x443;" horiz-adv-x="506" 
d="M216 -41l-117 379q-8 26 -28 36t-43 10v68h234v-68q-19 0 -29 -8.5t-10 -17.5q0 -4 1 -11t3 -15l54 -172l54 172q2 5 3 11t1 12q0 11 -10.5 20t-28.5 9v68h187v-68q-21 0 -38 -7.5t-27 -39.5l-137 -453q-11 -35 -23 -63t-29.5 -47.5t-41 -30.5t-56.5 -11
q-54 0 -84.5 25.5t-30.5 62.5q0 29 15 44t36 15q49 0 49 -60q0 -5 -0.5 -9.5t-0.5 -12.5q0 -17 15 -17q7 0 15.5 9t16 24t15 34.5t13.5 40.5z" />
    <glyph glyph-name="afii10086" unicode="&#x444;" horiz-adv-x="641" 
d="M380 462q7 2 15.5 3t15.5 1q49 0 88 -17t66 -48t41.5 -75t14.5 -98t-14.5 -98.5t-41 -75.5t-64.5 -48t-86 -17q-19 0 -35 7v-133q0 -30 13 -46t34 -16h13v-67h-241v67h13q26 0 37.5 16.5t11.5 45.5v134q-7 -3 -16 -5.5t-17 -2.5q-48 0 -86.5 17t-65.5 48t-41.5 75.5
t-14.5 98.5t15 98t42.5 75t66.5 48t87 17q7 0 15 -1t15 -3v106q0 26 -10 44.5t-39 18.5h-13v69h181v-238zM261 387q-13 18 -30 18q-14 0 -27 -9.5t-22.5 -30.5t-15.5 -54.5t-6 -82.5t5 -83t14.5 -55.5t22.5 -31.5t29 -10q19 0 30 11v328zM380 60q12 -12 31 -12q31 0 51 41
t20 139q0 49 -6 82.5t-16 54.5t-23 30.5t-26 9.5q-18 0 -31 -18v-327z" />
    <glyph glyph-name="afii10087" unicode="&#x445;" horiz-adv-x="487" 
d="M186 219l-73 103q-26 37 -47 49.5t-41 12.5v68h241v-68q-27 0 -27 -20q0 -8 5.5 -17.5t11.5 -17.5l16 -23l22 24q6 6 12.5 16.5t6.5 19.5t-5.5 13.5t-19.5 4.5v68h173v-68q-20 0 -42.5 -17t-43.5 -39l-70 -72l87 -127q15 -22 36.5 -41t41.5 -20v-68h-239v68q36 0 36 22
q0 17 -16 39l-29 39l-40 -39q-9 -11 -17 -21.5t-8 -19.5q0 -7 4.5 -13.5t18.5 -6.5h12v-68h-177v68q23 5 43 22t44 42z" />
    <glyph glyph-name="afii10088" unicode="&#x446;" horiz-adv-x="562" 
d="M476 129q0 -74 60 -80v-177h-54q-2 28 -8.5 51.5t-20 40.5t-37 26.5t-59.5 9.5h-331v68h13q27 0 37.5 15.5t10.5 45.5v192q0 26 -9.5 44.5t-38.5 18.5h-13v68h241v-68h-12q-29 0 -38 -18.5t-9 -44.5v-192q0 -31 12.5 -46t33.5 -15h53q50 0 50 61v192q0 26 -10.5 44.5
t-39.5 18.5h-12v68h241v-68h-11q-30 0 -39.5 -18.5t-9.5 -44.5v-192z" />
    <glyph glyph-name="afii10089" unicode="&#x447;" horiz-adv-x="539" 
d="M64 313q0 12 -2 25t-7.5 23t-15 16.5t-24.5 6.5v68h218v-68q-31 -2 -40 -20.5t-9 -48.5q0 -24 17 -46.5t50 -22.5q27 0 48 8.5t34 17.5v49q0 26 -10 44.5t-39 18.5h-12v68h241v-68h-12q-29 0 -39 -18t-10 -44v-192q0 -25 10 -43.5t39 -18.5h13v-68h-241v68h12q15 0 24 6
t14.5 15t7.5 20t2 21v70q-30 -16 -57.5 -24.5t-65.5 -8.5q-40 0 -68 13.5t-45 35t-25 47.5t-8 50z" />
    <glyph glyph-name="afii10090" unicode="&#x448;" horiz-adv-x="831" 
d="M26 0v68h13q27 0 37.5 15.5t10.5 45.5v192q0 26 -9.5 44.5t-38.5 18.5h-13v68h241v-68h-12q-29 0 -38 -18.5t-9 -44.5v-192q0 -31 12.5 -46t33.5 -15h53q50 0 50 61v192q0 26 -10.5 44.5t-39.5 18.5h-12v68h241v-68h-11q-30 0 -39.5 -18.5t-9.5 -44.5v-192q0 -31 13 -46
t34 -15h54q26 0 37.5 15.5t11.5 45.5v192q0 26 -10 44.5t-39 18.5h-13v68h241v-68h-13q-29 0 -37.5 -18.5t-8.5 -44.5v-192q0 -61 46 -61h13v-68h-779z" />
    <glyph glyph-name="afii10091" unicode="&#x449;" horiz-adv-x="831" 
d="M26 0v68h13q27 0 37.5 15.5t10.5 45.5v192q0 26 -9.5 44.5t-38.5 18.5h-13v68h241v-68h-12q-29 0 -38 -18.5t-9 -44.5v-192q0 -31 12.5 -46t33.5 -15h53q50 0 50 61v192q0 26 -10.5 44.5t-39.5 18.5h-12v68h241v-68h-11q-30 0 -39.5 -18.5t-9.5 -44.5v-192q0 -31 13 -46
t34 -15h54q26 0 37.5 15.5t11.5 45.5v192q0 26 -10 44.5t-39 18.5h-13v68h241v-68h-13q-29 0 -37.5 -18.5t-8.5 -44.5v-192q0 -74 59 -80v-177h-54q-2 28 -7.5 51.5t-19 40.5t-37 26.5t-61.5 9.5h-600z" />
    <glyph glyph-name="afii10092" unicode="&#x44a;" horiz-adv-x="570" 
d="M137 0v68h7q26 0 37.5 15.5t11.5 45.5v255h-19q-42 0 -61.5 -28.5t-22.5 -64.5h-70v161h353v-68h-13q-14 0 -23.5 -6t-14.5 -15t-7 -20.5t-2 -21.5v-56h69q44 0 76 -10t52.5 -28t30 -42t9.5 -52q0 -32 -8.5 -56.5t-29 -41.5t-54 -26t-82.5 -9h-239zM313 68q39 0 62 5.5
t35 14t15.5 19.5t3.5 22q0 22 -10 34t-26 18t-37 7t-43 1v-121z" />
    <glyph glyph-name="afii10093" unicode="&#x44b;" horiz-adv-x="770" 
d="M26 452h241v-68h-12q-15 0 -24 -6t-14 -15t-7 -20.5t-2 -21.5v-56h69q44 0 76 -10t52.5 -28t30 -42t9.5 -52q0 -32 -8.5 -56.5t-29 -41.5t-54 -26t-82.5 -9h-240v68h8q27 0 37.5 15.5t10.5 45.5v192q0 26 -9.5 44.5t-38.5 18.5h-13v68zM208 68q39 0 62 5.5t34.5 14
t15 19.5t3.5 22q0 22 -9.5 34t-25.5 18t-37 7t-43 1v-121zM740 452v-68h-12q-29 0 -38.5 -18.5t-9.5 -44.5v-192q0 -31 12.5 -46t35.5 -15h12v-68h-241v68h12q27 0 38.5 15.5t11.5 45.5v192q0 26 -10.5 44.5t-39.5 18.5h-12v68h241z" />
    <glyph glyph-name="afii10094" unicode="&#x44c;" horiz-adv-x="466" 
d="M26 452h241v-68h-12q-15 0 -24 -6t-14 -15t-7 -20.5t-2 -21.5v-56h69q44 0 76 -10t52.5 -28t30 -42t9.5 -52q0 -32 -8.5 -56.5t-29 -41.5t-54 -26t-82.5 -9h-240v68h8q27 0 37.5 15.5t10.5 45.5v192q0 26 -9.5 44.5t-38.5 18.5h-13v68zM208 68q39 0 62 5.5t34.5 14
t15 19.5t3.5 22q0 22 -9.5 34t-25.5 18t-37 7t-43 1v-121z" />
    <glyph glyph-name="afii10095" unicode="&#x44d;" horiz-adv-x="430" 
d="M270 257q-2 80 -29 117.5t-64 37.5q-24 0 -42 -13t-30.5 -32.5t-20 -42t-10.5 -41.5h-51v175h37q4 -19 21 -19q5 0 13.5 4t21 9.5t30.5 9.5t42 4q53 0 94.5 -17t69.5 -48t42.5 -75t14.5 -98t-15.5 -98t-44 -75t-68 -48t-86.5 -17q-85 0 -127.5 47.5t-47.5 135.5h47
q8 -59 35 -92.5t71 -33.5q24 0 41.5 11.5t28.5 31.5t17 47.5t8 59.5h-142v60h144z" />
    <glyph glyph-name="afii10096" unicode="&#x44e;" horiz-adv-x="741" 
d="M507 413q-14 0 -27 -10t-23.5 -32.5t-16.5 -57.5t-6 -85q0 -30 3.5 -62t12 -58.5t22.5 -43.5t35 -17q19 0 33.5 13.5t24.5 38t14.5 57.5t4.5 72q0 89 -21 137t-56 48zM267 452v-68h-13q-29 0 -37.5 -18.5t-8.5 -44.5v-56h86q5 47 23.5 84.5t47 63.5t65 39.5t77.5 13.5
q46 0 85.5 -16.5t68 -47.5t44.5 -75t16 -99q0 -59 -16 -103.5t-44.5 -74.5t-68 -45t-85.5 -15q-43 0 -79.5 14t-64.5 39.5t-45.5 62.5t-21.5 83h-88v-60q0 -31 12 -46t33 -15h14v-68h-241v68h12q27 0 38 15.5t11 45.5v192q0 26 -10 44.5t-39 18.5h-12v68h241z" />
    <glyph glyph-name="afii10097" unicode="&#x44f;" horiz-adv-x="474" 
d="M270 196q-7 2 -12 2h-11q-27 0 -41.5 -15.5t-22.5 -38t-13.5 -49.5t-15 -49.5t-27.5 -38t-50 -15.5q-63 0 -77 55q21 5 32 17t17.5 27.5t10 33t11 33.5t20.5 29.5t37 21.5q-23 7 -39.5 20t-27 29t-15.5 33t-5 33q0 27 10 50.5t31 41t53 27t76 9.5h239v-68h-13
q-29 0 -38 -18.5t-9 -44.5v-192q0 -30 11 -45.5t37 -15.5h12v-68h-241v68h11q27 0 38.5 13.5t11.5 47.5v67zM270 379q-55 0 -80 -12.5t-25 -45.5q0 -11 3.5 -21t14.5 -17.5t31.5 -12.5t55.5 -5v114z" />
    <glyph glyph-name="afii10071" unicode="&#x451;" horiz-adv-x="465" 
d="M161 206q3 -30 8.5 -58.5t17.5 -51t31.5 -36t50.5 -13.5q39 0 67 31t38 84h59q-11 -83 -63.5 -127.5t-135.5 -44.5q-47 0 -86.5 17t-68 48t-44 75t-15.5 98t16 98t44.5 75t68 48t86.5 17q93 0 146 -64t53 -196h-273zM304 279q-1 69 -21 101.5t-48 32.5q-32 0 -51.5 -33
t-21.5 -101h142zM109 552q0 23 15 36t36 13t35.5 -13t14.5 -36q0 -24 -14 -37t-36 -13q-23 0 -37 13.5t-14 36.5zM250 552q0 23 14.5 36.5t36.5 13.5q20 0 35 -13.5t15 -36.5t-14.5 -36.5t-35.5 -13.5q-23 0 -37 13.5t-14 36.5z" />
    <glyph glyph-name="afii10099" unicode="&#x452;" horiz-adv-x="500" 
d="M31 573h61q-1 28 -11 47.5t-37 19.5h-14v68h182v-135h186v-50h-186v-108q22 26 50 35t56 9q22 0 49.5 -6.5t52.5 -31.5t42 -74.5t17 -136.5q0 -72 -14.5 -121.5t-40.5 -82t-64 -49.5t-84 -24q21 19 37 42t26 55.5t15 78t5 109.5q0 49 -5 83t-15 54t-24.5 29t-33.5 9
q-35 0 -52 -28.5t-17 -73.5v-162q0 -31 12.5 -46t33.5 -15h14v-68h-242v68h14q26 0 37 15.5t11 45.5v394h-61v50z" />
    <glyph glyph-name="afii10100" unicode="&#x453;" horiz-adv-x="430" 
d="M26 452h383v-161h-70q-3 36 -22.5 64.5t-61.5 28.5h-47v-255q0 -31 12 -46t33 -15h14v-68h-241v68h12q27 0 38 15.5t11 45.5v193q0 26 -10 44.5t-39 18.5h-12v67zM156 512l117 87l74 -46l-150 -67z" />
    <glyph glyph-name="afii10101" unicode="&#x454;" horiz-adv-x="440" 
d="M304 257v-60h-143q2 -32 9 -59.5t19 -47.5t30 -31.5t42 -11.5q43 0 69 33.5t33 92.5h47q-5 -88 -48 -135.5t-127 -47.5q-47 0 -86.5 17t-68 48t-44.5 75t-16 98t15 98t43.5 75t70 48t94.5 17q23 0 40.5 -4t30.5 -9.5t21.5 -9.5t13.5 -4q16 0 22 19h36v-175h-51
q-3 19 -11 41.5t-21.5 42t-32 32.5t-42.5 13q-37 0 -62 -37t-27 -118h144z" />
    <glyph glyph-name="afii10102" unicode="&#x455;" horiz-adv-x="425" 
d="M265 437q9 0 14.5 4.5t6.5 10.5h82v-162h-83q0 18 -6 36.5t-18 34.5t-29 26t-39 10q-20 0 -28 -8t-8 -20q0 -18 18 -32.5t45 -29t58.5 -31.5t58.5 -39.5t45 -53.5t18 -74q0 -51 -28 -85t-90 -34q-27 0 -48 5.5t-38.5 12t-33.5 12t-34 5.5q-17 0 -24 -8t-9 -17h-63v174h56
q4 -17 14 -38.5t26 -41t37 -32.5t48 -13q21 0 36 7t15 27q0 21 -17.5 37t-43.5 31t-56 31.5t-56 38.5t-43.5 52t-17.5 72q0 25 7.5 47t22.5 38.5t37.5 26t52.5 9.5q18 0 33 -4.5t29 -10t27 -10t26 -4.5z" />
    <glyph glyph-name="afii10103" unicode="&#x456;" horiz-adv-x="303" 
d="M212 129q0 -31 12.5 -46t33.5 -15h14v-68h-242v68h13q27 0 38 15.5t11 45.5v192q0 26 -10 44.5t-39 18.5h-13v68h182v-323zM63 592q0 32 21.5 54t53.5 22t53 -22t21 -54t-21 -52.5t-53 -20.5t-53.5 21t-21.5 52z" />
    <glyph glyph-name="afii10104" unicode="&#x457;" horiz-adv-x="307" 
d="M217 129q0 -31 12.5 -46t33.5 -15h14v-68h-242v68h13q27 0 38 15.5t11 45.5v192q0 26 -10 44.5t-39 18.5h-13v68h182v-323zM16 552q0 23 15 36t36 13t35.5 -13t14.5 -36q0 -24 -14 -37t-36 -13q-23 0 -37 13.5t-14 36.5zM157 552q0 23 14.5 36.5t36.5 13.5q20 0 35 -13.5
t15 -36.5t-14.5 -36.5t-35.5 -13.5q-23 0 -37 13.5t-14 36.5z" />
    <glyph glyph-name="afii10105" unicode="&#x458;" horiz-adv-x="239" 
d="M64 -220q14 0 19 23t5 69v449q0 26 -10 44.5t-39 18.5h-12v68h182v-568q0 -83 -37.5 -117.5t-106.5 -34.5q-54 0 -84.5 25t-30.5 62q0 29 14.5 44.5t35.5 15.5q23 0 36.5 -15.5t13.5 -44.5q0 -5 -0.5 -9.5t-0.5 -12.5t3 -12.5t12 -4.5zM60 592q0 32 21.5 54t53.5 22
t53 -22t21 -54t-21 -52.5t-53 -20.5t-53.5 21t-21.5 52z" />
    <glyph glyph-name="afii10106" unicode="&#x459;" horiz-adv-x="671" 
d="M413 265h69q44 0 76 -10t52.5 -28t30.5 -42t10 -52q0 -32 -9 -56.5t-29.5 -41.5t-54 -26t-83.5 -9h-239v68h7q27 0 38.5 15.5t11.5 45.5v255h-118v-280q0 -63 -22 -88.5t-67 -25.5q-34 0 -55 18.5t-21 46.5q0 22 9.5 33.5t24.5 11.5t24 -10t9 -33q0 -7 4 -16t15 -9
q14 0 21 15t7 57v217q0 26 -10 44.5t-39 18.5h-12v68h409v-68h-12q-15 0 -24 -6t-14 -15.5t-7 -20t-2 -19.5v-58zM413 68q39 0 62 5.5t35 14t15 19.5t3 22q0 22 -10 34t-26 18t-36.5 7t-42.5 1v-121z" />
    <glyph glyph-name="afii10107" unicode="&#x45a;" horiz-adv-x="734" 
d="M295 0v68h12q50 0 50 61v60h-149v-60q0 -31 12.5 -46t33.5 -15h13v-68h-241v68h13q27 0 37.5 15.5t10.5 45.5v192q0 26 -9.5 44.5t-38.5 18.5h-13v68h241v-68h-12q-29 0 -38 -18.5t-9 -44.5v-56h149v56q0 26 -10.5 44.5t-39.5 18.5h-12v68h241v-68h-11q-30 0 -39.5 -18.5
t-9.5 -44.5v-56h70q44 0 75.5 -10t52 -28t30.5 -42t10 -52q0 -32 -8.5 -56.5t-29 -41.5t-54 -26t-82.5 -9h-245zM476 68q39 0 62.5 5.5t35.5 14t15.5 19.5t3.5 22q0 22 -10 34t-26.5 18t-37.5 7t-43 1v-121z" />
    <glyph glyph-name="afii10108" unicode="&#x45b;" horiz-adv-x="556" 
d="M31 573h61q-1 29 -11 48t-37 19h-14v68h182v-135h186v-50h-186v-108q22 26 50 35t56 9q27 0 54.5 -9t50.5 -29.5t37.5 -52.5t14.5 -77v-162q0 -29 13 -45t34 -16h13v-68h-241v68h13q49 0 49 61v162q0 45 -18.5 73.5t-56.5 28.5q-35 0 -52 -28.5t-17 -73.5v-162
q0 -31 12.5 -46t33.5 -15h14v-68h-242v68h14q26 0 37 15.5t11 45.5v394h-61v50z" />
    <glyph glyph-name="afii10109" unicode="&#x45c;" horiz-adv-x="514" 
d="M208 129q0 -31 12.5 -46t33.5 -15h13v-68h-241v68h13q27 0 37.5 15.5t10.5 45.5v192q0 26 -9.5 44.5t-38.5 18.5h-13v68h241v-68h-12q-29 0 -38 -18.5t-9 -44.5v-77l65 79q19 23 33 48t29 46t34 34.5t48 13.5q23 0 40.5 -16t17.5 -45q0 -21 -12 -41.5t-44 -20.5
q-14 0 -28.5 -7.5t-27.5 -18.5t-24.5 -24t-19.5 -24l95 -139q15 -22 37.5 -41t42.5 -20v-68h-129l-157 215v-86zM190 517l117 87l74 -46l-150 -67z" />
    <glyph glyph-name="afii10110" unicode="&#x45e;" horiz-adv-x="487" 
d="M247 493q-22 0 -44 4t-39 13t-28 22.5t-11 33.5q0 8 5.5 15.5t19.5 7.5q15 0 23.5 -8t16.5 -18t20.5 -18t36.5 -8t36.5 8t21 18t16.5 18t23 8q16 0 21.5 -6.5t5.5 -16.5q0 -20 -11 -33.5t-29 -22.5t-40 -13t-44 -4zM207 -41l-119 379q-8 26 -27.5 36t-42.5 10v68h233v-68
q-19 0 -29 -8t-10 -17q0 -4 1 -11.5t3 -15.5l54 -172l53 172q5 12 5 24q0 11 -10 19.5t-29 8.5v68h187v-68q-20 0 -37 -7.5t-27 -39.5l-137 -453q-11 -35 -23.5 -63t-29.5 -47.5t-41 -30.5t-57 -11q-54 0 -84 25.5t-30 62.5q0 29 14 44t36 15q23 0 37 -15.5t14 -44.5
q0 -5 -1 -9.5t-1 -12.5q0 -17 14 -17q7 0 15.5 9t16.5 24t15.5 34.5t13.5 40.5z" />
    <glyph glyph-name="afii10193" unicode="&#x45f;" horiz-adv-x="562" 
d="M536 0h-121q-36 0 -58.5 -12.5t-35.5 -33.5t-18.5 -47t-7.5 -53h-28q-2 27 -7.5 53t-19 47t-36.5 33.5t-59 12.5h-119v68h13q27 0 37.5 15.5t10.5 45.5v192q0 26 -9.5 44.5t-38.5 18.5h-13v68h241v-68h-12q-29 0 -38 -18.5t-9 -44.5v-192q0 -31 12.5 -46t33.5 -15h53
q50 0 50 61v192q0 26 -10.5 44.5t-39.5 18.5h-12v68h241v-68h-11q-30 0 -39.5 -18.5t-9.5 -44.5v-192q0 -31 13 -46t34 -15h13v-68z" />
    <glyph glyph-name="afii10050" unicode="&#x490;" horiz-adv-x="550" 
d="M517 553h-65q0 11 -4 23.5t-13 23t-24.5 17.5t-39.5 7h-135v-481q0 -38 16.5 -50.5t42.5 -12.5v-80h-262v80q24 0 41.5 13t17.5 50v421q0 37 -17.5 50.5t-41.5 13.5v80h284q28 0 52.5 7t43 23t29 40.5t10.5 59.5v10h65v-295z" />
    <glyph glyph-name="afii10098" unicode="&#x491;" horiz-adv-x="451" 
d="M368 331q0 33 -14 43t-37 10h-109v-255q0 -31 12.5 -46t33.5 -15h13v-68h-241v68h13q27 0 37.5 15.5t10.5 45.5v192q0 26 -9.5 44.5t-38.5 18.5h-13v68h278q32 0 48 18t16 50v14h63v-203h-63z" />
    <glyph glyph-name="quoteleft" unicode="&#x2018;" horiz-adv-x="249" 
d="M129 603q35 0 55.5 -22.5t20.5 -56.5q0 -33 -22 -56.5t-57 -23.5t-58.5 22.5t-23.5 67.5q0 24 8 51.5t25 55t43.5 51.5t64.5 41l18 -25q-34 -17 -61.5 -47t-39.5 -65q11 7 27 7z" />
    <glyph glyph-name="quoteright" unicode="&#x2019;" horiz-adv-x="249" 
d="M122 570q-35 0 -56.5 22t-21.5 55q0 34 22 57t57 23q33 0 57.5 -22t24.5 -67q0 -20 -6.5 -47.5t-21.5 -56.5t-38 -56.5t-56 -47.5l-20 17q33 26 56.5 62.5t27.5 65.5q-6 -2 -11.5 -3.5t-13.5 -1.5z" />
    <glyph glyph-name="quotesinglbase" unicode="&#x201a;" horiz-adv-x="249" 
d="M122 -23q-35 0 -56.5 22t-21.5 55q0 34 22 57t57 23q33 0 57.5 -22t24.5 -67q0 -20 -6.5 -47.5t-21.5 -56.5t-38 -56.5t-56 -47.5l-19 17q16 13 30.5 29t25.5 33.5t18 34.5t9 32q-12 -6 -25 -6z" />
    <glyph glyph-name="quotedblleft" unicode="&#x201c;" horiz-adv-x="405" 
d="M291 605q35 0 52 -23t17 -57t-20.5 -56.5t-50.5 -22.5q-31 0 -52.5 22.5t-21.5 67.5q0 23 6.5 50.5t21.5 53.5t38.5 49t58.5 38l21 -22q-18 -8 -34.5 -21.5t-29 -29t-20.5 -30.5t-9 -27q10 8 23 8zM121 605q34 0 51 -23t17 -57q0 -33 -20.5 -56t-49.5 -23q-31 0 -53 22.5
t-22 67.5q0 23 6.5 50.5t21.5 53.5t39 49t59 38l20 -22q-18 -8 -34.5 -21.5t-29 -29t-20.5 -30.5t-9 -27q11 8 24 8z" />
    <glyph glyph-name="quotedblright" unicode="&#x201d;" horiz-adv-x="394" 
d="M113 567q-35 0 -52 23.5t-17 56.5q0 34 20.5 57t50.5 23q31 0 52.5 -22.5t21.5 -67.5q0 -20 -5 -48t-17.5 -57t-32.5 -57t-50 -49l-20 20q28 27 48.5 63.5t24.5 65.5q-5 -3 -11 -5.5t-13 -2.5zM283 567q-34 0 -51 23.5t-17 56.5q0 34 20.5 57t49.5 23q32 0 53.5 -22.5
t21.5 -67.5q0 -20 -5 -48t-17.5 -57t-32.5 -57t-50 -49l-21 20q28 27 49 63.5t24 65.5q-5 -3 -11 -5.5t-13 -2.5z" />
    <glyph glyph-name="quotedblbase" unicode="&#x201e;" horiz-adv-x="404" 
d="M113 -25q-35 0 -52 23t-17 56q0 34 20.5 57t50.5 23q31 0 52.5 -22.5t21.5 -67.5q0 -20 -5 -47.5t-17.5 -57t-32.5 -57.5t-50 -49l-20 20q28 27 48.5 63.5t24.5 66.5q-11 -8 -24 -8zM283 -25q-34 0 -51 23t-17 56q0 34 20.5 57t49.5 23q32 0 53.5 -22.5t21.5 -67.5
q0 -20 -5 -47.5t-17.5 -57t-32.5 -57.5t-50 -49l-21 20q29 27 49.5 63.5t23.5 66.5q-11 -8 -24 -8z" />
    <glyph glyph-name="bullet" unicode="&#x2022;" horiz-adv-x="300" 
d="M282 327q0 -57 -36 -93t-93 -36q-28 0 -51.5 9.5t-41 26.5t-27 40.5t-9.5 52.5q0 28 9.5 51.5t27 40.5t41 27t51.5 10t52 -10t41 -27t26.5 -40.5t9.5 -51.5z" />
    <glyph glyph-name="ellipsis" unicode="&#x2026;" horiz-adv-x="878" 
d="M42 54q0 34 22 57t57 23q33 0 55 -23t22 -57q0 -33 -22 -55t-55 -22q-35 0 -57 22.5t-22 54.5zM339 54q0 34 22 57t57 23q33 0 55.5 -23t22.5 -57q0 -33 -22.5 -55t-55.5 -22q-35 0 -57 22.5t-22 54.5zM638 54q0 34 22 57t57 23q33 0 55 -23t22 -57q0 -33 -22 -55
t-55 -22q-35 0 -57 22.5t-22 54.5z" />
    <glyph glyph-name="perthousand" unicode="&#x2030;" horiz-adv-x="1118" 
d="M548 709h67l-418 -709h-64zM549 319q-22 0 -40 -34t-18 -115q0 -25 3 -51.5t9.5 -48.5t17.5 -36t28 -14q15 0 26.5 11.5t19 31.5t11.5 47.5t4 59.5q0 73 -16.5 111t-44.5 38zM380 170q0 44 12.5 80t35 61.5t53.5 39.5t68 14q36 0 67 -13.5t53.5 -39t35.5 -61.5t13 -81
q0 -48 -13 -84.5t-35.5 -61t-53.5 -37t-67 -12.5q-37 0 -68 13.5t-53.5 39t-35 61.5t-12.5 81zM187 676q-11 0 -21.5 -8t-18.5 -26t-13 -46.5t-5 -69.5q0 -25 3 -51.5t9.5 -48t17.5 -35.5t28 -14q15 0 26.5 11.5t19 31.5t11.5 47t4 59q0 73 -16.5 111.5t-44.5 38.5zM19 526
q0 44 12.5 80t34.5 61.5t53 39.5t68 14q36 0 67 -13.5t53.5 -39t35.5 -61.5t13 -81q0 -48 -13 -84.5t-35.5 -60.5t-53.5 -36.5t-67 -12.5q-37 0 -68 13.5t-53 39t-34.5 61.5t-12.5 80zM916 319q-23 0 -40.5 -34t-17.5 -115q0 -25 2.5 -51.5t9.5 -48.5t18 -36t28 -14
q15 0 26 11.5t18.5 31.5t11.5 47.5t4 59.5q0 73 -16.5 111t-43.5 38zM747 170q0 44 12.5 80t35 61.5t53.5 39.5t68 14q36 0 67 -13.5t53.5 -39t35.5 -61.5t13 -81q0 -48 -13 -84.5t-35.5 -61t-53.5 -37t-67 -12.5q-37 0 -68 13.5t-53.5 39t-35 61.5t-12.5 81z" />
    <glyph glyph-name="Euro" unicode="&#x20ac;" 
d="M22 314h48q-1 8 -1 28.5v34.5h-47v53h50q4 49 16.5 100t36.5 93t62.5 69t96.5 27q19 0 33.5 -6.5t26 -14t20.5 -13.5t17 -6q23 0 29 28h51v-273h-86q0 18 -2 50.5t-9.5 64.5t-22.5 56t-40 24q-21 0 -35.5 -17.5t-23.5 -45.5t-13 -63.5t-5 -72.5h79v-53h-80v-63h80v-52
h-78q3 -35 8 -68t14 -58.5t22 -40.5t31 -15q24 0 39 23.5t23.5 55.5t12 65t4.5 53h97q0 -41 -6.5 -90.5t-25 -92.5t-53 -72t-91.5 -29q-54 0 -93.5 23t-66.5 60.5t-43 86t-22 99.5h-53v52z" />
    <glyph glyph-name="afii61352" unicode="&#x2116;" horiz-adv-x="977" 
d="M376 0l-173 460v-317q0 -19 8 -31t19.5 -19t24 -10t21.5 -3v-80h-239v80q34 0 53.5 13t19.5 50v421q0 37 -22.5 50.5t-50.5 13.5v80h245l141 -383v239q0 37 -16.5 50.5t-44.5 13.5v80h216v-80q-29 0 -45 -13t-16 -50v-565h-141zM596 537q0 41 13 74t36 56.5t55 36.5
t70 13t70 -12.5t55 -36t36 -56.5t13 -75q0 -45 -13 -79t-36 -57t-55 -34.5t-70 -11.5t-70 13t-55 36.5t-36 57t-13 75.5zM770 666q-11 0 -21.5 -6t-19 -21t-14 -40t-5.5 -62q0 -23 3 -46t10 -41.5t18.5 -30t28.5 -11.5q31 0 47 34.5t16 94.5q0 68 -17.5 98.5t-45.5 30.5z
M624 296h314v-64h-314v64z" />
    <glyph glyph-name="trademark" unicode="&#x2122;" horiz-adv-x="352" 
d="M129 725v-70h-20v3q0 17 -2.5 31.5t-10.5 14.5t-8 -20v-101q0 -9 4.5 -12.5t10.5 -3.5v-19h-65v19q14 0 14 16v101q0 20 -8 20t-10.5 -14.5t-2.5 -31.5v-3h-20v70h118zM233 640l18 85h68v-20q-7 0 -11 -3t-4 -13v-106q0 -16 15 -16v-19h-66v19q6 0 10.5 4t4.5 12v106
l-31 -141h-22l-30 141v-106q0 -9 6.5 -12.5t11.5 -3.5v-19h-60v19q18 0 18 16v106q0 9 -5.5 12.5t-12.5 3.5v20h71z" />
    <glyph glyph-name="commaaccent" horiz-adv-x="386" 
d="M189 -130q-25 0 -39.5 16t-14.5 39t15.5 39.5t39.5 16.5t41 -16.5t17 -48.5q0 -14 -4.5 -33t-15 -39t-27 -39t-39.5 -33l-13 13q22 18 38.5 43t19.5 47q-5 -2 -9 -3.5t-9 -1.5z" />
    </font>
</defs>
</svg>
