<?xml version="1.0" standalone="no"?>
<!DOCTYPE svg PUBLIC "-//W3C//DTD SVG 1.1//EN" "http://www.w3.org/Graphics/SVG/1.1/DTD/svg11.dtd" >
<svg xmlns="http://www.w3.org/2000/svg" xmlns:xlink="http://www.w3.org/1999/xlink" version="1.1">
<metadata>
Created by FontForge 20161003 at Tue Nov 15 17:43:45 2016
 By www-data
Based on an unpublished work by Bitstream Inc.
</metadata>
<defs>
<font id="TANGODI" horiz-adv-x="426" >
  <font-face 
    font-family="TANGODI"
    font-weight="400"
    font-stretch="normal"
    units-per-em="1000"
    panose-1="4 0 0 0 0 0 0 0 0 0"
    ascent="800"
    descent="-200"
    x-height="361"
    cap-height="543"
    bbox="-259 -398 1119 764"
    underline-thickness="62"
    underline-position="-172"
    unicode-range="U+0020-F019"
  />
<missing-glyph horiz-adv-x="500" 
d="M63 0v764h375v-764h-375zM125 63h250v639h-250v-639z" />
    <glyph glyph-name=".notdef" horiz-adv-x="500" 
d="M63 0v764h375v-764h-375zM125 63h250v639h-250v-639z" />
    <glyph glyph-name=".null" horiz-adv-x="0" 
 />
    <glyph glyph-name="nonmarkingreturn" horiz-adv-x="243" 
 />
    <glyph glyph-name="space" unicode=" " horiz-adv-x="243" 
 />
    <glyph glyph-name="exclam" unicode="!" horiz-adv-x="259" 
d="M199 462q0 -9 -23 -118q-5 -26 -6.5 -79.5t-7.5 -78.5t-32 -25t-32 21q-3 8 -3 43q0 71 -10 119l-18 86q-4 20 -7 32q0 87 70 87q69 0 69 -87zM198 62q0 -31 -18.5 -52.5t-49.5 -21.5q-30 0 -49 22t-19 52q0 31 18.5 52.5t49.5 21.5q30 0 49 -22t19 -52z" />
    <glyph glyph-name="quotedbl" unicode="&#x22;" horiz-adv-x="339" 
d="M299 662q0 -8 -2 -20l-36 -224h-19l-36 224q-1 6 -1 24q0 48 47 48t47 -52zM134 666q0 -18 -1 -24l-36 -224h-19l-36 224q-1 6 -1 23q0 49 46 49q47 0 47 -48z" />
    <glyph glyph-name="numbersign" unicode="#" horiz-adv-x="769" 
d="M735 500l-29 -81h-142l-45 -128h150l-29 -82h-150l-75 -212h-90l76 212h-131l-75 -212h-90l76 212h-147l29 82h147l45 128h-156l30 81h155l76 213h89l-76 -213h131l76 213h89l-76 -213h142zM477 419h-134l-46 -129h134z" />
    <glyph glyph-name="dollar" unicode="$" horiz-adv-x="435" 
d="M392 160q0 -60 -36 -105t-95 -54q0 -42 -4 -54q-8 -26 -42 -26t-43 25q-4 11 -4 53q-58 9 -97 46q-43 40 -43 97q0 69 61 69q34 0 48 -32l24 -60q18 -32 58 -32q66 0 66 67q0 53 -53 78q-111 52 -122 60q-62 43 -62 112q0 53 33.5 88.5t86.5 43.5q0 36 6 49q10 21 41 21
q30 0 40 -20q6 -12 6 -46q51 -11 83 -41q37 -34 37 -83q0 -23 -14 -38t-37 -15q-18 0 -29 9q-4 3 -24 40q-23 42 -66 42q-54 0 -54 -47q0 -31 61 -59q88 -40 113 -60q61 -49 61 -128z" />
    <glyph glyph-name="percent" unicode="%" horiz-adv-x="583" 
d="M549 131q0 -55 -25 -95q-29 -48 -81 -48q-53 0 -82 47q-25 40 -25 96t25 96q29 47 82 47q52 0 81 -48q25 -40 25 -95zM542 526q0 -15 -14 -31l-420 -489q-15 -18 -35 -18q-11 0 -21.5 10.5t-10.5 21.5q0 14 15 32l419 489q16 19 36 19q13 0 22 -10.5t9 -23.5zM247 417
q0 -55 -25 -95q-29 -48 -81 -48t-81 47q-25 40 -25 96q0 57 24 96q29 47 82 47q52 0 81 -48q25 -40 25 -95zM477 131q0 71 -34 71q-36 0 -36 -71t35 -71t35 71zM176 417q0 71 -35 71t-35 -71t35 -71t35 71z" />
    <glyph glyph-name="ampersand" unicode="&#x26;" horiz-adv-x="574" 
d="M539 183q0 -24 -22 -37q-28 -17 -33 -27l-31 -63q74 -99 74 -181q0 -75 -63 -75q-36 0 -55 61q-13 40 -31 89q-51 -57 -149 -57q-77 0 -128.5 45t-51.5 122q0 52 27 90q22 31 71 64q-56 52 -56 112q0 63 45 97q41 31 106 31q63 0 103.5 -33t40.5 -95q0 -78 -82 -120
q30 -24 81 -79q6 9 6 17q0 7 -8 23.5t-8 25.5q0 29 46 29h72q46 0 46 -39zM287 322q0 41 -47 41q-48 0 -48 -41q0 -27 39 -60q56 26 56 60zM330 33q-54 76 -115 119q-58 -34 -58 -77q0 -38 25.5 -63t63.5 -25q51 0 84 46z" />
    <glyph glyph-name="quotesingle" unicode="'" horiz-adv-x="175" 
d="M134 666q0 -18 -1 -24l-36 -224h-19l-36 224q-1 6 -1 23q0 49 46 49q47 0 47 -48z" />
    <glyph glyph-name="parenleft" unicode="(" horiz-adv-x="324" 
d="M286 -183q0 -33 -32 -33q-48 0 -111 96q-78 119 -78 287q0 154 63 263q69 119 126 119q32 0 32 -33q0 -8 -39 -85q-66 -131 -66 -264t57 -245q9 -18 28 -53q20 -38 20 -52z" />
    <glyph glyph-name="parenright" unicode=")" horiz-adv-x="324" 
d="M259 167q0 -166 -78 -287q-62 -96 -111 -96q-32 0 -32 33q0 11 16 42q8 14 23 43q67 131 67 265q0 130 -58 244q-9 17 -28.5 53.5t-19.5 51.5q0 33 32 33q47 0 111 -96q78 -118 78 -286z" />
    <glyph glyph-name="asterisk" unicode="*" horiz-adv-x="486" 
d="M410 294q0 -19 -13.5 -32.5t-32.5 -13.5q-31 0 -65.5 45.5t-39.5 45.5q-4 -3 -4 -6q0 -11 17 -48.5t17 -56.5q0 -21 -12.5 -35.5t-33.5 -14.5q-46 0 -46 49q0 21 17 58.5t17 45.5q0 4 -4 8q-7 0 -41 -45.5t-65 -45.5q-45 0 -45 46q0 34 36 47q17 6 66 10q36 3 36 13
q0 7 -33 11l-42 4q-63 9 -63 54q0 19 13.5 32.5t32.5 13.5q32 0 65.5 -45.5t39.5 -45.5q5 7 5 11q0 2 -17.5 42t-17.5 60q0 48 46 48t46 -50q0 -21 -17 -57.5t-17 -42.5q0 -9 4 -11q5 0 39.5 45.5t66.5 45.5q20 0 32.5 -14.5t12.5 -34.5q0 -33 -45 -46q-13 -4 -71 -11
q-22 -3 -22 -9q0 -8 25 -11q61 -7 71 -10q42 -12 42 -49z" />
    <glyph glyph-name="plus" unicode="+" horiz-adv-x="833" 
d="M709 258h-251v-258h-83v258h-251v81h251v257h83v-257h251v-81z" />
    <glyph glyph-name="comma" unicode="," horiz-adv-x="243" 
d="M187 49q0 -42 -29 -86q-32 -49 -72 -49q-24 0 -24 22q0 7 15.5 26.5t15.5 29.5q0 7 -20.5 33.5t-20.5 46.5q0 29 18 47t47 18q35 0 54 -28q16 -23 16 -60z" />
    <glyph glyph-name="hyphen" unicode="-" horiz-adv-x="833" 
d="M709 257h-585v83h585v-83z" />
    <glyph glyph-name="hyphen" unicode="&#x2010;" horiz-adv-x="833" 
d="M709 257h-585v83h585v-83z" />
    <glyph glyph-name="period" unicode="." horiz-adv-x="243" 
d="M190 62q0 -31 -18.5 -52.5t-49.5 -21.5q-30 0 -49.5 22t-19.5 52q0 31 19.5 52.5t49.5 21.5t49 -22t19 -52z" />
    <glyph glyph-name="slash" unicode="/" horiz-adv-x="269" 
d="M288 511q0 -8 -5 -21l-253 -658q-11 -29 -36 -29q-42 0 -42 37q0 8 5 21l253 658q12 31 36 31q17 0 29.5 -11t12.5 -28z" />
    <glyph glyph-name="zero" unicode="0" horiz-adv-x="486" 
d="M457 274q0 -111 -50 -191q-59 -95 -163 -95q-107 0 -164 94q-49 79 -49 192t49 192q57 94 164 94q104 0 163 -95q50 -80 50 -191zM348 277q0 191 -104 191t-104 -191t104 -191t104 191z" />
    <glyph glyph-name="one" unicode="1" horiz-adv-x="269" 
d="M248 37q0 -37 -46 -37h-121q-47 0 -47 37q0 18 13 30q4 3 29 19q11 7 11 44v294q-52 0 -52 33q0 22 21 37l62 45q19 14 41 14q36 0 36 -38v-385q0 -38 10 -44q27 -18 29 -19q14 -12 14 -30z" />
    <glyph glyph-name="two" unicode="2" horiz-adv-x="435" 
d="M421 131q0 -13 -2 -18l-41 -104q-10 -25 -40 -25q-26 0 -39 16h-172q-37 0 -62.5 28.5t-25.5 65.5q0 27 13 46q8 11 34 36l162 152q24 22 29 30q11 16 11 39q0 62 -73 62q-75 0 -75 -57q0 -14 21 -41t21 -38q0 -23 -19 -39t-43 -16q-44 0 -71 43q-24 37 -24 83
q0 77 56 123q52 43 131 43q82 0 134 -40q57 -43 57 -123q0 -69 -62 -127l-170 -158q-5 -5 -5 -10q0 -9 21 -9q40 0 84 4q18 4 53 40q32 33 56 33q16 0 28.5 -11.5t12.5 -27.5z" />
    <glyph glyph-name="three" unicode="3" horiz-adv-x="472" 
d="M442 174q0 -83 -61 -136q-57 -50 -142 -50t-144 54q-62 55 -62 139q0 45 19 80q23 43 64 43q25 0 41.5 -14.5t16.5 -38.5q0 -9 -10.5 -35t-10.5 -40q0 -35 27 -59t62 -24q36 0 61.5 24t25.5 60q0 53 -40 74q-25 8 -74 25q-40 15 -40 55q0 26 24 45q47 38 86 76
q-6 7 -13 7l-48 -1q-32 -1 -73 -30t-51 -29q-39 0 -39 39q0 11 5 24l32 84q10 26 40 26t40 -22h150q88 0 88 -78q0 -29 -25 -57q-13 -15 -45 -39q-25 -19 -25 -28q3 -2 25 -14q96 -51 96 -160z" />
    <glyph glyph-name="four" unicode="4" horiz-adv-x="454" 
d="M438 222q0 -33 -26 -41q-10 -3 -55 -3v-30q46 0 46 -42q0 -29 -33 -54l-63 -48q-21 -16 -41 -16q-50 0 -50 47q0 9 20 42t20 58v43h-157q-83 0 -83 78q0 35 28 70l154 190q36 45 81 45q78 0 78 -99v-196q48 0 55 -2q26 -8 26 -42zM253 266v145q0 12 -9 12q-7 -7 -11 -12
l-93 -116q-12 -15 -12 -24q0 -5 8 -5h117z" />
    <glyph glyph-name="five" unicode="5" horiz-adv-x="454" 
d="M428 186q0 -87 -56 -142.5t-144 -55.5q-82 0 -142 46q-64 50 -64 130q0 79 66 79q50 0 53 -53q0 -9 3 -31q11 -69 86 -69q42 0 65 31q21 28 21 71q0 44 -23 70.5t-66 26.5q-13 0 -58 -11.5t-78 -11.5q-43 0 -43 33q0 21 1 30l19 177q5 44 61 44h185q17 12 34 12
q44 0 44 -43q0 -8 -20 -63q-13 -36 -41 -36q-12 0 -41 18t-45 18h-71l-12 -85l3 -5q35 15 72 15q87 0 139 -53.5t52 -141.5z" />
    <glyph glyph-name="six" unicode="6" horiz-adv-x="472" 
d="M445 183q0 -85 -54.5 -140t-139.5 -55q-111 0 -169 89q-50 76 -50 192q0 119 49 197q58 94 170 94q57 0 110 -33q59 -38 59 -93q0 -54 -54 -54q-28 0 -47 23q-15 20 -31.5 39t-44.5 19q-40 0 -69 -43q-26 -38 -26 -80q0 -8 5 -13q49 41 107 41q78 0 131.5 -52.5
t53.5 -130.5zM333 180q0 40 -24.5 67.5t-63.5 27.5t-63.5 -27.5t-24.5 -67.5q0 -41 24 -68t64 -27t64 27t24 68z" />
    <glyph glyph-name="seven" unicode="7" horiz-adv-x="398" 
d="M384 480q0 -29 -37 -78q-56 -75 -70 -101q-37 -70 -37 -146q0 -15 3 -44t3 -44q0 -79 -67 -79q-44 0 -65 47q-16 35 -16 85q0 54 17 103q31 90 128 189q31 32 31 37q0 10 -20 10l-63 -1q-31 0 -73.5 -33.5t-52.5 -33.5q-41 0 -41 45q0 11 6 26l34 84q11 26 40 26
q26 0 42 -22h160q78 0 78 -70z" />
    <glyph glyph-name="eight" unicode="8" horiz-adv-x="435" 
d="M412 168q0 -84 -54.5 -132t-139.5 -48t-140 48t-55 132q0 69 38 112q13 14 17 17q28 18 28 23q-47 39 -47 99q0 69 46 106q43 35 113 35t112 -35q46 -38 46 -106q0 -34 -11 -54q-6 -11 -36 -45q0 -4 22 -19q61 -43 61 -133zM277 409q0 27 -16 44t-43 17
q-26 0 -42.5 -17.5t-16.5 -43.5t16.5 -42.5t42.5 -16.5q59 0 59 59zM303 171q0 39 -23 62.5t-62 23.5q-38 0 -62 -24t-24 -62t24 -62t62 -24q39 0 62 23.5t23 62.5z" />
    <glyph glyph-name="nine" unicode="9" horiz-adv-x="472" 
d="M443 280q0 -118 -49 -197q-59 -95 -170 -95q-67 0 -125 35q-68 41 -68 104q0 57 59 57q28 0 67 -48t74 -48q42 0 71 42q25 38 25 82q0 6 -5 12q-51 -40 -107 -40q-80 0 -133.5 51.5t-53.5 130.5q0 85 55 139.5t140 54.5q111 0 169 -88q51 -76 51 -192zM316 372
q0 40 -24 67t-64 27t-64 -27t-24 -67t24.5 -67.5t63.5 -27.5t63.5 27.5t24.5 67.5z" />
    <glyph glyph-name="colon" unicode=":" horiz-adv-x="248" 
d="M192 298q0 -31 -18 -52t-49 -21q-30 0 -49.5 21.5t-19.5 51.5q0 31 19 53t50 22q30 0 48.5 -22t18.5 -53zM192 62q0 -31 -18.5 -52.5t-48.5 -21.5t-49.5 22t-19.5 52q0 31 19.5 52.5t49.5 21.5q29 0 48 -22t19 -52z" />
    <glyph glyph-name="semicolon" unicode=";" horiz-adv-x="248" 
d="M192 298q0 -31 -18 -52t-49 -21q-30 0 -49.5 21.5t-19.5 51.5q0 31 19 53t50 22q30 0 48.5 -22t18.5 -53zM189 49q0 -42 -29 -86q-32 -49 -72 -49q-24 0 -24 22q0 7 15.5 26.5t15.5 29.5q0 6 -20 33t-20 47q0 29 18 47t47 18q69 0 69 -88z" />
    <glyph glyph-name="less" unicode="&#x3c;" horiz-adv-x="833" 
d="M704 23l-575 236v78l575 237v-90l-456 -186l456 -186v-89z" />
    <glyph glyph-name="equal" unicode="=" horiz-adv-x="833" 
d="M709 358h-585v82h585v-82zM709 157h-585v81h585v-81z" />
    <glyph glyph-name="greater" unicode="&#x3e;" horiz-adv-x="833" 
d="M704 259l-575 -236v89l456 186l-456 186v90l575 -237v-78z" />
    <glyph glyph-name="question" unicode="?" horiz-adv-x="407" 
d="M382 400q0 -60 -42 -98q-34 -26 -81 -65q-9 -8 -28 -49q-12 -26 -33 -26q-36 0 -36 47q0 41 53 98t53 86q0 61 -74 61q-54 0 -54 -39q0 -16 29 -30t29 -39q0 -26 -20 -42t-47 -16q-45 0 -74 38q-27 35 -27 81q0 71 54 109q47 33 121 33q76 0 124 -36q53 -39 53 -113z
M261 63q0 -31 -19 -53t-49 -22q-31 0 -49.5 21.5t-18.5 53.5q0 30 19 51.5t49 21.5t49 -21t19 -52z" />
    <glyph glyph-name="at" unicode="@" horiz-adv-x="986" 
d="M920 369q0 -166 -116 -266q-64 -55 -133 -55q-82 0 -110 62q-55 -61 -128 -61q-77 0 -119 53q-39 48 -39 127q0 104 75.5 190t178.5 86q62 0 96 -40l10 33h128l-88 -314q-6 -21 -6 -39q0 -23 14 -23q28 0 66 30q96 75 96 221q0 126 -87 196q-81 66 -209 66
q-164 0 -266 -111.5t-102 -276.5q0 -145 99 -230q93 -79 241 -79q144 0 294 104l45 -58q-165 -122 -339 -122q-254 0 -376 163q-77 101 -77 238q0 193 142 322q138 126 333 126q166 0 268 -87q109 -92 109 -255zM580 372q0 60 -40 60q-50 0 -94 -100q-39 -88 -39 -147
q0 -60 37 -60q54 0 98 99q38 85 38 148z" />
    <glyph glyph-name="A" unicode="A" horiz-adv-x="708" 
d="M695 46q0 -24 -32 -54l-97 -91q-19 -18 -36 -18q-21 0 -35.5 14t-14.5 35q0 11 26.5 50.5t26.5 66.5q0 18 -17 84h-154l-18 -68q-27 -102 -96 -161q-72 -62 -175 -62q-48 0 -79 19q-39 23 -39 68q0 57 65 57q13 0 37.5 -1.5t37.5 -1.5q113 0 162 166l64 216q9 30 9 41
q0 44 -57 44q-44 0 -76 -25t-32 -68q0 -38 32 -38q6 0 16.5 3t16.5 3q35 0 35 -45q0 -35 -25.5 -54t-61.5 -19q-63 0 -97 42q-32 39 -32 103q0 93 61 143q56 47 151 47q31 0 91.5 -6t91.5 -6q18 0 54.5 2t54.5 2q51 0 51 -45q0 -19 -27.5 -38.5t-27.5 -33.5l3 -24l90 -303
q53 0 53 -44zM490 231l-40 148q-4 13 -10 13t-10 -13l-40 -148h100z" />
    <glyph glyph-name="B" unicode="B" horiz-adv-x="632" 
d="M614 60q0 -121 -95 -187q-83 -58 -209 -58q-125 0 -210 63q-95 70 -95 191q0 54 27 100q31 54 81 54q57 0 57 -56q0 -21 -24 -58.5t-24 -65.5q0 -65 60 -100q49 -29 119 -29q76 0 131 35q65 41 65 113q0 66 -45.5 103t-112.5 37q-4 0 -35 -1v-36q61 0 61 -44
q0 -23 -31 -54l-83 -82q-16 -16 -39 -16q-21 0 -36 14.5t-15 35.5q0 7 18 44.5t18 63.5v283q0 27 -5.5 34.5t-33 15.5t-27.5 36q0 17 11.5 29t28.5 12h192q83 0 133 -32q60 -38 60 -117q0 -92 -77 -137q135 -43 135 -191zM445 370q0 67 -81 67h-60v-134h60q81 0 81 67z" />
    <glyph glyph-name="C" unicode="C" horiz-adv-x="752" 
d="M731 90q0 -92 -63 -149t-156 -57q-120 0 -183 96q-55 82 -55 208q0 74 26 147q-69 46 -117 46q-67 0 -67 -64q0 -44 37 -44q8 0 24.5 5.5t25.5 5.5q45 0 45 -54q0 -40 -27.5 -62t-68.5 -22q-68 0 -107.5 48t-39.5 117q0 76 46.5 124.5t122.5 48.5t165 -55q73 120 196 120
q77 0 127 -45t50 -121q0 -70 -47.5 -110t-118.5 -40q-76 0 -144 50q-12 -44 -12 -97q0 -70 26 -126q33 -72 96 -72q85 0 93 96q5 58 8 67q11 31 51 31q34 0 52 -30q15 -25 15 -62zM603 391q0 25 -18.5 41.5t-43.5 16.5q-60 0 -102 -70q60 -39 105 -39q59 0 59 51z" />
    <glyph glyph-name="D" unicode="D" horiz-adv-x="660" 
d="M633 219q0 -151 -84.5 -233.5t-235.5 -82.5h-135q-55 0 -55 47q0 22 16 33q6 4 36 15q18 7 18 54v210q0 35 -19.5 56.5t-19.5 33.5q0 39 53 39h62q52 0 52 -37q0 -9 -10.5 -35t-10.5 -40v-279h36q88 0 137 62q46 57 46 147q0 109 -65 172t-175 63q-165 0 -165 -112
q0 -28 28 -72.5t28 -56.5q0 -24 -17 -39t-41 -15q-51 0 -82 60q-26 49 -26 105q0 116 85 179q75 56 195 56q149 0 247 -90q102 -92 102 -240z" />
    <glyph glyph-name="E" unicode="E" horiz-adv-x="694" 
d="M680 51q0 -6 -48 -138q-11 -30 -42 -30q-27 0 -41 20h-286q-55 0 -55 47q0 24 15 34q3 2 36 14q19 7 19 54v335q0 60 -66 60q-43 0 -74 -25t-31 -67q0 -52 41 -52q10 0 27.5 7.5t27.5 7.5q22 0 35.5 -15.5t13.5 -38.5q0 -41 -31 -62q-27 -19 -70 -19q-67 0 -109 49
q-39 46 -39 115q0 67 35 117q38 55 101 67q32 6 92 6h278q17 26 47 26q33 0 43 -28l38 -106q6 -17 6 -26q0 -39 -49 -39q-16 0 -31 20q-22 28 -32 36q-26 20 -69 20h-77v-157h57q0 45 48 45q33 0 49 -42l37 -100q6 -16 6 -26q0 -39 -50 -39q-9 0 -42 32.5t-60 32.5h-45v-186
h87q46 0 70 17q9 7 48 51q23 26 46 26q44 0 44 -43z" />
    <glyph glyph-name="F" unicode="F" horiz-adv-x="650" 
d="M643 403q0 -39 -50 -39q-12 0 -42.5 35t-57.5 39q-13 2 -31 2h-78v-144h58q0 45 47 45q35 0 50 -41l36 -101q6 -17 6 -26q0 -39 -49 -39q-9 0 -42 32.5t-60 32.5h-46v-109q61 0 61 -44q0 -25 -31 -54l-97 -91q-19 -18 -36 -18q-21 0 -35.5 14t-14.5 35q0 19 13 35
q7 8 22 29q12 25 12 89v302q0 60 -67 60q-44 0 -74 -24.5t-30 -67.5q0 -52 40 -52q9 0 27 7.5t28 7.5q22 0 36 -16t14 -38q0 -81 -102 -81q-67 0 -109 49q-39 46 -39 115q0 65 36 117q38 56 100 67q34 6 93 6h278q17 26 46 26q33 0 43 -28l39 -106q6 -16 6 -26z" />
    <glyph glyph-name="G" unicode="G" horiz-adv-x="757" 
d="M734 183q0 -12 -9.5 -40t-9.5 -43v-59q0 -106 -56 -166t-161 -60q-79 0 -148 42q-79 49 -79 123q0 28 15.5 47.5t42.5 19.5q40 0 63.5 -45t42.5 -63q27 -25 68 -25q106 0 106 144q0 5 -5 5q-41 -38 -110 -38q-98 0 -158 66q-57 63 -57 163q0 49 14 91q-55 46 -106 46
q-33 0 -54.5 -18t-21.5 -50q0 -45 42 -45q9 0 26.5 4.5t26.5 4.5q22 0 34.5 -16.5t12.5 -39.5q0 -35 -36 -58q-31 -20 -68 -20q-67 0 -108 51q-39 48 -39 116q0 79 48 128.5t127 49.5q81 0 157 -61q66 112 201 112q76 0 127 -47t51 -122q0 -71 -47 -112.5t-119 -41.5
q-82 0 -155 55q-4 -18 -4 -34q0 -50 32 -86t81 -36q39 0 62 25q18 22 35 43q21 23 47 26q8 1 43 1q46 0 46 -37zM595 389q0 27 -20.5 44.5t-48.5 17.5q-68 0 -115 -76q67 -42 116 -42q68 0 68 56z" />
    <glyph glyph-name="H" unicode="H" horiz-adv-x="713" 
d="M704 496q0 -22 -15 -31q-2 -1 -34 -11q-17 -5 -17 -44v-320q61 0 61 -44q0 -24 -32 -54l-96 -91q-19 -18 -37 -18q-21 0 -35.5 14t-14.5 35q0 15 13 35q12 15 23 31t11 87v121h-147v-45q0 -138 -68 -224q-74 -95 -208 -95q-48 0 -79 19q-39 23 -39 68q0 57 65 57
q13 0 37.5 -1.5t37.5 -1.5q148 0 148 243v166q0 60 -66 60q-44 0 -74 -24.5t-30 -67.5q0 -51 40 -51q9 0 27.5 7t27.5 7q22 0 36 -16t14 -38q0 -81 -102 -81q-68 0 -109 49q-39 46 -39 116q0 82 50 136t131 54q25 0 73.5 -3.5t73.5 -3.5h35q46 1 35 1q49 0 49 -41
q0 -28 -26 -36t-33 -16.5t-7 -33.5v-107h147v107q0 25 -4.5 33t-26.5 16q-25 9 -25 37q0 41 33 41h157q17 0 28 -12t11 -29z" />
    <glyph glyph-name="I" unicode="I" horiz-adv-x="463" 
d="M459 496q0 -22 -16 -31q-3 -2 -36 -11q-20 -6 -20 -44v-320q59 0 59 -44q0 -24 -32 -54l-97 -91q-19 -18 -36 -18q-21 0 -35.5 14t-14.5 35q0 15 13 35q12 15 23 31t11 87v307q0 60 -66 60q-44 0 -74 -24.5t-30 -67.5q0 -51 40 -51q9 0 27.5 7t27.5 7q22 0 36 -16t14 -38
q0 -41 -31 -62q-27 -19 -70 -19q-69 0 -110 49q-39 46 -39 116q0 84 51 137t135 53q22 0 71 -3q46 -3 70 -3l75 1q54 1 54 -42z" />
    <glyph glyph-name="J" unicode="J" horiz-adv-x="465" 
d="M459 496q0 -22 -14 -31q-4 -2 -34 -12q-18 -6 -18 -43v-232q0 -119 -22 -187q-27 -82 -92 -129t-152 -47q-150 0 -150 99q0 30 17.5 48.5t47.5 18.5q6 0 65 -15q31 -8 51 -8q82 0 110 86q16 49 16 154v186q0 65 -65 65q-44 0 -75 -26t-31 -69q0 -57 43 -57q10 0 28.5 7.5
t28.5 7.5q47 0 47 -51q0 -42 -29.5 -64.5t-73.5 -22.5q-70 0 -112.5 49t-42.5 120q0 89 52.5 144.5t140.5 55.5q23 0 69.5 -3.5t69.5 -3.5q13 0 39 1t39 1q47 0 47 -42z" />
    <glyph glyph-name="K" unicode="K" horiz-adv-x="640" 
d="M977 -90q0 -58 -68 -90q-55 -26 -119 -26q-96 0 -182 74q-99 85 -191 256q-15 29 -40 69q-8 0 -8 -9v-100q54 0 54 -43q0 -22 -32 -54l-87 -86q-18 -18 -36 -18q-21 0 -35.5 14t-14.5 35q0 15 13 35q12 15 23 31t11 87v307q0 60 -61 60q-42 0 -70 -25t-28 -67
q0 -51 38 -51q9 0 25.5 7t24.5 7q46 0 46 -54q0 -81 -95 -81q-67 0 -106 50q-36 46 -36 115q0 80 46 133q49 57 127 57q24 0 70.5 -3.5t70.5 -3.5q12 0 35 1t35 1q42 0 42 -42q0 -26 -27 -37q-30 -13 -31 -20q-2 -10 -2 -29v-79q0 -29 8 -29q5 0 86 110q13 18 13 33
q0 9 -11.5 28t-11.5 27q0 37 49 37h107q55 0 55 -40q0 -23 -23 -39l-41 -28q-1 -1 -20 -27l-115 -158q75 -136 122 -195q94 -119 183 -119q32 0 68 13l82 29q57 0 57 -63z" />
    <glyph glyph-name="L" unicode="L" horiz-adv-x="667" 
d="M657 51q0 -9 -4 -20l-44 -120q-10 -28 -42 -28q-27 0 -41 20h-263q-55 0 -55 47q0 24 15 34q3 2 36 14q19 7 19 54v340q0 60 -66 60q-44 0 -74 -24.5t-30 -67.5q0 -51 40 -51q9 0 27.5 7t27.5 7q22 0 36 -16t14 -38q0 -41 -31 -62q-27 -19 -70 -19q-69 0 -110 49
q-39 46 -39 116q0 84 51 137t135 53q23 0 67.5 -3.5t67.5 -3.5q14 0 42 1t42 1q51 0 51 -42q0 -22 -16 -31q-3 -2 -36 -11q-20 -6 -20 -44v-410h63q45 0 69 17q9 7 48 51q23 26 46 26q44 0 44 -43z" />
    <glyph glyph-name="M" unicode="M" horiz-adv-x="787" 
d="M777 496q0 -21 -14 -30q-3 -2 -32 -11q-20 -7 -20 -45v-320q61 0 61 -44q0 -25 -31 -54l-97 -91q-19 -18 -36 -18q-21 0 -35.5 14t-14.5 35q0 17 13 35q9 10 22 29q12 25 12 89v245q0 12 -10 12q-9 0 -13 -11l-32 -92q-15 -42 -56 -42q-40 0 -55 42l-33 92q-4 11 -14 11
q-9 0 -9 -12v-133q0 -86 -5 -118q-16 -104 -90.5 -170.5t-178.5 -66.5q-47 0 -78 19q-38 23 -38 67q0 58 70 58q11 0 31.5 -2t31.5 -2q80 0 119 69q32 55 32 141v200q0 60 -65 60q-43 0 -73 -24q-33 -26 -33 -68q0 -51 41 -51q9 0 27 7t27 7q22 0 36 -16t14 -38
q0 -81 -102 -81q-69 0 -110 49q-39 46 -39 116q0 82 50 136t132 54q20 0 59.5 -2.5t59.5 -2.5q14 0 42.5 1.5t42.5 1.5q24 0 33.5 -9.5t37.5 -93.5q25 -75 35 -75q8 0 16 23l38 103q10 27 17 35q12 13 36 13h140q38 0 38 -41z" />
    <glyph glyph-name="N" unicode="N" horiz-adv-x="713" 
d="M704 496q0 -22 -15 -31q-7 -2 -34 -11q-17 -5 -17 -44v-320q61 0 61 -44q0 -24 -32 -54l-96 -91q-19 -18 -37 -18q-21 0 -35.5 14t-14.5 35q0 15 13 35q12 15 23 31t11 92v56l-127 197q-10 15 -14 15q-6 0 -6 -7v-178q0 -79 -12 -126q-23 -91 -96.5 -148t-167.5 -57
q-48 0 -79 19q-39 23 -39 68q0 57 65 57q13 0 37.5 -1.5t37.5 -1.5q148 0 148 243v166q0 60 -66 60q-44 0 -74 -24.5t-30 -67.5q0 -51 40 -51q9 0 27.5 7t27.5 7q22 0 36 -16t14 -38q0 -81 -102 -81q-68 0 -109 49q-39 46 -39 116q0 85 50.5 137.5t134.5 52.5
q17 0 52.5 -2.5t54.5 -2.5l54 1q28 0 44 -11q12 -9 29 -34l90 -138q10 -15 15 -15q4 0 4 6v63q0 25 -4.5 33t-26.5 16q-25 9 -25 37q0 41 33 41h157q17 0 28 -12t11 -29z" />
    <glyph glyph-name="O" unicode="O" horiz-adv-x="556" 
d="M523 216q0 -135 -54 -224q-65 -108 -191 -108t-191 108q-55 90 -55 224t55 224q66 109 191 109t191 -109q54 -90 54 -224zM409 216q0 231 -131 231q-132 0 -132 -231q0 -230 132 -230q131 0 131 230z" />
    <glyph glyph-name="P" unicode="P" horiz-adv-x="602" 
d="M572 304q0 -90 -45 -145q-48 -60 -136 -60q-50 0 -95 26v-40q57 0 57 -43q0 -24 -32 -54l-92 -87q-19 -18 -36 -18q-21 0 -35.5 14t-14.5 35q0 15 13 35q12 15 23 31t11 92v172q0 35 -19.5 56.5t-19.5 33.5q0 39 53 39h62q52 0 52 -37q0 -9 -10.5 -36t-10.5 -42
q0 -77 80 -77q39 0 61.5 27t22.5 67q0 78 -56 117q-48 34 -129 34q-165 0 -165 -112q0 -25 27.5 -70.5t27.5 -58.5q0 -24 -16 -39t-41 -15q-51 0 -82 60q-26 49 -26 105q0 115 84 178q75 57 194 57q123 0 203 -60q90 -66 90 -185z" />
    <glyph glyph-name="Q" unicode="Q" horiz-adv-x="556" 
d="M900 -90q0 -57 -69 -90q-54 -26 -118 -26q-151 0 -267 174q-62 -84 -170 -84q-124 0 -189 109q-55 91 -55 223t54 223q65 110 189 110t189 -110q54 -91 54 -223q0 -73 -21 -151q95 -134 196 -134q31 0 68 13l82 29q57 0 57 -63zM405 246q0 76 -27 131q-34 70 -103 70
q-129 0 -129 -231q0 -230 129 -230q66 0 99 65q-32 43 -72 43q-9 0 -27.5 -3.5t-27.5 -3.5q-20 0 -33 15t-13 36q0 37 33 58q29 19 67 19q54 0 101 -51z" />
    <glyph glyph-name="R" unicode="R" horiz-adv-x="574" 
d="M883 -90q0 -58 -68 -90q-55 -26 -119 -26q-81 0 -148 46q-52 36 -111 113q-30 39 -100 143l-37 55q-7 10 -11 10q-8 0 -8 -9v-72q50 0 50 -44q0 -22 -32 -54l-82 -81q-17 -17 -37 -17q-21 0 -35.5 14t-14.5 35q0 15 13 35q12 15 23 31t11 91v172q0 35 -19.5 56.5
t-19.5 33.5q0 39 53 39h62q52 0 52 -37q0 -5 -9.5 -43t-9.5 -69l40 -1q49 0 79 22q34 25 34 72q0 64 -65 93q-48 21 -121 21q-149 0 -149 -106q0 -22 25 -64.5t25 -56.5q0 -22 -14.5 -37t-36.5 -15q-48 0 -77 57q-23 45 -23 99q0 113 78 171q69 52 186 52q114 0 192 -52
q91 -61 91 -169q0 -133 -134 -167q39 -60 60 -89q102 -141 199 -141q30 0 84 21t67 21q57 0 57 -63z" />
    <glyph glyph-name="S" unicode="S" horiz-adv-x="530" 
d="M509 77q0 -109 -68.5 -170.5t-179.5 -61.5q-102 0 -172 54q-77 59 -77 158q0 71 41.5 115t112.5 44q89 0 89 -64q0 -50 -59 -47q-2 0 -4 1h-4q-62 0 -62 -55q0 -47 44 -75q38 -25 87 -25q62 0 101 33t39 94q0 82 -81 119q-51 21 -152 63q-81 46 -81 138q0 65 43 108
t108 43q40 0 73 -20q18 31 52 31q33 0 44 -30l38 -102q4 -11 4 -22q0 -38 -43 -38q-21 0 -62 41.5t-82 41.5q-26 0 -44.5 -14.5t-18.5 -39.5q0 -37 42 -53q31 -11 109 -42q163 -69 163 -225z" />
    <glyph glyph-name="T" unicode="T" horiz-adv-x="546" 
d="M557 520q0 -51 -32 -78.5t-84 -27.5q-24 0 -66 8v-332q61 0 61 -44q0 -24 -32 -54l-96 -91q-19 -18 -37 -18q-21 0 -35.5 14t-14.5 35q0 15 13 35q12 15 23 31t11 87v355q-39 10 -68 10q-41 0 -67.5 -24.5t-26.5 -65.5q0 -51 39 -51q9 0 26 7t26 7q21 0 34 -16t13 -38
q0 -40 -27.5 -60.5t-68.5 -20.5q-67 0 -108 50q-39 47 -39 115q0 90 54 140t145 50q31 0 92.5 -12t92.5 -12q43 0 70.5 33.5t48.5 33.5q53 0 53 -66z" />
    <glyph glyph-name="U" unicode="U" horiz-adv-x="722" 
d="M714 496q0 -24 -33 -37.5t-33 -48.5v-292q0 -234 -189 -234q-69 0 -119 37t-62 103q-7 39 -7 94v274q0 60 -62 60q-45 0 -73 -23q-31 -25 -31 -69q0 -51 39 -51q9 0 26.5 7t26.5 7q22 0 35 -16t13 -38q0 -40 -30 -62q-26 -19 -68 -19q-68 0 -107.5 48t-39.5 117
q0 84 51 137t135 53q23 0 68 -3.5t68 -3.5h35q47 1 36 1q48 0 48 -41q0 -27 -30 -38t-31 -21q-3 -13 -3 -27v-286q0 -65 10 -91q17 -43 72 -43q54 0 72 43q11 27 11 91v286q0 28 -4.5 34t-32 14.5t-27.5 37.5q0 41 38 41h160q38 0 38 -41z" />
    <glyph glyph-name="V" unicode="V" horiz-adv-x="722" 
d="M733 496q0 -31 -21 -42q-32 -18 -36 -23q-9 -13 -15 -35l-125 -463q-6 -24 -16 -31.5t-34 -7.5h-54q-25 0 -34 7.5t-16 31.5l-118 436q-12 43 -23 58q-18 23 -55 23q-36 0 -57.5 -24.5t-21.5 -60.5q0 -56 43 -56q11 0 31 9.5t30 9.5q21 0 35 -17.5t14 -39.5
q0 -83 -106 -83q-70 0 -112 47t-42 118q0 85 54 137.5t139 52.5q23 0 70 -3.5t70 -3.5q11 0 32 1t32 1q37 0 37 -42q0 -26 -32.5 -40.5t-32.5 -37.5q0 -12 6 -36l79 -312q1 -2 5 -7q3 2 6 7l79 312q7 28 7 36q0 22 -33 37.5t-33 40.5q0 41 32 41h184q14 0 23 -13t9 -28z" />
    <glyph glyph-name="W" unicode="W" horiz-adv-x="979" 
d="M985 496q0 -31 -29 -46q-34 -18 -43 -54l-116 -463q-10 -39 -52 -39h-50q-31 0 -41 13q-8 8 -11 26l-53 285q-1 3 -6 7q-3 -2 -6 -7l-52 -285q-4 -24 -15.5 -31.5t-36.5 -7.5h-50q-26 0 -36 7.5t-16 31.5l-110 436q-11 43 -21 57q-17 24 -54 24q-36 0 -58 -24t-22 -60
q0 -22 12 -41t33 -19q7 0 27 10.5t30 10.5q22 0 36.5 -16.5t14.5 -39.5q0 -42 -30.5 -65t-73.5 -23q-70 0 -113 50t-43 121q0 87 53 138t140 51q23 0 69 -3.5t69 -3.5q11 0 31.5 1t31.5 1q37 0 37 -42q0 -25 -33 -41t-33 -34q0 -13 6 -39l72 -312q1 -5 6 -7q3 2 6 7l63 312
q1 6 5 38q2 17 -31.5 34.5t-33.5 41.5q0 41 52 41h148q53 0 53 -41q0 -26 -32.5 -41t-32.5 -35q0 -13 5 -38l63 -312q1 -5 6 -7q3 2 6 7l72 312q6 26 6 36q0 16 -5 22q-2 3 -36 19q-25 12 -25 39q0 26 18 34q11 5 42 5h155q14 0 23 -13t9 -28z" />
    <glyph glyph-name="X" unicode="X" horiz-adv-x="644" 
d="M641 46q0 -24 -32 -54l-98 -91q-19 -18 -36 -18q-20 0 -34.5 15t-14.5 35q0 9 26 47t26 57q0 20 -10 36l-44 72q-6 10 -13 10q-6 0 -12 -10l-80 -138q-48 -84 -99 -121q-60 -44 -148 -44q-120 0 -120 87q0 57 64 57q13 0 38 -1.5t38 -1.5q90 0 151 103l96 163l-98 156
q-16 26 -25 34q-15 14 -38 14q-29 0 -48 -22t-19 -52q0 -25 13 -43q14 -21 38 -21q8 0 30.5 12t35.5 12q23 0 36 -17.5t13 -41.5q0 -41 -37 -64q-31 -19 -75 -19q-70 0 -116 46t-46 116q0 81 53.5 132.5t134.5 51.5q18 0 53 -3t53 -3h24q32 1 24 1q40 0 40 -42
q0 -14 -18.5 -35.5t-18.5 -26.5q0 -8 8 -20q42 -63 47 -63q7 0 42 61q9 16 9 24q0 6 -18.5 25t-18.5 35q0 15 9 28t24 13h150q14 0 23.5 -13t9.5 -28q0 -21 -18 -37q-1 -1 -35 -25q-8 -8 -26 -38l-81 -140l107 -166q61 0 61 -44z" />
    <glyph glyph-name="Y" unicode="Y" horiz-adv-x="634" 
d="M642 496q0 -24 -23 -40q-32 -22 -39 -31l-17 -29l-105 -181v-125q62 0 62 -44q0 -24 -32 -54l-97 -91q-19 -18 -36 -18q-21 0 -35.5 14t-14.5 35q0 15 13 35q12 15 23 31t11 88v111l-120 208q-15 26 -23 34q-14 14 -39 14q-31 0 -49 -23t-18 -55q0 -68 53 -68
q7 0 29 12.5t34 12.5q22 0 36 -17t14 -39q0 -43 -34 -67q-29 -21 -74 -21q-69 0 -115 47t-46 116q0 87 49.5 139.5t136.5 52.5q23 0 61 -2l40 -3l57 2q46 0 46 -44q0 -15 -24.5 -33t-24.5 -29q0 -8 8 -23l39 -71q5 -10 12 -10q6 0 12 10l41 72q6 11 6 20q0 12 -22.5 31.5
t-22.5 36.5q0 37 35 37h160q14 0 23.5 -13t9.5 -28z" />
    <glyph glyph-name="Z" unicode="Z" horiz-adv-x="461" 
d="M449 51q0 -10 -48 -139q-11 -29 -42 -29q-26 0 -40 20h-230q-83 0 -83 70q0 26 16 52l253 406q0 9 -56 9q-44 0 -71 -20q-4 -4 -34 -37q-18 -20 -42 -20q-18 0 -31.5 11.5t-13.5 29.5q0 8 5 22l37 103q10 27 42 27q27 0 41 -19h175q83 0 83 -70q0 -26 -16 -52l-252 -406
q0 -9 20 -9h80q57 0 79 25q12 15 36 42t48 27q44 0 44 -43z" />
    <glyph glyph-name="bracketleft" unicode="[" horiz-adv-x="324" 
d="M302 -162q0 -42 -45 -42h-124q-36 0 -36 37v667q0 37 36 37h124q45 0 45 -42q0 -41 -51 -41h-31q-26 0 -26 -23v-529q0 -24 34 -24h13q9 1 13 1q48 0 48 -41z" />
    <glyph glyph-name="backslash" unicode="\" horiz-adv-x="269" 
d="M316 -160q0 -37 -41 -37q-25 0 -36 29l-253 658q-5 13 -5 21q0 17 12 28t29 11q25 0 37 -31l253 -658q4 -10 4 -21z" />
    <glyph glyph-name="bracketright" unicode="]" horiz-adv-x="324" 
d="M227 -167q0 -37 -36 -37h-124q-45 0 -45 42q0 41 51 41h31q26 0 26 23v529q0 24 -34 24h-13q-9 -1 -13 -1q-48 0 -48 41q0 42 45 42h124q36 0 36 -37v-667z" />
    <glyph glyph-name="asciicircum" unicode="^" horiz-adv-x="500" 
d="M374 424q0 -19 -18 -19q-8 0 -52.5 44t-53.5 44q-10 0 -48 -38q-41 -41 -58 -50q-18 0 -18 19q0 6 5 13l85 127q8 12 38 12q21 0 29 -12l86 -127q5 -7 5 -13z" />
    <glyph glyph-name="underscore" unicode="_" horiz-adv-x="500" 
d="M500 -236h-500v84h500v-84z" />
    <glyph glyph-name="grave" unicode="`" horiz-adv-x="500" 
d="M306 424q0 -20 -19 -20q-6 0 -14 6l-131 93q-17 12 -17 31q0 14 14 28t28 14q16 0 27 -13l105 -125q7 -8 7 -14z" />
    <glyph glyph-name="a" unicode="a" horiz-adv-x="417" 
d="M397 41q0 -41 -44 -41h-51q-47 0 -47 63v102h-19q-109 0 -109 -52q0 -29 35 -29q7 0 19 7t19 7q31 0 31 -45q0 -65 -90 -65q-50 0 -83.5 33.5t-33.5 83.5q0 72 73 105q53 25 135 25h23v15q0 43 -43 43q-16 0 -55 -24t-57 -24q-47 0 -47 43q0 45 61 68q45 17 99 17
q141 0 141 -113v-131q0 -16 2 -24q2 -11 21.5 -27.5t19.5 -36.5z" />
    <glyph glyph-name="b" unicode="b" horiz-adv-x="432" 
d="M407 182q0 -75 -32 -129q-38 -65 -108 -65q-37 0 -62 19.5t-25 55.5q0 15 8 27t22 11l34 -3q62 0 62 84q0 92 -68 92q-48 0 -67 -44q-14 -33 -14 -95q0 9 1 -32v-29q0 -38 -6 -52q-10 -22 -42 -22h-49q-44 0 -44 41q0 19 21.5 37t21.5 51v290q-28 0 -38 4q-18 7 -18 30
q0 20 20 36l57 45q19 15 41 15q33 0 33 -47v-173q0 -10 7 -10q47 55 102 55q71 0 110 -63q33 -53 33 -129z" />
    <glyph glyph-name="c" unicode="c" horiz-adv-x="353" 
d="M338 78q0 -42 -47 -68q-39 -22 -85 -22q-85 0 -133.5 53.5t-48.5 139.5q0 78 46 133q48 59 125 59q49 0 89 -22q49 -26 49 -71q0 -20 -12.5 -34.5t-32.5 -14.5q-14 0 -49 21t-49 21q-65 0 -65 -82q0 -39 15 -68q18 -36 54 -36q13 0 48 19.5t50 19.5q46 0 46 -48z" />
    <glyph glyph-name="d" unicode="d" horiz-adv-x="433" 
d="M414 41q0 -41 -43 -41h-50q-47 0 -47 63v112q0 100 -74 100q-75 0 -75 -93q0 -33 15 -57q17 -28 48 -28q5 0 14.5 2.5t13.5 2.5q35 0 35 -40q0 -35 -26.5 -54t-62.5 -19q-70 0 -107 65q-31 53 -31 128t35 129q41 63 112 63q29 0 98 -36q8 0 8 14v63q-29 0 -40 4
q-19 7 -19 32q0 22 20 37l62 46q20 15 38 15q34 0 34 -47v-373q0 -16 2 -24q2 -11 21 -27t19 -37z" />
    <glyph glyph-name="e" unicode="e" horiz-adv-x="389" 
d="M362 222q0 -43 -22 -58q-17 -13 -62 -13h-152q13 -69 80 -69q21 0 56.5 22.5t44.5 22.5q41 0 41 -49q0 -42 -53 -69q-42 -21 -89 -21q-83 0 -132.5 52.5t-49.5 135.5q0 86 46.5 141.5t130.5 55.5q68 0 114.5 -42t46.5 -109zM261 248q0 41 -60 41q-30 0 -51 -18.5
t-25 -48.5h85q51 0 51 26z" />
    <glyph glyph-name="f" unicode="f" horiz-adv-x="292" 
d="M356 448q0 -58 -57 -58q-39 0 -53 46q-4 13 -10 28q-5 8 -18 8q-32 0 -41 -44q-3 -15 -3 -67h57q44 0 44 -44t-44 -44h-57v-143q0 -38 28.5 -55t28.5 -35q0 -40 -46 -40h-118q-48 0 -48 37q0 19 13 30q5 5 29 18q11 8 11 45v143q-38 0 -48 4q-22 9 -22 40t22 40
q10 4 48 4q0 84 37 133q41 55 122 55q49 0 85 -26q40 -28 40 -75z" />
    <glyph glyph-name="g" unicode="g" horiz-adv-x="417" 
d="M415 -14q0 -73 -73 -110q-58 -30 -138 -30q-68 0 -115 15q-72 22 -72 74q0 24 16.5 39.5t41.5 15.5q29 0 53 -24q35 -34 43 -39q17 -10 51 -10q31 0 56 12q32 15 32 43q0 23 -30 29q-11 2 -48 3h-53q-63 1 -93 10q-53 16 -53 64q0 50 72 71v6q-61 34 -61 94q0 56 47 90
q43 30 101 30q23 0 58 -7l4 4q-18 27 -18 50q0 33 25 52.5t58 19.5q30 0 54 -19t24 -48q0 -45 -37 -45q-10 0 -40 14q-20 0 -20 -21q0 -14 19 -30q26 -22 34 -33q19 -26 19 -64q0 -85 -115 -106l-66 -4q-49 -4 -49 -23q0 -23 40 -23h86q147 0 147 -100zM275 247q0 47 -68 47
q-65 0 -65 -47q0 -45 65 -45q68 0 68 45z" />
    <glyph glyph-name="h" unicode="h" 
d="M414 103q0 -21 -30 -49l-65 -60q-16 -15 -32 -15q-17 0 -29.5 13.5t-12.5 30.5q0 3 15 35t15 56v84q0 33 -7 46q-10 19 -40 19q-66 0 -66 -116q0 -33 3 -43q6 -19 29.5 -30.5t23.5 -33.5q0 -40 -46 -40h-110q-55 0 -55 37q0 19 16 31q16 8 32 17q12 6 12 45v289
q-27 0 -37 4q-17 7 -17 30q0 20 20 36l58 45q19 15 37 15q34 0 34 -47v-173q0 -10 7 -10q44 54 105 54q96 0 96 -117v-114q44 0 44 -39z" />
    <glyph glyph-name="i" unicode="i" horiz-adv-x="241" 
d="M192 471q0 -34 -18 -55.5t-51 -21.5q-31 0 -50.5 22.5t-19.5 54.5q0 33 19 55.5t51 22.5q30 0 49.5 -23.5t19.5 -54.5zM228 37q0 -37 -50 -37h-108q-50 0 -50 38q0 18 14 30l29 18q11 7 11 44v108q-49 0 -49 34q0 22 20 37l57 44q19 15 38 15q34 0 34 -47v-191
q0 -19 2 -29t27 -26t25 -38z" />
    <glyph glyph-name="j" unicode="j" horiz-adv-x="250" 
d="M215 471q0 -34 -18 -55.5t-51 -21.5q-31 0 -50.5 22.5t-19.5 54.5q0 33 19 55.5t51 22.5q30 0 49.5 -23.5t19.5 -54.5zM197 321v-250q0 -78 -10 -114q-14 -51 -54.5 -81t-93.5 -30q-46 0 -80 27t-34 72q0 62 54 62q29 0 40 -20q6 -18 11 -36q10 -23 25 -23q42 0 42 95
v215q-49 0 -49 34q0 22 20 37l57 44q19 15 38 15q34 0 34 -47z" />
    <glyph glyph-name="k" unicode="k" 
d="M408 34q0 -34 -32 -34h-89q-47 0 -47 34q0 11 9.5 28t9.5 21q0 21 -33 68.5t-52 47.5q-8 0 -8 -9v-15q1 -14 1 -22v-38q0 -16 23.5 -38t23.5 -37q0 -40 -40 -40h-107q-54 0 -54 37q0 18 16 30q15 9 31 18q12 7 12 45v289q-27 0 -37 4q-17 7 -17 30q0 20 20 36l57 45
q19 15 38 15q34 0 34 -47l-1 -224q0 -9 7 -9q5 0 15 13q72 91 145 91q60 0 60 -52q0 -31 -36 -44q-5 -2 -63 -13q-10 -4 -33 -19q59 -51 92 -131q4 -10 7 -16t29 -25q19 -14 19 -39z" />
    <glyph glyph-name="l" unicode="l" horiz-adv-x="241" 
d="M228 37q0 -37 -50 -37h-108q-50 0 -50 38q0 18 14 30l29 18q11 7 11 44v289q-49 0 -49 34q0 20 20 36l57 45q19 15 38 15q34 0 34 -47v-372q0 -19 2 -29t27 -26t25 -38z" />
    <glyph glyph-name="m" unicode="m" horiz-adv-x="611" 
d="M602 103q0 -22 -30 -49l-66 -60q-16 -15 -32 -15q-17 0 -29.5 13.5t-12.5 30.5q0 5 15.5 36t15.5 55v84q0 65 -43 65q-62 0 -62 -121q0 -41 23 -62.5t23 -39.5q0 -40 -38 -40h-103q-39 0 -39 37q0 20 21 39t21 54v68q0 65 -43 65q-61 0 -61 -118q0 -41 19 -65.5t19 -39.5
q0 -40 -33 -40h-103q-42 0 -42 37q0 20 10 30q10 6 27 19q10 7 10 44v113q-27 0 -37 4q-17 7 -17 30q0 20 20 36l58 45q19 15 38 15q22 0 29 -14q1 -3 4 -24q1 -16 7 -16q46 54 101 54q34 0 55 -14q6 -4 41 -39q35 53 97 53q93 0 93 -117v-114q44 0 44 -39z" />
    <glyph glyph-name="n" unicode="n" 
d="M414 103q0 -21 -30 -49l-65 -60q-16 -15 -32 -15q-17 0 -29.5 13.5t-12.5 30.5q0 3 15 35.5t15 55.5v84q0 33 -7 46q-10 19 -40 19q-62 0 -62 -118q0 -41 6 -51q4 -5 37 -27q13 -9 13 -27q0 -40 -45 -40h-110q-54 0 -54 37q0 18 16 30q15 9 31 18q12 7 12 45v113
q-27 0 -37 4q-17 7 -17 30q0 20 20 36l57 45q19 15 38 15q22 0 29 -14q1 -3 4 -24q1 -16 7 -16q44 54 100 54q97 0 97 -117v-114q44 0 44 -39z" />
    <glyph glyph-name="o" unicode="o" horiz-adv-x="376" 
d="M352 181q0 -81 -41 -134q-45 -59 -123 -59t-123 59q-41 53 -41 134q0 80 41 133q45 59 123 59t123 -59q41 -53 41 -133zM253 183q0 97 -66 97q-64 0 -64 -97t64 -97q66 0 66 97z" />
    <glyph glyph-name="p" unicode="p" horiz-adv-x="432" 
d="M407 182q0 -72 -29 -126q-36 -67 -103 -67q-37 0 -62 19q-28 21 -28 56t29 35q5 0 15 -1h15q62 0 62 84q0 92 -68 92q-81 0 -81 -140v-125q42 0 42 -39q0 -22 -30 -49l-66 -60q-16 -15 -32 -15q-17 0 -29 13.5t-12 30.5q0 3 15 35.5t15 55.5v262q-27 0 -37 4
q-17 7 -17 30q0 20 20 36l58 45q19 15 38 15q35 0 33 -34q0 -2 -1 -5v-5q0 -10 8 -10q47 55 99 55q73 0 112 -62q34 -53 34 -130z" />
    <glyph glyph-name="q" unicode="q" horiz-adv-x="427" 
d="M413 -30q0 -21 -30 -49l-65 -60q-16 -15 -33 -15t-29.5 13.5t-12.5 30.5q0 2 15.5 34.5t15.5 56.5v187q0 50 -10 72q-15 34 -58 34q-39 0 -60 -25t-21 -65q0 -32 14 -56q17 -30 46 -30q10 0 34 2q13 1 21 -11.5t8 -26.5q0 -34 -25 -53.5t-60 -19.5q-66 0 -105 61
q-34 53 -34 123q0 81 40 137q44 63 122 63q32 0 50 -10q8 -5 42 -33q10 17 16 27q16 25 43 25q45 0 45 -44q0 -15 -5 -44.5t-5 -44.5v-240q41 0 41 -39z" />
    <glyph glyph-name="r" unicode="r" horiz-adv-x="333" 
d="M322 287q0 -73 -63 -73q-39 0 -36 32q1 11 1 6q0 22 -18 22q-30 0 -30 -66v-59q0 -43 8 -54q4 -5 41 -26q16 -9 16 -29q0 -40 -53 -40h-112q-54 0 -54 37q0 19 15 31q6 5 32 17q12 8 12 45v113q-27 0 -37 4q-17 7 -17 30q0 20 20 36l57 45q19 15 38 15q18 0 29.5 -17
l11.5 -17q31 34 65 34q36 0 55 -24.5t19 -61.5z" />
    <glyph glyph-name="s" unicode="s" horiz-adv-x="361" 
d="M336 105q0 -51 -34 -81.5t-86 -30.5q-42 0 -74 22q-12 -32 -43 -32t-44 34l-29 78q-5 13 -5 24q0 34 42 34q20 0 60 -39t71 -39q39 0 39 30q0 28 -37 40q-85 27 -103 37q-54 30 -54 87q0 45 31.5 73t77.5 28q36 0 65 -20q15 29 41 29q31 0 46 -38l23 -57q5 -12 5 -22
q0 -12 -11.5 -20.5t-24.5 -8.5q-4 0 -52.5 32.5t-72.5 32.5q-31 0 -31 -28q0 -17 14 -24q43 -13 80 -25q106 -35 106 -116z" />
    <glyph glyph-name="t" unicode="t" horiz-adv-x="306" 
d="M287 317q0 -44 -53 -44h-62v-142q0 -36 14 -36q4 0 23 15t32 15q20 0 32 -15t12 -36q0 -40 -32.5 -63t-73.5 -23q-60 0 -85 35q-21 30 -21 93v157q-43 0 -53 3q-25 8 -25 40q0 25 29 52q13 10 35 33q20 27 33 43q23 28 42 28q38 0 38 -62v-49h62q53 0 53 -44z" />
    <glyph glyph-name="u" unicode="u" 
d="M400 37q0 -37 -37 -37h-62q-25 0 -30 21t-7 21q-46 -54 -105 -54q-97 0 -97 117v138q-27 0 -37 4q-17 7 -17 30q0 20 20 36l58 45q19 15 38 15q33 0 33 -47v-163q0 -65 48 -65q57 0 57 100v45q-52 0 -52 34q0 20 20 36l57 45q19 15 38 15q34 0 34 -47v-216
q0 -13 20.5 -33.5t20.5 -39.5z" />
    <glyph glyph-name="v" unicode="v" horiz-adv-x="398" 
d="M404 324q0 -17 -25 -46q-30 -33 -34 -45l-80 -220q-8 -22 -28 -22h-76q-19 0 -27 22l-81 220q-6 16 -34 47q-25 28 -25 44q0 37 47 37h102q43 0 43 -37q0 -15 -19 -32.5t-19 -23.5q0 -8 44 -149q3 -11 8 -11q4 0 7 11l39 124q4 13 4 25q0 6 -19 23t-19 33q0 37 44 37h102
q46 0 46 -37z" />
    <glyph glyph-name="w" unicode="w" horiz-adv-x="583" 
d="M587 323q0 -16 -25 -45q-28 -33 -32 -45l-76 -220q-8 -22 -28 -22h-62q-22 0 -29 22l-37 121q-3 11 -7 11t-7 -11l-37 -121q-7 -22 -29 -22h-62q-19 0 -27 22l-76 220q-4 12 -32 45q-25 29 -25 45q0 38 45 38h98q41 0 41 -40q0 -17 -17 -37.5t-17 -24.5q0 -12 6 -31
l32 -100q3 -10 8 -10q4 0 7 10l32 108q5 17 5 23q0 8 -18 28t-18 35q0 39 42 39h100q41 0 41 -39q0 -15 -18 -34.5t-18 -28.5q0 -6 5 -23l32 -108q3 -10 8 -10q4 0 7 10l32 100q6 19 6 28q0 6 -16.5 27.5t-16.5 37.5q0 40 40 40h98q45 0 45 -38z" />
    <glyph glyph-name="x" unicode="x" 
d="M413 36q0 -36 -49 -36h-101q-44 0 -44 36q0 17 11 33t11 19q0 9 -14 30t-22 21q-6 0 -19.5 -20.5t-13.5 -28.5q0 -2 11 -22t11 -34q0 -34 -34 -34h-97q-49 0 -49 39q0 24 27 41q36 23 41 30l57 79l-52 66q-4 5 -41 30q-26 18 -26 39q0 37 48 37h97q34 0 34 -31
q0 -10 -9 -23t-9 -18q0 -7 13 -25.5t19 -18.5q4 0 9 6q23 30 23 41l-11 13.5t-11 26.5q0 29 33 29h94q46 0 46 -32q0 -18 -26 -36q-32 -23 -38 -30l-52 -68l65 -82q7 -9 45 -35q23 -16 23 -42z" />
    <glyph glyph-name="y" unicode="y" horiz-adv-x="398" 
d="M400 324q0 -16 -26 -44q-29 -32 -34 -47l-81 -232q-26 -74 -57 -108q-42 -47 -109 -47q-48 0 -82 23q-39 26 -39 72q0 61 56 61q32 0 54 -34t30 -34q27 0 51 79l-111 230q-14 28 -40 50q-19 16 -19 34q0 34 46 34h109q43 0 43 -37q0 -15 -19 -34.5t-19 -24.5q0 -11 5 -22
l40 -88q5 -12 9 -12q3 0 8 12l35 88q5 13 5 22q0 8 -19 26.5t-19 32.5q0 37 43 37h94q46 0 46 -37z" />
    <glyph glyph-name="z" unicode="z" horiz-adv-x="370" 
d="M350 111q0 -9 -4 -19l-30 -76q-13 -33 -42 -33q-18 0 -41 17h-146q-63 0 -63 48q0 17 21 44l133 170q7 9 7 15q0 7 -27 7q-16 0 -49.5 -27t-43.5 -27q-38 0 -38 33q0 8 28 78q15 38 44 38q19 0 37 -18h132q62 0 62 -46q0 -20 -23 -49l-126 -160q-6 -8 -6 -15q0 -10 9 -11
h18q17 0 56.5 33.5t50.5 33.5q41 0 41 -36z" />
    <glyph glyph-name="braceleft" unicode="{" horiz-adv-x="500" 
d="M415 -119h-5q-83 0 -123 20q-55 27 -64 99q-3 24 -3 148q0 78 -28 108.5t-105 37.5v33q83 7 110 43q23 32 23 119v66q0 112 42 150q39 35 153 35v-28q-67 0 -90 -32q-19 -26 -19 -97v-67q0 -96 -19 -134q-27 -55 -110 -72q84 -18 110 -71q19 -39 19 -135v-67
q0 -71 19 -97q23 -31 90 -31v-28z" />
    <glyph glyph-name="bar" unicode="|" horiz-adv-x="500" 
d="M294 -236h-87v1000h87v-1000z" />
    <glyph glyph-name="braceright" unicode="}" horiz-adv-x="500" 
d="M414 294q-82 -7 -109 -43q-24 -31 -24 -118v-66q0 -112 -41.5 -149t-154.5 -37v28q67 0 90 31q19 26 19 97v67q0 96 19 135q26 54 110 71q-83 17 -110 72q-19 38 -19 134v67q0 72 -18 98q-23 31 -91 31v28h5q84 0 123 -20q54 -26 64 -99q4 -30 4 -148q0 -78 28 -108.5
t105 -37.5v-33z" />
    <glyph glyph-name="asciitilde" unicode="~" horiz-adv-x="500" 
d="M381 514q0 -28 -25.5 -52t-53.5 -24q-23 0 -70.5 20t-51.5 20q-14 0 -27.5 -16.5t-17.5 -16.5q-17 0 -17 22q0 28 25.5 52t53.5 24q24 0 69 -20t53 -20q15 0 28.5 16.5t15.5 16.5q18 0 18 -22z" />
    <glyph glyph-name="c129" horiz-adv-x="833" 
d="M747 293q-100 -69 -186 -69q-49 0 -143 33t-143 33q-77 0 -188 -78v91q103 70 189 70q57 0 143 -29q107 -36 143 -36q82 0 185 75v-90z" />
    <glyph glyph-name="c144" horiz-adv-x="747" 
d="M760 495q0 -21 -14 -30q-6 -3 -32 -11q-20 -6 -20 -45v-320q61 0 61 -44q0 -25 -31 -54l-97 -91q-19 -18 -36 -18q-21 0 -35.5 14t-14.5 35q0 17 13 35q9 10 22 29q12 25 12 90v244q0 12 -10 12q-7 0 -13 -11l-52 -100q-14 -27 -58 -71q-23 -22 -68 -66v-5q17 3 20 3
q39 0 39 -45q0 -24 -32 -54l-97 -91q-19 -18 -36 -18q-21 0 -35.5 14t-14.5 35q0 15 13 34q12 16 23 31.5t11 88.5v306q0 60 -66 60q-44 0 -74 -24.5t-30 -67.5q0 -51 40 -51q9 0 27.5 7t27.5 7q22 0 36 -16t14 -38q0 -41 -31 -62q-27 -19 -70 -19q-69 0 -110 49
q-39 46 -39 116q0 84 51 137t135 53q22 0 71 -3q46 -3 70 -3l75 1q54 1 54 -42q0 -26 -30 -36q-34 -12 -37 -19q-5 -11 -5 -31v-173q9 0 42 40q40 49 62 108l38 103q10 27 17 35q12 13 36 13h140q38 0 38 -41z" />
    <glyph glyph-name="nonbreakingspace" unicode="&#xa0;" horiz-adv-x="243" 
 />
    <glyph glyph-name="exclamdown" unicode="&#xa1;" horiz-adv-x="259" 
d="M198 371q0 -30 -19 -52t-49 -22q-32 0 -50 21t-18 53q0 30 19 51.5t49 21.5t49 -21t19 -52zM199 -29q0 -87 -69 -87q-70 0 -70 87q0 12 23 113q12 53 12 91q0 67 -1 61q5 36 36 36q34 0 34 -60q0 -74 10 -122z" />
    <glyph glyph-name="cent" unicode="&#xa2;" horiz-adv-x="398" 
d="M361 171q0 -61 -95 -88q0 -47 -3 -56q-9 -27 -44 -27t-43 28q-3 10 -3 57q-127 43 -127 190q0 144 127 185q0 42 4 53q9 24 42 24t42 -23q5 -12 5 -51q90 -27 90 -89q0 -20 -13 -35t-33 -15q-13 0 -47.5 21.5t-50.5 21.5q-65 0 -65 -83q0 -39 15 -68q18 -36 54 -36
q16 0 51 19.5t48 19.5q46 0 46 -48z" />
    <glyph glyph-name="sterling" unicode="&#xa3;" horiz-adv-x="472" 
d="M468 112q0 -51 -32.5 -87.5t-82.5 -36.5q-23 0 -87 28q-78 35 -94 39q-39 -67 -94 -67q-30 0 -49 19t-19 49q0 40 33 64q30 22 72 22h10q15 23 15 70q0 19 -4 29h-50q-49 0 -49 43q0 32 25 40q12 4 51 4q-18 44 -18 80q0 73 50 114q46 38 121 38q66 0 115 -32
q56 -38 56 -100q0 -26 -17 -43.5t-43 -17.5q-33 0 -57.5 51.5t-57.5 51.5q-26 0 -42.5 -18.5t-16.5 -44.5q0 -24 19 -79h83q48 0 48 -44q0 -43 -48 -43h-69l1 -25q0 -37 -30 -87q11 -3 53 -15q38 -11 49 -11q34 0 42 24l8 46q9 24 43 24q33 0 51 -27q15 -23 15 -58z" />
    <glyph glyph-name="currency" unicode="&#xa4;" horiz-adv-x="606" 
d="M571 211l-46 -45l-99 100q-55 -40 -122 -40q-70 0 -123 40l-99 -100l-45 45l99 100q-39 53 -39 121t39 121l-99 100l45 45l99 -99q53 40 122 40q70 0 123 -40l99 99l46 -45l-100 -100q39 -53 39 -121t-39 -121zM446 432q0 59 -41.5 100.5t-100.5 41.5q-58 0 -100 -42
t-42 -100q0 -60 41 -100.5t101 -40.5t101 40.5t41 100.5z" />
    <glyph glyph-name="yen" unicode="&#xa5;" horiz-adv-x="500" 
d="M491 496q0 -24 -22 -40q-35 -25 -46 -41q-1 -1 -33 -56q49 0 54 -1q32 -6 32 -35q0 -35 -45 -35h-82l-38 -65h120q45 0 45 -36q0 -35 -45 -35h-124v-62q62 0 62 -44q0 -24 -32 -54l-96 -91q-19 -18 -36 -18q-21 0 -35.5 14t-14.5 35q0 16 13 35q11 15 23 30q12 20 12 83
v72h-134q-45 0 -45 35q0 36 45 36h120l-37 65h-83q-45 0 -45 36q0 29 32 34q4 1 54 1q-12 22 -38 64q-6 9 -39 32q-24 17 -24 39q0 43 34 43h154q14 0 24 -11t10 -26q0 -16 -22.5 -37t-22.5 -29q0 -9 7 -22l40 -72q7 -12 17 -12q9 0 16 12l41 72q7 12 7 20q0 12 -22.5 31.5
t-22.5 36.5q0 37 34 37h155q14 0 23.5 -13t9.5 -28z" />
    <glyph glyph-name="brokenbar" unicode="&#xa6;" horiz-adv-x="500" 
d="M294 329h-87v370h87v-370zM294 -171h-87v370h87v-370z" />
    <glyph glyph-name="section" unicode="&#xa7;" horiz-adv-x="500" 
d="M475 153q0 -85 -79 -108l-28 -6q-22 -5 -22 -8q0 -5 22.5 -19t36.5 -31q21 -26 21 -63q0 -66 -58 -98q-47 -26 -118 -26q-65 0 -118 24q-69 31 -69 88q0 23 20.5 37.5t44.5 14.5q34 0 64 -44t66 -44q53 0 53 46q0 38 -73 75q-121 61 -136 72q-73 53 -73 126q0 84 78 108
q25 4 50 15q-69 53 -69 112q0 62 51 96q43 29 109 29q62 0 110 -25q61 -31 61 -87q0 -23 -18 -38t-42 -15q-31 0 -58 44.5t-59 44.5q-49 0 -49 -46q0 -38 73 -75q125 -64 136 -72q73 -52 73 -127zM365 141q0 42 -85 89q-57 31 -84 31q-25 0 -43 -16t-18 -40q0 -35 49 -67
q83 -54 117 -54q26 0 45 16t19 41z" />
    <glyph glyph-name="dieresis" unicode="&#xa8;" horiz-adv-x="694" 
d="M546 666q0 -23 -17.5 -37.5t-40.5 -14.5q-24 0 -40.5 14.5t-16.5 37.5q0 22 17.5 37.5t39.5 15.5q25 0 41.5 -14.5t16.5 -38.5zM383 666q0 -23 -17.5 -37.5t-40.5 -14.5q-24 0 -40.5 14.5t-16.5 37.5q0 22 17.5 37.5t39.5 15.5q25 0 41.5 -14.5t16.5 -38.5zM680 51
q0 -6 -48 -138q-11 -30 -42 -30q-27 0 -41 20h-286q-55 0 -55 47q0 24 15 34q3 2 36 14q19 7 19 54v335q0 60 -66 60q-43 0 -74 -25t-31 -67q0 -52 41 -52q10 0 27.5 7.5t27.5 7.5q22 0 35.5 -15.5t13.5 -38.5q0 -41 -31 -62q-27 -19 -70 -19q-67 0 -109 49q-39 46 -39 115
q0 67 35 117q38 55 101 67q32 6 92 6h278q17 26 47 26q33 0 43 -28l38 -106q6 -17 6 -26q0 -39 -49 -39q-16 0 -31 20q-22 28 -32 36q-26 20 -69 20h-77v-157h57q0 45 48 45q33 0 49 -42l37 -100q6 -16 6 -26q0 -39 -50 -39q-9 0 -42 32.5t-60 32.5h-45v-186h87q46 0 70 17
q9 7 48 51q23 26 46 26q44 0 44 -43z" />
    <glyph glyph-name="copyright" unicode="&#xa9;" horiz-adv-x="822" 
d="M763 331q0 -146 -103 -248.5t-249 -102.5q-147 0 -249.5 102.5t-102.5 248.5q0 147 103 250t250 103q146 0 248.5 -103.5t102.5 -249.5zM715 331q0 128 -87.5 217t-215.5 89t-216.5 -89t-88.5 -217q0 -127 88.5 -216t215.5 -89t215.5 89t88.5 216zM578 221
q-61 -104 -171 -104q-89 0 -146.5 60.5t-57.5 149.5q0 90 57 151t146 61q34 0 113 -32q26 -1 30 30h20l1 -156h-23q-32 133 -134 133q-115 0 -115 -180q0 -185 124 -185q80 0 135 85z" />
    <glyph glyph-name="ordfeminine" unicode="&#xaa;" horiz-adv-x="313" 
d="M296 319q0 -29 -33 -29h-38q-23 0 -29.5 10t-6.5 34v71h-14q-82 0 -82 -36q0 -20 27 -20q5 0 14 5t14 5q23 0 23 -32q0 -45 -67 -45q-36 0 -62 23t-26 58q0 91 173 91v11q0 30 -32 30q-10 0 -40 -17t-44 -17q-35 0 -35 31t47 47q35 12 73 12q57 0 81.5 -20.5t24.5 -75.5
q0 -85 1 -90q1 -8 16 -20t15 -26z" />
    <glyph glyph-name="guillemotleft" unicode="&#xab;" horiz-adv-x="356" 
d="M348 65q0 -26 -27 -26q-14 0 -30 14l-106 93q-13 11 -13 33q0 25 13 36l106 93q16 14 32 14q25 0 25 -27q0 -11 -14 -25l-64 -64q-11 -11 -11 -25q0 -15 11 -26l64 -64q14 -14 14 -26zM183 65q0 -26 -28 -26q-13 0 -29 14l-106 93q-13 11 -13 33q0 25 13 36l106 93
q16 14 31 14q26 0 26 -27q0 -11 -14 -25l-64 -64q-11 -11 -11 -25q0 -15 11 -26l64 -64q14 -14 14 -26z" />
    <glyph glyph-name="logicalnot" unicode="&#xac;" horiz-adv-x="833" 
d="M709 176h-81v164h-504v81h585v-245z" />
    <glyph glyph-name="minus" unicode="&#xad;" horiz-adv-x="315" 
d="M275 187q0 -42 -44 -42h-147q-45 0 -45 42q0 43 45 43h147q44 0 44 -43z" />
    <glyph glyph-name="minus" unicode="&#x2212;" horiz-adv-x="315" 
d="M275 187q0 -42 -44 -42h-147q-45 0 -45 42q0 43 45 43h147q44 0 44 -43z" />
    <glyph glyph-name="registered" unicode="&#xae;" horiz-adv-x="822" 
d="M763 327q0 -142 -110 -250q-98 -97 -249 -97q-143 0 -244 104t-101 247q0 147 103 250t250 103q149 0 250 -104t101 -253zM715 331q0 127 -88 216.5t-215 89.5q-128 0 -216.5 -89t-88.5 -217q0 -127 88.5 -216t215.5 -89t215.5 89t88.5 216zM631 216q0 -85 -83 -85
q-64 0 -74 52q-1 3 -14 95q-18 52 -95 52v-120q0 -26 14 -36q11 -8 39 -11v-23h-190v23q29 0 42 9.5t13 37.5v254q0 28 -13 37.5t-42 9.5v24h195q57 0 100 -20q56 -26 56 -76q0 -49 -47 -75q-29 -16 -91 -27q94 -24 106 -98q2 -16 9 -58q4 -19 22 -19q29 0 29 65h24v-11z
M493 435q0 35 -23 56t-59 21q-46 0 -46 -33v-126l33 -1q95 0 95 83z" />
    <glyph glyph-name="overscore" unicode="&#xaf;" horiz-adv-x="563" 
 />
    <glyph glyph-name="degree" unicode="&#xb0;" horiz-adv-x="329" 
d="M309 568q0 -60 -42.5 -102t-102.5 -42q-61 0 -102 41.5t-41 102.5t41.5 103t102.5 42t102.5 -42t41.5 -103zM255 569q0 38 -26 64t-64 26t-64.5 -26t-26.5 -64t26.5 -64.5t64.5 -26.5t64 26.5t26 64.5z" />
    <glyph glyph-name="plusminus" unicode="&#xb1;" horiz-adv-x="833" 
d="M709 345h-251v-163h-83v163h-251v81h251v163h83v-163h251v-81zM709 7h-585v82h585v-82z" />
    <glyph glyph-name="twosuperior" unicode="&#xb2;" horiz-adv-x="287" 
d="M275 298q0 -10 -29 -74q-7 -15 -26 -15q-16 0 -26 10h-113q-23 0 -40.5 16.5t-17.5 39.5q0 24 31 50l107 91q26 22 26 41q0 37 -48 37q-50 0 -50 -34q0 -9 14 -25t14 -22q0 -15 -13 -24t-28 -9q-28 0 -45 23t-17 52q0 48 39 75q35 25 84 25q53 0 86 -22q40 -26 40 -76
q0 -41 -41 -76l-112 -95l-3 -6q0 -5 9 -5h35q17 0 26.5 2.5t31.5 23t39 20.5q27 0 27 -23z" />
    <glyph glyph-name="threesuperior" unicode="&#xb3;" horiz-adv-x="312" 
d="M289 323q0 -52 -42 -83q-38 -28 -92 -28q-53 0 -93 31q-43 33 -43 85q0 29 13 49q15 24 42 24q38 0 38 -31q0 -6 -7 -21.5t-7 -23.5q0 -22 18 -36t41 -14q22 0 39.5 14.5t17.5 35.5q0 32 -26 45l-49 17q-26 8 -26 31q0 18 28 38q39 28 44 34q-5 4 -8 4h-32
q-21 0 -48.5 -18t-33.5 -18q-26 0 -26 24q0 4 4 14l21 51q6 15 26 15q19 0 26 -13h99q59 0 59 -47q0 -22 -25 -41q-32 -25 -38 -33l16 -9q64 -36 64 -96z" />
    <glyph glyph-name="acute" unicode="&#xb4;" horiz-adv-x="500" 
d="M376 534q0 -18 -18 -31l-131 -93q-8 -6 -14 -6q-19 0 -19 22q0 4 113 137q11 13 27 13q15 0 28.5 -13.5t13.5 -28.5z" />
    <glyph glyph-name="mu1" unicode="&#xb5;" horiz-adv-x="578" 
d="M545 149q0 -15 -7 -40q-34 -121 -128 -121q-86 0 -86 103q-42 -103 -130 -103q-99 0 -110 110l-28 -177q-3 -24 -13 -84q-11 -42 -48 -42q-48 0 -48 49q0 24 17 82q22 70 69 256l53 250h101l-49 -228q-10 -47 -10 -68q0 -67 68 -67q82 0 105 108l54 255h102l-55 -260
q-9 -43 -9 -61q0 -44 42 -44q29 0 50 25q9 11 26 47q12 25 23 25t11 -15z" />
    <glyph glyph-name="paragraph" unicode="&#xb6;" horiz-adv-x="500" 
d="M473 674h-57v-674h-63v674h-83v-674h-63v383q-79 0 -129.5 45.5t-50.5 123.5q0 81 56 127q52 43 135 43h255v-48z" />
    <glyph glyph-name="middot" unicode="&#xb7;" horiz-adv-x="505" 
d="M489 234q0 -39 -27 -66.5t-66 -27.5t-66.5 27.5t-27.5 66.5t27.5 66t66.5 27q38 0 65.5 -27.5t27.5 -65.5z" />
    <glyph glyph-name="cedilla" unicode="&#xb8;" horiz-adv-x="389" 
d="M334 490q0 -23 -17.5 -37.5t-40.5 -14.5q-24 0 -40.5 14.5t-16.5 37.5q0 22 17.5 37.5t39.5 15.5q25 0 41.5 -14.5t16.5 -38.5zM171 490q0 -23 -17.5 -37.5t-40.5 -14.5q-24 0 -40.5 14.5t-16.5 37.5q0 22 17.5 37.5t39.5 15.5q25 0 41.5 -14.5t16.5 -38.5zM362 222
q0 -43 -22 -58q-17 -13 -62 -13h-152q13 -69 80 -69q21 0 56.5 22.5t44.5 22.5q41 0 41 -49q0 -42 -53 -69q-42 -21 -89 -21q-83 0 -132.5 52.5t-49.5 135.5q0 86 46.5 141.5t130.5 55.5q68 0 114.5 -42t46.5 -109zM261 248q0 41 -60 41q-30 0 -51 -18.5t-25 -48.5h85
q51 0 51 26z" />
    <glyph glyph-name="onesuperior" unicode="&#xb9;" horiz-adv-x="975" 
d="M965 404q0 -58 -32 -95q-34 -40 -91 -40q-58 0 -90.5 38t-32.5 97q0 57 33.5 95.5t89.5 38.5q57 0 90 -38t33 -96zM704 496q0 -22 -15 -31q-7 -2 -34 -11q-17 -5 -17 -44v-320q61 0 61 -44q0 -24 -32 -54l-96 -91q-19 -18 -37 -18q-21 0 -35.5 14t-14.5 35q0 15 13 35
q12 15 23 31t11 92v56l-127 197q-10 15 -14 15q-6 0 -6 -7v-178q0 -79 -12 -126q-23 -91 -96.5 -148t-167.5 -57q-48 0 -79 19q-39 23 -39 68q0 57 65 57q13 0 37.5 -1.5t37.5 -1.5q148 0 148 243v166q0 60 -66 60q-44 0 -74 -24.5t-30 -67.5q0 -51 40 -51q9 0 27.5 7
t27.5 7q22 0 36 -16t14 -38q0 -81 -102 -81q-68 0 -109 49q-39 46 -39 116q0 85 50.5 137.5t134.5 52.5q17 0 52.5 -2.5t54.5 -2.5l54 1q28 0 44 -11q12 -9 29 -34l90 -138q10 -15 15 -15q4 0 4 6v63q0 25 -4.5 33t-26.5 16q-25 9 -25 37q0 41 33 41h157q17 0 28 -12t11 -29
zM891 405q0 68 -50 68q-48 0 -48 -68t48 -68q50 0 50 68z" />
    <glyph glyph-name="ordmasculine" unicode="&#xba;" horiz-adv-x="282" 
d="M262 417q0 -58 -32 -95q-34 -40 -91 -40q-58 0 -90.5 38t-32.5 97q0 57 33.5 95.5t89.5 38.5q57 0 90 -38t33 -96zM188 418q0 68 -50 68q-48 0 -48 -68t48 -68q50 0 50 68z" />
    <glyph glyph-name="guillemotright" unicode="&#xbb;" horiz-adv-x="356" 
d="M348 179q0 -22 -13 -33l-106 -93q-16 -14 -29 -14q-28 0 -28 26q0 12 14 26l64 64q11 11 11 26q0 14 -11 25l-64 64q-14 14 -14 25q0 27 26 27q15 0 31 -14l106 -93q13 -11 13 -36zM183 179q0 -22 -13 -33l-106 -93q-16 -14 -30 -14q-28 0 -28 26q0 11 15 26l64 64
q11 11 11 26q0 14 -11 25l-64 64q-15 15 -15 25q0 27 26 27q16 0 32 -14l106 -93q13 -11 13 -36z" />
    <glyph glyph-name="onequarter" unicode="&#xbc;" horiz-adv-x="622" 
d="M610 124q0 -18 -18 -22q-8 -2 -33 -2v-17q29 0 29 -24q0 -16 -21 -30l-40 -27q-13 -9 -25 -9q-32 0 -32 27q0 5 12.5 23.5t12.5 32.5v24h-99q-52 0 -52 43q0 20 18 40l97 106q23 25 51 25q49 0 49 -55v-110q25 0 33 -2q18 -4 18 -23zM501 526q0 -13 -15 -31l-419 -489
q-15 -18 -35 -18q-11 0 -21.5 10.5t-10.5 21.5q0 14 15 32l419 489q16 19 36 19q13 0 22 -10.5t9 -23.5zM154 262q0 -21 -29 -21h-76q-30 0 -30 21q0 11 17 21t17 31v164q-33 0 -33 19q0 13 13 21l39 25q12 8 26 8q23 0 23 -22v-215q0 -22 16.5 -30.5t16.5 -21.5zM493 149
v81q0 7 -5 7l-7 -7l-59 -65q-7 -8 -7 -13l5 -3h73z" />
    <glyph glyph-name="onehalf" unicode="&#xbd;" horiz-adv-x="611" 
d="M599 73q0 -7 -27 -68q-6 -14 -25 -14q-16 0 -25 9h-108q-22 0 -38.5 15.5t-16.5 37.5t29 46l102 85q25 21 25 38q0 35 -46 35q-47 0 -47 -32q0 -9 13.5 -23.5t13.5 -20.5q0 -14 -12 -22.5t-27 -8.5q-27 0 -43.5 22t-16.5 49q0 46 38 71q32 22 80 22q49 0 82 -21
q38 -24 38 -71q0 -39 -39 -71l-107 -88l-3 -6q0 -4 5 -5h8q24 0 53 3q11 1 32.5 20.5t35.5 19.5q26 0 26 -22zM501 526q0 -13 -15 -31l-419 -489q-15 -18 -35 -18q-11 0 -21.5 10.5t-10.5 21.5q0 14 15 32l419 489q16 19 36 19q13 0 22 -10.5t9 -23.5zM154 262
q0 -21 -29 -21h-76q-30 0 -30 21q0 11 17 21t17 31v164q-33 0 -33 19q0 13 13 21l39 25q12 8 26 8q23 0 23 -22v-215q0 -22 16.5 -30.5t16.5 -21.5z" />
    <glyph glyph-name="threequarters" unicode="&#xbe;" horiz-adv-x="750" 
d="M737 124q0 -18 -18 -22q-8 -2 -33 -2v-17q29 0 29 -24q0 -16 -21 -30l-40 -27q-13 -9 -25 -9q-32 0 -32 27q0 5 12.5 23.5t12.5 32.5v24h-99q-52 0 -52 43q0 20 18 40l97 106q23 25 51 25q49 0 49 -55v-110q25 0 33 -2q18 -4 18 -23zM628 526q0 -13 -15 -31l-419 -489
q-15 -18 -35 -18q-11 0 -21.5 10.5t-10.5 21.5q0 14 15 32l419 489q16 19 36 19q13 0 22 -10.5t9 -23.5zM275 338q0 -49 -40 -78q-36 -26 -87 -26t-88 28q-42 31 -42 80q0 27 12 46q14 23 40 23q37 0 37 -29q0 -5 -7 -19.5t-7 -22.5q0 -21 17 -34t39 -13q21 0 38 13t17 34
q0 30 -25 42q-22 7 -44 13q-28 12 -28 31q0 15 28 37q21 16 42 31q-6 4 -9 4l-30 -1q-19 -1 -46 -17t-32 -16q-25 0 -25 22q0 5 4 14l20 47q6 14 25 14t25 -12h95q55 0 55 -44q0 -20 -24 -38q-32 -24 -36 -31q40 -20 55 -37q21 -23 21 -61zM620 149v81q0 7 -5 7l-7 -7
l-59 -65q-7 -8 -7 -13l5 -3h73z" />
    <glyph glyph-name="questiondown" unicode="&#xbf;" horiz-adv-x="407" 
d="M287 370q0 -30 -19 -51.5t-49 -21.5t-49 21t-19 52q0 30 19 52t49 22q32 0 50 -21t18 -53zM382 26q0 -71 -54 -109q-47 -33 -121 -33q-76 0 -124 36q-53 39 -53 113q0 62 42 97q23 18 81 65q8 7 28 50q12 26 33 26q36 0 36 -48q0 -41 -53 -97.5t-53 -85.5q0 -61 74 -61
q54 0 54 38q0 16 -29 30.5t-29 39.5q0 27 19 42.5t47 15.5q46 0 74 -36t28 -83z" />
    <glyph glyph-name="Agrave" unicode="&#xc0;" horiz-adv-x="708" 
d="M695 46q0 -24 -32 -54l-97 -91q-19 -18 -36 -18q-21 0 -35.5 14t-14.5 35q0 11 26.5 50.5t26.5 66.5q0 18 -17 84h-154l-18 -68q-27 -102 -96 -161q-72 -62 -175 -62q-48 0 -79 19q-39 23 -39 68q0 57 65 57q13 0 37.5 -1.5t37.5 -1.5q113 0 162 166l64 216q9 30 9 41
q0 44 -57 44q-44 0 -76 -25t-32 -68q0 -38 32 -38q6 0 16.5 3t16.5 3q35 0 35 -45q0 -35 -25.5 -54t-61.5 -19q-63 0 -97 42q-32 39 -32 103q0 93 61 143q56 47 151 47q31 0 91.5 -6t91.5 -6q18 0 54.5 2t54.5 2q51 0 51 -45q0 -19 -27.5 -38.5t-27.5 -33.5l3 -24l90 -303
q53 0 53 -44zM490 231l-40 148q-4 13 -10 13t-10 -13l-40 -148h100z" />
    <glyph glyph-name="Aacute" unicode="&#xc1;" horiz-adv-x="632" 
d="M612 60q0 -123 -96 -188q-83 -57 -212 -57q-124 0 -207 64q-92 70 -92 190q0 54 27 100q31 54 81 54q57 0 57 -56q0 -21 -24 -58.5t-24 -65.5q0 -67 61 -101q49 -28 121 -28q76 0 129 35q62 40 62 113q0 69 -49 106q-45 34 -116 34h-26v-37q61 0 61 -44q0 -23 -31 -54
l-83 -82q-16 -16 -39 -16q-21 0 -36 14.5t-15 35.5q0 6 18 44t18 64v283q0 28 -5 34.5t-33 14.5t-28 37q0 17 11.5 29t28.5 12h298q19 23 47 23q40 0 40 -23l41 -111q6 -16 6 -26q0 -39 -47 -39q-18 0 -35 21q-9 11 -26 33t-73 22h-118v-147q77 0 150 -27q82 -31 123 -85
q35 -47 35 -118z" />
    <glyph glyph-name="Acircumflex" unicode="&#xc2;" horiz-adv-x="632" 
d="M614 60q0 -121 -95 -187q-83 -58 -209 -58q-125 0 -210 63q-95 70 -95 191q0 54 27 100q31 54 81 54q57 0 57 -56q0 -21 -24 -58.5t-24 -65.5q0 -65 60 -100q49 -29 119 -29q76 0 131 35q65 41 65 113q0 66 -45.5 103t-112.5 37q-4 0 -35 -1v-36q61 0 61 -44
q0 -23 -31 -54l-83 -82q-16 -16 -39 -16q-21 0 -36 14.5t-15 35.5q0 7 18 44.5t18 63.5v283q0 27 -5.5 34.5t-33 15.5t-27.5 36q0 17 11.5 29t28.5 12h192q83 0 133 -32q60 -38 60 -117q0 -92 -77 -137q135 -43 135 -191zM445 370q0 67 -81 67h-60v-134h60q81 0 81 67z" />
    <glyph glyph-name="Atilde" unicode="&#xc3;" horiz-adv-x="624" 
d="M643 403q0 -39 -49 -39q-16 0 -31 20q-20 26 -33 36q-26 20 -68 20h-77v-348q60 0 60 -44q0 -25 -31 -54l-97 -91q-19 -18 -36 -18q-21 0 -35.5 14t-14.5 35q0 19 13 35q7 8 22 29q12 25 12 89v300q0 60 -66 60q-43 0 -74 -25t-31 -67q0 -52 41 -52q9 0 27 7.5t28 7.5
q22 0 35.5 -15.5t13.5 -38.5q0 -41 -31 -62q-27 -19 -70 -19q-67 0 -109 49q-39 46 -39 115q0 67 35 117q38 55 101 67q32 6 92 6h278q17 26 47 26q33 0 43 -28l38 -106q6 -17 6 -26z" />
    <glyph glyph-name="Adieresis" unicode="&#xc4;" horiz-adv-x="660" 
d="M633 219q0 -151 -84.5 -233.5t-235.5 -82.5h-135q-55 0 -55 47q0 22 16 33q6 4 36 15q18 7 18 54v210q0 35 -19.5 56.5t-19.5 33.5q0 39 53 39h62q52 0 52 -37q0 -9 -10.5 -35t-10.5 -40v-279h36q88 0 137 62q46 57 46 147q0 109 -65 172t-175 63q-165 0 -165 -112
q0 -28 28 -72.5t28 -56.5q0 -24 -17 -39t-41 -15q-51 0 -82 60q-26 49 -26 105q0 116 85 179q75 56 195 56q149 0 247 -90q102 -92 102 -240z" />
    <glyph glyph-name="Aring" unicode="&#xc5;" horiz-adv-x="694" 
d="M680 51q0 -6 -48 -138q-11 -30 -42 -30q-27 0 -41 20h-286q-55 0 -55 47q0 24 15 34q3 2 36 14q19 7 19 54v335q0 60 -66 60q-43 0 -74 -25t-31 -67q0 -52 41 -52q10 0 27.5 7.5t27.5 7.5q22 0 35.5 -15.5t13.5 -38.5q0 -41 -31 -62q-27 -19 -70 -19q-67 0 -109 49
q-39 46 -39 115q0 67 35 117q38 55 101 67q32 6 92 6h278q17 26 47 26q33 0 43 -28l38 -106q6 -17 6 -26q0 -39 -49 -39q-16 0 -31 20q-22 28 -32 36q-26 20 -69 20h-77v-157h57q0 45 48 45q33 0 49 -42l37 -100q6 -16 6 -26q0 -39 -50 -39q-9 0 -42 32.5t-60 32.5h-45v-186
h87q46 0 70 17q9 7 48 51q23 26 46 26q44 0 44 -43z" />
    <glyph glyph-name="AE" unicode="&#xc6;" horiz-adv-x="753" 
d="M899 -85q0 -45 -39 -68q-31 -19 -79 -19q-199 0 -257 219q-6 22 -24 63l-28 63v-89q0 -35 1 -41q7 -21 14 -43q1 -5 1 -9q0 -20 -31 -47l-50 -43q-3 -3 -10 -3q-5 0 -15 2.5t-15 2.5q-18 0 -22 12q-2 6 -2 32t14 49q11 18 11 89v70q-16 -34 -41 -101q-58 -219 -257 -219
q-48 0 -79 19q-39 23 -39 68q0 57 65 57q13 0 37.5 -1.5t37.5 -1.5q63 0 106 54q27 33 56 112l25 67q-13 7 -16 16l9 20l-115 158q-4 6 -15 21q-9 12 -43 33q-26 16 -26 40q0 40 55 40h107q49 0 49 -37q0 -9 -11.5 -28t-11.5 -27q0 -15 13 -33q81 -110 86 -110q8 0 8 29v61
q0 5 1.5 15.5t1.5 15.5q0 24 -23 37.5t-23 40.5q0 28 26 34q8 2 48 2q4 0 13 -1h13q11 0 32.5 1t32.5 1q42 0 42 -42q0 -26 -27 -37q-30 -13 -31 -20q-2 -10 -2 -29v-79q0 -29 8 -29q5 0 86 110q13 18 13 33q0 9 -11.5 28t-11.5 27q0 37 49 37h107q55 0 55 -40
q0 -23 -23 -39l-41 -28q-1 -1 -20 -27l-115 -158q3 -6 3 -18q0 -7 -1 -17l27 -75q27 -76 56 -112q43 -54 106 -54q13 0 37.5 1.5t37.5 1.5q65 0 65 -57z" />
    <glyph glyph-name="Ccedilla" unicode="&#xc7;" horiz-adv-x="472" 
d="M442 174q0 -83 -61 -136q-57 -50 -142 -50t-144 54q-62 55 -62 139q0 45 19 80q23 43 64 43q25 0 41.5 -14.5t16.5 -38.5q0 -9 -10.5 -35t-10.5 -40q0 -35 27 -59t62 -24q36 0 61.5 24t25.5 60q0 53 -40 74q-25 8 -74 25q-40 15 -40 55q0 26 24 45q47 38 86 76
q-6 7 -13 7l-48 -1q-32 -1 -73 -30t-51 -29q-39 0 -39 39q0 11 5 24l32 84q10 26 40 26t40 -22h150q88 0 88 -78q0 -29 -25 -57q-13 -15 -45 -39q-25 -19 -25 -28q3 -2 25 -14q96 -51 96 -160z" />
    <glyph glyph-name="Egrave" unicode="&#xc8;" horiz-adv-x="713" 
d="M704 496q0 -32 -49 -44q-4 0 -13 -6q-4 -6 -4 -36v-320q61 0 61 -44q0 -24 -32 -54l-96 -89q-22 -20 -40 -20q-21 0 -34 14t-13 35q0 15 13 35q12 15 23 31t11 92l-139 -119l-74 -68q-22 -20 -40 -20q-21 0 -34 14t-13 35q0 15 13 35q12 15 23 31t11 53v341q0 60 -66 60
q-44 0 -74 -24.5t-30 -67.5q0 -51 40 -51q9 0 27.5 7t27.5 7q23 0 36.5 -15.5t13.5 -38.5q0 -81 -102 -81q-68 0 -109 49q-39 46 -39 116q0 84 51 137t135 53q26 0 76.5 -3t76.5 -3h59q49 0 49 -41q0 -28 -27 -37q-33 -11 -34 -14q-5 -6 -5 -35v-321l147 117v209
q0 37 -13 37q-27 11 -31 14q-12 9 -12 30q0 15 9.5 28t23.5 13h157q16 0 27.5 -12.5t11.5 -28.5z" />
    <glyph glyph-name="Eacute" unicode="&#xc9;" horiz-adv-x="713" 
d="M588 698q0 -48 -37.5 -79t-86.5 -31q-48 0 -85 31q-40 32 -40 79q0 27 20 27q11 0 24 -14q14 -17 20 -19q29 -12 78 -12q26 0 46 7q10 4 20 21t21 17q20 0 20 -27zM704 496q0 -32 -49 -44q-4 0 -13 -6q-4 -6 -4 -36v-320q61 0 61 -44q0 -24 -32 -54l-96 -89
q-22 -20 -40 -20q-21 0 -34 14t-13 35q0 15 13 35q12 15 23 31t11 92l-139 -119l-74 -68q-22 -20 -40 -20q-21 0 -34 14t-13 35q0 15 13 35q12 15 23 31t11 53v341q0 60 -66 60q-44 0 -74 -24.5t-30 -67.5q0 -51 40 -51q9 0 27.5 7t27.5 7q23 0 36.5 -15.5t13.5 -38.5
q0 -81 -102 -81q-68 0 -109 49q-39 46 -39 116q0 84 51 137t135 53q26 0 76.5 -3t76.5 -3h59q49 0 49 -41q0 -28 -27 -37q-33 -11 -34 -14q-5 -6 -5 -35v-321l147 117v209q0 37 -13 37q-27 11 -31 14q-12 9 -12 30q0 15 9.5 28t23.5 13h157q16 0 27.5 -12.5t11.5 -28.5z" />
    <glyph glyph-name="Ecircumflex" unicode="&#xca;" horiz-adv-x="665" 
d="M977 -90q0 -58 -68 -90q-55 -26 -119 -26q-96 0 -182 74q-99 85 -191 256q-15 29 -40 69q-8 0 -8 -9v-100q54 0 54 -43q0 -22 -32 -54l-87 -86q-18 -18 -36 -18q-21 0 -35.5 14t-14.5 35q0 15 13 35q12 15 23 31t11 87v307q0 60 -61 60q-42 0 -70 -25t-28 -67
q0 -51 38 -51q9 0 25.5 7t24.5 7q46 0 46 -54q0 -81 -95 -81q-67 0 -106 50q-36 46 -36 115q0 80 46 133q49 57 127 57q24 0 70.5 -3.5t70.5 -3.5q12 0 35 1t35 1q42 0 42 -42q0 -26 -27 -37q-30 -13 -31 -20q-2 -10 -2 -29v-79q0 -29 8 -29q5 0 86 110q13 18 13 33
q0 9 -11.5 28t-11.5 27q0 37 49 37h107q55 0 55 -40q0 -23 -23 -39l-41 -28q-1 -1 -20 -27l-115 -158q75 -136 122 -195q94 -119 183 -119q32 0 68 13l82 29q57 0 57 -63z" />
    <glyph glyph-name="Edieresis" unicode="&#xcb;" horiz-adv-x="708" 
d="M695 46q0 -24 -32 -54l-97 -91q-19 -18 -36 -18q-21 0 -35.5 14t-14.5 35q0 11 26.5 50.5t26.5 66.5q0 21 -17 84l-66 246q-3 13 -10 13q-6 0 -10 -13l-86 -314q-28 -103 -96 -161q-72 -62 -175 -62q-48 0 -79 19q-39 23 -39 68q0 57 65 57q13 0 37.5 -1.5t37.5 -1.5
q113 0 162 166l64 216q9 30 9 41q0 44 -57 44q-44 0 -76 -25t-32 -68q0 -38 32 -38q6 0 16.5 3t16.5 3q35 0 35 -45q0 -35 -25.5 -54t-61.5 -19q-63 0 -97 42q-32 39 -32 103q0 93 61 143q56 47 151 47q31 0 91.5 -6t91.5 -6q18 0 54.5 2t54.5 2q51 0 51 -45
q0 -19 -27.5 -38.5t-27.5 -33.5l3 -24l90 -303q53 0 53 -44z" />
    <glyph glyph-name="Igrave" unicode="&#xcc;" horiz-adv-x="787" 
d="M777 496q0 -21 -14 -30q-3 -2 -32 -11q-20 -7 -20 -45v-320q61 0 61 -44q0 -25 -31 -54l-97 -91q-19 -18 -36 -18q-21 0 -35.5 14t-14.5 35q0 17 13 35q9 10 22 29q12 25 12 89v245q0 12 -10 12q-9 0 -13 -11l-32 -92q-15 -42 -56 -42q-40 0 -55 42l-33 92q-4 11 -14 11
q-9 0 -9 -12v-133q0 -86 -5 -118q-16 -104 -90.5 -170.5t-178.5 -66.5q-47 0 -78 19q-38 23 -38 67q0 58 70 58q11 0 31.5 -2t31.5 -2q80 0 119 69q32 55 32 141v200q0 60 -65 60q-43 0 -73 -24q-33 -26 -33 -68q0 -51 41 -51q9 0 27 7t27 7q22 0 36 -16t14 -38
q0 -81 -102 -81q-69 0 -110 49q-39 46 -39 116q0 82 50 136t132 54q20 0 59.5 -2.5t59.5 -2.5q14 0 42.5 1.5t42.5 1.5q24 0 33.5 -9.5t37.5 -93.5q25 -75 35 -75q8 0 16 23l38 103q10 27 17 35q12 13 36 13h140q38 0 38 -41z" />
    <glyph glyph-name="Iacute" unicode="&#xcd;" horiz-adv-x="713" 
d="M704 496q0 -22 -15 -31q-2 -1 -34 -11q-17 -5 -17 -44v-320q61 0 61 -44q0 -24 -32 -54l-96 -91q-19 -18 -37 -18q-21 0 -35.5 14t-14.5 35q0 15 13 35q12 15 23 31t11 87v121h-147v-45q0 -138 -68 -224q-74 -95 -208 -95q-48 0 -79 19q-39 23 -39 68q0 57 65 57
q13 0 37.5 -1.5t37.5 -1.5q148 0 148 243v166q0 60 -66 60q-44 0 -74 -24.5t-30 -67.5q0 -51 40 -51q9 0 27.5 7t27.5 7q22 0 36 -16t14 -38q0 -81 -102 -81q-68 0 -109 49q-39 46 -39 116q0 82 50 136t131 54q25 0 73.5 -3.5t73.5 -3.5h35q46 1 35 1q49 0 49 -41
q0 -28 -26 -36t-33 -16.5t-7 -33.5v-107h147v107q0 25 -4.5 33t-26.5 16q-25 9 -25 37q0 41 33 41h157q17 0 28 -12t11 -29z" />
    <glyph glyph-name="Icircumflex" unicode="&#xce;" horiz-adv-x="531" 
d="M523 216q0 -135 -54 -224q-65 -108 -191 -108t-191 108q-55 90 -55 224t55 224q66 109 191 109t191 -109q54 -90 54 -224zM409 216q0 231 -131 231q-132 0 -132 -231q0 -230 132 -230q131 0 131 230z" />
    <glyph glyph-name="Idieresis" unicode="&#xcf;" horiz-adv-x="713" 
d="M704 496q0 -22 -15 -31q-2 -1 -34 -11q-17 -5 -17 -44v-320q61 0 61 -44q0 -24 -32 -54l-96 -91q-19 -18 -37 -18q-21 0 -35.5 14t-14.5 35q0 15 13 35q12 15 23 31t11 87v311q0 19 -2 28q-9 28 -68 28q-77 0 -77 -57v-234q0 -138 -68 -224q-74 -95 -208 -95
q-48 0 -79 19q-39 23 -39 68q0 57 65 57q13 0 37.5 -1.5t37.5 -1.5q148 0 148 243v166q0 60 -66 60q-44 0 -74 -24.5t-30 -67.5q0 -51 40 -51q9 0 27.5 7t27.5 7q22 0 36 -16t14 -38q0 -81 -102 -81q-68 0 -109 49q-39 46 -39 116q0 82 50 136t131 54q25 0 73.5 -3.5
t73.5 -3.5h35q46 1 35 1h264q17 0 28 -12t11 -29z" />
    <glyph glyph-name="Eth" unicode="&#xd0;" horiz-adv-x="602" 
d="M572 304q0 -90 -45 -145q-48 -60 -136 -60q-50 0 -95 26v-40q57 0 57 -43q0 -24 -32 -54l-92 -87q-19 -18 -36 -18q-21 0 -35.5 14t-14.5 35q0 15 13 35q12 15 23 31t11 92v172q0 35 -19.5 56.5t-19.5 33.5q0 39 53 39h62q52 0 52 -37q0 -9 -10.5 -36t-10.5 -42
q0 -77 80 -77q39 0 61.5 27t22.5 67q0 78 -56 117q-48 34 -129 34q-165 0 -165 -112q0 -25 27.5 -70.5t27.5 -58.5q0 -24 -16 -39t-41 -15q-51 0 -82 60q-26 49 -26 105q0 115 84 178q75 57 194 57q123 0 203 -60q90 -66 90 -185z" />
    <glyph glyph-name="Ntilde" unicode="&#xd1;" horiz-adv-x="752" 
d="M731 90q0 -92 -63 -149t-156 -57q-120 0 -183 96q-55 82 -55 208q0 74 26 147q-69 46 -117 46q-67 0 -67 -64q0 -44 37 -44q8 0 24.5 5.5t25.5 5.5q45 0 45 -54q0 -40 -27.5 -62t-68.5 -22q-68 0 -107.5 48t-39.5 117q0 76 46.5 124.5t122.5 48.5t165 -55q73 120 196 120
q77 0 127 -45t50 -121q0 -70 -47.5 -110t-118.5 -40q-76 0 -144 50q-12 -44 -12 -97q0 -70 26 -126q33 -72 96 -72q85 0 93 96q5 58 8 67q11 31 51 31q34 0 52 -30q15 -25 15 -62zM603 391q0 25 -18.5 41.5t-43.5 16.5q-60 0 -102 -70q60 -39 105 -39q59 0 59 51z" />
    <glyph glyph-name="Ograve" unicode="&#xd2;" horiz-adv-x="546" 
d="M557 520q0 -51 -32 -78.5t-84 -27.5q-24 0 -66 8v-332q61 0 61 -44q0 -24 -32 -54l-96 -91q-19 -18 -37 -18q-21 0 -35.5 14t-14.5 35q0 15 13 35q12 15 23 31t11 87v355q-39 10 -68 10q-41 0 -67.5 -24.5t-26.5 -65.5q0 -51 39 -51q9 0 26 7t26 7q21 0 34 -16t13 -38
q0 -40 -27.5 -60.5t-68.5 -20.5q-67 0 -108 50q-39 47 -39 115q0 90 54 140t145 50q31 0 92.5 -12t92.5 -12q43 0 70.5 33.5t48.5 33.5q53 0 53 -66z" />
    <glyph glyph-name="Oacute" unicode="&#xd3;" horiz-adv-x="722" 
d="M714 496q0 -24 -33 -37.5t-33 -48.5q0 -209 -31 -328q-24 -93 -39 -125q-27 -58 -80 -102q-77 -64 -175 -64q-48 0 -79 19q-39 23 -39 68q0 57 65 57q13 0 37.5 -1.5t37.5 -1.5q120 0 171 158q-48 -8 -57 -8q-98 0 -151 70q-36 47 -37 129q0 39 -1 119q-8 52 -61 52
q-45 0 -73 -23q-31 -25 -31 -69q0 -51 39 -51q9 0 26.5 7t26.5 7q22 0 35 -16t13 -38q0 -40 -30 -62q-26 -19 -68 -19q-68 0 -107.5 48t-39.5 117q0 84 51 137t135 53q23 0 68 -3.5t68 -3.5h35q47 1 36 1q48 0 48 -41q0 -27 -30 -38t-31 -21q-3 -13 -3 -27v-88q0 -65 10 -91
q17 -43 72 -43q54 0 72 43q11 27 11 91v88q0 28 -4.5 34t-32 14.5t-27.5 37.5q0 41 38 41h160q38 0 38 -41z" />
    <glyph glyph-name="Ocircumflex" unicode="&#xd4;" horiz-adv-x="675" 
d="M670 291q0 -84 -51 -137t-135 -53q-15 0 -45 2.5t-45 2.5v-42q54 0 54 -44q0 -24 -32 -54l-97 -91q-19 -18 -36 -18q-21 0 -35.5 14t-14.5 35q0 15 13 35q12 15 23 31t11 87v241q0 60 -66 60q-44 0 -74 -24.5t-30 -67.5q0 -51 40 -51q9 0 27.5 7t27.5 7q22 0 36 -16
t14 -38q0 -41 -31 -62q-27 -19 -70 -19q-69 0 -110 49q-39 46 -39 116q0 84 51 137t135 53q15 0 44.5 -2t44.5 -2v14q-52 0 -52 33q0 22 21 37l62 45q19 14 41 14q42 0 42 -41v-297q0 -60 67 -60q44 0 74 24.5t30 67.5q0 51 -40 51q-9 0 -27.5 -7t-27.5 -7q-22 0 -36 16
t-14 38q0 41 31 62q27 19 70 19q69 0 109 -47.5t40 -117.5z" />
    <glyph glyph-name="Otilde" unicode="&#xd5;" horiz-adv-x="644" 
d="M641 46q0 -24 -32 -54l-98 -91q-19 -18 -36 -18q-20 0 -34.5 15t-14.5 35q0 9 26 47t26 57q0 20 -10 36l-44 72q-6 10 -13 10q-6 0 -12 -10l-80 -138q-48 -84 -99 -121q-60 -44 -148 -44q-120 0 -120 87q0 57 64 57q13 0 38 -1.5t38 -1.5q90 0 151 103l96 163l-98 156
q-16 26 -25 34q-15 14 -38 14q-29 0 -48 -22t-19 -52q0 -25 13 -43q14 -21 38 -21q8 0 30.5 12t35.5 12q23 0 36 -17.5t13 -41.5q0 -41 -37 -64q-31 -19 -75 -19q-70 0 -116 46t-46 116q0 81 53.5 132.5t134.5 51.5q18 0 53 -3t53 -3h24q32 1 24 1q40 0 40 -42
q0 -14 -18.5 -35.5t-18.5 -26.5q0 -8 8 -20q42 -63 47 -63q7 0 42 61q9 16 9 24q0 6 -18.5 25t-18.5 35q0 15 9 28t24 13h150q14 0 23.5 -13t9.5 -28q0 -21 -18 -37q-1 -1 -35 -25q-8 -8 -26 -38l-81 -140l107 -166q61 0 61 -44z" />
    <glyph glyph-name="Odieresis" unicode="&#xd6;" horiz-adv-x="743" 
d="M868 -192q0 -83 -68 -125q-56 -35 -144 -35q-71 0 -143 22q-101 29 -101 84q0 38 40 38q69 -30 89 -37q53 -19 93 -19q94 0 94 76q0 37 -30 56q-25 16 -64 16h-21q-12 0 -28 13t-19 25l-8 28q-74 -66 -111 -66q-88 0 -138 68q-25 35 -33 80q-5 28 -5 86v274q0 60 -62 60
q-45 0 -73 -23q-31 -25 -31 -69q0 -51 39 -51q9 0 26.5 7t26.5 7q22 0 35 -16t13 -38q0 -40 -30 -62q-26 -19 -68 -19q-68 0 -107.5 48t-39.5 117q0 84 51 137t135 53q23 0 68 -3.5t68 -3.5h35q47 1 36 1q48 0 48 -41q0 -26 -28 -37q-31 -12 -33 -21q-3 -13 -3 -28v-286
q0 -65 10 -91q17 -43 72 -43q54 0 72 43q11 27 11 91v286q0 28 -4.5 34t-32 14.5t-27.5 37.5q0 41 38 41h160q38 0 38 -41q0 -24 -33 -37.5t-33 -48.5v-408q0 -21 16 -31q9 -4 34 -4q72 0 121 -44t49 -115z" />
    <glyph glyph-name="multiply" unicode="&#xd7;" horiz-adv-x="722" 
d="M714 496q0 -24 -33 -37t-33 -49v-327q62 -4 62 -45q0 -24 -32 -54l-97 -91q-19 -18 -36 -18q-21 0 -35.5 14t-14.5 35q0 16 12 35q12 15 23.5 30t11.5 107q-36 -14 -82 -14q-98 0 -151 70q-24 32 -32 78q-4 25 -5 86l-1 76q-1 60 -62 60q-45 0 -73 -23q-31 -25 -31 -69
q0 -51 39 -51q9 0 26.5 7t26.5 7q22 0 35 -16t13 -38q0 -40 -30 -62q-26 -19 -68 -19q-67 0 -108 50q-39 47 -39 115q0 84 51 137t135 53q23 0 68 -3.5t68 -3.5h35q47 1 36 1q48 0 48 -41q0 -27 -30 -38t-31 -21q-3 -13 -3 -27v-93q0 -63 11 -88q18 -41 71 -41q54 0 72 43
q11 27 11 91v88q0 28 -4 34t-30 14q-30 9 -30 38q0 41 38 41h160q38 0 38 -41z" />
    <glyph glyph-name="Oslash" unicode="&#xd8;" horiz-adv-x="986" 
d="M966 498q0 -21 -15 -31q-5 -3 -34 -15q-20 0 -20 -40v-320q62 0 62 -44q0 -19 -32 -54l-76 -82q-8 -9 -67 -9h-522q-55 0 -55 47q0 26 32.5 40.5t35.5 24.5t3 37v340q0 60 -66 60q-44 0 -74 -24.5t-30 -67.5q0 -51 40 -51q9 0 27.5 7t27.5 7q23 0 36.5 -15.5t13.5 -38.5
q0 -81 -102 -81q-68 0 -109 49q-39 46 -39 116q0 84 51 137t135 53q26 0 76.5 -3t76.5 -3h59q49 0 49 -41q0 -28 -27 -37q-33 -11 -34 -14q-5 -6 -5 -35v-410q13 0 39 -2.5t39 -2.5q69 0 69 95v324v26q-3 11 -18 14q-20 3 -25 8q-13 9 -13 34q0 15 9.5 28t23.5 13h157
q16 0 27.5 -12.5t11.5 -28.5q0 -32 -49 -44q-4 0 -13 -6q-4 -6 -4 -36v-410q6 1 23 1q9 0 28 -1t28 -1q45 0 61 26q13 20 13 67v323q0 37 -11 37q-25 10 -31 15q-12 10 -12 31q0 14 9.5 26.5t23.5 12.5h157q15 0 27 -12t12 -27z" />
    <glyph glyph-name="Ugrave" unicode="&#xd9;" horiz-adv-x="1056" 
d="M1119 -238q0 -86 -71 -127q-57 -33 -150 -33q-68 0 -139 22q-96 30 -96 84q0 38 40 38q125 -56 182 -56q94 0 94 76q0 37 -30 58q-25 18 -64 18q-32 0 -36 1q-23 6 -32 40q-6 21 -13 47q-35 -27 -70 -27h-472q-55 0 -55 47q0 26 32.5 40.5t35.5 24.5t3 37v340
q0 60 -66 60q-44 0 -74 -24.5t-30 -67.5q0 -51 40 -51q9 0 27.5 7t27.5 7q23 0 36.5 -15.5t13.5 -38.5q0 -81 -102 -81q-68 0 -109 49q-39 46 -39 116q0 84 51 137t135 53q26 0 76.5 -3t76.5 -3h59q49 0 49 -41q0 -25 -13 -35q-21 -4 -49 -16q-4 -6 -4 -35v-410
q13 0 39 -2.5t39 -2.5q69 0 69 95v325q0 23 -1 25q-2 11 -17 14q-19 4 -25 8q-13 9 -13 34q0 15 9.5 28t23.5 13h157q16 0 27.5 -12.5t11.5 -28.5q0 -32 -49 -44q-4 0 -13 -6q-4 -6 -4 -36v-410q6 1 23 1q10 0 28.5 -1t28.5 -1q45 0 61 26q13 20 13 67v323v23
q0 8 -27.5 18.5t-27.5 41.5q0 14 9.5 26.5t23.5 12.5h157q15 0 27 -12t12 -27q0 -21 -15 -31q-5 -3 -34 -15q-19 0 -19 -40v-456q0 -35 51 -35q72 0 121 -44t49 -115z" />
    <glyph glyph-name="Uacute" unicode="&#xda;" horiz-adv-x="632" 
d="M614 60q0 -121 -95 -187q-83 -58 -209 -58q-125 0 -210 63q-95 70 -95 191q0 54 27 100q31 54 81 54q57 0 57 -56q0 -21 -24 -58.5t-24 -65.5q0 -65 60 -100q49 -29 119 -29q76 0 131 35q65 41 65 113q0 66 -45.5 103t-112.5 37q-4 0 -35 -1v-36q61 0 61 -44
q0 -23 -31 -54l-83 -82q-16 -16 -39 -16q-21 0 -36 14.5t-15 35.5q0 7 18 44.5t18 63.5v309l-7 1q-81 0 -81 -61q0 -26 -21.5 -44.5t-47.5 -18.5q-35 0 -35 33q-7 13 -7 42q0 78 64 117q53 33 135 32l133 -1q17 0 28.5 -12t11.5 -29q0 -27 -33 -38t-33 -34v-120q62 0 101 -8
q68 -14 132 -73q77 -71 77 -162z" />
    <glyph glyph-name="Ucircumflex" unicode="&#xdb;" horiz-adv-x="852" 
d="M837 119q0 -23 -31 -54l-83 -82q-16 -16 -39 -16q-21 0 -36 14.5t-15 35.5q0 7 18 44.5t18 63.5v300q-55 0 -55 43q0 25 31 54l92 87q19 18 36 18q21 0 35.5 -14t14.5 -35q0 -15 -14 -34q-17 -23 -22 -30q-11 -21 -11 -75v-276q61 0 61 -44zM614 59q0 -124 -97 -188
q-84 -56 -213 -56q-125 0 -208 62q-91 69 -91 191q0 54 27 100q31 54 82 54q57 0 57 -56q0 -21 -24.5 -58.5t-24.5 -65.5q0 -64 62 -99q51 -29 120 -29q77 0 130 34q63 40 63 113q0 71 -49 108q-44 33 -117 33h-27v-38q62 0 62 -44q0 -23 -31 -54l-83 -82q-16 -16 -39 -16
q-21 0 -36 14.5t-15 35.5q0 8 17.5 45t17.5 63v300q-28 0 -40 7q-15 9 -15 36q0 24 32 54l92 87q19 18 38 18q21 0 34.5 -14t13.5 -35q0 -19 -36 -64q-12 -19 -12 -86v-126q113 0 172 -36q138 -85 138 -208z" />
    <glyph glyph-name="Udieresis" unicode="&#xdc;" horiz-adv-x="602" 
d="M572 128q0 -118 -90 -185q-81 -60 -203 -60q-119 0 -194 57q-84 63 -84 178q0 57 25 106q31 59 83 59q25 0 41 -15t16 -39q0 -11 -27.5 -56t-27.5 -73q0 -112 165 -112q81 0 129 34q56 39 56 117q0 41 -22 67.5t-62 26.5q-36 0 -58 -20.5t-22 -56.5q0 -15 10.5 -42.5
t10.5 -35.5q0 -37 -52 -37h-62q-53 0 -53 39q0 14 19.5 35t19.5 55v179l-10 -6q-47 0 -47 43q0 24 32 54l92 87q19 18 36 18q21 0 35.5 -14t14.5 -35q0 -16 -35 -65q-12 -16 -12 -95v-29q45 26 95 26q88 0 136 -60q45 -55 45 -145z" />
    <glyph glyph-name="Yacute" unicode="&#xdd;" horiz-adv-x="543" 
d="M530 188q0 -126 -55 -208q-63 -96 -183 -96q-96 0 -167 48q-80 55 -80 147t67 92q40 0 58 -28q9 -14 22 -62q11 -42 32 -65q26 -28 68 -28q61 0 94 67q26 52 28 121h-45q-27 0 -60 -32.5t-42 -32.5q-50 0 -50 39q0 11 43 126q16 42 49 42q48 0 48 -45h46q-8 62 -43 114
q-42 62 -97 62q-27 0 -58 -16q-37 -19 -37 -43q0 -3 2 -11.5t2 -12.5q0 -27 -17.5 -47.5t-43.5 -20.5q-52 0 -52 84q0 75 70 124q62 43 140 43q125 0 199 -123q62 -104 62 -238zM414 186z" />
    <glyph glyph-name="Thorn" unicode="&#xde;" horiz-adv-x="920" 
d="M912 216q0 -135 -54 -224q-65 -108 -191 -108q-122 0 -188 102q-58 87 -58 215h-60v-110q59 0 59 -44q0 -24 -32 -54l-97 -91q-19 -18 -36 -18q-21 0 -35.5 14t-14.5 35q0 15 13 35q12 15 23 31t11 92v302q0 60 -66 60q-44 0 -74 -24.5t-30 -67.5q0 -51 40 -51
q9 0 27.5 7t27.5 7q22 0 36 -16t14 -38q0 -41 -31 -62q-27 -19 -70 -19q-69 0 -110 49q-39 46 -39 116q0 84 51 137t135 53q22 0 71 -3q46 -3 70 -3l75 1q54 1 54 -42q0 -28 -28.5 -36t-36 -15.5t-7.5 -34.5v-109h67q17 107 73 172q64 75 166 75q125 0 191 -109
q54 -90 54 -224zM798 216q0 231 -131 231q-132 0 -132 -231q0 -230 132 -230q131 0 131 230z" />
    <glyph glyph-name="germandbls" unicode="&#xdf;" horiz-adv-x="520" 
d="M535 326q0 -55 -23 -100q-28 -56 -77 -56q-22 0 -36.5 15t-14.5 37q0 11 25 52.5t25 68.5q0 106 -149 106q-186 0 -186 -114q0 -45 35 -71q31 -23 78 -23q3 0 40 1v34q0 15 -9.5 42t-9.5 36q0 37 52 37h62q27 0 38 -6q15 -8 15 -33q0 -14 -22.5 -38.5t-22.5 -51.5v-192
q56 0 56 -44q0 -22 -32 -54l-82 -81q-17 -17 -42 -17q-19 0 -32 15t-13 34q0 17 13 34l23 30q9 16 9 82v84q0 8 -6 8q-4 0 -11 -10l-37 -55q-33 -49 -89 -157q-42 -80 -68 -105q-42 -40 -116 -40q-64 0 -119 26q-68 32 -68 90q0 63 57 63q4 0 82 -28q39 -14 69 -14
q56 0 86 59l57 113q8 16 30 58q-63 16 -98.5 59.5t-35.5 107.5q0 107 91 168q79 53 192 53q115 0 185 -53q79 -59 79 -170z" />
    <glyph glyph-name="agrave" unicode="&#xe0;" horiz-adv-x="417" 
d="M397 41q0 -41 -43 -41h-52q-47 0 -47 63v102h-19q-111 0 -111 -52q0 -12 12 -20.5t25 -8.5q7 0 19 7t19 7q31 0 31 -45q0 -65 -90 -65q-50 0 -83 33.5t-33 83.5q0 72 72 105q54 25 135 25h23v15q0 43 -43 43q-16 0 -55 -24t-57 -24q-47 0 -47 43q0 45 61 68q45 17 99 17
q141 0 141 -113v-131q0 -16 2 -24q2 -11 21.5 -27.5t19.5 -36.5z" />
    <glyph glyph-name="aacute" unicode="&#xe1;" horiz-adv-x="376" 
d="M391 535q0 -24 -16.5 -39.5t-41.5 -15.5t-64.5 36.5t-82.5 36.5q-64 0 -64 -49q0 -50 83 -72q70 -18 112 -99q35 -67 35 -125v-27q0 -81 -41 -134q-45 -59 -123 -59q-79 0 -124 59q-41 53 -41 134q0 79 40 133q45 59 121 59l-78 38q-10 4 -34 17q-49 33 -49 77
q0 119 181 119q68 0 115 -15q72 -22 72 -74zM253 183q0 97 -66 97q-65 0 -65 -97t65 -97q66 0 66 97z" />
    <glyph glyph-name="acircumflex" unicode="&#xe2;" horiz-adv-x="432" 
d="M411 102q0 -120 -130 -120q-107 0 -107 65q0 19 12.5 35.5t30.5 16.5q21 0 37 -25l1 1q9 -3 26 -3q24 0 30 3q10 6 10 27q0 68 -51 68q10 0 -47 -6l-6 90q-2 -1 -6 -1q16 13 16 27q0 28 -52 28q-20 0 -27 -3q-17 -8 -13 -35q6 -42 6 -166q0 -59 -11 -77q-17 -27 -77 -27
q-44 0 -44 45t30 46q14 55 14 61v13q0 21 -7 63t-7 63q0 55 44 83q37 24 95 24q55 0 95 -31q44 -34 44 -87q0 -40 -30 -78t-69 -38q-20 0 -33.5 12.5t-13.5 32.5q0 51 99 51q65 0 103 -45.5t38 -112.5z" />
    <glyph glyph-name="atilde" unicode="&#xe3;" horiz-adv-x="361" 
d="M336 119q0 -11 -5 -24l-29 -78q-13 -34 -44 -34t-43 32q-32 -22 -74 -22q-52 0 -86 30.5t-34 81.5q0 82 106 116q24 7 80 25q14 7 14 24q0 28 -31 28q-24 0 -72.5 -32.5t-52.5 -32.5q-13 0 -24.5 8.5t-11.5 20.5q0 10 5 22l23 57q15 38 46 38q26 0 41 -29q29 20 65 20
q46 0 77.5 -28t31.5 -73q0 -57 -54 -87q-19 -11 -102 -37q-38 -12 -38 -40q0 -30 39 -30q31 0 71 39t60 39q42 0 42 -34z" />
    <glyph glyph-name="adieresis" unicode="&#xe4;" horiz-adv-x="405" 
d="M382 338q0 -15 -5 -44.5t-5 -44.5v-240q0 -83 -47.5 -133t-129.5 -50q-48 0 -90 21q-52 25 -52 69q0 19 11 34t30 15q4 0 42 -22.5t59 -22.5q26 0 52.5 19t26.5 44v185q0 50 -10 72q-15 34 -58 34q-39 0 -60 -25t-21 -65q0 -32 14 -56q17 -30 46 -30q10 0 34 2
q13 1 21 -11.5t8 -26.5q0 -34 -25 -53.5t-60 -19.5q-66 0 -105 61q-34 53 -34 123q0 81 40 137q44 63 122 63q31 0 50 -10q11 -6 42 -33q16 28 23 35q15 17 36 17q45 0 45 -44z" />
    <glyph glyph-name="aring" unicode="&#xe5;" horiz-adv-x="389" 
d="M362 222q0 -43 -22 -58q-17 -13 -62 -13h-152q13 -69 80 -69q21 0 56.5 22.5t44.5 22.5q41 0 41 -49q0 -42 -53 -69q-42 -21 -89 -21q-83 0 -132.5 52.5t-49.5 135.5q0 86 46.5 141.5t130.5 55.5q68 0 114.5 -42t46.5 -109zM261 248q0 41 -60 41q-30 0 -51 -18.5
t-25 -48.5h85q51 0 51 26z" />
    <glyph glyph-name="ae" unicode="&#xe6;" horiz-adv-x="608" 
d="M595 34q0 -34 -32 -34h-89q-47 0 -47 34q0 11 9.5 28t9.5 21q0 21 -33 68.5t-52 47.5q-8 0 -8 -9v-15q1 -14 1 -22v-38q0 -16 23.5 -38t23.5 -37q0 -40 -40 -40h-107q-54 0 -54 37q0 18 16 30q15 9 31 18q12 7 12 86q0 18 -1 20q-2 8 -15 8q-18 0 -50.5 -48t-32.5 -68
q0 -2 9.5 -19.5t9.5 -29.5q0 -34 -47 -34h-89q-32 0 -32 34q0 26 17 38q13 10 29 22q1 2 9 20q36 82 92 131q-33 21 -57 25q-44 7 -51 10q-24 10 -24 41q0 52 60 52q63 0 133 -77q25 -27 27 -27q13 0 13 17v66q0 11 -27 19t-27 15q0 20 20 36l57 45q19 15 38 15q34 0 34 -47
v-79l-1 -78q0 -9 7 -9q5 0 15 13q72 91 145 91q60 0 60 -52q0 -31 -36 -44q-5 -2 -63 -13q-10 -4 -33 -19q59 -51 92 -131q4 -10 7 -16t29 -25q19 -14 19 -39z" />
    <glyph glyph-name="ccedilla" unicode="&#xe7;" horiz-adv-x="373" 
d="M354 113q0 -60 -48 -94q-43 -31 -105 -31q-65 0 -122 31q-69 36 -69 95q0 33 15 56q17 27 48 27q17 0 30.5 -9.5t13.5 -25.5q0 -7 -8.5 -24.5t-8.5 -26.5q0 -24 41 -40q33 -12 62 -12q27 0 46.5 15t19.5 41q0 35 -30 50q-27 8 -54 17q-33 14 -33 37q0 20 36 45
q44 30 48 36q-7 5 -11 5l-36 -1q-23 -1 -70.5 -20.5t-56.5 -19.5q-30 0 -30 27q0 4 5 16l24 57q7 17 30 17q57 0 64 -15h114q66 0 66 -53q0 -24 -31 -47q-37 -27 -41 -35q3 -2 19 -10q72 -37 72 -108z" />
    <glyph glyph-name="egrave" unicode="&#xe8;" 
d="M400 37q0 -37 -37 -37h-62q-25 0 -30 21t-7 21q-46 -54 -105 -54q-97 0 -97 117v138q-27 0 -37 4q-17 7 -17 30q0 20 20 36l58 45q19 15 38 15q33 0 33 -47v-163q0 -65 48 -65q57 0 57 100v45q-52 0 -52 34q0 20 20 36l57 45q19 15 38 15q34 0 34 -47v-216
q0 -13 20.5 -33.5t20.5 -39.5z" />
    <glyph glyph-name="eacute" unicode="&#xe9;" 
d="M339 534q0 -18 -18 -31l-131 -93q-8 -6 -14 -6q-19 0 -19 22q0 4 113 137q11 13 27 13q15 0 28.5 -13.5t13.5 -28.5zM400 37q0 -37 -37 -37h-62q-25 0 -30 21t-7 21q-46 -54 -105 -54q-97 0 -97 117v138q-27 0 -37 4q-17 7 -17 30q0 20 20 36l58 45q19 15 38 15
q33 0 33 -47v-163q0 -65 48 -65q57 0 57 100v45q-52 0 -52 34q0 20 20 36l57 45q19 15 38 15q34 0 34 -47v-216q0 -13 20.5 -33.5t20.5 -39.5z" />
    <glyph glyph-name="ecircumflex" unicode="&#xea;" 
d="M408 34q0 -34 -32 -34h-89q-47 0 -47 34q0 11 9.5 28t9.5 21q0 21 -33 68.5t-52 47.5q-8 0 -8 -9v-15q1 -14 1 -22v-38q0 -16 23.5 -38t23.5 -37q0 -40 -40 -40h-107q-54 0 -54 37q0 18 16 30q15 9 31 18q12 7 12 45v160q-27 0 -37 4q-17 7 -17 30q0 20 20 36l57 45
q19 15 38 15q34 0 34 -47v-48q0 -10 -1 -27v-20q0 -9 7 -9q5 0 15 13q72 91 145 91q60 0 60 -52q0 -31 -36 -44q-5 -2 -63 -13q-10 -4 -33 -19q59 -51 92 -131q4 -10 7 -16t29 -25q19 -14 19 -39z" />
    <glyph glyph-name="edieresis" unicode="&#xeb;" horiz-adv-x="398" 
d="M400 38q0 -37 -46 -37h-102q-44 0 -44 37q0 15 19 32.5t19 23.5q0 12 -4 25l-39 124q-3 11 -7 11q-5 0 -8 -11q-44 -141 -44 -149q0 -6 19 -23t19 -33q0 -37 -43 -37h-102q-47 0 -47 37q0 16 25 46q30 33 34 45l81 220q8 22 27 22h76q20 0 28 -22l80 -220q6 -15 34 -47
q25 -28 25 -44z" />
    <glyph glyph-name="igrave" unicode="&#xec;" horiz-adv-x="583" 
d="M586 38q0 -38 -45 -38h-98q-41 0 -41 40q0 17 17 37.5t17 24.5q0 12 -6 31l-32 100q-3 10 -8 10q-4 0 -7 -10l-32 -108q-5 -17 -5 -23q0 -8 18 -28t18 -35q0 -39 -42 -39h-100q-41 0 -41 39q0 15 18 34.5t18 28.5q0 6 -5 23l-32 108q-3 10 -8 10q-4 0 -7 -10l-32 -100
q-6 -19 -6 -28q0 -6 16.5 -27.5t16.5 -37.5q0 -40 -40 -40h-98q-45 0 -45 38q0 16 25 45q28 33 32 45l76 220q8 22 28 22h62q22 0 29 -22l37 -121q3 -11 7 -11t7 11l37 121q7 22 29 22h62q19 0 27 -22l76 -220q4 -12 32 -45q25 -29 25 -45z" />
    <glyph glyph-name="iacute" unicode="&#xed;" horiz-adv-x="450" 
d="M427 103q0 -21 -30 -49l-65 -60q-16 -15 -32 -15q-17 0 -29.5 13.5t-12.5 30.5q0 3 15 34.5t15 54.5v54q-15 -11 -39 -11q-7 0 -19.5 1t-19.5 1q-22 0 -36 -10v-17q0 -19 2 -29t27 -26t25 -38q0 -37 -50 -37h-108q-50 0 -50 38q0 18 14 30l29 18q11 7 11 44v113
q-49 0 -49 34q0 20 20 36l57 45q19 15 38 15q34 0 34 -41v-139q13 11 37 11q8 0 24 -1.5t24 -1.5q20 0 29 11v31q-49 0 -49 34q0 20 20 36l57 45q19 15 38 15q32 0 32 -24q0 -4 -1.5 -11t-1.5 -10v-186q44 0 44 -39z" />
    <glyph glyph-name="icircumflex" unicode="&#xee;" horiz-adv-x="376" 
d="M352 181q0 -81 -41 -134q-45 -59 -123 -59t-123 59q-41 53 -41 134q0 80 41 133q45 59 123 59t123 -59q41 -53 41 -133zM253 183q0 97 -66 97q-64 0 -64 -97t64 -97q66 0 66 97z" />
    <glyph glyph-name="idieresis" unicode="&#xef;" 
d="M414 103q0 -21 -30 -49l-65 -60q-16 -15 -32 -15q-17 0 -29.5 13.5t-12.5 30.5q0 3 15 35.5t15 55.5v84q0 33 -7 46q-10 19 -40 19q-62 0 -62 -118q0 -41 6 -51q4 -5 37 -27q13 -9 13 -27q0 -40 -45 -40h-110q-54 0 -54 37q0 18 16 30q15 9 31 18q12 7 12 45v113
q-27 0 -37 4q-17 7 -17 30q0 20 20 36l57 45q19 15 38 15q22 0 29 -14q1 -3 4 -24q1 -16 7 -16q44 54 100 54q97 0 97 -117v-114q44 0 44 -39z" />
    <glyph glyph-name="eth" unicode="&#xf0;" horiz-adv-x="432" 
d="M407 182q0 -72 -29 -126q-36 -67 -103 -67q-37 0 -62 19q-28 21 -28 56t29 35q5 0 15 -1h15q62 0 62 84q0 92 -68 92q-81 0 -81 -140v-125q42 0 42 -39q0 -22 -30 -49l-66 -60q-16 -15 -32 -15q-17 0 -29 13.5t-12 30.5q0 3 15 35.5t15 55.5v262q-27 0 -37 4
q-17 7 -17 30q0 20 20 36l58 45q19 15 38 15q35 0 33 -34q0 -2 -1 -5v-5q0 -10 8 -10q47 55 99 55q73 0 112 -62q34 -53 34 -130z" />
    <glyph glyph-name="ntilde" unicode="&#xf1;" horiz-adv-x="353" 
d="M338 78q0 -42 -47 -68q-39 -22 -85 -22q-85 0 -133.5 53.5t-48.5 139.5q0 78 46 133q48 59 125 59q49 0 89 -22q49 -26 49 -71q0 -20 -12.5 -34.5t-32.5 -14.5q-14 0 -49 21t-49 21q-65 0 -65 -82q0 -39 15 -68q18 -36 54 -36q13 0 48 19.5t50 19.5q46 0 46 -48z" />
    <glyph glyph-name="ograve" unicode="&#xf2;" horiz-adv-x="611" 
d="M602 103q0 -22 -30 -49l-66 -60q-16 -15 -32 -15q-17 0 -29.5 13.5t-12.5 30.5q0 5 15.5 36t15.5 55v84q0 65 -43 65q-62 0 -62 -121q0 -41 23 -62.5t23 -39.5q0 -40 -38 -40h-103q-39 0 -39 37q0 20 21 39t21 54v68q0 65 -43 65q-61 0 -61 -118q0 -41 19 -65.5t19 -39.5
q0 -40 -33 -40h-103q-42 0 -42 37q0 20 10 30q10 6 27 19q10 7 10 44v113q-27 0 -37 4q-17 7 -17 30q0 20 20 36l58 45q19 15 38 15q22 0 29 -14q1 -3 4 -24q1 -16 7 -16q46 54 101 54q34 0 55 -14q6 -4 41 -39q35 53 97 53q93 0 93 -117v-114q44 0 44 -39z" />
    <glyph glyph-name="oacute" unicode="&#xf3;" horiz-adv-x="444" 
d="M428 324q0 -16 -26 -44q-29 -32 -34 -47l-81 -232q-26 -74 -57 -108q-42 -47 -109 -47q-48 0 -82 23q-39 26 -39 72q0 61 56 61q32 0 54 -34t30 -34q27 0 51 79l-111 230q-14 28 -40 50q-19 16 -19 34q0 34 46 34h109q43 0 43 -37q0 -15 -19 -34.5t-19 -24.5q0 -11 5 -22
l40 -88q5 -12 9 -12q3 0 8 12l35 88q5 13 5 22q0 8 -19 26.5t-19 32.5q0 37 43 37h94q46 0 46 -37z" />
    <glyph glyph-name="ocircumflex" unicode="&#xf4;" horiz-adv-x="636" 
d="M618 183q0 -72 -29 -126q-36 -67 -103 -67q-37 0 -62 19q-28 21 -28 56t29 35q5 0 15 -1h15q62 0 62 84q0 92 -68 92q-81 0 -81 -140v-125q42 0 42 -39q0 -22 -30 -49l-66 -60q-16 -15 -32 -15q-17 0 -29 13.5t-12 30.5q0 4 14 33.5t16 48.5v51q0 2 1 5v5q0 11 -8 10
q-47 -55 -99 -55q-73 0 -112 62q-34 53 -34 130q0 73 29 127q36 66 103 66q37 0 62 -18q28 -21 28 -57q0 -35 -29 -35q-5 0 -15 1h-15q-62 0 -62 -84q0 -92 68 -92q82 0 82 111v182q-27 0 -37 4q-17 7 -17 30q0 20 20 36l58 45q19 15 38 15q24 0 36 -25v-157q0 -10 5 -10
q47 55 99 55q73 0 112 -62q34 -53 34 -130z" />
    <glyph glyph-name="otilde" unicode="&#xf5;" 
d="M413 36q0 -36 -49 -36h-101q-44 0 -44 36q0 17 11 33t11 19q0 9 -14 30t-22 21q-6 0 -19.5 -20.5t-13.5 -28.5q0 -2 11 -22t11 -34q0 -34 -34 -34h-97q-49 0 -49 39q0 24 27 41q36 23 41 30l57 79l-52 66q-4 5 -41 30q-26 18 -26 39q0 37 48 37h97q34 0 34 -31
q0 -10 -9 -23t-9 -18q0 -7 13 -25.5t19 -18.5q4 0 9 6q23 30 23 41l-11 13.5t-11 26.5q0 29 33 29h94q46 0 46 -32q0 -18 -26 -36q-32 -23 -38 -30l-52 -68l65 -82q7 -9 45 -35q23 -16 23 -42z" />
    <glyph glyph-name="odieresis" unicode="&#xf6;" 
d="M410 1q0 -32 -31 -82q-34 -53 -63 -53q-21 0 -21 20q0 6 15.5 27.5t15.5 32.5q0 48 -37 55q-15 3 -18 22t-7 19q-46 -54 -105 -54q-97 0 -97 117v138q-27 0 -37 4q-17 7 -17 30q0 20 20 36l58 45q19 15 38 15q33 0 33 -47v-163q0 -65 48 -65q43 0 54 57q3 16 3 88
q-52 0 -52 34q0 20 20 36l57 45q19 15 38 15q34 0 34 -47v-216q0 -19 20 -33q31 -22 31 -76z" />
    <glyph glyph-name="divide" unicode="&#xf7;" 
d="M400 37q0 -37 -37 -37h-62q-30 0 -30 31v11q1 10 1 16v28q0 36 -8 36q-46 -54 -105 -54q-69 0 -88 58q-9 27 -9 117q-27 0 -37 4q-17 7 -17 30q0 20 20 36l58 45q19 15 38 15q33 0 33 -47l1 -98q0 -32 8 -46q11 -19 40 -19q56 0 56 80q-52 0 -52 34q0 20 20 36l57 45
q19 15 38 15q34 0 34 -47v-216q0 -13 20.5 -33.5t20.5 -39.5z" />
    <glyph glyph-name="oslash" unicode="&#xf8;" horiz-adv-x="624" 
d="M605 37q0 -37 -37 -37h-62q-25 0 -30 21t-7 21q-46 -54 -105 -54q-51 0 -75 29q-12 25 -21 25q-46 -54 -105 -54q-97 0 -97 117v138q-27 0 -37 4q-17 7 -17 30q0 20 20 36l58 45q19 15 38 15q33 0 33 -47v-163q0 -65 48 -65q58 0 58 92v53q-27 0 -37 4q-17 7 -17 30
q0 20 20 36l58 45q19 15 38 15q33 0 33 -47v-163q0 -65 48 -65q57 0 57 100v45q-52 0 -52 34q0 20 20 36l57 45q19 15 38 15q34 0 34 -47v-216q0 -13 20.5 -33.5t20.5 -39.5z" />
    <glyph glyph-name="ugrave" unicode="&#xf9;" horiz-adv-x="624" 
d="M615 3q0 -32 -31 -82q-34 -53 -63 -53q-21 0 -21 20q0 6 15.5 27.5t15.5 32.5q0 47 -35 53q-17 3 -20 22t-7 19q-46 -54 -105 -54q-51 0 -75 29q-12 25 -21 25q-46 -54 -105 -54q-97 0 -97 117v138q-27 0 -37 4q-17 7 -17 30q0 20 20 36l58 45q19 15 38 15q33 0 33 -47
v-163q0 -65 48 -65q58 0 58 92v53q-27 0 -37 4q-17 7 -17 30q0 20 20 36l58 45q19 15 38 15q33 0 33 -47v-163q0 -65 48 -65q43 0 54 57q3 16 3 88q-52 0 -52 34q0 20 20 36l57 45q19 15 38 15q34 0 34 -47v-216q0 -15 9 -24q42 -18 42 -83z" />
    <glyph glyph-name="uacute" unicode="&#xfa;" horiz-adv-x="518" 
d="M504 51q0 -144 -157 -144q-37 0 -62 19.5t-25 55.5q0 38 30 38h49q36 0 47 7q18 9 18 42q0 45 -83 45q-42 0 -57 -22q-6 -9 -9.5 -36t-10.5 -38q-12 -18 -40 -18h-38q-55 0 -55 41q0 21 19 36t21 26.5t2 25.5v153q0 16 -9 16q-1 0 -9 -2q-23 -4 -36 -16q-43 -38 -57 -38
q-38 0 -38 33q0 8 28 78q15 38 44 38q19 0 37 -18h116q24 0 24 -28v-127q0 -26 5 -26q0 11 68 11q73 0 123 -39q55 -42 55 -113z" />
    <glyph glyph-name="ucircumflex" unicode="&#xfb;" horiz-adv-x="668" 
d="M649 37q0 -37 -50 -37h-108q-50 0 -50 38q0 18 14 30l29 18q11 7 11 44v108q-49 0 -49 34q0 22 20 37l57 44q19 15 38 15q34 0 34 -47v-191q0 -19 2 -29t27 -26t25 -38zM423 51q0 -144 -157 -144q-37 0 -62 19.5t-25 55.5q0 38 30 38h49q36 0 47 7q18 9 18 42
q0 45 -83 45q-42 0 -57 -22q-6 -9 -9.5 -36t-10.5 -38q-12 -18 -40 -18h-51q-42 0 -42 41q0 21 19 36t21 29.5t2 31.5v127q-53 0 -53 34q0 20 20 36l57 45q19 15 41 15q35 0 35 -38v-134q0 -31 5 -31q0 11 68 11q73 0 123 -39q55 -42 55 -113z" />
    <glyph glyph-name="udieresis" unicode="&#xfc;" horiz-adv-x="432" 
d="M423 51q0 -144 -157 -144q-37 0 -62 19.5t-25 55.5q0 38 30 38h49q36 0 47 7q18 9 18 42q0 45 -83 45q-42 0 -57 -22q-6 -9 -9.5 -36t-10.5 -38q-12 -18 -40 -18h-51q-42 0 -42 41q0 21 19 36.5t21 25t2 26.5v136q-53 0 -53 34q0 20 20 36l57 45q19 15 41 15q35 0 35 -38
v-134q0 -31 5 -31q0 11 68 11q73 0 123 -39q55 -42 55 -113z" />
    <glyph glyph-name="yacute" unicode="&#xfd;" horiz-adv-x="353" 
d="M338 181q0 -87 -48 -140t-134 -53q-46 0 -85 22q-47 26 -47 68q0 20 13 34t33 14q14 0 48.5 -19.5t49.5 -19.5q27 0 46 19t19 46q0 8 -23 9q-21 -1 -29 -1q-30 1 -30 21q0 25 22 33q12 5 44 5q16 0 16 8q0 46 -61 46q-16 0 -50 -21t-48 -21q-20 0 -32.5 14.5t-12.5 34.5
q0 46 48 72q40 21 90 21q77 0 125 -59q46 -55 46 -133z" />
    <glyph glyph-name="thorn" unicode="&#xfe;" horiz-adv-x="566" 
d="M561 181q0 -81 -41 -134q-45 -59 -123 -59q-71 0 -115 49q-41 46 -48 119q-3 -2 -9 -2q-5 0 -13.5 3t-13.5 3q-7 0 -12 -4v-26q0 -22 2 -29q2 -11 27 -26.5t25 -37.5q0 -37 -50 -37h-108q-50 0 -50 38q0 18 14 30q2 2 29 18q11 8 11 44v108q-49 0 -49 34q0 22 20 37
l57 44q19 15 38 15q34 0 34 -47v-112q5 3 10 3t14.5 -3.5t14.5 -3.5q4 0 9 3q7 71 49 116q45 49 114 49q78 0 123 -59q41 -53 41 -133zM462 183q0 97 -66 97q-64 0 -64 -97t64 -97q66 0 66 97z" />
    <glyph glyph-name="ydieresis" unicode="&#xff;" horiz-adv-x="449" 
d="M440 41q0 -41 -42 -41h-51q-42 0 -49 44q-1 15 -9 47q-12 27 -36 34q0 -71 -39.5 -109t-110.5 -38q-37 0 -62 19.5t-25 55.5q0 38 30 38h49q9 0 25.5 -2t25.5 -2q32 0 32 33q0 27 -20 46q-21 15 -43 31q-43 31 -43 59q0 117 152 117q83 0 119 -28q55 -43 55 -163
q0 -64 1 -75q1 -14 21 -29t20 -37zM298 223q0 71 -85 71q-40 0 -40 -38q0 -20 36 -38q7 -3 54 -22q18 -11 30 -18q3 0 4 13q1 20 1 32z" />
    <glyph glyph-name="OE" unicode="&#x152;" horiz-adv-x="807" 
d="M793 51l-5 -20l-43 -118q-11 -30 -42 -30q-27 0 -41 20h-201q-31 0 -66 -3l-106 -9q-128 0 -197 104q-60 90 -60 225q0 134 60 224q69 105 197 105q29 0 86.5 -6t86.5 -6h160q17 26 47 26q33 0 43 -28l38 -106q6 -17 6 -26q0 -39 -49 -39q-16 0 -31 20q-20 26 -33 36
q-26 20 -68 20h-77v-157h57q0 45 48 45q33 0 49 -42q43 -115 43 -126q0 -39 -50 -39q-9 0 -42 32.5t-60 32.5h-45v-186h87q46 0 69 17q9 6 49 51q23 26 46 26q44 0 44 -43zM391 96v244q0 112 -88 112q-84 0 -125 -79q-32 -61 -32 -153q0 -94 31 -153q40 -77 126 -77
q88 0 88 106z" />
    <glyph glyph-name="oe" unicode="&#x153;" horiz-adv-x="594" 
d="M566 222q0 -41 -18.5 -56t-61.5 -15h-147q12 -69 77 -69q22 0 55.5 22.5t41.5 22.5q40 0 40 -49q0 -44 -48 -69q-39 -21 -87 -21q-69 0 -122 42q-52 -42 -108 -42q-78 0 -123 59q-41 53 -41 134q0 80 41 133q45 59 123 59q54 0 104 -39q59 39 115 39q69 0 114 -41.5
t45 -109.5zM465 247q0 42 -53 42q-30 0 -51.5 -18.5t-25.5 -48.5h82q25 0 32 2q16 5 16 23zM249 183q0 97 -63 97t-63 -97t63 -97t63 97z" />
    <glyph glyph-name="Scaron" unicode="&#x160;" horiz-adv-x="530" 
d="M462 733q0 -6 -5 -13l-86 -127q-8 -12 -29 -12q-30 0 -38 12l-85 127q-5 7 -5 13q0 19 17 19q9 0 52.5 -44t54.5 -44q6 0 16 9l78 73q6 6 13 6q17 0 17 -19zM509 77q0 -109 -68.5 -170.5t-179.5 -61.5q-102 0 -172 54q-77 59 -77 158q0 71 41.5 115t112.5 44q89 0 89 -64
q0 -50 -59 -47q-2 0 -4 1h-4q-62 0 -62 -55q0 -47 44 -75q38 -25 87 -25q62 0 101 33t39 94q0 82 -81 119q-51 21 -152 63q-81 46 -81 138q0 65 43 108t108 43q40 0 73 -20q18 31 52 31q33 0 44 -30l38 -102q4 -11 4 -22q0 -38 -43 -38q-21 0 -62 41.5t-82 41.5
q-26 0 -44.5 -14.5t-18.5 -39.5q0 -37 42 -53q31 -11 109 -42q163 -69 163 -225z" />
    <glyph glyph-name="scaron" unicode="&#x161;" horiz-adv-x="361" 
d="M305 557q0 -6 -5 -13l-86 -127q-8 -12 -29 -12q-30 0 -38 12l-85 127q-5 7 -5 13q0 19 17 19q9 0 52.5 -44t54.5 -44q6 0 16 9l78 73q6 6 13 6q17 0 17 -19zM336 105q0 -51 -34 -81.5t-86 -30.5q-42 0 -74 22q-12 -32 -43 -32t-44 34l-29 78q-5 13 -5 24q0 34 42 34
q20 0 60 -39t71 -39q39 0 39 30q0 28 -37 40q-85 27 -103 37q-54 30 -54 87q0 45 31.5 73t77.5 28q36 0 65 -20q15 29 41 29q31 0 46 -38l23 -57q5 -12 5 -22q0 -12 -11.5 -20.5t-24.5 -8.5q-4 0 -52.5 32.5t-72.5 32.5q-31 0 -31 -28q0 -17 14 -24q43 -13 80 -25
q106 -35 106 -116z" />
    <glyph glyph-name="Ydieresis" unicode="&#x178;" horiz-adv-x="634" 
d="M529 666q0 -23 -17.5 -37.5t-40.5 -14.5q-24 0 -40.5 14.5t-16.5 37.5q0 22 17.5 37.5t39.5 15.5q25 0 41.5 -14.5t16.5 -38.5zM366 666q0 -23 -17.5 -37.5t-40.5 -14.5q-24 0 -40.5 14.5t-16.5 37.5q0 22 17.5 37.5t39.5 15.5q25 0 41.5 -14.5t16.5 -38.5zM642 496
q0 -24 -23 -40q-32 -22 -39 -31l-17 -29l-105 -181v-125q62 0 62 -44q0 -24 -32 -54l-97 -91q-19 -18 -36 -18q-21 0 -35.5 14t-14.5 35q0 15 13 35q12 15 23 31t11 88v111l-120 208q-15 26 -23 34q-14 14 -39 14q-31 0 -49 -23t-18 -55q0 -68 53 -68q7 0 29 12.5t34 12.5
q22 0 36 -17t14 -39q0 -43 -34 -67q-29 -21 -74 -21q-69 0 -115 47t-46 116q0 87 49.5 139.5t136.5 52.5q23 0 61 -2l40 -3l57 2q46 0 46 -44q0 -15 -24.5 -33t-24.5 -29q0 -8 8 -23l39 -71q5 -10 12 -10q6 0 12 10l41 72q6 11 6 20q0 12 -22.5 31.5t-22.5 36.5q0 37 35 37
h160q14 0 23.5 -13t9.5 -28z" />
    <glyph glyph-name="florin" unicode="&#x192;" horiz-adv-x="477" 
d="M500 433q0 -28 -16 -47t-43 -19q-30 0 -47 27q-21 46 -22 48q-17 28 -39 28q-55 0 -55 -142h71q49 0 49 -44q0 -43 -49 -43h-71l3 -170q0 -229 -162 -229q-60 0 -110 33q-56 38 -56 95q0 28 16 47t44 19q32 0 58 -51.5t49 -51.5q55 0 55 141q0 7 -3 167h-60q-49 0 -49 43
q0 44 49 44h60q0 233 163 233q60 0 109 -33q56 -38 56 -95z" />
    <glyph glyph-name="circumflex" unicode="&#x2c6;" horiz-adv-x="896" 
d="M858 471q0 -34 -18 -55.5t-51 -21.5q-31 0 -50.5 22.5t-19.5 54.5q0 33 19 55.5t51 22.5q30 0 49.5 -23.5t19.5 -54.5zM894 37q0 -37 -50 -37h-108q-50 0 -50 38q0 18 14 30q2 2 29 18q11 8 11 41v111q-49 0 -49 34q0 22 20 37l57 44q19 15 38 15q34 0 34 -47v-191
q0 -21 2 -29q2 -11 27 -26.5t25 -37.5zM660 316q0 -151 -84.5 -233.5t-235.5 -82.5h-135q-55 0 -55 47q0 26 17 34l35 16q18 8 18 52v210q0 34 -19.5 56.5t-19.5 33.5q0 39 53 39h62q52 0 52 -37q0 -9 -10.5 -35t-10.5 -40v-279h36q88 0 137 62q46 57 46 147q0 109 -65 172
t-175 63q-165 0 -165 -112q0 -28 28 -72.5t28 -56.5q0 -24 -17 -39t-41 -15q-51 0 -82 60q-26 49 -26 105q0 116 85 179q75 56 195 56q149 0 247 -90q102 -92 102 -240z" />
    <glyph glyph-name="macron" unicode="&#x2c9;" horiz-adv-x="500" 
d="M369 490q0 -32 -37 -32h-164q-37 0 -37 33q0 32 37 32h164q37 0 37 -33z" />
    <glyph glyph-name="tilde" unicode="&#x2dc;" horiz-adv-x="500" 
d="M381 514q0 -28 -25.5 -52t-53.5 -24q-23 0 -70.5 20t-51.5 20q-14 0 -27.5 -16.5t-17.5 -16.5q-17 0 -17 22q0 28 25.5 52t53.5 24q24 0 69 -20t53 -20q15 0 28.5 16.5t15.5 16.5q18 0 18 -22z" />
    <glyph glyph-name="Ohm" unicode="&#x3a9;" horiz-adv-x="1014" 
d="M930 704h-116v60h116v-60zM966 0h-68v499l-52 -83v-416h-68v655h68v-178l120 194v-671zM726 0h-120q-68 0 -68 60v183q0 61 35 98l85 91v190h-52v-155h-68v128q0 60 68 60h52q68 0 68 -60v-595zM658 33v351l-52 -60v-291h52zM480 0h-67v499l-53 -83v-416h-67v655h67v-178
l120 194v-671zM253 0h-253v33h33v671q0 60 67 60h53q67 0 67 -60v-671h33v-33zM153 33v698h-53v-698h53z" />
    <glyph glyph-name="Ohm" unicode="&#x2126;" horiz-adv-x="1014" 
d="M930 704h-116v60h116v-60zM966 0h-68v499l-52 -83v-416h-68v655h68v-178l120 194v-671zM726 0h-120q-68 0 -68 60v183q0 61 35 98l85 91v190h-52v-155h-68v128q0 60 68 60h52q68 0 68 -60v-595zM658 33v351l-52 -60v-291h52zM480 0h-67v499l-53 -83v-416h-67v655h67v-178
l120 194v-671zM253 0h-253v33h33v671q0 60 67 60h53q67 0 67 -60v-671h33v-33zM153 33v698h-53v-698h53z" />
    <glyph glyph-name="beta" unicode="&#x3b2;" horiz-adv-x="432" 
d="M411 102q0 -120 -130 -120q-107 0 -107 65q0 19 12.5 35.5t30.5 16.5q21 0 37 -25l1 1q9 -3 26 -3q24 0 30 3q10 6 10 27q0 68 -51 68q10 0 -47 -6l-6 90q-2 -1 -6 -1q16 13 16 27q0 28 -52 28q-20 0 -27 -3q-17 -8 -13 -35q6 -42 6 -166q0 -59 -11 -77q-17 -27 -77 -27
q-44 0 -44 45t30 46q14 55 14 61v13q0 21 -7 63t-7 63q0 55 44 83q37 24 95 24q55 0 95 -31q44 -34 44 -87q0 -40 -30 -78t-69 -38q-20 0 -33.5 12.5t-13.5 32.5q0 51 99 51q65 0 103 -45.5t38 -112.5z" />
    <glyph glyph-name="mu" unicode="&#x3bc;" horiz-adv-x="578" 
d="M545 149q0 -15 -7 -40q-34 -121 -128 -121q-86 0 -86 103q-42 -103 -130 -103q-99 0 -110 110l-28 -177q-3 -24 -13 -84q-11 -42 -48 -42q-48 0 -48 49q0 24 17 82q22 70 69 256l53 250h101l-49 -228q-10 -47 -10 -68q0 -67 68 -67q82 0 105 108l54 255h102l-55 -260
q-9 -43 -9 -61q0 -44 42 -44q29 0 50 25q9 11 26 47q12 25 23 25t11 -15z" />
    <glyph glyph-name="afii10023" unicode="&#x401;" horiz-adv-x="694" 
d="M546 666q0 -23 -17.5 -37.5t-40.5 -14.5q-24 0 -40.5 14.5t-16.5 37.5q0 22 17.5 37.5t39.5 15.5q25 0 41.5 -14.5t16.5 -38.5zM383 666q0 -23 -17.5 -37.5t-40.5 -14.5q-24 0 -40.5 14.5t-16.5 37.5q0 22 17.5 37.5t39.5 15.5q25 0 41.5 -14.5t16.5 -38.5zM680 51
q0 -6 -48 -138q-11 -30 -42 -30q-27 0 -41 20h-286q-55 0 -55 47q0 24 15 34q3 2 36 14q19 7 19 54v335q0 60 -66 60q-43 0 -74 -25t-31 -67q0 -52 41 -52q10 0 27.5 7.5t27.5 7.5q22 0 35.5 -15.5t13.5 -38.5q0 -41 -31 -62q-27 -19 -70 -19q-67 0 -109 49q-39 46 -39 115
q0 67 35 117q38 55 101 67q32 6 92 6h278q17 26 47 26q33 0 43 -28l38 -106q6 -17 6 -26q0 -39 -49 -39q-16 0 -31 20q-22 28 -32 36q-26 20 -69 20h-77v-157h57q0 45 48 45q33 0 49 -42l37 -100q6 -16 6 -26q0 -39 -50 -39q-9 0 -42 32.5t-60 32.5h-45v-186h87q46 0 70 17
q9 7 48 51q23 26 46 26q44 0 44 -43z" />
    <glyph glyph-name="afii10017" unicode="&#x410;" horiz-adv-x="708" 
d="M695 46q0 -24 -32 -54l-97 -91q-19 -18 -36 -18q-21 0 -35.5 14t-14.5 35q0 11 26.5 50.5t26.5 66.5q0 18 -17 84h-154l-18 -68q-27 -102 -96 -161q-72 -62 -175 -62q-48 0 -79 19q-39 23 -39 68q0 57 65 57q13 0 37.5 -1.5t37.5 -1.5q113 0 162 166l64 216q9 30 9 41
q0 44 -57 44q-44 0 -76 -25t-32 -68q0 -38 32 -38q6 0 16.5 3t16.5 3q35 0 35 -45q0 -35 -25.5 -54t-61.5 -19q-63 0 -97 42q-32 39 -32 103q0 93 61 143q56 47 151 47q31 0 91.5 -6t91.5 -6q18 0 54.5 2t54.5 2q51 0 51 -45q0 -19 -27.5 -38.5t-27.5 -33.5l3 -24l90 -303
q53 0 53 -44zM490 231l-40 148q-4 13 -10 13t-10 -13l-40 -148h100z" />
    <glyph glyph-name="afii10018" unicode="&#x411;" horiz-adv-x="632" 
d="M612 60q0 -123 -96 -188q-83 -57 -212 -57q-124 0 -207 64q-92 70 -92 190q0 54 27 100q31 54 81 54q57 0 57 -56q0 -21 -24 -58.5t-24 -65.5q0 -67 61 -101q49 -28 121 -28q76 0 129 35q62 40 62 113q0 69 -49 106q-45 34 -116 34h-26v-37q61 0 61 -44q0 -23 -31 -54
l-83 -82q-16 -16 -39 -16q-21 0 -36 14.5t-15 35.5q0 6 18 44t18 64v283q0 28 -5 34.5t-33 14.5t-28 37q0 17 11.5 29t28.5 12h298q19 23 47 23q40 0 40 -23l41 -111q6 -16 6 -26q0 -39 -47 -39q-18 0 -35 21q-9 11 -26 33t-73 22h-118v-147q77 0 150 -27q82 -31 123 -85
q35 -47 35 -118z" />
    <glyph glyph-name="afii10019" unicode="&#x412;" horiz-adv-x="632" 
d="M614 60q0 -121 -95 -187q-83 -58 -209 -58q-125 0 -210 63q-95 70 -95 191q0 54 27 100q31 54 81 54q57 0 57 -56q0 -21 -24 -58.5t-24 -65.5q0 -65 60 -100q49 -29 119 -29q76 0 131 35q65 41 65 113q0 66 -45.5 103t-112.5 37q-4 0 -35 -1v-36q61 0 61 -44
q0 -23 -31 -54l-83 -82q-16 -16 -39 -16q-21 0 -36 14.5t-15 35.5q0 7 18 44.5t18 63.5v283q0 27 -5.5 34.5t-33 15.5t-27.5 36q0 17 11.5 29t28.5 12h192q83 0 133 -32q60 -38 60 -117q0 -92 -77 -137q135 -43 135 -191zM445 370q0 67 -81 67h-60v-134h60q81 0 81 67z" />
    <glyph glyph-name="afii10020" unicode="&#x413;" horiz-adv-x="624" 
d="M643 403q0 -39 -49 -39q-16 0 -31 20q-20 26 -33 36q-26 20 -68 20h-77v-348q60 0 60 -44q0 -25 -31 -54l-97 -91q-19 -18 -36 -18q-21 0 -35.5 14t-14.5 35q0 19 13 35q7 8 22 29q12 25 12 89v300q0 60 -66 60q-43 0 -74 -25t-31 -67q0 -52 41 -52q9 0 27 7.5t28 7.5
q22 0 35.5 -15.5t13.5 -38.5q0 -41 -31 -62q-27 -19 -70 -19q-67 0 -109 49q-39 46 -39 115q0 67 35 117q38 55 101 67q32 6 92 6h278q17 26 47 26q33 0 43 -28l38 -106q6 -17 6 -26z" />
    <glyph glyph-name="afii10021" unicode="&#x414;" horiz-adv-x="660" 
d="M633 219q0 -151 -84.5 -233.5t-235.5 -82.5h-135q-55 0 -55 47q0 22 16 33q6 4 36 15q18 7 18 54v210q0 35 -19.5 56.5t-19.5 33.5q0 39 53 39h62q52 0 52 -37q0 -9 -10.5 -35t-10.5 -40v-279h36q88 0 137 62q46 57 46 147q0 109 -65 172t-175 63q-165 0 -165 -112
q0 -28 28 -72.5t28 -56.5q0 -24 -17 -39t-41 -15q-51 0 -82 60q-26 49 -26 105q0 116 85 179q75 56 195 56q149 0 247 -90q102 -92 102 -240z" />
    <glyph glyph-name="afii10022" unicode="&#x415;" horiz-adv-x="694" 
d="M680 51q0 -6 -48 -138q-11 -30 -42 -30q-27 0 -41 20h-286q-55 0 -55 47q0 24 15 34q3 2 36 14q19 7 19 54v335q0 60 -66 60q-43 0 -74 -25t-31 -67q0 -52 41 -52q10 0 27.5 7.5t27.5 7.5q22 0 35.5 -15.5t13.5 -38.5q0 -41 -31 -62q-27 -19 -70 -19q-67 0 -109 49
q-39 46 -39 115q0 67 35 117q38 55 101 67q32 6 92 6h278q17 26 47 26q33 0 43 -28l38 -106q6 -17 6 -26q0 -39 -49 -39q-16 0 -31 20q-22 28 -32 36q-26 20 -69 20h-77v-157h57q0 45 48 45q33 0 49 -42l37 -100q6 -16 6 -26q0 -39 -50 -39q-9 0 -42 32.5t-60 32.5h-45v-186
h87q46 0 70 17q9 7 48 51q23 26 46 26q44 0 44 -43z" />
    <glyph glyph-name="afii10024" unicode="&#x416;" horiz-adv-x="753" 
d="M899 -85q0 -45 -39 -68q-31 -19 -79 -19q-199 0 -257 219q-6 22 -24 63l-28 63v-89q0 -35 1 -41q7 -21 14 -43q1 -5 1 -9q0 -20 -31 -47l-50 -43q-3 -3 -10 -3q-5 0 -15 2.5t-15 2.5q-18 0 -22 12q-2 6 -2 32t14 49q11 18 11 89v70q-16 -34 -41 -101q-58 -219 -257 -219
q-48 0 -79 19q-39 23 -39 68q0 57 65 57q13 0 37.5 -1.5t37.5 -1.5q63 0 106 54q27 33 56 112l25 67q-13 7 -16 16l9 20l-115 158q-4 6 -15 21q-9 12 -43 33q-26 16 -26 40q0 40 55 40h107q49 0 49 -37q0 -9 -11.5 -28t-11.5 -27q0 -15 13 -33q81 -110 86 -110q8 0 8 29v61
q0 5 1.5 15.5t1.5 15.5q0 24 -23 37.5t-23 40.5q0 28 26 34q8 2 48 2q4 0 13 -1h13q11 0 32.5 1t32.5 1q42 0 42 -42q0 -26 -27 -37q-30 -13 -31 -20q-2 -10 -2 -29v-79q0 -29 8 -29q5 0 86 110q13 18 13 33q0 9 -11.5 28t-11.5 27q0 37 49 37h107q55 0 55 -40
q0 -23 -23 -39l-41 -28q-1 -1 -20 -27l-115 -158q3 -6 3 -18q0 -7 -1 -17l27 -75q27 -76 56 -112q43 -54 106 -54q13 0 37.5 1.5t37.5 1.5q65 0 65 -57z" />
    <glyph glyph-name="afii10025" unicode="&#x417;" horiz-adv-x="472" 
d="M442 174q0 -83 -61 -136q-57 -50 -142 -50t-144 54q-62 55 -62 139q0 45 19 80q23 43 64 43q25 0 41.5 -14.5t16.5 -38.5q0 -9 -10.5 -35t-10.5 -40q0 -35 27 -59t62 -24q36 0 61.5 24t25.5 60q0 53 -40 74q-25 8 -74 25q-40 15 -40 55q0 26 24 45q47 38 86 76
q-6 7 -13 7l-48 -1q-32 -1 -73 -30t-51 -29q-39 0 -39 39q0 11 5 24l32 84q10 26 40 26t40 -22h150q88 0 88 -78q0 -29 -25 -57q-13 -15 -45 -39q-25 -19 -25 -28q3 -2 25 -14q96 -51 96 -160z" />
    <glyph glyph-name="afii10026" unicode="&#x418;" horiz-adv-x="713" 
d="M704 496q0 -32 -49 -44q-4 0 -13 -6q-4 -6 -4 -36v-320q61 0 61 -44q0 -24 -32 -54l-96 -89q-22 -20 -40 -20q-21 0 -34 14t-13 35q0 15 13 35q12 15 23 31t11 92l-139 -119l-74 -68q-22 -20 -40 -20q-21 0 -34 14t-13 35q0 15 13 35q12 15 23 31t11 53v341q0 60 -66 60
q-44 0 -74 -24.5t-30 -67.5q0 -51 40 -51q9 0 27.5 7t27.5 7q23 0 36.5 -15.5t13.5 -38.5q0 -81 -102 -81q-68 0 -109 49q-39 46 -39 116q0 84 51 137t135 53q26 0 76.5 -3t76.5 -3h59q49 0 49 -41q0 -28 -27 -37q-33 -11 -34 -14q-5 -6 -5 -35v-321l147 117v209
q0 37 -13 37q-27 11 -31 14q-12 9 -12 30q0 15 9.5 28t23.5 13h157q16 0 27.5 -12.5t11.5 -28.5z" />
    <glyph glyph-name="afii10027" unicode="&#x419;" horiz-adv-x="713" 
d="M588 698q0 -48 -37.5 -79t-86.5 -31q-48 0 -85 31q-40 32 -40 79q0 27 20 27q11 0 24 -14q14 -17 20 -19q29 -12 78 -12q26 0 46 7q10 4 20 21t21 17q20 0 20 -27zM704 496q0 -32 -49 -44q-4 0 -13 -6q-4 -6 -4 -36v-320q61 0 61 -44q0 -24 -32 -54l-96 -89
q-22 -20 -40 -20q-21 0 -34 14t-13 35q0 15 13 35q12 15 23 31t11 92l-139 -119l-74 -68q-22 -20 -40 -20q-21 0 -34 14t-13 35q0 15 13 35q12 15 23 31t11 53v341q0 60 -66 60q-44 0 -74 -24.5t-30 -67.5q0 -51 40 -51q9 0 27.5 7t27.5 7q23 0 36.5 -15.5t13.5 -38.5
q0 -81 -102 -81q-68 0 -109 49q-39 46 -39 116q0 84 51 137t135 53q26 0 76.5 -3t76.5 -3h59q49 0 49 -41q0 -28 -27 -37q-33 -11 -34 -14q-5 -6 -5 -35v-321l147 117v209q0 37 -13 37q-27 11 -31 14q-12 9 -12 30q0 15 9.5 28t23.5 13h157q16 0 27.5 -12.5t11.5 -28.5z" />
    <glyph glyph-name="afii10028" unicode="&#x41a;" horiz-adv-x="665" 
d="M977 -90q0 -58 -68 -90q-55 -26 -119 -26q-96 0 -182 74q-99 85 -191 256q-15 29 -40 69q-8 0 -8 -9v-100q54 0 54 -43q0 -22 -32 -54l-87 -86q-18 -18 -36 -18q-21 0 -35.5 14t-14.5 35q0 15 13 35q12 15 23 31t11 87v307q0 60 -61 60q-42 0 -70 -25t-28 -67
q0 -51 38 -51q9 0 25.5 7t24.5 7q46 0 46 -54q0 -81 -95 -81q-67 0 -106 50q-36 46 -36 115q0 80 46 133q49 57 127 57q24 0 70.5 -3.5t70.5 -3.5q12 0 35 1t35 1q42 0 42 -42q0 -26 -27 -37q-30 -13 -31 -20q-2 -10 -2 -29v-79q0 -29 8 -29q5 0 86 110q13 18 13 33
q0 9 -11.5 28t-11.5 27q0 37 49 37h107q55 0 55 -40q0 -23 -23 -39l-41 -28q-1 -1 -20 -27l-115 -158q75 -136 122 -195q94 -119 183 -119q32 0 68 13l82 29q57 0 57 -63z" />
    <glyph glyph-name="afii10029" unicode="&#x41b;" horiz-adv-x="708" 
d="M695 46q0 -24 -32 -54l-97 -91q-19 -18 -36 -18q-21 0 -35.5 14t-14.5 35q0 11 26.5 50.5t26.5 66.5q0 21 -17 84l-66 246q-3 13 -10 13q-6 0 -10 -13l-86 -314q-28 -103 -96 -161q-72 -62 -175 -62q-48 0 -79 19q-39 23 -39 68q0 57 65 57q13 0 37.5 -1.5t37.5 -1.5
q113 0 162 166l64 216q9 30 9 41q0 44 -57 44q-44 0 -76 -25t-32 -68q0 -38 32 -38q6 0 16.5 3t16.5 3q35 0 35 -45q0 -35 -25.5 -54t-61.5 -19q-63 0 -97 42q-32 39 -32 103q0 93 61 143q56 47 151 47q31 0 91.5 -6t91.5 -6q18 0 54.5 2t54.5 2q51 0 51 -45
q0 -19 -27.5 -38.5t-27.5 -33.5l3 -24l90 -303q53 0 53 -44z" />
    <glyph glyph-name="afii10030" unicode="&#x41c;" horiz-adv-x="787" 
d="M777 496q0 -21 -14 -30q-3 -2 -32 -11q-20 -7 -20 -45v-320q61 0 61 -44q0 -25 -31 -54l-97 -91q-19 -18 -36 -18q-21 0 -35.5 14t-14.5 35q0 17 13 35q9 10 22 29q12 25 12 89v245q0 12 -10 12q-9 0 -13 -11l-32 -92q-15 -42 -56 -42q-40 0 -55 42l-33 92q-4 11 -14 11
q-9 0 -9 -12v-133q0 -86 -5 -118q-16 -104 -90.5 -170.5t-178.5 -66.5q-47 0 -78 19q-38 23 -38 67q0 58 70 58q11 0 31.5 -2t31.5 -2q80 0 119 69q32 55 32 141v200q0 60 -65 60q-43 0 -73 -24q-33 -26 -33 -68q0 -51 41 -51q9 0 27 7t27 7q22 0 36 -16t14 -38
q0 -81 -102 -81q-69 0 -110 49q-39 46 -39 116q0 82 50 136t132 54q20 0 59.5 -2.5t59.5 -2.5q14 0 42.5 1.5t42.5 1.5q24 0 33.5 -9.5t37.5 -93.5q25 -75 35 -75q8 0 16 23l38 103q10 27 17 35q12 13 36 13h140q38 0 38 -41z" />
    <glyph glyph-name="afii10031" unicode="&#x41d;" horiz-adv-x="713" 
d="M704 496q0 -22 -15 -31q-2 -1 -34 -11q-17 -5 -17 -44v-320q61 0 61 -44q0 -24 -32 -54l-96 -91q-19 -18 -37 -18q-21 0 -35.5 14t-14.5 35q0 15 13 35q12 15 23 31t11 87v121h-147v-45q0 -138 -68 -224q-74 -95 -208 -95q-48 0 -79 19q-39 23 -39 68q0 57 65 57
q13 0 37.5 -1.5t37.5 -1.5q148 0 148 243v166q0 60 -66 60q-44 0 -74 -24.5t-30 -67.5q0 -51 40 -51q9 0 27.5 7t27.5 7q22 0 36 -16t14 -38q0 -81 -102 -81q-68 0 -109 49q-39 46 -39 116q0 82 50 136t131 54q25 0 73.5 -3.5t73.5 -3.5h35q46 1 35 1q49 0 49 -41
q0 -28 -26 -36t-33 -16.5t-7 -33.5v-107h147v107q0 25 -4.5 33t-26.5 16q-25 9 -25 37q0 41 33 41h157q17 0 28 -12t11 -29z" />
    <glyph glyph-name="afii10032" unicode="&#x41e;" horiz-adv-x="531" 
d="M523 216q0 -135 -54 -224q-65 -108 -191 -108t-191 108q-55 90 -55 224t55 224q66 109 191 109t191 -109q54 -90 54 -224zM409 216q0 231 -131 231q-132 0 -132 -231q0 -230 132 -230q131 0 131 230z" />
    <glyph glyph-name="afii10033" unicode="&#x41f;" horiz-adv-x="713" 
d="M704 496q0 -22 -15 -31q-2 -1 -34 -11q-17 -5 -17 -44v-320q61 0 61 -44q0 -24 -32 -54l-96 -91q-19 -18 -37 -18q-21 0 -35.5 14t-14.5 35q0 15 13 35q12 15 23 31t11 87v311q0 19 -2 28q-9 28 -68 28q-77 0 -77 -57v-234q0 -138 -68 -224q-74 -95 -208 -95
q-48 0 -79 19q-39 23 -39 68q0 57 65 57q13 0 37.5 -1.5t37.5 -1.5q148 0 148 243v166q0 60 -66 60q-44 0 -74 -24.5t-30 -67.5q0 -51 40 -51q9 0 27.5 7t27.5 7q22 0 36 -16t14 -38q0 -81 -102 -81q-68 0 -109 49q-39 46 -39 116q0 82 50 136t131 54q25 0 73.5 -3.5
t73.5 -3.5h35q46 1 35 1h264q17 0 28 -12t11 -29z" />
    <glyph glyph-name="afii10034" unicode="&#x420;" horiz-adv-x="602" 
d="M572 304q0 -90 -45 -145q-48 -60 -136 -60q-50 0 -95 26v-40q57 0 57 -43q0 -24 -32 -54l-92 -87q-19 -18 -36 -18q-21 0 -35.5 14t-14.5 35q0 15 13 35q12 15 23 31t11 92v172q0 35 -19.5 56.5t-19.5 33.5q0 39 53 39h62q52 0 52 -37q0 -9 -10.5 -36t-10.5 -42
q0 -77 80 -77q39 0 61.5 27t22.5 67q0 78 -56 117q-48 34 -129 34q-165 0 -165 -112q0 -25 27.5 -70.5t27.5 -58.5q0 -24 -16 -39t-41 -15q-51 0 -82 60q-26 49 -26 105q0 115 84 178q75 57 194 57q123 0 203 -60q90 -66 90 -185z" />
    <glyph glyph-name="afii10035" unicode="&#x421;" horiz-adv-x="752" 
d="M731 90q0 -92 -63 -149t-156 -57q-120 0 -183 96q-55 82 -55 208q0 74 26 147q-69 46 -117 46q-67 0 -67 -64q0 -44 37 -44q8 0 24.5 5.5t25.5 5.5q45 0 45 -54q0 -40 -27.5 -62t-68.5 -22q-68 0 -107.5 48t-39.5 117q0 76 46.5 124.5t122.5 48.5t165 -55q73 120 196 120
q77 0 127 -45t50 -121q0 -70 -47.5 -110t-118.5 -40q-76 0 -144 50q-12 -44 -12 -97q0 -70 26 -126q33 -72 96 -72q85 0 93 96q5 58 8 67q11 31 51 31q34 0 52 -30q15 -25 15 -62zM603 391q0 25 -18.5 41.5t-43.5 16.5q-60 0 -102 -70q60 -39 105 -39q59 0 59 51z" />
    <glyph glyph-name="afii10036" unicode="&#x422;" horiz-adv-x="546" 
d="M557 520q0 -51 -32 -78.5t-84 -27.5q-24 0 -66 8v-332q61 0 61 -44q0 -24 -32 -54l-96 -91q-19 -18 -37 -18q-21 0 -35.5 14t-14.5 35q0 15 13 35q12 15 23 31t11 87v355q-39 10 -68 10q-41 0 -67.5 -24.5t-26.5 -65.5q0 -51 39 -51q9 0 26 7t26 7q21 0 34 -16t13 -38
q0 -40 -27.5 -60.5t-68.5 -20.5q-67 0 -108 50q-39 47 -39 115q0 90 54 140t145 50q31 0 92.5 -12t92.5 -12q43 0 70.5 33.5t48.5 33.5q53 0 53 -66z" />
    <glyph glyph-name="afii10037" unicode="&#x423;" horiz-adv-x="722" 
d="M714 496q0 -24 -33 -37.5t-33 -48.5q0 -209 -31 -328q-24 -93 -39 -125q-27 -58 -80 -102q-77 -64 -175 -64q-48 0 -79 19q-39 23 -39 68q0 57 65 57q13 0 37.5 -1.5t37.5 -1.5q120 0 171 158q-48 -8 -57 -8q-98 0 -151 70q-36 47 -37 129q0 39 -1 119q-8 52 -61 52
q-45 0 -73 -23q-31 -25 -31 -69q0 -51 39 -51q9 0 26.5 7t26.5 7q22 0 35 -16t13 -38q0 -40 -30 -62q-26 -19 -68 -19q-68 0 -107.5 48t-39.5 117q0 84 51 137t135 53q23 0 68 -3.5t68 -3.5h35q47 1 36 1q48 0 48 -41q0 -27 -30 -38t-31 -21q-3 -13 -3 -27v-88q0 -65 10 -91
q17 -43 72 -43q54 0 72 43q11 27 11 91v88q0 28 -4.5 34t-32 14.5t-27.5 37.5q0 41 38 41h160q38 0 38 -41z" />
    <glyph glyph-name="afii10038" unicode="&#x424;" horiz-adv-x="675" 
d="M670 291q0 -84 -51 -137t-135 -53q-15 0 -45 2.5t-45 2.5v-42q54 0 54 -44q0 -24 -32 -54l-97 -91q-19 -18 -36 -18q-21 0 -35.5 14t-14.5 35q0 15 13 35q12 15 23 31t11 87v241q0 60 -66 60q-44 0 -74 -24.5t-30 -67.5q0 -51 40 -51q9 0 27.5 7t27.5 7q22 0 36 -16
t14 -38q0 -41 -31 -62q-27 -19 -70 -19q-69 0 -110 49q-39 46 -39 116q0 84 51 137t135 53q15 0 44.5 -2t44.5 -2v14q-52 0 -52 33q0 22 21 37l62 45q19 14 41 14q42 0 42 -41v-297q0 -60 67 -60q44 0 74 24.5t30 67.5q0 51 -40 51q-9 0 -27.5 -7t-27.5 -7q-22 0 -36 16
t-14 38q0 41 31 62q27 19 70 19q69 0 109 -47.5t40 -117.5z" />
    <glyph glyph-name="afii10039" unicode="&#x425;" horiz-adv-x="644" 
d="M641 46q0 -24 -32 -54l-98 -91q-19 -18 -36 -18q-20 0 -34.5 15t-14.5 35q0 9 26 47t26 57q0 20 -10 36l-44 72q-6 10 -13 10q-6 0 -12 -10l-80 -138q-48 -84 -99 -121q-60 -44 -148 -44q-120 0 -120 87q0 57 64 57q13 0 38 -1.5t38 -1.5q90 0 151 103l96 163l-98 156
q-16 26 -25 34q-15 14 -38 14q-29 0 -48 -22t-19 -52q0 -25 13 -43q14 -21 38 -21q8 0 30.5 12t35.5 12q23 0 36 -17.5t13 -41.5q0 -41 -37 -64q-31 -19 -75 -19q-70 0 -116 46t-46 116q0 81 53.5 132.5t134.5 51.5q18 0 53 -3t53 -3h24q32 1 24 1q40 0 40 -42
q0 -14 -18.5 -35.5t-18.5 -26.5q0 -8 8 -20q42 -63 47 -63q7 0 42 61q9 16 9 24q0 6 -18.5 25t-18.5 35q0 15 9 28t24 13h150q14 0 23.5 -13t9.5 -28q0 -21 -18 -37q-1 -1 -35 -25q-8 -8 -26 -38l-81 -140l107 -166q61 0 61 -44z" />
    <glyph glyph-name="afii10040" unicode="&#x426;" horiz-adv-x="743" 
d="M868 -192q0 -83 -68 -125q-56 -35 -144 -35q-71 0 -143 22q-101 29 -101 84q0 38 40 38q69 -30 89 -37q53 -19 93 -19q94 0 94 76q0 37 -30 56q-25 16 -64 16h-21q-12 0 -28 13t-19 25l-8 28q-74 -66 -111 -66q-88 0 -138 68q-25 35 -33 80q-5 28 -5 86v274q0 60 -62 60
q-45 0 -73 -23q-31 -25 -31 -69q0 -51 39 -51q9 0 26.5 7t26.5 7q22 0 35 -16t13 -38q0 -40 -30 -62q-26 -19 -68 -19q-68 0 -107.5 48t-39.5 117q0 84 51 137t135 53q23 0 68 -3.5t68 -3.5h35q47 1 36 1q48 0 48 -41q0 -26 -28 -37q-31 -12 -33 -21q-3 -13 -3 -28v-286
q0 -65 10 -91q17 -43 72 -43q54 0 72 43q11 27 11 91v286q0 28 -4.5 34t-32 14.5t-27.5 37.5q0 41 38 41h160q38 0 38 -41q0 -24 -33 -37.5t-33 -48.5v-408q0 -21 16 -31q9 -4 34 -4q72 0 121 -44t49 -115z" />
    <glyph glyph-name="afii10041" unicode="&#x427;" horiz-adv-x="722" 
d="M714 496q0 -24 -33 -37t-33 -49v-327q62 -4 62 -45q0 -24 -32 -54l-97 -91q-19 -18 -36 -18q-21 0 -35.5 14t-14.5 35q0 16 12 35q12 15 23.5 30t11.5 107q-36 -14 -82 -14q-98 0 -151 70q-24 32 -32 78q-4 25 -5 86l-1 76q-1 60 -62 60q-45 0 -73 -23q-31 -25 -31 -69
q0 -51 39 -51q9 0 26.5 7t26.5 7q22 0 35 -16t13 -38q0 -40 -30 -62q-26 -19 -68 -19q-67 0 -108 50q-39 47 -39 115q0 84 51 137t135 53q23 0 68 -3.5t68 -3.5h35q47 1 36 1q48 0 48 -41q0 -27 -30 -38t-31 -21q-3 -13 -3 -27v-93q0 -63 11 -88q18 -41 71 -41q54 0 72 43
q11 27 11 91v88q0 28 -4 34t-30 14q-30 9 -30 38q0 41 38 41h160q38 0 38 -41z" />
    <glyph glyph-name="afii10042" unicode="&#x428;" horiz-adv-x="986" 
d="M966 498q0 -21 -15 -31q-5 -3 -34 -15q-20 0 -20 -40v-320q62 0 62 -44q0 -19 -32 -54l-76 -82q-8 -9 -67 -9h-522q-55 0 -55 47q0 26 32.5 40.5t35.5 24.5t3 37v340q0 60 -66 60q-44 0 -74 -24.5t-30 -67.5q0 -51 40 -51q9 0 27.5 7t27.5 7q23 0 36.5 -15.5t13.5 -38.5
q0 -81 -102 -81q-68 0 -109 49q-39 46 -39 116q0 84 51 137t135 53q26 0 76.5 -3t76.5 -3h59q49 0 49 -41q0 -28 -27 -37q-33 -11 -34 -14q-5 -6 -5 -35v-410q13 0 39 -2.5t39 -2.5q69 0 69 95v324v26q-3 11 -18 14q-20 3 -25 8q-13 9 -13 34q0 15 9.5 28t23.5 13h157
q16 0 27.5 -12.5t11.5 -28.5q0 -32 -49 -44q-4 0 -13 -6q-4 -6 -4 -36v-410q6 1 23 1q9 0 28 -1t28 -1q45 0 61 26q13 20 13 67v323q0 37 -11 37q-25 10 -31 15q-12 10 -12 31q0 14 9.5 26.5t23.5 12.5h157q15 0 27 -12t12 -27z" />
    <glyph glyph-name="afii10043" unicode="&#x429;" horiz-adv-x="1056" 
d="M1119 -238q0 -86 -71 -127q-57 -33 -150 -33q-68 0 -139 22q-96 30 -96 84q0 38 40 38q125 -56 182 -56q94 0 94 76q0 37 -30 58q-25 18 -64 18q-32 0 -36 1q-23 6 -32 40q-6 21 -13 47q-35 -27 -70 -27h-472q-55 0 -55 47q0 26 32.5 40.5t35.5 24.5t3 37v340
q0 60 -66 60q-44 0 -74 -24.5t-30 -67.5q0 -51 40 -51q9 0 27.5 7t27.5 7q23 0 36.5 -15.5t13.5 -38.5q0 -81 -102 -81q-68 0 -109 49q-39 46 -39 116q0 84 51 137t135 53q26 0 76.5 -3t76.5 -3h59q49 0 49 -41q0 -25 -13 -35q-21 -4 -49 -16q-4 -6 -4 -35v-410
q13 0 39 -2.5t39 -2.5q69 0 69 95v325q0 23 -1 25q-2 11 -17 14q-19 4 -25 8q-13 9 -13 34q0 15 9.5 28t23.5 13h157q16 0 27.5 -12.5t11.5 -28.5q0 -32 -49 -44q-4 0 -13 -6q-4 -6 -4 -36v-410q6 1 23 1q10 0 28.5 -1t28.5 -1q45 0 61 26q13 20 13 67v323v23
q0 8 -27.5 18.5t-27.5 41.5q0 14 9.5 26.5t23.5 12.5h157q15 0 27 -12t12 -27q0 -21 -15 -31q-5 -3 -34 -15q-19 0 -19 -40v-456q0 -35 51 -35q72 0 121 -44t49 -115z" />
    <glyph glyph-name="afii10044" unicode="&#x42a;" horiz-adv-x="632" 
d="M614 60q0 -121 -95 -187q-83 -58 -209 -58q-125 0 -210 63q-95 70 -95 191q0 54 27 100q31 54 81 54q57 0 57 -56q0 -21 -24 -58.5t-24 -65.5q0 -65 60 -100q49 -29 119 -29q76 0 131 35q65 41 65 113q0 66 -45.5 103t-112.5 37q-4 0 -35 -1v-36q61 0 61 -44
q0 -23 -31 -54l-83 -82q-16 -16 -39 -16q-21 0 -36 14.5t-15 35.5q0 7 18 44.5t18 63.5v309l-7 1q-81 0 -81 -61q0 -26 -21.5 -44.5t-47.5 -18.5q-35 0 -35 33q-7 13 -7 42q0 78 64 117q53 33 135 32l133 -1q17 0 28.5 -12t11.5 -29q0 -27 -33 -38t-33 -34v-120q62 0 101 -8
q68 -14 132 -73q77 -71 77 -162z" />
    <glyph glyph-name="afii10045" unicode="&#x42b;" horiz-adv-x="852" 
d="M837 119q0 -23 -31 -54l-83 -82q-16 -16 -39 -16q-21 0 -36 14.5t-15 35.5q0 7 18 44.5t18 63.5v300q-55 0 -55 43q0 25 31 54l92 87q19 18 36 18q21 0 35.5 -14t14.5 -35q0 -15 -14 -34q-17 -23 -22 -30q-11 -21 -11 -75v-276q61 0 61 -44zM614 59q0 -124 -97 -188
q-84 -56 -213 -56q-125 0 -208 62q-91 69 -91 191q0 54 27 100q31 54 82 54q57 0 57 -56q0 -21 -24.5 -58.5t-24.5 -65.5q0 -64 62 -99q51 -29 120 -29q77 0 130 34q63 40 63 113q0 71 -49 108q-44 33 -117 33h-27v-38q62 0 62 -44q0 -23 -31 -54l-83 -82q-16 -16 -39 -16
q-21 0 -36 14.5t-15 35.5q0 8 17.5 45t17.5 63v300q-28 0 -40 7q-15 9 -15 36q0 24 32 54l92 87q19 18 38 18q21 0 34.5 -14t13.5 -35q0 -19 -36 -64q-12 -19 -12 -86v-126q113 0 172 -36q138 -85 138 -208z" />
    <glyph glyph-name="afii10046" unicode="&#x42c;" horiz-adv-x="602" 
d="M572 128q0 -118 -90 -185q-81 -60 -203 -60q-119 0 -194 57q-84 63 -84 178q0 57 25 106q31 59 83 59q25 0 41 -15t16 -39q0 -11 -27.5 -56t-27.5 -73q0 -112 165 -112q81 0 129 34q56 39 56 117q0 41 -22 67.5t-62 26.5q-36 0 -58 -20.5t-22 -56.5q0 -15 10.5 -42.5
t10.5 -35.5q0 -37 -52 -37h-62q-53 0 -53 39q0 14 19.5 35t19.5 55v179l-10 -6q-47 0 -47 43q0 24 32 54l92 87q19 18 36 18q21 0 35.5 -14t14.5 -35q0 -16 -35 -65q-12 -16 -12 -95v-29q45 26 95 26q88 0 136 -60q45 -55 45 -145z" />
    <glyph glyph-name="afii10047" unicode="&#x42d;" horiz-adv-x="543" 
d="M530 188q0 -126 -55 -208q-63 -96 -183 -96q-96 0 -167 48q-80 55 -80 147t67 92q40 0 58 -28q9 -14 22 -62q11 -42 32 -65q26 -28 68 -28q61 0 94 67q26 52 28 121h-45q-27 0 -60 -32.5t-42 -32.5q-50 0 -50 39q0 11 43 126q16 42 49 42q48 0 48 -45h46q-8 62 -43 114
q-42 62 -97 62q-27 0 -58 -16q-37 -19 -37 -43q0 -3 2 -11.5t2 -12.5q0 -27 -17.5 -47.5t-43.5 -20.5q-52 0 -52 84q0 75 70 124q62 43 140 43q125 0 199 -123q62 -104 62 -238zM414 186z" />
    <glyph glyph-name="afii10048" unicode="&#x42e;" horiz-adv-x="920" 
d="M912 216q0 -135 -54 -224q-65 -108 -191 -108q-122 0 -188 102q-58 87 -58 215h-60v-110q59 0 59 -44q0 -24 -32 -54l-97 -91q-19 -18 -36 -18q-21 0 -35.5 14t-14.5 35q0 15 13 35q12 15 23 31t11 92v302q0 60 -66 60q-44 0 -74 -24.5t-30 -67.5q0 -51 40 -51
q9 0 27.5 7t27.5 7q22 0 36 -16t14 -38q0 -41 -31 -62q-27 -19 -70 -19q-69 0 -110 49q-39 46 -39 116q0 84 51 137t135 53q22 0 71 -3q46 -3 70 -3l75 1q54 1 54 -42q0 -28 -28.5 -36t-36 -15.5t-7.5 -34.5v-109h67q17 107 73 172q64 75 166 75q125 0 191 -109
q54 -90 54 -224zM798 216q0 231 -131 231q-132 0 -132 -231q0 -230 132 -230q131 0 131 230z" />
    <glyph glyph-name="afii10049" unicode="&#x42f;" horiz-adv-x="520" 
d="M535 326q0 -55 -23 -100q-28 -56 -77 -56q-22 0 -36.5 15t-14.5 37q0 11 25 52.5t25 68.5q0 106 -149 106q-186 0 -186 -114q0 -45 35 -71q31 -23 78 -23q3 0 40 1v34q0 15 -9.5 42t-9.5 36q0 37 52 37h62q27 0 38 -6q15 -8 15 -33q0 -14 -22.5 -38.5t-22.5 -51.5v-192
q56 0 56 -44q0 -22 -32 -54l-82 -81q-17 -17 -42 -17q-19 0 -32 15t-13 34q0 17 13 34l23 30q9 16 9 82v84q0 8 -6 8q-4 0 -11 -10l-37 -55q-33 -49 -89 -157q-42 -80 -68 -105q-42 -40 -116 -40q-64 0 -119 26q-68 32 -68 90q0 63 57 63q4 0 82 -28q39 -14 69 -14
q56 0 86 59l57 113q8 16 30 58q-63 16 -98.5 59.5t-35.5 107.5q0 107 91 168q79 53 192 53q115 0 185 -53q79 -59 79 -170z" />
    <glyph glyph-name="afii10065" unicode="&#x430;" horiz-adv-x="417" 
d="M397 41q0 -41 -43 -41h-52q-47 0 -47 63v102h-19q-111 0 -111 -52q0 -12 12 -20.5t25 -8.5q7 0 19 7t19 7q31 0 31 -45q0 -65 -90 -65q-50 0 -83 33.5t-33 83.5q0 72 72 105q54 25 135 25h23v15q0 43 -43 43q-16 0 -55 -24t-57 -24q-47 0 -47 43q0 45 61 68q45 17 99 17
q141 0 141 -113v-131q0 -16 2 -24q2 -11 21.5 -27.5t19.5 -36.5z" />
    <glyph glyph-name="afii10066" unicode="&#x431;" horiz-adv-x="376" 
d="M391 535q0 -24 -16.5 -39.5t-41.5 -15.5t-64.5 36.5t-82.5 36.5q-64 0 -64 -49q0 -50 83 -72q70 -18 112 -99q35 -67 35 -125v-27q0 -81 -41 -134q-45 -59 -123 -59q-79 0 -124 59q-41 53 -41 134q0 79 40 133q45 59 121 59l-78 38q-10 4 -34 17q-49 33 -49 77
q0 119 181 119q68 0 115 -15q72 -22 72 -74zM253 183q0 97 -66 97q-65 0 -65 -97t65 -97q66 0 66 97z" />
    <glyph glyph-name="afii10067" unicode="&#x432;" horiz-adv-x="432" 
d="M411 102q0 -120 -130 -120q-107 0 -107 65q0 19 12.5 35.5t30.5 16.5q21 0 37 -25l1 1q9 -3 26 -3q24 0 30 3q10 6 10 27q0 68 -51 68q10 0 -47 -6l-6 90q-2 -1 -6 -1q16 13 16 27q0 28 -52 28q-20 0 -27 -3q-17 -8 -13 -35q6 -42 6 -166q0 -59 -11 -77q-17 -27 -77 -27
q-44 0 -44 45t30 46q14 55 14 61v13q0 21 -7 63t-7 63q0 55 44 83q37 24 95 24q55 0 95 -31q44 -34 44 -87q0 -40 -30 -78t-69 -38q-20 0 -33.5 12.5t-13.5 32.5q0 51 99 51q65 0 103 -45.5t38 -112.5z" />
    <glyph glyph-name="afii10068" unicode="&#x433;" horiz-adv-x="361" 
d="M336 119q0 -11 -5 -24l-29 -78q-13 -34 -44 -34t-43 32q-32 -22 -74 -22q-52 0 -86 30.5t-34 81.5q0 82 106 116q24 7 80 25q14 7 14 24q0 28 -31 28q-24 0 -72.5 -32.5t-52.5 -32.5q-13 0 -24.5 8.5t-11.5 20.5q0 10 5 22l23 57q15 38 46 38q26 0 41 -29q29 20 65 20
q46 0 77.5 -28t31.5 -73q0 -57 -54 -87q-19 -11 -102 -37q-38 -12 -38 -40q0 -30 39 -30q31 0 71 39t60 39q42 0 42 -34z" />
    <glyph glyph-name="afii10069" unicode="&#x434;" horiz-adv-x="405" 
d="M382 338q0 -15 -5 -44.5t-5 -44.5v-240q0 -83 -47.5 -133t-129.5 -50q-48 0 -90 21q-52 25 -52 69q0 19 11 34t30 15q4 0 42 -22.5t59 -22.5q26 0 52.5 19t26.5 44v185q0 50 -10 72q-15 34 -58 34q-39 0 -60 -25t-21 -65q0 -32 14 -56q17 -30 46 -30q10 0 34 2
q13 1 21 -11.5t8 -26.5q0 -34 -25 -53.5t-60 -19.5q-66 0 -105 61q-34 53 -34 123q0 81 40 137q44 63 122 63q31 0 50 -10q11 -6 42 -33q16 28 23 35q15 17 36 17q45 0 45 -44z" />
    <glyph glyph-name="afii10070" unicode="&#x435;" horiz-adv-x="389" 
d="M362 222q0 -43 -22 -58q-17 -13 -62 -13h-152q13 -69 80 -69q21 0 56.5 22.5t44.5 22.5q41 0 41 -49q0 -42 -53 -69q-42 -21 -89 -21q-83 0 -132.5 52.5t-49.5 135.5q0 86 46.5 141.5t130.5 55.5q68 0 114.5 -42t46.5 -109zM261 248q0 41 -60 41q-30 0 -51 -18.5
t-25 -48.5h85q51 0 51 26z" />
    <glyph glyph-name="afii10072" unicode="&#x436;" horiz-adv-x="608" 
d="M595 34q0 -34 -32 -34h-89q-47 0 -47 34q0 11 9.5 28t9.5 21q0 21 -33 68.5t-52 47.5q-8 0 -8 -9v-15q1 -14 1 -22v-38q0 -16 23.5 -38t23.5 -37q0 -40 -40 -40h-107q-54 0 -54 37q0 18 16 30q15 9 31 18q12 7 12 86q0 18 -1 20q-2 8 -15 8q-18 0 -50.5 -48t-32.5 -68
q0 -2 9.5 -19.5t9.5 -29.5q0 -34 -47 -34h-89q-32 0 -32 34q0 26 17 38q13 10 29 22q1 2 9 20q36 82 92 131q-33 21 -57 25q-44 7 -51 10q-24 10 -24 41q0 52 60 52q63 0 133 -77q25 -27 27 -27q13 0 13 17v66q0 11 -27 19t-27 15q0 20 20 36l57 45q19 15 38 15q34 0 34 -47
v-79l-1 -78q0 -9 7 -9q5 0 15 13q72 91 145 91q60 0 60 -52q0 -31 -36 -44q-5 -2 -63 -13q-10 -4 -33 -19q59 -51 92 -131q4 -10 7 -16t29 -25q19 -14 19 -39z" />
    <glyph glyph-name="afii10073" unicode="&#x437;" horiz-adv-x="373" 
d="M354 113q0 -60 -48 -94q-43 -31 -105 -31q-65 0 -122 31q-69 36 -69 95q0 33 15 56q17 27 48 27q17 0 30.5 -9.5t13.5 -25.5q0 -7 -8.5 -24.5t-8.5 -26.5q0 -24 41 -40q33 -12 62 -12q27 0 46.5 15t19.5 41q0 35 -30 50q-27 8 -54 17q-33 14 -33 37q0 20 36 45
q44 30 48 36q-7 5 -11 5l-36 -1q-23 -1 -70.5 -20.5t-56.5 -19.5q-30 0 -30 27q0 4 5 16l24 57q7 17 30 17q57 0 64 -15h114q66 0 66 -53q0 -24 -31 -47q-37 -27 -41 -35q3 -2 19 -10q72 -37 72 -108z" />
    <glyph glyph-name="afii10074" unicode="&#x438;" 
d="M400 37q0 -37 -37 -37h-62q-25 0 -30 21t-7 21q-46 -54 -105 -54q-97 0 -97 117v138q-27 0 -37 4q-17 7 -17 30q0 20 20 36l58 45q19 15 38 15q33 0 33 -47v-163q0 -65 48 -65q57 0 57 100v45q-52 0 -52 34q0 20 20 36l57 45q19 15 38 15q34 0 34 -47v-216
q0 -13 20.5 -33.5t20.5 -39.5z" />
    <glyph glyph-name="afii10075" unicode="&#x439;" 
d="M339 534q0 -18 -18 -31l-131 -93q-8 -6 -14 -6q-19 0 -19 22q0 4 113 137q11 13 27 13q15 0 28.5 -13.5t13.5 -28.5zM400 37q0 -37 -37 -37h-62q-25 0 -30 21t-7 21q-46 -54 -105 -54q-97 0 -97 117v138q-27 0 -37 4q-17 7 -17 30q0 20 20 36l58 45q19 15 38 15
q33 0 33 -47v-163q0 -65 48 -65q57 0 57 100v45q-52 0 -52 34q0 20 20 36l57 45q19 15 38 15q34 0 34 -47v-216q0 -13 20.5 -33.5t20.5 -39.5z" />
    <glyph glyph-name="afii10076" unicode="&#x43a;" 
d="M408 34q0 -34 -32 -34h-89q-47 0 -47 34q0 11 9.5 28t9.5 21q0 21 -33 68.5t-52 47.5q-8 0 -8 -9v-15q1 -14 1 -22v-38q0 -16 23.5 -38t23.5 -37q0 -40 -40 -40h-107q-54 0 -54 37q0 18 16 30q15 9 31 18q12 7 12 45v160q-27 0 -37 4q-17 7 -17 30q0 20 20 36l57 45
q19 15 38 15q34 0 34 -47v-48q0 -10 -1 -27v-20q0 -9 7 -9q5 0 15 13q72 91 145 91q60 0 60 -52q0 -31 -36 -44q-5 -2 -63 -13q-10 -4 -33 -19q59 -51 92 -131q4 -10 7 -16t29 -25q19 -14 19 -39z" />
    <glyph glyph-name="afii10077" unicode="&#x43b;" horiz-adv-x="398" 
d="M400 38q0 -37 -46 -37h-102q-44 0 -44 37q0 15 19 32.5t19 23.5q0 12 -4 25l-39 124q-3 11 -7 11q-5 0 -8 -11q-44 -141 -44 -149q0 -6 19 -23t19 -33q0 -37 -43 -37h-102q-47 0 -47 37q0 16 25 46q30 33 34 45l81 220q8 22 27 22h76q20 0 28 -22l80 -220q6 -15 34 -47
q25 -28 25 -44z" />
    <glyph glyph-name="afii10078" unicode="&#x43c;" horiz-adv-x="583" 
d="M586 38q0 -38 -45 -38h-98q-41 0 -41 40q0 17 17 37.5t17 24.5q0 12 -6 31l-32 100q-3 10 -8 10q-4 0 -7 -10l-32 -108q-5 -17 -5 -23q0 -8 18 -28t18 -35q0 -39 -42 -39h-100q-41 0 -41 39q0 15 18 34.5t18 28.5q0 6 -5 23l-32 108q-3 10 -8 10q-4 0 -7 -10l-32 -100
q-6 -19 -6 -28q0 -6 16.5 -27.5t16.5 -37.5q0 -40 -40 -40h-98q-45 0 -45 38q0 16 25 45q28 33 32 45l76 220q8 22 28 22h62q22 0 29 -22l37 -121q3 -11 7 -11t7 11l37 121q7 22 29 22h62q19 0 27 -22l76 -220q4 -12 32 -45q25 -29 25 -45z" />
    <glyph glyph-name="afii10079" unicode="&#x43d;" horiz-adv-x="450" 
d="M427 103q0 -21 -30 -49l-65 -60q-16 -15 -32 -15q-17 0 -29.5 13.5t-12.5 30.5q0 3 15 34.5t15 54.5v54q-15 -11 -39 -11q-7 0 -19.5 1t-19.5 1q-22 0 -36 -10v-17q0 -19 2 -29t27 -26t25 -38q0 -37 -50 -37h-108q-50 0 -50 38q0 18 14 30l29 18q11 7 11 44v113
q-49 0 -49 34q0 20 20 36l57 45q19 15 38 15q34 0 34 -41v-139q13 11 37 11q8 0 24 -1.5t24 -1.5q20 0 29 11v31q-49 0 -49 34q0 20 20 36l57 45q19 15 38 15q32 0 32 -24q0 -4 -1.5 -11t-1.5 -10v-186q44 0 44 -39z" />
    <glyph glyph-name="afii10080" unicode="&#x43e;" horiz-adv-x="376" 
d="M352 181q0 -81 -41 -134q-45 -59 -123 -59t-123 59q-41 53 -41 134q0 80 41 133q45 59 123 59t123 -59q41 -53 41 -133zM253 183q0 97 -66 97q-64 0 -64 -97t64 -97q66 0 66 97z" />
    <glyph glyph-name="afii10081" unicode="&#x43f;" 
d="M414 103q0 -21 -30 -49l-65 -60q-16 -15 -32 -15q-17 0 -29.5 13.5t-12.5 30.5q0 3 15 35.5t15 55.5v84q0 33 -7 46q-10 19 -40 19q-62 0 -62 -118q0 -41 6 -51q4 -5 37 -27q13 -9 13 -27q0 -40 -45 -40h-110q-54 0 -54 37q0 18 16 30q15 9 31 18q12 7 12 45v113
q-27 0 -37 4q-17 7 -17 30q0 20 20 36l57 45q19 15 38 15q22 0 29 -14q1 -3 4 -24q1 -16 7 -16q44 54 100 54q97 0 97 -117v-114q44 0 44 -39z" />
    <glyph glyph-name="afii10082" unicode="&#x440;" horiz-adv-x="432" 
d="M407 182q0 -72 -29 -126q-36 -67 -103 -67q-37 0 -62 19q-28 21 -28 56t29 35q5 0 15 -1h15q62 0 62 84q0 92 -68 92q-81 0 -81 -140v-125q42 0 42 -39q0 -22 -30 -49l-66 -60q-16 -15 -32 -15q-17 0 -29 13.5t-12 30.5q0 3 15 35.5t15 55.5v262q-27 0 -37 4
q-17 7 -17 30q0 20 20 36l58 45q19 15 38 15q35 0 33 -34q0 -2 -1 -5v-5q0 -10 8 -10q47 55 99 55q73 0 112 -62q34 -53 34 -130z" />
    <glyph glyph-name="afii10083" unicode="&#x441;" horiz-adv-x="353" 
d="M338 78q0 -42 -47 -68q-39 -22 -85 -22q-85 0 -133.5 53.5t-48.5 139.5q0 78 46 133q48 59 125 59q49 0 89 -22q49 -26 49 -71q0 -20 -12.5 -34.5t-32.5 -14.5q-14 0 -49 21t-49 21q-65 0 -65 -82q0 -39 15 -68q18 -36 54 -36q13 0 48 19.5t50 19.5q46 0 46 -48z" />
    <glyph glyph-name="afii10084" unicode="&#x442;" horiz-adv-x="611" 
d="M602 103q0 -22 -30 -49l-66 -60q-16 -15 -32 -15q-17 0 -29.5 13.5t-12.5 30.5q0 5 15.5 36t15.5 55v84q0 65 -43 65q-62 0 -62 -121q0 -41 23 -62.5t23 -39.5q0 -40 -38 -40h-103q-39 0 -39 37q0 20 21 39t21 54v68q0 65 -43 65q-61 0 -61 -118q0 -41 19 -65.5t19 -39.5
q0 -40 -33 -40h-103q-42 0 -42 37q0 20 10 30q10 6 27 19q10 7 10 44v113q-27 0 -37 4q-17 7 -17 30q0 20 20 36l58 45q19 15 38 15q22 0 29 -14q1 -3 4 -24q1 -16 7 -16q46 54 101 54q34 0 55 -14q6 -4 41 -39q35 53 97 53q93 0 93 -117v-114q44 0 44 -39z" />
    <glyph glyph-name="afii10085" unicode="&#x443;" horiz-adv-x="444" 
d="M428 324q0 -16 -26 -44q-29 -32 -34 -47l-81 -232q-26 -74 -57 -108q-42 -47 -109 -47q-48 0 -82 23q-39 26 -39 72q0 61 56 61q32 0 54 -34t30 -34q27 0 51 79l-111 230q-14 28 -40 50q-19 16 -19 34q0 34 46 34h109q43 0 43 -37q0 -15 -19 -34.5t-19 -24.5q0 -11 5 -22
l40 -88q5 -12 9 -12q3 0 8 12l35 88q5 13 5 22q0 8 -19 26.5t-19 32.5q0 37 43 37h94q46 0 46 -37z" />
    <glyph glyph-name="afii10086" unicode="&#x444;" horiz-adv-x="636" 
d="M618 183q0 -72 -29 -126q-36 -67 -103 -67q-37 0 -62 19q-28 21 -28 56t29 35q5 0 15 -1h15q62 0 62 84q0 92 -68 92q-81 0 -81 -140v-125q42 0 42 -39q0 -22 -30 -49l-66 -60q-16 -15 -32 -15q-17 0 -29 13.5t-12 30.5q0 4 14 33.5t16 48.5v51q0 2 1 5v5q0 11 -8 10
q-47 -55 -99 -55q-73 0 -112 62q-34 53 -34 130q0 73 29 127q36 66 103 66q37 0 62 -18q28 -21 28 -57q0 -35 -29 -35q-5 0 -15 1h-15q-62 0 -62 -84q0 -92 68 -92q82 0 82 111v182q-27 0 -37 4q-17 7 -17 30q0 20 20 36l58 45q19 15 38 15q24 0 36 -25v-157q0 -10 5 -10
q47 55 99 55q73 0 112 -62q34 -53 34 -130z" />
    <glyph glyph-name="afii10087" unicode="&#x445;" 
d="M413 36q0 -36 -49 -36h-101q-44 0 -44 36q0 17 11 33t11 19q0 9 -14 30t-22 21q-6 0 -19.5 -20.5t-13.5 -28.5q0 -2 11 -22t11 -34q0 -34 -34 -34h-97q-49 0 -49 39q0 24 27 41q36 23 41 30l57 79l-52 66q-4 5 -41 30q-26 18 -26 39q0 37 48 37h97q34 0 34 -31
q0 -10 -9 -23t-9 -18q0 -7 13 -25.5t19 -18.5q4 0 9 6q23 30 23 41l-11 13.5t-11 26.5q0 29 33 29h94q46 0 46 -32q0 -18 -26 -36q-32 -23 -38 -30l-52 -68l65 -82q7 -9 45 -35q23 -16 23 -42z" />
    <glyph glyph-name="afii10088" unicode="&#x446;" 
d="M410 1q0 -32 -31 -82q-34 -53 -63 -53q-21 0 -21 20q0 6 15.5 27.5t15.5 32.5q0 48 -37 55q-15 3 -18 22t-7 19q-46 -54 -105 -54q-97 0 -97 117v138q-27 0 -37 4q-17 7 -17 30q0 20 20 36l58 45q19 15 38 15q33 0 33 -47v-163q0 -65 48 -65q43 0 54 57q3 16 3 88
q-52 0 -52 34q0 20 20 36l57 45q19 15 38 15q34 0 34 -47v-216q0 -19 20 -33q31 -22 31 -76z" />
    <glyph glyph-name="afii10089" unicode="&#x447;" 
d="M400 37q0 -37 -37 -37h-62q-30 0 -30 31v11q1 10 1 16v28q0 36 -8 36q-46 -54 -105 -54q-69 0 -88 58q-9 27 -9 117q-27 0 -37 4q-17 7 -17 30q0 20 20 36l58 45q19 15 38 15q33 0 33 -47l1 -98q0 -32 8 -46q11 -19 40 -19q56 0 56 80q-52 0 -52 34q0 20 20 36l57 45
q19 15 38 15q34 0 34 -47v-216q0 -13 20.5 -33.5t20.5 -39.5z" />
    <glyph glyph-name="afii10090" unicode="&#x448;" horiz-adv-x="624" 
d="M605 37q0 -37 -37 -37h-62q-25 0 -30 21t-7 21q-46 -54 -105 -54q-51 0 -75 29q-12 25 -21 25q-46 -54 -105 -54q-97 0 -97 117v138q-27 0 -37 4q-17 7 -17 30q0 20 20 36l58 45q19 15 38 15q33 0 33 -47v-163q0 -65 48 -65q58 0 58 92v53q-27 0 -37 4q-17 7 -17 30
q0 20 20 36l58 45q19 15 38 15q33 0 33 -47v-163q0 -65 48 -65q57 0 57 100v45q-52 0 -52 34q0 20 20 36l57 45q19 15 38 15q34 0 34 -47v-216q0 -13 20.5 -33.5t20.5 -39.5z" />
    <glyph glyph-name="afii10091" unicode="&#x449;" horiz-adv-x="624" 
d="M615 3q0 -32 -31 -82q-34 -53 -63 -53q-21 0 -21 20q0 6 15.5 27.5t15.5 32.5q0 47 -35 53q-17 3 -20 22t-7 19q-46 -54 -105 -54q-51 0 -75 29q-12 25 -21 25q-46 -54 -105 -54q-97 0 -97 117v138q-27 0 -37 4q-17 7 -17 30q0 20 20 36l58 45q19 15 38 15q33 0 33 -47
v-163q0 -65 48 -65q58 0 58 92v53q-27 0 -37 4q-17 7 -17 30q0 20 20 36l58 45q19 15 38 15q33 0 33 -47v-163q0 -65 48 -65q43 0 54 57q3 16 3 88q-52 0 -52 34q0 20 20 36l57 45q19 15 38 15q34 0 34 -47v-216q0 -15 9 -24q42 -18 42 -83z" />
    <glyph glyph-name="afii10092" unicode="&#x44a;" horiz-adv-x="518" 
d="M504 51q0 -144 -157 -144q-37 0 -62 19.5t-25 55.5q0 38 30 38h49q36 0 47 7q18 9 18 42q0 45 -83 45q-42 0 -57 -22q-6 -9 -9.5 -36t-10.5 -38q-12 -18 -40 -18h-38q-55 0 -55 41q0 21 19 36t21 26.5t2 25.5v153q0 16 -9 16q-1 0 -9 -2q-23 -4 -36 -16q-43 -38 -57 -38
q-38 0 -38 33q0 8 28 78q15 38 44 38q19 0 37 -18h116q24 0 24 -28v-127q0 -26 5 -26q0 11 68 11q73 0 123 -39q55 -42 55 -113z" />
    <glyph glyph-name="afii10093" unicode="&#x44b;" horiz-adv-x="668" 
d="M649 37q0 -37 -50 -37h-108q-50 0 -50 38q0 18 14 30l29 18q11 7 11 44v108q-49 0 -49 34q0 22 20 37l57 44q19 15 38 15q34 0 34 -47v-191q0 -19 2 -29t27 -26t25 -38zM423 51q0 -144 -157 -144q-37 0 -62 19.5t-25 55.5q0 38 30 38h49q36 0 47 7q18 9 18 42
q0 45 -83 45q-42 0 -57 -22q-6 -9 -9.5 -36t-10.5 -38q-12 -18 -40 -18h-51q-42 0 -42 41q0 21 19 36t21 29.5t2 31.5v127q-53 0 -53 34q0 20 20 36l57 45q19 15 41 15q35 0 35 -38v-134q0 -31 5 -31q0 11 68 11q73 0 123 -39q55 -42 55 -113z" />
    <glyph glyph-name="afii10094" unicode="&#x44c;" horiz-adv-x="432" 
d="M423 51q0 -144 -157 -144q-37 0 -62 19.5t-25 55.5q0 38 30 38h49q36 0 47 7q18 9 18 42q0 45 -83 45q-42 0 -57 -22q-6 -9 -9.5 -36t-10.5 -38q-12 -18 -40 -18h-51q-42 0 -42 41q0 21 19 36.5t21 25t2 26.5v136q-53 0 -53 34q0 20 20 36l57 45q19 15 41 15q35 0 35 -38
v-134q0 -31 5 -31q0 11 68 11q73 0 123 -39q55 -42 55 -113z" />
    <glyph glyph-name="afii10095" unicode="&#x44d;" horiz-adv-x="353" 
d="M338 181q0 -87 -48 -140t-134 -53q-46 0 -85 22q-47 26 -47 68q0 20 13 34t33 14q14 0 48.5 -19.5t49.5 -19.5q27 0 46 19t19 46q0 8 -23 9q-21 -1 -29 -1q-30 1 -30 21q0 25 22 33q12 5 44 5q16 0 16 8q0 46 -61 46q-16 0 -50 -21t-48 -21q-20 0 -32.5 14.5t-12.5 34.5
q0 46 48 72q40 21 90 21q77 0 125 -59q46 -55 46 -133z" />
    <glyph glyph-name="afii10096" unicode="&#x44e;" horiz-adv-x="566" 
d="M561 181q0 -81 -41 -134q-45 -59 -123 -59q-71 0 -115 49q-41 46 -48 119q-3 -2 -9 -2q-5 0 -13.5 3t-13.5 3q-7 0 -12 -4v-26q0 -22 2 -29q2 -11 27 -26.5t25 -37.5q0 -37 -50 -37h-108q-50 0 -50 38q0 18 14 30q2 2 29 18q11 8 11 44v108q-49 0 -49 34q0 22 20 37
l57 44q19 15 38 15q34 0 34 -47v-112q5 3 10 3t14.5 -3.5t14.5 -3.5q4 0 9 3q7 71 49 116q45 49 114 49q78 0 123 -59q41 -53 41 -133zM462 183q0 97 -66 97q-64 0 -64 -97t64 -97q66 0 66 97z" />
    <glyph glyph-name="afii10097" unicode="&#x44f;" horiz-adv-x="449" 
d="M440 41q0 -41 -42 -41h-51q-42 0 -49 44q-1 15 -9 47q-12 27 -36 34q0 -71 -39.5 -109t-110.5 -38q-37 0 -62 19.5t-25 55.5q0 38 30 38h49q9 0 25.5 -2t25.5 -2q32 0 32 33q0 27 -20 46q-21 15 -43 31q-43 31 -43 59q0 117 152 117q83 0 119 -28q55 -43 55 -163
q0 -64 1 -75q1 -14 21 -29t20 -37zM298 223q0 71 -85 71q-40 0 -40 -38q0 -20 36 -38q7 -3 54 -22q18 -11 30 -18q3 0 4 13q1 20 1 32z" />
    <glyph glyph-name="afii10071" unicode="&#x451;" horiz-adv-x="389" 
d="M334 490q0 -23 -17.5 -37.5t-40.5 -14.5q-24 0 -40.5 14.5t-16.5 37.5q0 22 17.5 37.5t39.5 15.5q25 0 41.5 -14.5t16.5 -38.5zM171 490q0 -23 -17.5 -37.5t-40.5 -14.5q-24 0 -40.5 14.5t-16.5 37.5q0 22 17.5 37.5t39.5 15.5q25 0 41.5 -14.5t16.5 -38.5zM362 222
q0 -43 -22 -58q-17 -13 -62 -13h-152q13 -69 80 -69q21 0 56.5 22.5t44.5 22.5q41 0 41 -49q0 -42 -53 -69q-42 -21 -89 -21q-83 0 -132.5 52.5t-49.5 135.5q0 86 46.5 141.5t130.5 55.5q68 0 114.5 -42t46.5 -109zM261 248q0 41 -60 41q-30 0 -51 -18.5t-25 -48.5h85
q51 0 51 26z" />
    <glyph glyph-name="afii10100" unicode="&#x453;" horiz-adv-x="361" 
d="M336 105q0 -51 -34 -81.5t-86 -30.5q-42 0 -74 22q-12 -32 -43 -32t-44 34l-29 78q-5 13 -5 24q0 34 42 34q20 0 60 -39t71 -39q39 0 39 30q0 28 -37 40q-85 27 -103 37q-54 30 -54 87q0 45 31.5 73t77.5 28q36 0 65 -20q15 29 41 29q31 0 46 -38l23 -57q5 -12 5 -22
q0 -12 -11.5 -20.5t-24.5 -8.5q-4 0 -52.5 32.5t-72.5 32.5q-31 0 -31 -28q0 -17 14 -24q43 -13 80 -25q106 -35 106 -116z" />
    <glyph glyph-name="afii10098" unicode="&#x491;" horiz-adv-x="333" 
d="M322 287q0 -73 -63 -73q-39 0 -36 32q1 11 1 6q0 22 -18 22q-30 0 -30 -66v-59q0 -43 8 -54q4 -5 41 -26q16 -9 16 -29q0 -40 -53 -40h-112q-54 0 -54 37q0 19 15 31q6 5 32 17q12 8 12 45v113q-27 0 -37 4q-17 7 -17 30q0 20 20 36l57 45q19 15 38 15q18 0 29.5 -17
l11.5 -17q31 34 65 34q36 0 55 -24.5t19 -61.5z" />
    <glyph glyph-name="endash" unicode="&#x2013;" horiz-adv-x="500" 
d="M507 156h-514v62h514v-62z" />
    <glyph glyph-name="emdash" unicode="&#x2014;" horiz-adv-x="1000" 
d="M1007 156h-1014v62h1014v-62z" />
    <glyph glyph-name="quoteleft" unicode="&#x2018;" horiz-adv-x="204" 
d="M165 388q0 -26 -17 -44t-43 -18q-33 0 -51 27q-15 22 -15 57t30 85q32 54 64 54q20 0 20 -20q0 -6 -15.5 -27.5t-15.5 -32.5q0 -8 21.5 -35.5t21.5 -45.5z" />
    <glyph glyph-name="quoteright" unicode="&#x2019;" horiz-adv-x="204" 
d="M165 461q0 -32 -31 -82q-34 -53 -63 -53q-21 0 -21 20q0 6 15.5 27.5t15.5 32.5q0 8 -21.5 35.5t-21.5 45.5q0 26 17 44t43 18q67 0 67 -88z" />
    <glyph glyph-name="quotesinglbase" unicode="&#x201a;" horiz-adv-x="204" 
d="M165 49q0 -33 -31 -82q-34 -53 -64 -53q-20 0 -20 20q0 6 15.5 27.5t15.5 32.5q0 8 -21.5 35.5t-21.5 45.5q0 26 17 44t43 18q67 0 67 -88z" />
    <glyph glyph-name="quotedblleft" unicode="&#x201c;" horiz-adv-x="352" 
d="M317 387q0 -26 -17 -43.5t-43 -17.5q-33 0 -51 27q-15 22 -15 57q0 34 30 84q33 54 64 54q21 0 21 -19q0 -4 -16 -27t-16 -33q0 -7 21.5 -35.5t21.5 -46.5zM160 387q0 -26 -17 -43.5t-43 -17.5q-33 0 -51 27q-16 23 -16 57q0 35 30 84q33 54 65 54q20 0 20 -19
q0 -6 -15.5 -27.5t-15.5 -32.5q0 -7 21.5 -35.5t21.5 -46.5z" />
    <glyph glyph-name="quotedblright" unicode="&#x201d;" horiz-adv-x="352" 
d="M317 461q0 -32 -31 -81q-33 -53 -62 -53q-21 0 -21 19q0 6 15.5 27.5t15.5 32.5q0 8 -21.5 35.5t-21.5 45.5q0 26 17 44t43 18q66 0 66 -88zM160 461q0 -33 -31 -82q-33 -52 -63 -52q-21 0 -21 19q0 4 16 27t16 33q0 8 -21.5 35.5t-21.5 45.5q0 27 16.5 44.5t42.5 17.5
q67 0 67 -88z" />
    <glyph glyph-name="quotedblbase" unicode="&#x201e;" horiz-adv-x="352" 
d="M317 49q0 -33 -31 -82q-33 -53 -63 -53q-20 0 -20 20q0 6 15.5 27.5t15.5 32.5q0 8 -21.5 35.5t-21.5 45.5q0 26 17 44t43 18q66 0 66 -88zM160 49q0 -33 -31 -82q-33 -53 -63 -53q-21 0 -21 20q0 4 16 27t16 33q0 8 -21.5 35.5t-21.5 45.5q0 27 16.5 44.5t42.5 17.5
q67 0 67 -88z" />
    <glyph glyph-name="dagger" unicode="&#x2020;" horiz-adv-x="486" 
d="M428 364q0 -23 -13 -39t-35 -16q-19 0 -51.5 15t-39.5 15q-20 0 -20 -30q0 -52 27 -95q12 -19 27 -50q-54 -105 -54 -259q0 10 1 -33v-32q0 -23 -3 -31q-5 -15 -24 -15t-25 23q-5 17 -4 48q2 61 2 40q0 102 -16 152q-10 30 -37 107q54 90 54 145q0 30 -21 30
q-6 0 -39 -15t-52 -15q-47 0 -47 55t48 55q19 0 51.5 -15t38.5 -15q20 0 20 16q0 5 -14 41.5t-14 52.5q0 50 55 50t55 -50q0 -23 -28 -93q0 -16 20 -16q4 0 38 14.5t52 14.5q48 0 48 -55z" />
    <glyph glyph-name="daggerdbl" unicode="&#x2021;" horiz-adv-x="486" 
d="M428 -21q0 -23 -13 -39t-35 -16q-19 0 -52 14.5t-38 14.5q-19 0 -19 -16q0 -6 13.5 -41t13.5 -53q0 -49 -55 -49t-55 50q0 23 28 93q0 16 -20 16q-4 0 -38 -14.5t-52 -14.5q-48 0 -48 55q0 54 48 54q19 0 52 -14.5t39 -14.5q20 0 20 30q0 42 -15 74q-3 7 -39 63
q54 69 54 138q0 30 -21 30q-6 0 -39 -15t-52 -15q-47 0 -47 55t48 55q19 0 51.5 -15t38.5 -15q20 0 20 16q0 5 -14 41.5t-14 52.5q0 50 55 50t55 -50q0 -23 -28 -93q0 -16 20 -16q4 0 38 14.5t52 14.5q48 0 48 -55q0 -23 -13 -39t-35 -16q-19 0 -51.5 15t-39.5 15
q-20 0 -20 -31q0 -43 15 -74q6 -12 39 -63q-54 -69 -54 -137q0 -30 21 -30q4 0 38.5 14.5t52.5 14.5q47 0 47 -54z" />
    <glyph glyph-name="bullet" unicode="&#x2022;" horiz-adv-x="590" 
d="M439 372q0 -60 -42.5 -102.5t-102.5 -42.5q-61 0 -102.5 42t-41.5 103t42 102.5t103 41.5q60 0 102 -42t42 -102z" />
    <glyph glyph-name="ellipsis" unicode="&#x2026;" horiz-adv-x="1000" 
d="M900 62q0 -31 -18.5 -52.5t-49.5 -21.5q-30 0 -49.5 22t-19.5 52q0 31 19.5 52.5t49.5 21.5t49 -22t19 -52zM566 62q0 -31 -18.5 -52.5t-49.5 -21.5q-30 0 -49.5 22t-19.5 52q0 31 19.5 52.5t49.5 21.5t49 -22t19 -52zM233 62q0 -31 -18.5 -52.5t-49.5 -21.5
q-30 0 -49.5 22t-19.5 52q0 31 19.5 52.5t49.5 21.5t49 -22t19 -52z" />
    <glyph glyph-name="perthousand" unicode="&#x2030;" horiz-adv-x="840" 
d="M806 131q0 -55 -25 -95q-29 -48 -81 -48q-53 0 -82 47q-25 40 -25 96t25 96q29 47 82 47q52 0 81 -48q25 -40 25 -95zM549 131q0 -55 -25 -95q-29 -48 -81 -48q-53 0 -82 47q-25 40 -25 96t25 96q29 47 82 47q52 0 81 -48q25 -40 25 -95zM542 526q0 -15 -14 -31
l-420 -489q-15 -18 -35 -18q-11 0 -21.5 10.5t-10.5 21.5q0 14 15 32l419 489q16 19 36 19q13 0 22 -10.5t9 -23.5zM247 417q0 -55 -25 -95q-29 -48 -81 -48t-81 47q-25 40 -25 96q0 57 24 96q29 47 82 47q52 0 81 -48q25 -40 25 -95zM734 130q0 72 -34 72q-36 0 -36 -72
q0 -70 36 -70q34 0 34 70zM478 130q0 72 -35 72q-36 0 -36 -72q0 -70 36 -70q35 0 35 70zM176 416q0 72 -35 72t-35 -72q0 -70 35 -70t35 70z" />
    <glyph glyph-name="guilsinglleft" unicode="&#x2039;" horiz-adv-x="190" 
d="M183 65q0 -26 -28 -26q-13 0 -29 14l-106 93q-13 11 -13 33q0 25 13 36l106 93q16 14 31 14q26 0 26 -27q0 -11 -14 -25l-64 -64q-11 -11 -11 -25q0 -15 11 -26l64 -64q14 -14 14 -26z" />
    <glyph glyph-name="guilsinglright" unicode="&#x203a;" horiz-adv-x="190" 
d="M183 179q0 -22 -13 -33l-106 -93q-16 -14 -30 -14q-28 0 -28 26q0 11 15 26l64 64q11 11 11 26q0 14 -11 25l-64 64q-15 15 -15 25q0 27 26 27q16 0 32 -14l106 -93q13 -11 13 -36z" />
    <glyph glyph-name="afii61352" unicode="&#x2116;" horiz-adv-x="975" 
d="M965 404q0 -58 -32 -95q-34 -40 -91 -40q-58 0 -90.5 38t-32.5 97q0 57 33.5 95.5t89.5 38.5q57 0 90 -38t33 -96zM704 496q0 -22 -15 -31q-7 -2 -34 -11q-17 -5 -17 -44v-320q61 0 61 -44q0 -24 -32 -54l-96 -91q-19 -18 -37 -18q-21 0 -35.5 14t-14.5 35q0 15 13 35
q12 15 23 31t11 92v56l-127 197q-10 15 -14 15q-6 0 -6 -7v-178q0 -79 -12 -126q-23 -91 -96.5 -148t-167.5 -57q-48 0 -79 19q-39 23 -39 68q0 57 65 57q13 0 37.5 -1.5t37.5 -1.5q148 0 148 243v166q0 60 -66 60q-44 0 -74 -24.5t-30 -67.5q0 -51 40 -51q9 0 27.5 7
t27.5 7q22 0 36 -16t14 -38q0 -81 -102 -81q-68 0 -109 49q-39 46 -39 116q0 85 50.5 137.5t134.5 52.5q17 0 52.5 -2.5t54.5 -2.5l54 1q28 0 44 -11q12 -9 29 -34l90 -138q10 -15 15 -15q4 0 4 6v63q0 25 -4.5 33t-26.5 16q-25 9 -25 37q0 41 33 41h157q17 0 28 -12t11 -29
zM891 405q0 68 -50 68q-48 0 -48 -68t48 -68q50 0 50 68z" />
    <glyph glyph-name="trademark" unicode="&#x2122;" horiz-adv-x="822" 
d="M698 442h-120v14q21 3 25 5q9 5 9 23v183l-80 -226h-13l-83 229v-186q0 -19 9 -24q3 -1 27 -4v-14h-96v14q22 3 26 5q10 5 10 22v182q0 18 -10 23q-6 3 -26 4v15h97l66 -186l67 186h92v-13q-33 -2 -33 -27v-183q0 -16 9 -22q6 -3 24 -6v-14zM343 615h-15q-7 75 -70 75
v-206q0 -18 9 -23q4 -2 25 -5v-14h-127v14q22 3 25 5q9 4 9 23v206h-7q-56 0 -64 -75h-14l5 92h219z" />
    <glyph glyph-name="periodcentered" unicode="&#x2219;" horiz-adv-x="243" 
d="M184 281q0 -29 -17 -50t-45 -21q-29 0 -46 20.5t-17 50.5t17 51t46 21t45.5 -21t16.5 -51z" />
    <glyph glyph-name="EM" unicode="&#xf019;" horiz-adv-x="167" 
d="M334 526q0 -13 -15 -31l-419 -489q-15 -18 -35 -18q-11 0 -21.5 10.5t-10.5 21.5q0 14 15 32l419 489q16 19 36 19q13 0 22 -10.5t9 -23.5z" />
    <glyph glyph-name="glyph291" horiz-adv-x="243" 
 />
    <glyph glyph-name="glyph292" horiz-adv-x="243" 
 />
    <glyph glyph-name="glyph217" horiz-adv-x="547" 
 />
    <glyph glyph-name="glyph218" horiz-adv-x="1014" 
d="M930 704h-116v60h116v-60zM966 0h-68v499l-52 -83v-416h-68v655h68v-178l120 194v-671zM726 0h-120q-68 0 -68 60v183q0 61 35 98l85 91v190h-52v-155h-68v128q0 60 68 60h52q68 0 68 -60v-595zM658 33v351l-52 -60v-291h52zM480 0h-67v499l-53 -83v-416h-67v655h67v-178
l120 194v-671zM253 0h-253v33h33v671q0 60 67 60h53q67 0 67 -60v-671h33v-33zM153 33v698h-53v-698h53z" />
    <glyph glyph-name="glyph297" horiz-adv-x="243" 
 />
    <glyph glyph-name="glyph298" horiz-adv-x="243" 
 />
    </font>
</defs>
</svg>
